<svg xmlns="http://www.w3.org/2000/svg" fill="none" viewBox="0 0 1200 1200"><path fill="#D6D6D6" d="M584.7 1107.34c138.16 0 250.16-13.43 250.16-29.99s-112-29.99-250.16-29.99-250.16 13.43-250.16 29.99 112 29.99 250.16 29.99"/><path fill="#F3B443" d="M762.865 660.88 423.82 766.168c-14.702 4.56-28.494-9.231-23.934-23.931l105.3-339.007z"/><path stroke="#000" d="m400.364 742.385 105.054-338.216 256.508 256.479L423.672 765.69c-14.318 4.441-27.749-8.989-23.308-23.305Z"/><path fill="#FDD385" stroke="#000" d="M686.624 479.408c36.158 36.155 63.874 73.876 79.46 105.623 7.795 15.875 12.543 30.231 13.813 42.134 1.27 11.909-.949 21.279-6.976 27.305-6.027 6.027-15.398 8.245-27.308 6.975-11.904-1.269-26.262-6.017-42.139-13.811-31.75-15.585-69.476-43.297-105.634-79.452s-63.874-73.875-79.46-105.622c-7.795-15.875-12.543-30.231-13.813-42.134-1.27-11.909.949-21.279 6.976-27.305 6.027-6.027 15.398-8.245 27.308-6.975 11.904 1.269 26.262 6.017 42.139 13.811 31.75 15.585 69.475 43.297 105.634 79.451Z"/><path fill="#573F15" d="M761.379 642.918c-9.675 9.663-31.734 6.967-60.561-7.4-30.303-15.111-64.733-41.172-96.944-73.38-32.212-32.197-58.265-66.623-73.377-96.934-14.369-28.812-17.077-50.88-7.412-60.543 9.664-9.663 31.734-6.956 60.561 7.411 30.303 15.111 64.733 41.161 96.944 73.369 32.212 32.208 58.265 66.634 73.377 96.933 14.369 28.813 17.077 50.88 7.412 60.544"/><path fill="#3B2A0C" d="M700.818 635.518c28.827 14.367 50.885 17.063 60.561 7.4 9.664-9.664 6.957-31.731-7.412-60.544-6.999-14.031-16.344-28.949-27.561-44.12 32.506 91.813-58.371 62.427-106.044 22.519-47.584-39.833-88.547-79.828-102.525-132.551 1.336 10.241 5.584 22.794 12.66 36.982 15.112 30.311 41.165 64.737 73.376 96.934 32.212 32.208 66.642 58.269 96.945 73.38"/><path fill="#CFF1EA" d="m596.261 446.144-16.055-16.054c25.498-25.496 40.067-58.258 43.307-97.366 2.463-29.756-2.907-52.212-2.963-52.434l22.048-5.447c.255 1.032 6.236 25.651 3.606 58.912-3.495 44.346-20.772 83.21-49.954 112.389z"/><path fill="#113D38" d="m723.909 589.83-16.056-16.054c31.435-31.431 75.918-47.252 128.634-45.732 39.135 1.132 68.906 11.295 70.159 11.727l-7.423 21.457 3.717-10.728-3.706 10.728c-.277-.1-28.239-9.574-64.023-10.506-46.691-1.221-84.128 11.937-111.302 39.108"/><path fill="#59B8AA" d="M651 420.138c8.233-13.68 19.051-17.252 26.952-19.859 6.69-2.208 10.718-3.539 14.613-9.996 3.883-6.458 3.173-10.651 1.986-17.597-1.398-8.198-3.318-19.426 4.915-33.106s19.052-17.252 26.952-19.859c6.691-2.208 10.719-3.539 14.613-10.008 3.884-6.468 3.174-10.65 1.987-17.596-1.399-8.199-3.318-19.437 4.915-33.117l19.462 11.705c-3.883 6.468-3.173 10.651-1.986 17.596 1.398 8.199 3.318 19.438-4.915 33.117-8.234 13.68-19.052 17.252-26.952 19.86-6.691 2.207-10.719 3.539-14.614 10.007-3.883 6.457-3.173 10.651-1.986 17.585 1.398 8.199 3.318 19.427-4.915 33.106s-19.052 17.252-26.952 19.86c-6.691 2.207-10.719 3.539-14.613 9.996L651 420.127z"/><path fill="#A4DED2" d="M756.129 480.75 745 460.957c14.347-8.054 25.875-5.747 34.297-4.049 7.301 1.464 11.695 2.352 18.697-1.587 7.001-3.927 8.532-8.154 11.073-15.144 2.929-8.077 6.946-19.127 21.293-27.193s25.876-5.747 34.297-4.049c7.301 1.464 11.706 2.352 18.697-1.587 7.001-3.938 8.533-8.154 11.073-15.155 2.93-8.077 6.946-19.138 21.293-27.193l11.13 19.793c-7.002 3.938-8.533 8.154-11.074 15.155-2.929 8.077-6.946 19.138-21.293 27.193s-25.876 5.747-34.297 4.049c-7.301-1.464-11.706-2.352-18.697 1.587-7.001 3.927-8.533 8.155-11.073 15.144-2.93 8.077-6.946 19.127-21.293 27.193-14.336 8.055-25.876 5.736-34.298 4.05-7.301-1.465-11.695-2.353-18.696 1.586"/><path fill="#B2E3D9" d="M882.867 485.585c6.269 0 11.351-5.081 11.351-11.35s-5.082-11.349-11.351-11.349-11.351 5.081-11.351 11.349c0 6.269 5.082 11.35 11.351 11.35"/><path fill="#FCD031" d="M832.292 618.033c6.269 0 11.351-5.082 11.351-11.35s-5.082-11.35-11.351-11.35-11.351 5.082-11.351 11.35 5.082 11.35 11.351 11.35"/><path fill="#59B8AA" d="M936.649 521.709c6.269 0 11.351-5.081 11.351-11.349 0-6.269-5.082-11.35-11.351-11.35s-11.351 5.081-11.351 11.35 5.082 11.349 11.351 11.349"/><path fill="#F3B443" d="M844.331 365.187c6.269 0 11.351-5.082 11.351-11.35 0-6.269-5.082-11.35-11.351-11.35s-11.351 5.081-11.351 11.35 5.082 11.35 11.351 11.35M677.351 281.7c6.269 0 11.351-5.082 11.351-11.35 0-6.269-5.082-11.35-11.351-11.35S666 264.081 666 270.35s5.082 11.35 11.351 11.35"/><path fill="#113D38" d="M763.351 387.7c6.269 0 11.351-5.082 11.351-11.35 0-6.269-5.082-11.35-11.351-11.35S752 370.081 752 376.35s5.082 11.35 11.351 11.35"/><path fill="#A4DED2" d="M670.127 520.101c6.269 0 11.351-5.082 11.351-11.35 0-6.269-5.082-11.35-11.351-11.35s-11.351 5.081-11.351 11.35 5.082 11.35 11.351 11.35"/><path fill="#113D38" d="M551.313 335.486c6.269 0 11.351-5.081 11.351-11.35s-5.082-11.349-11.351-11.349-11.351 5.081-11.351 11.349c0 6.269 5.082 11.35 11.351 11.35"/><g fill="#FDD385" opacity=".7"><path d="m482.594 478-27.7 89.18c19.612 60.828 67.056 127.086 145.546 143.267l61.656-19.147c-68.985-25.768-171.478-99.635-179.502-213.3M436.681 625.816l-18.765 60.412c12.034 24.563 31.13 48.247 57.778 62.958l55.268-17.163c-45.244-17.819-82.402-54.677-94.281-106.207"/></g><g fill="#7C5C22" opacity=".6"><path d="m760 661-1.422.441c.958-.24 1.422-.441 1.422-.441M709.05 650.668c29.545 13.921 45.017 11.906 49.528 10.773L424.82 764.985c-14.702 4.559-28.494-9.231-23.933-23.931l5.558-17.895.213-.478c.101.74.188 1.488.275 2.237.871 7.473 1.744 14.96 16.368 14.96 14.287 0 127.581-14.279 285.749-89.21"/></g><path fill="#59B8AA" stroke="#000" stroke-miterlimit="10" d="M866.69 852.38c14.188 0 25.69-11.502 25.69-25.69S880.878 801 866.69 801 841 812.502 841 826.69s11.502 25.69 25.69 25.69Z"/><path fill="#000" d="M852.311 827.917c-3.561-5.087-5.117-11.551-4.578-17.775-4.174 4.488-6.733 10.473-6.733 17.087 0 13.884 11.267 25.151 25.151 25.151 9.501 0 17.745-5.282 22.01-13.047-12.718 3.441-28.623-1.077-35.85-11.416"/><path fill="#fff" d="M877.418 824.401c5.454 0 9.875-4.422 9.875-9.875s-4.421-9.875-9.875-9.875-9.875 4.421-9.875 9.875 4.421 9.875 9.875 9.875"/><path fill="#59B8AA" stroke="#000" stroke-miterlimit="10" d="M358.29 594.58c7.34 0 13.29-5.95 13.29-13.29S365.63 568 358.29 568 345 573.95 345 581.29s5.95 13.29 13.29 13.29Z"/><path fill="#000" d="M350.852 581.925c-1.843-2.632-2.648-5.976-2.369-9.196a12.93 12.93 0 0 0-3.483 8.84c0 7.183 5.828 13.011 13.011 13.011 4.915 0 9.18-2.732 11.386-6.75-6.579 1.781-14.807-.557-18.545-5.905"/><path fill="#fff" d="M363.84 580.106a5.109 5.109 0 1 0 0-10.216 5.109 5.109 0 0 0 0 10.216"/><path fill="#F3B443" stroke="#000" stroke-miterlimit="10" d="M484.53 248.06c6.368 0 11.53-5.162 11.53-11.53S490.898 225 484.53 225 473 230.162 473 236.53s5.162 11.53 11.53 11.53Z"/><path fill="#000" d="M478.077 237.081c-1.599-2.284-2.297-5.185-2.055-7.978a11.2 11.2 0 0 0-3.022 7.669c0 6.231 5.057 11.288 11.288 11.288 4.264 0 7.964-2.371 9.878-5.856-5.708 1.545-12.846-.483-16.089-5.123"/><path fill="#fff" d="M489.345 235.503a4.433 4.433 0 1 0-.001-8.865 4.433 4.433 0 0 0 .001 8.865"/><path stroke="#000" stroke-miterlimit="10" d="M832.41 252v22.82M843.83 263.41H821M212.41 677v22.82M223.82 688.41H201"/><path fill="#F3B443" stroke="#000" stroke-miterlimit="10" d="M236.88 439.76c6.561 0 11.88-5.319 11.88-11.88S243.441 416 236.88 416 225 421.319 225 427.88s5.319 11.88 11.88 11.88Z"/><path fill="#fff" stroke="#000" stroke-miterlimit="10" d="M291 406.81s52.54-6.43 52.54 59.35c0 0 0-60.58 55.49-59.52 0 0-47.74 2-55.49-61.64 0 0 1.48 60.58-52.54 61.81ZM824 680.8s16.82-2.06 16.82 19c0 0 0-19.4 17.77-19.06 0 0-15.29.64-17.77-19.74 0 0 .47 19.4-16.82 19.79zM412 868.71s35.45-4.34 35.45 40.04c0 0 0-40.87 37.44-40.16 0 0-32.21 1.35-37.44-41.59 0 0 1 40.87-35.45 41.7z"/></svg>