<svg width="390" height="390" viewBox="0 0 390 390" fill="none" xmlns="http://www.w3.org/2000/svg">
<g clip-path="url(#clip0_4152_23453)">
<path d="M258.844 214.265L128.537 254.681C122.887 256.431 117.586 251.137 119.339 245.494L159.809 115.364L258.844 214.265Z" fill="#F3B443"/>
<mask id="mask0_4152_23453" style="mask-type:alpha" maskUnits="userSpaceOnUse" x="118" y="115" width="141" height="141">
<path d="M258.844 214.265L128.537 254.681C122.887 256.431 117.586 251.137 119.339 245.494L159.809 115.364L258.844 214.265Z" fill="#F3B443"/>
</mask>
<g mask="url(#mask0_4152_23453)">
<path d="M127.954 245.043C121.77 245.043 121.983 241.565 121.557 238.442L119.851 242.275L116.439 249.302L118.572 260.8L253.757 217.787L278.491 208.631L266.124 196.28C190.855 237.801 134.265 245.043 127.954 245.043Z" fill="#7C5C22"/>
<path opacity="0.6" d="M203.365 234.843C149.845 229.733 129.872 166.348 137.691 143.919L151.124 129.439C144.471 185.484 197.252 220.293 225.966 228.455L203.365 234.843Z" fill="#FDD385"/>
<path opacity="0.6" d="M171.239 254.412C130.726 254.412 115.466 209.099 120.918 193.512L132.062 179.245C127.424 218.194 155.886 243.127 187.017 246.321L171.239 254.412Z" fill="#FDD385"/>
</g>
<path d="M119.494 245.543L159.885 115.669L258.539 214.19L128.489 254.525C122.963 256.237 117.78 251.06 119.494 245.543C119.494 245.543 119.494 245.543 119.494 245.543Z" stroke="black" stroke-width="0.325"/>
<path d="M229.564 144.585C243.462 158.465 254.117 172.947 260.109 185.136C263.105 191.232 264.932 196.746 265.42 201.32C265.909 205.896 265.056 209.503 262.731 211.825C260.406 214.148 256.793 214.999 252.211 214.511C247.631 214.023 242.11 212.199 236.006 209.207C223.8 203.223 209.298 192.583 195.399 178.703C181.501 164.823 170.847 150.341 164.854 138.151C161.858 132.056 160.031 126.542 159.543 121.968C159.054 117.392 159.907 113.785 162.232 111.462C164.557 109.14 168.17 108.289 172.752 108.777C177.332 109.264 182.853 111.088 188.957 114.081C201.163 120.065 215.665 130.705 229.564 144.585Z" fill="#FDD385" stroke="black" stroke-width="0.325"/>
<path d="M258.274 207.37C254.555 211.079 246.077 210.044 234.998 204.529C223.352 198.729 210.119 188.725 197.739 176.362C185.359 164.003 175.346 150.788 169.538 139.153C164.015 128.093 162.974 119.623 166.689 115.913C170.403 112.204 178.885 113.243 189.965 118.758C201.611 124.558 214.844 134.558 227.224 146.921C239.604 159.284 249.617 172.499 255.425 184.13C260.948 195.19 261.988 203.661 258.274 207.37Z" fill="#573F15"/>
<path d="M234.998 204.529C246.077 210.044 254.555 211.079 258.273 207.37C261.988 203.661 260.947 195.19 255.425 184.13C252.735 178.744 249.143 173.018 244.832 167.194C257.325 202.437 222.398 191.157 204.076 175.838C185.787 160.548 170.044 145.195 164.672 124.957C165.185 128.888 166.818 133.707 169.537 139.153C175.346 150.788 185.359 164.003 197.739 176.362C210.118 188.725 223.351 198.729 234.998 204.529Z" fill="#3B2A0C"/>
<path d="M194.813 131.837L188.643 125.674C198.442 115.888 204.042 103.312 205.287 88.2995C206.234 76.8775 204.17 68.2578 204.148 68.1726L212.622 66.0815C212.72 66.4776 215.019 75.9278 214.008 88.6955C212.665 105.718 206.025 120.636 194.809 131.837H194.813Z" fill="#CFF1EA"/>
<path d="M243.872 186.992L237.701 180.83C249.783 168.764 266.879 162.691 287.14 163.275C302.181 163.709 313.622 167.61 314.104 167.776L311.251 176.013L312.68 171.895L311.256 176.013C311.149 175.975 300.402 172.338 286.649 171.98C268.704 171.511 254.316 176.562 243.872 186.992Z" fill="#113D38"/>
<path d="M215.852 121.854C219.016 116.603 223.174 115.232 226.21 114.231C228.782 113.384 230.33 112.873 231.826 110.394C233.319 107.915 233.046 106.306 232.59 103.64C232.052 100.492 231.315 96.1825 234.479 90.9314C237.643 85.6804 241.801 84.309 244.838 83.3082C247.409 82.4607 248.957 81.9497 250.454 79.4668C251.946 76.984 251.674 75.3784 251.217 72.7125C250.68 69.5652 249.942 65.2511 253.106 60.0001L260.586 64.4931C259.094 66.9759 259.367 68.5815 259.823 71.2474C260.36 74.3947 261.098 78.7088 257.934 83.9598C254.77 89.2109 250.612 90.5822 247.575 91.583C245.004 92.4305 243.456 92.9416 241.959 95.4244C240.466 97.903 240.739 99.5128 241.196 102.175C241.733 105.322 242.471 109.632 239.306 114.883C236.142 120.134 231.984 121.505 228.948 122.506C226.376 123.353 224.828 123.864 223.332 126.343L215.852 121.85V121.854Z" fill="#59B8AA"/>
<path d="M256.256 145.121L251.979 137.523C257.493 134.431 261.923 135.317 265.16 135.969C267.966 136.531 269.655 136.871 272.346 135.36C275.037 133.852 275.625 132.229 276.602 129.546C277.728 126.446 279.271 122.204 284.785 119.108C290.3 116.012 294.73 116.902 297.967 117.554C300.773 118.116 302.466 118.457 305.153 116.945C307.844 115.433 308.432 113.815 309.409 111.127C310.535 108.027 312.078 103.781 317.592 100.689L321.87 108.287C319.179 109.799 318.59 111.417 317.614 114.104C316.488 117.204 314.944 121.45 309.43 124.542C303.916 127.634 299.485 126.748 296.249 126.097C293.442 125.535 291.749 125.194 289.063 126.706C286.372 128.213 285.783 129.836 284.807 132.519C283.681 135.619 282.137 139.861 276.623 142.957C271.113 146.049 266.678 145.159 263.442 144.512C260.635 143.949 258.947 143.609 256.256 145.121Z" fill="#A4DED2"/>
<path d="M304.964 146.977C307.374 146.977 309.327 145.026 309.327 142.62C309.327 140.214 307.374 138.263 304.964 138.263C302.555 138.263 300.602 140.214 300.602 142.62C300.602 145.026 302.555 146.977 304.964 146.977Z" fill="#B2E3D9"/>
<path d="M285.527 197.818C287.936 197.818 289.889 195.867 289.889 193.461C289.889 191.055 287.936 189.104 285.527 189.104C283.117 189.104 281.164 191.055 281.164 193.461C281.164 195.867 283.117 197.818 285.527 197.818Z" fill="#FCD031"/>
<path d="M325.634 160.843C328.043 160.843 329.997 158.893 329.997 156.486C329.997 154.08 328.043 152.13 325.634 152.13C323.225 152.13 321.271 154.08 321.271 156.486C321.271 158.893 323.225 160.843 325.634 160.843Z" fill="#59B8AA"/>
<path d="M290.154 100.761C292.563 100.761 294.516 98.8101 294.516 96.4039C294.516 93.9978 292.563 92.0472 290.154 92.0472C287.744 92.0472 285.791 93.9978 285.791 96.4039C285.791 98.8101 287.744 100.761 290.154 100.761Z" fill="#F3B443"/>
<path d="M225.978 68.7135C228.387 68.7135 230.34 66.7629 230.34 64.3568C230.34 61.9506 228.387 60.0001 225.978 60.0001C223.568 60.0001 221.615 61.9506 221.615 64.3568C221.615 66.7629 223.568 68.7135 225.978 68.7135Z" fill="#F3B443"/>
<path d="M259.031 109.402C261.44 109.402 263.393 107.452 263.393 105.046C263.393 102.64 261.44 100.689 259.031 100.689C256.621 100.689 254.668 102.64 254.668 105.046C254.668 107.452 256.621 109.402 259.031 109.402Z" fill="#113D38"/>
<path d="M223.201 160.226C225.61 160.226 227.563 158.275 227.563 155.869C227.563 153.463 225.61 151.512 223.201 151.512C220.791 151.512 218.838 153.463 218.838 155.869C218.838 158.275 220.791 160.226 223.201 160.226Z" fill="#A4DED2"/>
<path d="M177.536 89.3599C179.946 89.3599 181.899 87.4094 181.899 85.0032C181.899 82.5971 179.946 80.6465 177.536 80.6465C175.127 80.6465 173.174 82.5971 173.174 85.0032C173.174 87.4094 175.127 89.3599 177.536 89.3599Z" fill="#113D38"/>
</g>
<path d="M298.681 288.05C304.132 288.05 308.552 283.631 308.552 278.18C308.552 272.728 304.132 268.309 298.681 268.309C293.23 268.309 288.811 272.728 288.811 278.18C288.811 283.631 293.23 288.05 298.681 288.05Z" fill="#59B8AA" stroke="black" stroke-width="0.325" stroke-miterlimit="10"/>
<path d="M293.157 278.651C291.788 276.697 291.191 274.213 291.397 271.822C289.794 273.546 288.811 275.846 288.811 278.387C288.811 283.722 293.139 288.05 298.474 288.05C302.125 288.05 305.292 286.021 306.931 283.038C302.044 284.36 295.933 282.624 293.157 278.651Z" fill="black"/>
<path d="M302.804 277.3C304.899 277.3 306.598 275.602 306.598 273.506C306.598 271.411 304.899 269.712 302.804 269.712C300.708 269.712 299.01 271.411 299.01 273.506C299.01 275.602 300.708 277.3 302.804 277.3Z" fill="white"/>
<path d="M103.345 188.999C106.165 188.999 108.451 186.713 108.451 183.893C108.451 181.073 106.165 178.787 103.345 178.787C100.524 178.787 98.2383 181.073 98.2383 183.893C98.2383 186.713 100.524 188.999 103.345 188.999Z" fill="#59B8AA" stroke="black" stroke-width="0.325" stroke-miterlimit="10"/>
<path d="M100.487 184.137C99.7788 183.126 99.4695 181.841 99.5766 180.604C98.7468 181.496 98.2383 182.685 98.2383 184C98.2383 186.76 100.478 188.999 103.237 188.999C105.126 188.999 106.765 187.949 107.612 186.406C105.084 187.09 101.923 186.192 100.487 184.137Z" fill="black"/>
<path d="M105.476 183.438C106.56 183.438 107.439 182.559 107.439 181.475C107.439 180.391 106.56 179.512 105.476 179.512C104.392 179.512 103.514 180.391 103.514 181.475C103.514 182.559 104.392 183.438 105.476 183.438Z" fill="white"/>
<path d="M151.85 55.8601C154.297 55.8601 156.28 53.8767 156.28 51.43C156.28 48.9834 154.297 47 151.85 47C149.403 47 147.42 48.9834 147.42 51.43C147.42 53.8767 149.403 55.8601 151.85 55.8601Z" fill="#F3B443" stroke="black" stroke-width="0.325" stroke-miterlimit="10"/>
<path d="M149.37 51.6416C148.756 50.7644 148.488 49.6498 148.581 48.5764C147.861 49.3505 147.42 50.3825 147.42 51.5229C147.42 53.9172 149.363 55.8601 151.757 55.8601C153.395 55.8601 154.817 54.9493 155.552 53.6102C153.359 54.2036 150.617 53.4245 149.37 51.6416Z" fill="black"/>
<path d="M153.699 51.0352C154.639 51.0352 155.402 50.2728 155.402 49.3324C155.402 48.3919 154.639 47.6295 153.699 47.6295C152.758 47.6295 151.996 48.3919 151.996 49.3324C151.996 50.2728 152.758 51.0352 153.699 51.0352Z" fill="white"/>
<path d="M285.512 57.3738V66.1417" stroke="black" stroke-width="0.325" stroke-miterlimit="10"/>
<path d="M289.899 61.7577H281.127" stroke="black" stroke-width="0.325" stroke-miterlimit="10"/>
<path d="M47.2969 220.666V229.434" stroke="black" stroke-width="0.325" stroke-miterlimit="10"/>
<path d="M51.68 225.05H42.9121" stroke="black" stroke-width="0.325" stroke-miterlimit="10"/>
<path d="M56.6954 129.515C59.2163 129.515 61.2598 127.471 61.2598 124.95C61.2598 122.429 59.2163 120.386 56.6954 120.386C54.1745 120.386 52.1309 122.429 52.1309 124.95C52.1309 127.471 54.1745 129.515 56.6954 129.515Z" fill="#F3B443" stroke="black" stroke-width="0.325" stroke-miterlimit="10"/>
<path d="M77.4922 116.855C77.4922 116.855 97.679 114.384 97.679 139.658C97.679 139.658 97.679 116.382 118.999 116.789C118.999 116.789 100.657 117.558 97.679 93.1061C97.679 93.1061 98.2476 116.382 77.4922 116.855Z" fill="white" stroke="black" stroke-width="0.325" stroke-miterlimit="10"/>
<path d="M282.279 222.126C282.279 222.126 288.742 221.335 288.742 229.427C288.742 229.427 288.742 221.973 295.569 222.103C295.569 222.103 289.695 222.349 288.742 214.519C288.742 214.519 288.922 221.973 282.279 222.123V222.126Z" fill="white" stroke="black" stroke-width="0.325" stroke-miterlimit="10"/>
<path d="M123.982 294.325C123.982 294.325 137.603 292.657 137.603 309.709C137.603 309.709 137.603 294.006 151.988 294.279C151.988 294.279 139.612 294.797 137.603 278.299C137.603 278.299 137.987 294.002 123.982 294.321V294.325Z" fill="white" stroke="black" stroke-width="0.325" stroke-miterlimit="10"/>
<defs>
<clipPath id="clip0_4152_23453">
<rect width="211" height="195" fill="white" transform="translate(119 60)"/>
</clipPath>
</defs>
</svg>
