<svg xmlns="http://www.w3.org/2000/svg" fill="none" viewBox="0 0 390 390"><path fill="#E0F8F3" fill-rule="evenodd" d="M187.013 74.742c24.749 2.48 37.278 28.487 56.285 44.524 22.401 18.901 56.897 27.632 63.161 56.257 6.91 31.577-8.834 64.843-31.647 87.755-22.861 22.96-55.465 34.408-87.799 32.205-30.44-2.074-59.762-17.969-76.594-43.404-14.651-22.141-4.204-50.048-2.788-76.556 1.287-24.083-4.371-49.845 10.555-68.794 16.27-20.656 42.656-34.61 68.827-31.987" clip-rule="evenodd"/><path fill="#D6D6D6" d="M188.057 356.343c44.902 0 81.302-4.364 81.302-9.747s-36.4-9.746-81.302-9.746-81.302 4.363-81.302 9.746 36.4 9.747 81.302 9.747"/><path stroke="#000" stroke-miterlimit="10" stroke-width=".325" d="M251.097 94.318v7.417M254.806 98.025h-7.416M76.353 241.844v6.753M79.73 245.219h-6.753"/><path fill="#F3B443" stroke="#000" stroke-miterlimit="10" stroke-width=".325" d="M89.662 91.576a3.861 3.861 0 1 0 0-7.722 3.861 3.861 0 0 0 0 7.722Z"/><path fill="#59B8AA" stroke="#000" stroke-miterlimit="10" stroke-width=".325" d="M93.602 274.955a6.5 6.5 0 1 0 0-13 6.5 6.5 0 0 0 0 13Z"/><path fill="#000" d="M89.964 268.767c-.901-1.287-1.295-2.923-1.159-4.497a6.32 6.32 0 0 0-1.703 4.323 6.365 6.365 0 0 0 6.363 6.363 6.35 6.35 0 0 0 5.569-3.301c-3.218.871-7.242-.272-9.07-2.888"/><path fill="#fff" d="M96.315 267.876a2.499 2.499 0 1 0 0-4.998 2.499 2.499 0 0 0 0 4.998"/><path fill="#F3B443" stroke="#000" stroke-miterlimit="10" stroke-width=".325" d="M115.7 115.378a5.525 5.525 0 1 0 0-11.05 5.525 5.525 0 0 0 0 11.05Z"/><path fill="#000" d="M112.607 110.116c-.765-1.094-1.1-2.484-.984-3.823a5.37 5.37 0 0 0-1.448 3.675 5.41 5.41 0 0 0 5.409 5.409 5.4 5.4 0 0 0 4.733-2.806c-2.735.74-6.155-.232-7.71-2.455"/><path fill="#fff" d="M118.007 109.361a2.124 2.124 0 1 0-.002-4.248 2.124 2.124 0 0 0 .002 4.248"/><path fill="#59B8AA" stroke="#000" stroke-miterlimit="10" stroke-width=".325" d="M245.701 298.355a3.9 3.9 0 1 0 0-7.8 3.9 3.9 0 0 0 0 7.8Z"/><path fill="#000" d="M243.518 294.64c-.541-.772-.777-1.754-.695-2.699a3.8 3.8 0 0 0-1.022 2.594 3.82 3.82 0 0 0 3.818 3.819 3.81 3.81 0 0 0 3.341-1.981c-1.93.522-4.345-.164-5.442-1.733"/><path fill="#fff" d="M247.329 294.108a1.5 1.5 0 1 0-.001-2.999 1.5 1.5 0 0 0 .001 2.999"/><path fill="#000" d="M121.458 144.158h9.841l4.83-2.554 30.894 7.572v46.352l-46.358-6.923z"/><path fill="#FFF1E6" stroke="#000" stroke-miterlimit="10" stroke-width=".65" d="m115.382 196.392 39.272 13.546 14.365-5.843-1.982-54.314a.309.309 0 0 0-.5-.234l-5.064 3.997-7.423 2.21-32.598-11.596-6.077 52.234z"/><path stroke="#000" stroke-linecap="round" stroke-linejoin="round" stroke-width=".65" d="m154.057 155.754.604 54.184 8.314-8.079-1.495-48.308M169.025 204.093l-6.051-2.236M128.837 150.365s.299-20.169 9.633-18.661 6.324 24.986 6.324 24.986"/><path stroke="#000" stroke-linecap="round" stroke-linejoin="round" stroke-width=".65" d="M139.763 147.515s.169-16.016 9.503-14.664 6.181 18.401 6.181 18.401"/><path fill="#000" d="M127.802 149.384c.526.02 1.027.247 1.449.559l-.162-.247c.63.332 1.228.826 1.456 1.502s-.026 1.547-.683 1.826c-.318.13-.676.117-1.014.078-.793-.097-1.605-.344-2.164-.923-.559-.578-.754-1.547-.273-2.19.318-.416.864-.624 1.391-.605M143.934 155.033c.527.019 1.027.247 1.45.559l-.163-.247c.631.331 1.229.825 1.456 1.501.228.676-.026 1.547-.682 1.827-.319.13-.676.117-1.014.078-.793-.098-1.606-.345-2.165-.923s-.754-1.547-.273-2.191c.319-.416.865-.624 1.391-.604"/><path fill="#A4DED2" d="M125.975 166.4c-1.449.26-2.918.761-3.952 1.814-2.008 2.054-1.638 5.603.085 7.897s4.433 3.601 7.085 4.693c4.745 1.957 9.776 3.517 14.911 3.393 1.319-.032 2.736-.221 3.692-1.131.793-.754 1.124-1.885 1.176-2.983.156-3.387-2.073-6.494-4.81-8.502-4.901-3.614-12.044-6.273-18.187-5.181"/><path fill="#BAE8E0" d="m235.397 157.385 9.757-41.912c.279-1.196 1.436-2.047 2.775-2.047h56.57c1.573 0 2.756 1.319 2.437 2.723l-9.23 41.236h-62.315"/><path stroke="#000" stroke-miterlimit="10" stroke-width=".65" d="m235.397 157.385 9.757-41.912c.279-1.196 1.436-2.047 2.775-2.047h56.57c1.573 0 2.756 1.319 2.437 2.723l-9.23 41.236h-62.315"/><path fill="#BAE8E0" stroke="#000" stroke-miterlimit="10" stroke-width=".65" d="M214.935 156.734h82.777v5.597h-82.777a2.06 2.06 0 0 1-2.061-2.061v-1.475c0-1.138.923-2.061 2.061-2.061Z"/><path fill="#219A89" stroke="#000" stroke-miterlimit="10" stroke-width=".65" d="M270.001 156.734h27.716v5.597h-27.716a2.06 2.06 0 0 1-2.061-2.061v-1.475c0-1.138.923-2.061 2.061-2.061Z"/><path fill="#F3B443" stroke="#000" stroke-miterlimit="10" stroke-width=".65" d="m296.061 154.61 8.951-39.546h-57.915l-9.029 39.319z"/><g fill="#fff" opacity=".8"><path d="m288.975 154.27-38.252-38.883 15.528-.026 31.603 29.653-1.989 9.256zM272.452 154.27 244.6 127.367l-.767 3.302 24.265 23.601z"/></g><path fill="#B8BCBA" stroke="#000" stroke-miterlimit="10" stroke-width=".65" d="m276.046 232.982-80.31 3.156a3.36 3.36 0 0 0-3.226 3.489l1.317 33.521a3.36 3.36 0 0 0 3.49 3.226l80.31-3.155a3.36 3.36 0 0 0 3.226-3.49l-1.317-33.521a3.36 3.36 0 0 0-3.49-3.226Z"/><path fill="#113D38" d="m195.099 236.163 81.584-3.206a2.727 2.727 0 0 1 2.828 2.615l.157 3.981-87.027 3.419-.156-3.981a2.727 2.727 0 0 1 2.614-2.828"/><path fill="#59B8AA" d="M264.524 268.102c6.124 0 11.089-4.965 11.089-11.089s-4.965-11.089-11.089-11.089-11.089 4.965-11.089 11.089 4.964 11.089 11.089 11.089"/><path fill="#113D38" d="m269.202 253.545-1.486-1.418-6.071 6.363 1.487 1.418zM267.726 252.123s.981-.916 2.054-.663c0 0 .325 1.144-.566 2.08M267.642 255.189l1.456 6.084-.709.741-2.554-4.933"/><path fill="#113D38" d="m266.158 253.775-6.149-1.17-.708.741 5.044 2.321M263.142 259.904l.215 2.028-.527.552-.942-2.756.513-.533M261.654 258.486l-2.028-.117-.533.553 2.795.806.513-.533"/><path stroke="#000" stroke-miterlimit="10" stroke-width=".65" d="m249.639 274.316-1.586-40.242"/><path fill="#59B8AA" d="m236.376 247.02-38.366 1.507.129 3.287 38.366-1.508zM219.364 252.8l-21.154.831.129 3.286 21.154-.831z"/><path fill="#F8F9F8" stroke="#000" stroke-miterlimit="10" stroke-width=".65" d="m277.065 219.985-95.332 17.479a3.36 3.36 0 0 0-2.699 3.912l7.43 40.521a3.36 3.36 0 0 0 3.911 2.7l95.332-17.48a3.36 3.36 0 0 0 2.7-3.911l-7.43-40.522a3.36 3.36 0 0 0-3.912-2.699Z"/><path fill="#F3B443" d="m179.865 245.92-.813-4.446a3.463 3.463 0 0 1 2.782-4.03l95.128-17.44a3.464 3.464 0 0 1 4.03 2.782l.754 4.121"/><path stroke="#000" stroke-miterlimit="10" stroke-width=".65" d="m179.865 245.92-.813-4.446a3.463 3.463 0 0 1 2.782-4.03l95.128-17.44a3.464 3.464 0 0 1 4.03 2.782l.754 4.121"/><path fill="#88CCC0" d="M266.913 263.561c7.291 0 13.202-5.91 13.202-13.201s-5.911-13.202-13.202-13.202-13.201 5.911-13.201 13.202 5.91 13.201 13.201 13.201"/><path fill="#113D38" d="M269.857 244.061s1.008-1.248 2.308-1.125c0 0 .578 1.294-.319 2.548zM271.837 245.483l-1.99-1.42-1.57 2.201-7.429-.338-.708.995 6.324 1.883-2.695 3.778.001.001-2.408.201-.527.734 3.426.488 1.573 3.081.526-.741-.591-2.347-.006-.004z"/><path fill="#113D38" d="m273.016 254.604-2.743-6.916-1.813 2.535 3.841 5.375z"/><path stroke="#000" stroke-miterlimit="10" stroke-width=".65" d="m252.29 273.247-.176-.956"/><path stroke="#000" stroke-dasharray="3.25 3.25" stroke-miterlimit="10" stroke-width=".65" d="m251.756 270.322-7.754-42.263"/><path stroke="#000" stroke-miterlimit="10" stroke-width=".65" d="m243.826 227.071-.176-.956"/><path fill="#A2DDD2" d="m232.072 243.326-44.939 8.24.706 3.849 44.939-8.24zM241.584 258.278l-51.343 9.828-.122-.639 51.343-9.828zM188.231 257.548l24.781-4.544.706 3.849-24.781 4.544z"/><path fill="#F3B443" stroke="#000" stroke-miterlimit="10" stroke-width=".325" d="m214.146 59.913 4.01 5.49s-.49 7.692-12.874 15.342c-12.383 7.653-18.874 4.936-18.874 4.936l-4.365-5.245s16.612-20.819 32.103-20.523Z"/><path fill="#FFDB7F" stroke="#000" stroke-miterlimit="10" stroke-width=".325" d="M201.782 76.274c8.898-5.53 14.489-12.623 12.488-15.842s-10.836-1.347-19.734 4.183c-8.897 5.53-14.488 12.622-12.487 15.842s10.836 1.346 19.733-4.183Z"/><path fill="#FFDB7F" stroke="#000" stroke-miterlimit="10" stroke-width=".325" d="M199.99 73.972c7.043-4.377 11.663-9.679 10.319-11.841-1.344-2.163-8.143-.367-15.186 4.01s-11.663 9.679-10.319 11.841 8.143.367 15.186-4.01Z"/><path fill="#000" d="m199.492 83.804-3.373-4.511s-8.774 3.752-13.148 2.258l3.438 4.13s4.82 1.699 13.083-1.877" opacity=".49"/><path fill="#F3B443" stroke="#000" stroke-miterlimit="10" stroke-width=".325" d="m299.119 187.656-2.07 2.434s-.036 3.624 5.505 7.641c5.542 4.017 8.678 2.971 8.678 2.971l2.229-2.308s-7.068-10.338-14.342-10.734z"/><path fill="#FFDB7F" stroke="#000" stroke-miterlimit="10" stroke-width=".325" d="M313.449 198.365c1.05-1.44-1.326-4.96-5.306-7.861s-8.057-4.085-9.107-2.645 1.325 4.96 5.305 7.861 8.058 4.086 9.108 2.645Z"/><path fill="#FFDB7F" stroke="#000" stroke-miterlimit="10" stroke-width=".325" d="M312.243 197.107c.705-.967-1.277-3.613-4.427-5.909-3.151-2.297-6.276-3.374-6.981-2.407s1.277 3.614 4.427 5.91 6.276 3.374 6.981 2.406Z"/><path fill="#000" d="m305.162 199.368 1.739-1.999s3.984 2.064 6.087 1.515l-1.755 1.816s-2.32.631-6.068-1.332z" opacity=".5"/><path fill="#F3B443" stroke="#000" stroke-miterlimit="10" stroke-width=".325" d="m89.698 207.426 2.63 2.359s.578 3.962-4.892 9.188-9.064 4.544-9.064 4.544l-2.785-2.197s6.204-12.373 14.111-13.891z"/><path fill="#FFDB7F" stroke="#000" stroke-miterlimit="10" stroke-width=".325" d="M85.179 217.049c3.927-3.77 6.004-7.979 4.64-9.401-1.366-1.422-5.656.482-9.583 4.252s-6.005 7.979-4.64 9.401 5.655-.482 9.582-4.252Z"/><path fill="#FFDB7F" stroke="#000" stroke-miterlimit="10" stroke-width=".325" d="M84.018 216.068c3.109-2.985 4.887-6.178 3.97-7.132-.916-.955-4.178.691-7.287 3.676-3.11 2.984-4.887 6.177-3.971 7.132.916.954 4.18-.692 7.288-3.676Z"/><path fill="#000" d="m84.82 221.149-2.2-1.93s-4.056 2.853-6.441 2.564l2.194 1.729s2.635.345 6.447-2.363" opacity=".5"/><path fill="#fff" stroke="#000" stroke-miterlimit="10" stroke-width=".325" d="M125.125 75.75s6.1-.747 6.1 6.894c0 0 0-7.037 6.445-6.913 0 0-6.273-.387-6.445-7.157 0 0 .449 7.037-6.1 7.18zM207.025 201.639s7.3-.894 7.3 8.245c0 0 0-8.418 7.712-8.271 0 0-7.712-.147-7.712-8.564 0 0 1.352 8.59-7.3 8.59ZM123.175 282.39s15.161-1.856 15.161 17.124c0 0 0-17.481 16.013-17.176 0 0-13.777.579-16.013-17.787 0 0 .426 17.482-15.161 17.836z"/></svg>