<svg xmlns="http://www.w3.org/2000/svg" fill="none" viewBox="0 0 1200 1200"><path fill="#D6D6D6" d="M578.64 1096.14c138.16 0 250.16-13.43 250.16-29.99s-112-29.99-250.16-29.99c-138.159 0-250.16 13.43-250.16 29.99s112.001 29.99 250.16 29.99"/><path fill="#fff" stroke="#000" stroke-miterlimit="10" d="m387.78 470.02.38 384.66c.22 16.07 13.51 28.97 29.78 28.89l383.08-16.77c16.15-.08 32.49 1.89 32.69-14.07l4.68-376.72c.2-16.22-12.99-29.52-29.41-29.64l-379.76-3.34c-16.59-.12-41.67 10.6-41.45 26.99z"/><path fill="#E0E0E0" stroke="#000" stroke-miterlimit="10" d="m388.39 562.06-.46 292.85c1.39 17.58 16.29 31 33.93 30.55l121.57-8.17-122.46-318.21z"/><path fill="#217C6F" stroke="#000" stroke-miterlimit="10" d="m393.69 566.64-5.91-.24v-82.68c0-5.81-.77-12.52.94-18.05 2.06-6.67 7.13-10.81 12.77-14.44 3.21-2.07 6.67-3.74 10.29-4.96 1.84-.62 3.73-1.13 5.64-1.52.87-.18 1.88-.49 2.77-.47s.86-.21.78.62c-.07.68-.71 1.48-.89 2.22-.09.37-.17.75-.25 1.13l-.64 2.88-4.05 18.37c-1.87 8.49-3.75 16.99-5.62 25.48l-6.06 27.48c-1.79 8.12-3.58 16.24-5.38 24.36-1.19 5.38-2.37 10.76-3.56 16.14l-.81 3.67z"/><path fill="#fff" stroke="#000" stroke-miterlimit="10" d="m392.21 474.12 5.14 381.56c.22 16.07 13.51 28.97 29.78 28.89l383.08-16.77c16.15-.08 32.49 1.89 32.69-14.07l4.68-376.72c.2-16.22-12.99-29.52-29.41-29.64l-396.15-2.89c-16.59-.12-30.04 13.25-29.82 29.64z"/><path fill="#E0E0E0" d="m393.69 566.64 2.79 289.86c1.93 17.53 17.24 30.49 34.85 29.5l109.29-6.14L420.4 559.8"/><path stroke="#000" stroke-miterlimit="10" d="m393.69 566.64 2.79 289.86c1.93 17.53 17.24 30.49 34.85 29.5l109.29-6.14L420.4 559.8"/><path fill="#217C6F" stroke="#000" stroke-miterlimit="10" d="M399.81 566.94h-5.92l-2.68-91.72s.67-19.13 10.5-24.52 18.85-5.81 18.85-5.81z"/><path fill="#fff" stroke="#000" stroke-miterlimit="10" d="m396.51 475.22 11.22 384.15c3.17 14.36 16.5 27.25 30.24 28.61L810.1 870.8c16.15-.34 43.15-4.54 43.1-20.61l-1.32-379.43c-.06-16.34-13.46-29.52-29.88-29.37l-396.14 3.5c-16.59.15-29.83 13.83-29.34 30.33z"/><path fill="#E0E0E0" d="m399.18 566.64 8.55 292.72c1.93 17.53 17.24 30.49 34.85 29.5l109.29-6.14-120.22-320.06-37.76 4.28"/><path stroke="#000" stroke-miterlimit="10" d="m399.18 566.64 8.55 292.72c1.93 17.53 17.24 30.49 34.85 29.5l109.29-6.14-120.22-320.06-37.76 4.28"/><path fill="#217C6F" stroke="#000" stroke-miterlimit="10" d="M405.11 566.94h-5.92l-2.68-91.72s.67-19.13 10.5-24.52 20.631-7.46 20.631-7.46L405.11 566.95z"/><path fill="#fff" stroke="#000" stroke-miterlimit="10" d="m400.511 474.1 19.11 385.72c.81 16.25 14.57 28.81 30.82 28.13l385.99-16.15c16.139-.68 28.76-14.15 28.37-30.3l-9.12-381.19c-.391-16.42-14.07-29.38-30.48-28.9l-395.99 11.62c-16.58.49-29.53 14.5-28.71 31.07z"/><path fill="#27A394" stroke="#000" stroke-miterlimit="10" d="m858.23 550.23-2.15-89.84c-.39-16.42-14.46-30.46-30.87-29.98l-395.6 12.7c-16.58.49-30.64 13.76-28.71 31.07l4.21 91.76z"/><path fill="#000" d="M775.93 481.73a8.32 8.32 0 1 0 0-16.64 8.32 8.32 0 0 0 0 16.64"/><path fill="#B8BCBA" stroke="#000" stroke-miterlimit="10" d="M780.76 477.8c-2.7 0-5.38-.27-8.01-.82-2.69-.56-4.31-3.31-3.41-5.91.75-2.15 2.98-3.37 5.21-2.91 2.03.42 4.11.63 6.21.63 18.02 0 32.68-15.81 32.68-35.24s-14.66-35.24-32.68-35.24-32.67 14.62-32.67 34.05l-9.02.36c0-24.39 18.7-43.41 41.68-43.41s41.68 19.85 41.68 44.24-18.7 44.24-41.68 44.24z"/><path fill="#fff" d="M787.61 399.1s-.13-6.69 6.43-7.48c0 0 12.44 5.88 16.51 11.03 0 0-7.18.46-5.52 7.33 0 0-10.08-10.99-17.42-10.88"/><path stroke="#000" stroke-miterlimit="10" d="M780.76 477.8c-2.7 0-5.38-.27-8.01-.82-2.69-.56-4.31-3.31-3.41-5.91.75-2.15 2.98-3.37 5.21-2.91 2.03.42 4.11.63 6.21.63 18.02 0 32.68-15.81 32.68-35.24s-14.66-35.24-32.68-35.24-32.67 14.62-32.67 34.05l-9.02.36c0-24.39 18.7-43.41 41.68-43.41s41.68 19.85 41.68 44.24-18.7 44.24-41.68 44.24z"/><path fill="#000" d="M701.13 483.73a8.32 8.32 0 1 0 0-16.64 8.32 8.32 0 0 0 0 16.64"/><path fill="#B8BCBA" stroke="#000" stroke-miterlimit="10" d="M706.05 480.11c-2.7 0-5.38-.27-8.01-.82-2.69-.56-4.31-3.31-3.41-5.91.75-2.15 2.98-3.37 5.21-2.91 2.03.42 4.11.63 6.21.63 18.02 0 32.68-15.81 32.68-35.24s-14.66-35.24-32.68-35.24-32.67 14.62-32.67 34.05l-9.02.36c0-24.39 18.7-43.41 41.68-43.41s41.68 19.85 41.68 44.24-18.7 44.24-41.68 44.24z"/><path fill="#fff" d="M712.9 401.4s-.13-6.69 6.43-7.48c0 0 12.44 5.88 16.51 11.03 0 0-7.18.46-5.52 7.33 0 0-10.08-10.99-17.42-10.88"/><path stroke="#000" stroke-miterlimit="10" d="M706.05 480.11c-2.7 0-5.38-.27-8.01-.82-2.69-.56-4.31-3.31-3.41-5.91.75-2.15 2.98-3.37 5.21-2.91 2.03.42 4.11.63 6.21.63 18.02 0 32.68-15.81 32.68-35.24s-14.66-35.24-32.68-35.24-32.67 14.62-32.67 34.05l-9.02.36c0-24.39 18.7-43.41 41.68-43.41s41.68 19.85 41.68 44.24-18.7 44.24-41.68 44.24z"/><path fill="#000" d="M626.82 486.73a8.32 8.32 0 1 0 0-16.64 8.32 8.32 0 0 0 0 16.64"/><path fill="#B8BCBA" stroke="#000" stroke-miterlimit="10" d="M632.46 482.72c-2.7 0-5.38-.27-8.01-.82s-4.31-3.31-3.41-5.91c.75-2.15 2.98-3.37 5.21-2.91 2.03.42 4.11.63 6.21.63 18.02 0 32.68-15.81 32.68-35.24s-14.66-35.24-32.68-35.24-32.67 14.62-32.67 34.05l-9.02.36c0-24.39 18.7-43.41 41.68-43.41s41.68 19.85 41.68 44.24-18.7 44.24-41.68 44.24z"/><path fill="#fff" d="M639.31 404.02s-.13-6.69 6.43-7.48c0 0 12.44 5.88 16.51 11.03 0 0-7.18.46-5.52 7.33 0 0-10.08-10.99-17.42-10.88"/><path stroke="#000" stroke-miterlimit="10" d="M632.46 482.72c-2.7 0-5.38-.27-8.01-.82s-4.31-3.31-3.41-5.91c.75-2.15 2.98-3.37 5.21-2.91 2.03.42 4.11.63 6.21.63 18.02 0 32.68-15.81 32.68-35.24s-14.66-35.24-32.68-35.24-32.67 14.62-32.67 34.05l-9.02.36c0-24.39 18.7-43.41 41.68-43.41s41.68 19.85 41.68 44.24-18.7 44.24-41.68 44.24z"/><path fill="#000" d="M552.75 486.73a8.32 8.32 0 1 0 0-16.64 8.32 8.32 0 0 0 0 16.64"/><path fill="#B8BCBA" stroke="#000" stroke-miterlimit="10" d="M558.32 482.72c-2.7 0-5.38-.27-8.01-.82s-4.31-3.31-3.41-5.91c.75-2.15 2.98-3.37 5.21-2.91 2.03.42 4.11.63 6.21.63 18.02 0 32.68-15.81 32.68-35.24s-14.66-35.24-32.68-35.24-32.67 14.62-32.67 34.05l-9.02.36c0-24.39 18.7-43.41 41.68-43.41s41.68 19.85 41.68 44.24-18.7 44.24-41.68 44.24z"/><path fill="#fff" d="M565.17 404.02s-.13-6.69 6.43-7.48c0 0 12.44 5.88 16.51 11.03 0 0-7.18.46-5.52 7.33 0 0-10.08-10.99-17.42-10.88"/><path stroke="#000" stroke-miterlimit="10" d="M558.32 482.72c-2.7 0-5.38-.27-8.01-.82s-4.31-3.31-3.41-5.91c.75-2.15 2.98-3.37 5.21-2.91 2.03.42 4.11.63 6.21.63 18.02 0 32.68-15.81 32.68-35.24s-14.66-35.24-32.68-35.24-32.67 14.62-32.67 34.05l-9.02.36c0-24.39 18.7-43.41 41.68-43.41s41.68 19.85 41.68 44.24-18.7 44.24-41.68 44.24z"/><path fill="#000" d="M478.38 491.04a8.32 8.32 0 1 0 0-16.64 8.32 8.32 0 0 0 0 16.64"/><path fill="#B8BCBA" stroke="#000" stroke-miterlimit="10" d="M483.84 487.72c-2.7 0-5.38-.27-8.01-.82s-4.31-3.31-3.41-5.91c.75-2.15 2.98-3.37 5.21-2.91 2.03.42 4.11.63 6.21.63 18.02 0 32.68-15.81 32.68-35.24s-14.66-35.24-32.68-35.24-32.67 14.62-32.67 34.05l-9.02.36c0-24.39 18.7-43.41 41.68-43.41s41.68 19.85 41.68 44.24-18.7 44.24-41.68 44.24z"/><path fill="#fff" d="M490.69 409.02s-.13-6.69 6.43-7.48c0 0 12.44 5.88 16.51 11.03 0 0-7.18.46-5.52 7.33 0 0-10.08-10.99-17.42-10.88"/><path stroke="#000" stroke-miterlimit="10" d="M483.84 487.72c-2.7 0-5.38-.27-8.01-.82s-4.31-3.31-3.41-5.91c.75-2.15 2.98-3.37 5.21-2.91 2.03.42 4.11.63 6.21.63 18.02 0 32.68-15.81 32.68-35.24s-14.66-35.24-32.68-35.24-32.67 14.62-32.67 34.05l-9.02.36c0-24.39 18.7-43.41 41.68-43.41s41.68 19.85 41.68 44.24-18.7 44.24-41.68 44.24z"/><path fill="#A4DED2" stroke="#000" stroke-miterlimit="10" d="m458.53 669.37 53.96-1.93 5.58-6.49-7.79-55.27-53.25-.8-6.2 6.67 2.46 53.26c.12 2.63 2.46 4.66 5.24 4.56Z"/><path fill="#A4DED2" stroke="#000" stroke-miterlimit="10" d="m462.86 662.92 55.2-1.98-1.91-53.37a4.82 4.82 0 0 0-4.98-4.64l-54.15 1.94 2.59 55.35c.07 1.55 1.52 2.76 3.25 2.69z"/><path fill="#A4DED2" d="m468.75 639.04 11.24 12.22 26.35-36.67"/><path stroke="#000" stroke-miterlimit="10" d="m468.75 639.04 11.24 12.22 26.35-36.67"/><path fill="#A4DED2" stroke="#000" stroke-miterlimit="10" d="m533.211 667.14 53.959-1.93 5.58-6.49-7.789-55.27-53.25-.8-6.201 6.67 2.46 53.26c.12 2.63 2.461 4.66 5.241 4.56Z"/><path fill="#A4DED2" stroke="#000" stroke-miterlimit="10" d="m537.54 660.7 55.2-1.98-1.91-53.37a4.82 4.82 0 0 0-4.98-4.64l-54.15 1.94 2.59 55.35c.07 1.55 1.52 2.76 3.25 2.69z"/><path fill="#A4DED2" d="m543.43 636.81 11.24 12.23 26.34-36.67"/><path stroke="#000" stroke-miterlimit="10" d="m543.43 636.81 11.24 12.23 26.34-36.67"/><path fill="#A4DED2" stroke="#000" stroke-miterlimit="10" d="m606.73 663.14 53.96-1.93 5.58-6.49-7.79-55.27-53.25-.8-6.2 6.67 2.46 53.26c.12 2.63 2.46 4.66 5.24 4.56Z"/><path fill="#A4DED2" stroke="#000" stroke-miterlimit="10" d="m611.06 656.7 55.2-1.98-1.91-53.37a4.82 4.82 0 0 0-4.98-4.64l-54.15 1.94 2.59 55.35c.07 1.55 1.52 2.76 3.25 2.69z"/><path fill="#A4DED2" d="m616.95 632.81 11.24 12.23 26.34-36.67"/><path stroke="#000" stroke-miterlimit="10" d="m616.95 632.81 11.24 12.23 26.34-36.67"/><path fill="#A4DED2" stroke="#000" stroke-miterlimit="10" d="m679.89 659.92 53.96-1.93 5.58-6.49-7.79-55.27-53.25-.8-6.2 6.67 2.46 53.26c.12 2.63 2.46 4.66 5.24 4.56Z"/><path fill="#A4DED2" stroke="#000" stroke-miterlimit="10" d="m684.23 653.47 55.2-1.98-1.91-53.37a4.82 4.82 0 0 0-4.98-4.64l-54.15 1.94 2.59 55.35c.07 1.55 1.52 2.76 3.25 2.69z"/><path fill="#A4DED2" d="m690.12 629.59 11.23 12.23 26.35-36.67"/><path stroke="#000" stroke-miterlimit="10" d="m690.12 629.59 11.23 12.23 26.35-36.67"/><path fill="#A4DED2" stroke="#000" stroke-miterlimit="10" d="m752.58 656.7 53.96-1.93 5.58-6.49-7.79-55.27-53.25-.8-6.2 6.67 2.46 53.26c.12 2.63 2.46 4.66 5.24 4.56Z"/><path fill="#A4DED2" stroke="#000" stroke-miterlimit="10" d="m756.91 650.25 55.2-1.98-1.91-53.37a4.82 4.82 0 0 0-4.98-4.64l-54.15 1.94 2.59 55.35c.07 1.55 1.52 2.76 3.25 2.69z"/><path fill="#A4DED2" d="m762.8 626.37 11.24 12.23 26.35-36.68"/><path stroke="#000" stroke-miterlimit="10" d="m762.8 626.37 11.24 12.23 26.35-36.68"/><path fill="#A4DED2" stroke="#000" stroke-miterlimit="10" d="m462.7 746.25 53.96-1.93 5.58-6.49-7.79-55.27-53.25-.8-6.2 6.67 2.46 53.26c.12 2.63 2.46 4.66 5.24 4.56Z"/><path fill="#A4DED2" stroke="#000" stroke-miterlimit="10" d="m467.04 739.8 55.2-1.98-1.91-53.37a4.82 4.82 0 0 0-4.98-4.64l-54.15 1.94 2.59 55.35c.07 1.55 1.52 2.76 3.25 2.69z"/><path fill="#A4DED2" d="m472.93 715.92 11.23 12.23 26.35-36.68"/><path stroke="#000" stroke-miterlimit="10" d="m472.93 715.92 11.23 12.23 26.35-36.68"/><path fill="#A4DED2" stroke="#000" stroke-miterlimit="10" d="m537.38 744.02 53.96-1.93 5.58-6.49-7.79-55.27-53.25-.8-6.2 6.67 2.46 53.26c.12 2.63 2.46 4.66 5.24 4.56Z"/><path fill="#A4DED2" stroke="#000" stroke-miterlimit="10" d="m541.71 737.58 55.2-1.98-1.91-53.37a4.82 4.82 0 0 0-4.98-4.64l-54.15 1.94 2.59 55.35c.07 1.55 1.52 2.76 3.25 2.69z"/><path fill="#A4DED2" d="m547.6 713.69 11.24 12.23 26.35-36.67"/><path stroke="#000" stroke-miterlimit="10" d="m547.6 713.69 11.24 12.23 26.35-36.67"/><path fill="#A4DED2" stroke="#000" stroke-miterlimit="10" d="m610.9 740.02 53.96-1.93 5.58-6.49-7.79-55.27-53.25-.8-6.2 6.67 2.46 53.26c.12 2.63 2.46 4.66 5.24 4.56Z"/><path fill="#A4DED2" stroke="#000" stroke-miterlimit="10" d="m615.24 733.58 55.2-1.98-1.91-53.37a4.82 4.82 0 0 0-4.98-4.64l-54.15 1.94 2.59 55.35c.07 1.55 1.52 2.76 3.25 2.69z"/><path fill="#A4DED2" d="m621.13 709.69 11.23 12.23 26.35-36.67"/><path stroke="#000" stroke-miterlimit="10" d="m621.13 709.69 11.23 12.23 26.35-36.67"/><path fill="#A4DED2" stroke="#000" stroke-miterlimit="10" d="m684.07 736.8 53.96-1.93 5.58-6.49-7.79-55.27-53.25-.8-6.2 6.67 2.46 53.26c.12 2.63 2.46 4.66 5.24 4.56Z"/><path fill="#A4DED2" stroke="#000" stroke-miterlimit="10" d="m688.4 730.36 55.2-1.98-1.91-53.37a4.82 4.82 0 0 0-4.98-4.64l-54.15 1.94 2.59 55.35c.07 1.55 1.52 2.76 3.25 2.69z"/><path fill="#A4DED2" d="m694.29 706.47 11.24 12.23 26.34-36.67"/><path stroke="#000" stroke-miterlimit="10" d="m694.29 706.47 11.24 12.23 26.34-36.67"/><path fill="#A4DED2" stroke="#000" stroke-miterlimit="10" d="m756.75 733.58 53.96-1.93 5.58-6.49-7.79-55.27-53.25-.8-6.2 6.67 2.46 53.26c.12 2.63 2.46 4.66 5.24 4.56Z"/><path fill="#A4DED2" stroke="#000" stroke-miterlimit="10" d="m761.09 727.13 55.199-1.98-1.909-53.37a4.82 4.82 0 0 0-4.98-4.64l-54.15 1.94 2.59 55.35c.07 1.55 1.52 2.76 3.25 2.69z"/><path fill="#A4DED2" d="m766.979 703.25 11.231 12.23 26.35-36.68"/><path stroke="#000" stroke-miterlimit="10" d="m766.979 703.25 11.231 12.23 26.35-36.68"/><path fill="#A4DED2" stroke="#000" stroke-miterlimit="10" d="m466.98 823.13 53.96-1.93 5.58-6.49-7.79-55.27-53.25-.8-6.2 6.67 2.46 53.26c.12 2.63 2.46 4.66 5.24 4.56Z"/><path fill="#A4DED2" stroke="#000" stroke-miterlimit="10" d="m471.31 816.69 55.2-1.98-1.91-53.37a4.82 4.82 0 0 0-4.98-4.64l-54.15 1.94 2.59 55.35c.07 1.55 1.52 2.76 3.25 2.69z"/><path fill="#A4DED2" d="m477.2 792.8 11.24 12.23 26.34-36.67"/><path stroke="#000" stroke-miterlimit="10" d="m477.2 792.8 11.24 12.23 26.34-36.67"/><path fill="#A4DED2" stroke="#000" stroke-miterlimit="10" d="m541.65 820.91 53.96-1.93 5.58-6.49-7.79-55.27-53.25-.8-6.2 6.67 2.46 53.26c.12 2.63 2.46 4.66 5.24 4.56Z"/><path fill="#A4DED2" stroke="#000" stroke-miterlimit="10" d="m545.99 814.46 55.2-1.98-1.91-53.37a4.82 4.82 0 0 0-4.98-4.64l-54.15 1.94 2.59 55.35c.07 1.55 1.52 2.76 3.25 2.69z"/><path fill="#A4DED2" d="m551.88 790.58 11.23 12.23 26.35-36.68"/><path stroke="#000" stroke-miterlimit="10" d="m551.88 790.58 11.23 12.23 26.35-36.68"/><path fill="#A4DED2" stroke="#000" stroke-miterlimit="10" d="m615.17 816.91 53.96-1.93 5.581-6.49-7.791-55.27-53.25-.8-6.2 6.67 2.46 53.26c.12 2.63 2.46 4.66 5.24 4.56Z"/><path fill="#A4DED2" stroke="#000" stroke-miterlimit="10" d="m619.51 810.46 55.2-1.98-1.91-53.37a4.82 4.82 0 0 0-4.98-4.64l-54.15 1.94 2.59 55.35c.07 1.55 1.52 2.76 3.25 2.69z"/><path fill="#A4DED2" d="m625.401 786.58 11.24 12.23 26.339-36.68"/><path stroke="#000" stroke-miterlimit="10" d="m625.401 786.58 11.24 12.23 26.339-36.68"/><path fill="#A4DED2" stroke="#000" stroke-miterlimit="10" d="m688.34 813.68 53.96-1.93 5.58-6.49-7.79-55.27-53.25-.8-6.2 6.67 2.46 53.26c.12 2.63 2.46 4.66 5.24 4.56Z"/><path fill="#A4DED2" stroke="#000" stroke-miterlimit="10" d="m692.67 807.24 55.2-1.98-1.91-53.37a4.82 4.82 0 0 0-4.98-4.64l-54.15 1.94 2.59 55.35c.07 1.55 1.52 2.76 3.25 2.69z"/><path fill="#A4DED2" d="m698.56 783.35 11.24 12.23 26.34-36.67"/><path stroke="#000" stroke-miterlimit="10" d="m698.56 783.35 11.24 12.23 26.34-36.67"/><path fill="#A4DED2" stroke="#000" stroke-miterlimit="10" d="m761.03 810.46 53.96-1.93 5.58-6.49-7.79-55.27-53.25-.8-6.2 6.67 2.46 53.26c.12 2.63 2.46 4.66 5.24 4.56Z"/><path fill="#A4DED2" stroke="#000" stroke-miterlimit="10" d="m765.36 804.02 55.2-1.98-1.91-53.37a4.82 4.82 0 0 0-4.98-4.64l-54.15 1.94 2.59 55.35c.07 1.55 1.52 2.76 3.25 2.69z"/><path fill="#A4DED2" d="m771.25 780.13 11.24 12.23 26.34-36.67"/><path stroke="#000" stroke-miterlimit="10" d="m771.25 780.13 11.24 12.23 26.34-36.67"/><path fill="#113D38" stroke="#000" stroke-miterlimit="10" d="M816.29 732.72S705.23 775.71 705.23 877.3l111.06-4.65z" opacity=".25"/><path fill="#F3B443" stroke="#000" stroke-miterlimit="10" d="M847.591 922.98c53.952 0 97.69-43.737 97.69-97.69s-43.738-97.69-97.69-97.69c-53.953 0-97.69 43.737-97.69 97.69s43.737 97.69 97.69 97.69Z"/><path fill="#FFDD7D" stroke="#000" stroke-miterlimit="10" d="M857.11 922.98c48.701 0 88.18-43.737 88.18-97.69s-39.479-97.69-88.18-97.69c-48.7 0-88.18 43.737-88.18 97.69s39.48 97.69 88.18 97.69Z"/><path fill="#fff" stroke="#000" stroke-miterlimit="10" d="M857.11 913.49c43.968 0 79.61-39.489 79.61-88.2s-35.642-88.2-79.61-88.2-79.61 39.488-79.61 88.2c0 48.711 35.643 88.2 79.61 88.2Z"/><path fill="#A4DED2" stroke="#000" stroke-miterlimit="10" d="m866.201 766.71-6.55-10.99-6.56 10.57v62.8h13.11z"/><path fill="#27A394" stroke="#000" stroke-miterlimit="10" d="m888.1 866.82 11.27 1.36-1.789-10.42-28.661-28.67-9.269 9.27z"/><path fill="#B8BCBA" stroke="#000" stroke-miterlimit="10" d="M859.651 841.14c6.655 0 12.05-5.395 12.05-12.05s-5.395-12.05-12.05-12.05-12.051 5.395-12.051 12.05 5.395 12.05 12.051 12.05Z"/><path fill="#59B8AA" stroke="#000" stroke-miterlimit="10" d="M715.88 315.76c6.561 0 11.88-5.319 11.88-11.88S722.441 292 715.88 292 704 297.319 704 303.88s5.319 11.88 11.88 11.88Z"/><path stroke="#000" stroke-miterlimit="10" d="M783.11 189.59v22.82M794.52 201H771.7M264.41 862v22.82m11.41-11.41H253"/><path fill="#59B8AA" stroke="#000" stroke-miterlimit="10" d="M968.17 482.34c9.483 0 17.17-7.687 17.17-17.17S977.653 448 968.17 448 951 455.687 951 465.17s7.687 17.17 17.17 17.17Z"/><path fill="#000" d="M958.56 465.99c-2.38-3.4-3.42-7.72-3.06-11.88-2.79 3-4.5 7-4.5 11.42 0 9.28 7.53 16.81 16.81 16.81 6.35 0 11.86-3.53 14.71-8.72-8.5 2.3-19.13-.72-23.96-7.63"/><path fill="#fff" d="M975.34 463.64a6.6 6.6 0 1 0 0-13.2 6.6 6.6 0 0 0 0 13.2"/><path fill="#F3B443" stroke="#000" stroke-miterlimit="10" d="M212.5 408c7.456 0 13.5-6.044 13.5-13.5s-6.044-13.5-13.5-13.5-13.5 6.044-13.5 13.5 6.044 13.5 13.5 13.5Z"/><path fill="#000" d="M204.944 395.145c-1.871-2.674-2.689-6.07-2.406-9.341a13.13 13.13 0 0 0-3.538 8.979c0 7.296 5.92 13.217 13.217 13.217 4.993 0 9.325-2.776 11.566-6.856-6.683 1.808-15.041-.566-18.839-5.999"/><path fill="#fff" d="M218.138 393.297a5.19 5.19 0 1 0-.001-10.379 5.19 5.19 0 0 0 .001 10.379"/><path fill="#F3B443" stroke="#000" stroke-miterlimit="10" d="M304.5 713a8.5 8.5 0 1 0-.001-17.001A8.5 8.5 0 0 0 304.5 713Z"/><path fill="#000" d="M299.743 704.906c-1.179-1.683-1.693-3.822-1.515-5.881a8.27 8.27 0 0 0-2.228 5.653 8.325 8.325 0 0 0 8.322 8.322 8.3 8.3 0 0 0 7.282-4.317c-4.208 1.139-9.47-.356-11.861-3.777"/><path fill="#fff" d="M308.05 703.743a3.268 3.268 0 1 0-.001-6.535 3.268 3.268 0 0 0 .001 6.535"/><path fill="#F3B443" stroke="#000" stroke-miterlimit="10" d="m847.813 352.596 12.01 12.04s19.2 1.78 42.93-25.86 19.54-44.73 19.54-44.73l-11.27-12.83s-57.92 32.98-63.21 71.39z"/><path fill="#FFDB7F" stroke="#000" stroke-miterlimit="10" d="M893.028 328.386c17.131-19.846 25.196-40.96 18.013-47.16s-26.892 4.862-44.023 24.709c-17.131 19.846-25.195 40.96-18.013 47.16 7.183 6.2 26.893-4.863 44.023-24.709Z"/><path fill="#FFDB7F" stroke="#000" stroke-miterlimit="10" d="M888.029 323.058c13.558-15.707 20.642-31.814 15.821-35.975-4.82-4.16-19.719 5.2-33.277 20.907s-20.641 31.813-15.821 35.974c4.821 4.161 19.719-5.199 33.277-20.906Z"/><path fill="#000" d="m912.583 325.656-9.85-10.09s12.69-20.23 10.69-31.62l8.87 10.1s2.33 12.58-9.72 31.61z" opacity=".49"/><path fill="#F3B443" stroke="#000" stroke-miterlimit="10" d="m329.76 590.75-16.85 16.89s-26.94 2.49-60.22-36.28c-33.29-38.77-27.41-62.75-27.41-62.75l15.81-18s81.24 46.26 88.67 100.14Z"/><path fill="#FFDB7F" stroke="#000" stroke-miterlimit="10" d="M328.103 591.399c10.071-8.693-1.242-38.306-25.269-66.141s-51.669-43.354-61.741-34.66c-10.071 8.693 1.242 38.306 25.269 66.141s51.669 43.354 61.741 34.66Z"/><path fill="#FFDB7F" stroke="#000" stroke-miterlimit="10" d="M320.052 578.599c6.764-5.839-3.169-28.434-22.188-50.466-19.018-22.033-39.918-35.161-46.683-29.322-6.764 5.839 3.169 28.434 22.187 50.466 19.018 22.033 39.919 35.161 46.684 29.322Z"/><path fill="#000" d="m238.91 552.95 13.81-14.16s-17.8-28.37-14.99-44.36l-12.45 14.17s-3.27 17.65 13.63 44.34z" opacity=".49"/><path fill="#F3B443" stroke="#000" stroke-miterlimit="10" d="M452.05 316.845c-1.83 1.35-18.03 13.11-19.99 14.18-29.37 16.13-72.17 1.76-98.84-34.42-26.37-35.76-27.72-80.28-4.46-103.79 1.84-1.86 18.13-14.13 20.27-15.71 29.28-21.59 61.77 2.74 90.22 41.33s42.08 76.82 12.8 98.41Z"/><path fill="#000" d="M349.06 176.715c-2.14 1.58-18.44 13.85-20.27 15.71-17.8 18-21.17 48.31-9.94 77.58 3.98-3.97 8.11-7.78 12.36-11.44a161.4 161.4 0 0 1 22.28-18.64c-.992-19.586 7.167-46.822-4.43-63.21" opacity=".49"/><path fill="#FFDB7F" stroke="#000" stroke-miterlimit="10" d="M452.048 316.834c29.281-21.588 29.954-70.371 1.503-108.961-28.45-38.59-75.251-52.372-104.533-30.784-29.281 21.587-29.954 70.371-1.503 108.961 28.45 38.59 75.252 52.372 104.533 30.784Z"/><path fill="#FFDB7F" stroke="#000" stroke-miterlimit="10" d="M447.675 307.672c26.294-19.385 26.897-63.194 1.347-97.85s-67.579-47.034-93.872-27.649c-26.294 19.386-26.897 63.195-1.347 97.851s67.578 47.034 93.872 27.648Z"/><g fill="#fff" opacity=".29"><path d="m474.679 274.205-147.09-60.09v-.01c2.04-16.11 11.35-27.121 11.35-27.121l131.45 54.161c4.29 7.33 4.29 33.06 4.29 33.06M471.32 287.974l-143.741-57.38s.32-.44-.26-.62c.001 1-.124 2.012.001 3 .347 2.753.956 5.219 1 8 0 .19.099.83.069 1 .25.58.141 1.36.431 2l137.5 55.5c2-2.5 4.5-9 5-11.5"/></g><path fill="#fff" d="M471 899.92s38.907-4.777 38.907 44.08c0 0 0-45 41.093-44.214 0 0-35.354 1.49-41.093-45.786 0 0 1.093 45-38.907 45.912zM885 592.96s19.452-2.386 19.452 22.04c0 0 0-22.496 20.548-22.107 0 0-17.678.74-20.548-22.893 0 0 .544 22.496-19.452 22.96M547 236.54s43.82-5.36 43.82 49.49c0 0 0-50.52 46.28-49.63 0 0-39.81 1.67-46.28-51.4 0 0 1.23 50.52-43.82 51.54"/><path stroke="#000" stroke-miterlimit="10" d="M471 899.92s38.907-4.777 38.907 44.08c0 0 0-45 41.093-44.214 0 0-35.354 1.49-41.093-45.786 0 0 1.093 45-38.907 45.912zM885 592.96s19.452-2.386 19.452 22.04c0 0 0-22.496 20.548-22.107 0 0-17.678.74-20.548-22.893 0 0 .544 22.496-19.452 22.96ZM547 236.54s43.82-5.36 43.82 49.49c0 0 0-50.52 46.28-49.63 0 0-39.81 1.67-46.28-51.4 0 0 1.23 50.52-43.82 51.54Z"/></svg>