<svg width="390" height="390" viewBox="0 0 390 390" fill="none" xmlns="http://www.w3.org/2000/svg">
<path d="M123.029 150.6L123.158 281.255C123.233 286.713 127.747 291.095 133.273 291.067L263.391 285.371C268.877 285.344 274.427 286.013 274.495 280.592L276.084 152.635C276.152 147.125 271.672 142.608 266.095 142.567L137.105 141.433C131.47 141.392 122.951 145.033 123.026 150.6H123.029Z" fill="white" stroke="black" stroke-width="0.325" stroke-miterlimit="10"/>
<path d="M123.237 181.863L123.081 281.333C123.553 287.304 128.614 291.862 134.606 291.709L175.899 288.934L134.303 180.851L123.237 181.863Z" fill="#E0E0E0" stroke="black" stroke-width="0.325" stroke-miterlimit="10"/>
<path d="M125.037 183.418L123.029 183.337V155.254C123.029 153.28 122.768 151.001 123.349 149.123C124.048 146.857 125.77 145.451 127.686 144.218C128.777 143.515 129.952 142.948 131.181 142.533C131.806 142.323 132.448 142.149 133.097 142.017C133.393 141.956 133.736 141.851 134.038 141.857C134.34 141.864 134.33 141.786 134.303 142.068C134.279 142.299 134.062 142.571 134.001 142.822C133.97 142.948 133.943 143.077 133.916 143.206L133.698 144.184C133.24 146.263 132.781 148.345 132.323 150.424C131.687 153.307 131.049 156.194 130.414 159.078C129.728 162.19 129.041 165.301 128.355 168.412C127.747 171.17 127.139 173.928 126.528 176.686C126.124 178.514 125.723 180.341 125.319 182.168C125.227 182.583 125.135 183.001 125.044 183.415L125.037 183.418Z" fill="#217C6F" stroke="black" stroke-width="0.325" stroke-miterlimit="10"/>
<path d="M124.535 151.993L126.28 281.594C126.355 287.053 130.869 291.434 136.396 291.407L266.513 285.711C271.999 285.684 277.549 286.353 277.617 280.932L279.207 152.974C279.274 147.465 274.794 142.948 269.217 142.907L134.66 141.925C129.025 141.884 124.456 146.426 124.531 151.993H124.535Z" fill="white" stroke="black" stroke-width="0.325" stroke-miterlimit="10"/>
<path d="M125.036 183.418L125.984 281.873C126.639 287.827 131.84 292.229 137.821 291.893L174.943 289.807L134.109 181.095" fill="#E0E0E0"/>
<path d="M125.036 183.418L125.984 281.873C126.639 287.827 131.84 292.229 137.821 291.893L174.943 289.807L134.109 181.095" stroke="black" stroke-width="0.325" stroke-miterlimit="10"/>
<path d="M127.115 183.52H125.105L124.194 152.366C124.194 152.366 124.422 145.869 127.761 144.038C131.1 142.207 134.163 142.065 134.163 142.065L127.115 183.52Z" fill="#217C6F" stroke="black" stroke-width="0.325" stroke-miterlimit="10"/>
<path d="M125.995 152.366L129.806 282.848C130.883 287.725 135.411 292.103 140.078 292.565L266.476 286.73C271.962 286.615 281.132 285.188 281.116 279.73L280.667 150.852C280.647 145.302 276.095 140.825 270.518 140.876L135.964 142.065C130.329 142.115 125.832 146.762 125.999 152.366H125.995Z" fill="white" stroke="black" stroke-width="0.325" stroke-miterlimit="10"/>
<path d="M126.901 183.418L129.805 282.844C130.461 288.799 135.661 293.201 141.643 292.864L178.764 290.779L137.93 182.067L125.104 183.52" fill="#E0E0E0"/>
<path d="M126.901 183.418L129.805 282.844C130.461 288.799 135.661 293.201 141.643 292.864L178.764 290.779L137.93 182.067L125.104 183.52" stroke="black" stroke-width="0.325" stroke-miterlimit="10"/>
<path d="M128.916 183.52H126.905L125.995 152.366C125.995 152.366 126.223 145.869 129.562 144.038C132.9 142.207 136.569 141.504 136.569 141.504L128.916 183.524V183.52Z" fill="#217C6F" stroke="black" stroke-width="0.325" stroke-miterlimit="10"/>
<path d="M127.354 151.986L133.845 283C134.12 288.52 138.794 292.786 144.313 292.555L275.419 287.07C280.901 286.839 285.188 282.263 285.056 276.778L281.958 147.302C281.825 141.725 277.179 137.323 271.605 137.486L137.102 141.433C131.471 141.599 127.072 146.358 127.35 151.986H127.354Z" fill="white" stroke="black" stroke-width="0.325" stroke-miterlimit="10"/>
<path d="M282.824 177.845L282.094 147.329C281.961 141.752 277.182 136.983 271.608 137.146L137.238 141.46C131.606 141.626 126.831 146.134 127.486 152.013L128.916 183.181L282.824 177.845Z" fill="#27A394" stroke="black" stroke-width="0.325" stroke-miterlimit="10"/>
<path d="M254.869 154.578C256.43 154.578 257.695 153.312 257.695 151.752C257.695 150.191 256.43 148.926 254.869 148.926C253.308 148.926 252.043 150.191 252.043 151.752C252.043 153.312 253.308 154.578 254.869 154.578Z" fill="black"/>
<path d="M256.51 153.243C255.593 153.243 254.683 153.151 253.789 152.964C252.876 152.774 252.325 151.84 252.631 150.957C252.886 150.226 253.643 149.812 254.401 149.968C255.09 150.111 255.797 150.182 256.51 150.182C262.631 150.182 267.61 144.812 267.61 138.213C267.61 131.613 262.631 126.243 256.51 126.243C250.389 126.243 245.413 131.209 245.413 137.808L242.35 137.931C242.35 129.646 248.701 123.186 256.507 123.186C264.312 123.186 270.664 129.928 270.664 138.213C270.664 146.497 264.312 153.239 256.507 153.239L256.51 153.243Z" fill="#B8BCBA" stroke="black" stroke-width="0.325" stroke-miterlimit="10"/>
<path d="M258.836 126.511C258.836 126.511 258.792 124.239 261.02 123.971C261.02 123.971 265.245 125.968 266.628 127.717C266.628 127.717 264.189 127.873 264.753 130.207C264.753 130.207 261.329 126.474 258.836 126.511Z" fill="white"/>
<path d="M256.51 153.243C255.593 153.243 254.683 153.151 253.789 152.964C252.876 152.774 252.325 151.84 252.631 150.957C252.886 150.226 253.643 149.812 254.401 149.968C255.09 150.111 255.797 150.182 256.51 150.182C262.631 150.182 267.61 144.812 267.61 138.213C267.61 131.613 262.631 126.243 256.51 126.243C250.389 126.243 245.413 131.209 245.413 137.808L242.35 137.931C242.35 129.646 248.701 123.186 256.507 123.186C264.312 123.186 270.664 129.928 270.664 138.213C270.664 146.497 264.312 153.239 256.507 153.239L256.51 153.243Z" stroke="black" stroke-width="0.325" stroke-miterlimit="10"/>
<path d="M229.463 155.257C231.023 155.257 232.289 153.992 232.289 152.431C232.289 150.87 231.023 149.605 229.463 149.605C227.902 149.605 226.637 150.87 226.637 152.431C226.637 153.992 227.902 155.257 229.463 155.257Z" fill="black"/>
<path d="M231.135 154.027C230.218 154.027 229.308 153.936 228.414 153.749C227.501 153.559 226.95 152.625 227.256 151.741C227.511 151.011 228.268 150.597 229.026 150.753C229.715 150.896 230.422 150.967 231.135 150.967C237.256 150.967 242.235 145.597 242.235 138.997C242.235 132.398 237.256 127.028 231.135 127.028C225.014 127.028 220.038 131.994 220.038 138.593L216.975 138.715C216.975 130.431 223.326 123.971 231.132 123.971C238.937 123.971 245.289 130.713 245.289 138.997C245.289 147.282 238.937 154.024 231.132 154.024L231.135 154.027Z" fill="#B8BCBA" stroke="black" stroke-width="0.325" stroke-miterlimit="10"/>
<path d="M233.461 127.293C233.461 127.293 233.417 125.02 235.645 124.752C235.645 124.752 239.87 126.749 241.253 128.498C241.253 128.498 238.814 128.655 239.378 130.988C239.378 130.988 235.954 127.255 233.461 127.293Z" fill="white"/>
<path d="M231.135 154.027C230.218 154.027 229.308 153.936 228.414 153.749C227.501 153.559 226.95 152.625 227.256 151.741C227.511 151.011 228.268 150.597 229.026 150.753C229.715 150.896 230.422 150.967 231.135 150.967C237.256 150.967 242.235 145.597 242.235 138.997C242.235 132.398 237.256 127.028 231.135 127.028C225.014 127.028 220.038 131.994 220.038 138.593L216.975 138.715C216.975 130.431 223.326 123.971 231.132 123.971C238.937 123.971 245.289 130.713 245.289 138.997C245.289 147.282 238.937 154.024 231.132 154.024L231.135 154.027Z" stroke="black" stroke-width="0.325" stroke-miterlimit="10"/>
<path d="M204.224 156.276C205.785 156.276 207.05 155.011 207.05 153.45C207.05 151.889 205.785 150.624 204.224 150.624C202.664 150.624 201.398 151.889 201.398 153.45C201.398 155.011 202.664 156.276 204.224 156.276Z" fill="black"/>
<path d="M206.141 154.914C205.224 154.914 204.314 154.822 203.42 154.635C202.527 154.449 201.956 153.511 202.262 152.628C202.517 151.898 203.274 151.483 204.032 151.64C204.721 151.782 205.428 151.854 206.141 151.854C212.262 151.854 217.241 146.484 217.241 139.884C217.241 133.284 212.262 127.914 206.141 127.914C200.02 127.914 195.044 132.88 195.044 139.48L191.98 139.602C191.98 131.318 198.332 124.857 206.138 124.857C213.943 124.857 220.295 131.6 220.295 139.884C220.295 148.168 213.943 154.911 206.138 154.911L206.141 154.914Z" fill="#B8BCBA" stroke="black" stroke-width="0.325" stroke-miterlimit="10"/>
<path d="M208.467 128.183C208.467 128.183 208.423 125.91 210.651 125.642C210.651 125.642 214.876 127.639 216.259 129.388C216.259 129.388 213.82 129.545 214.384 131.878C214.384 131.878 210.96 128.145 208.467 128.183Z" fill="white"/>
<path d="M206.141 154.914C205.224 154.914 204.314 154.822 203.42 154.635C202.527 154.449 201.956 153.511 202.262 152.628C202.517 151.898 203.274 151.483 204.032 151.64C204.721 151.782 205.428 151.854 206.141 151.854C212.262 151.854 217.241 146.484 217.241 139.884C217.241 133.284 212.262 127.914 206.141 127.914C200.02 127.914 195.044 132.88 195.044 139.48L191.98 139.602C191.98 131.318 198.332 124.857 206.138 124.857C213.943 124.857 220.295 131.6 220.295 139.884C220.295 148.168 213.943 154.911 206.138 154.911L206.141 154.914Z" stroke="black" stroke-width="0.325" stroke-miterlimit="10"/>
<path d="M179.064 156.276C180.625 156.276 181.89 155.011 181.89 153.45C181.89 151.889 180.625 150.624 179.064 150.624C177.504 150.624 176.238 151.889 176.238 153.45C176.238 155.011 177.504 156.276 179.064 156.276Z" fill="black"/>
<path d="M180.956 154.914C180.039 154.914 179.129 154.822 178.236 154.635C177.342 154.449 176.772 153.511 177.077 152.628C177.332 151.898 178.09 151.483 178.847 151.64C179.537 151.782 180.243 151.854 180.956 151.854C187.077 151.854 192.057 146.484 192.057 139.884C192.057 133.284 187.077 127.914 180.956 127.914C174.836 127.914 169.86 132.88 169.86 139.48L166.796 139.602C166.796 131.318 173.148 124.857 180.953 124.857C188.758 124.857 195.11 131.6 195.11 139.884C195.11 148.168 188.758 154.911 180.953 154.911L180.956 154.914Z" fill="#B8BCBA" stroke="black" stroke-width="0.325" stroke-miterlimit="10"/>
<path d="M183.283 128.182C183.283 128.182 183.239 125.91 185.467 125.642C185.467 125.642 189.693 127.639 191.075 129.388C191.075 129.388 188.636 129.545 189.2 131.878C189.2 131.878 185.776 128.145 183.283 128.182Z" fill="white"/>
<path d="M180.956 154.914C180.039 154.914 179.129 154.822 178.236 154.635C177.342 154.449 176.772 153.511 177.077 152.628C177.332 151.898 178.09 151.483 178.847 151.64C179.537 151.782 180.243 151.854 180.956 151.854C187.077 151.854 192.057 146.484 192.057 139.884C192.057 133.284 187.077 127.914 180.956 127.914C174.836 127.914 169.86 132.88 169.86 139.48L166.796 139.602C166.796 131.318 173.148 124.857 180.953 124.857C188.758 124.857 195.11 131.6 195.11 139.884C195.11 148.168 188.758 154.911 180.953 154.911L180.956 154.914Z" stroke="black" stroke-width="0.325" stroke-miterlimit="10"/>
<path d="M153.803 157.74C155.363 157.74 156.629 156.475 156.629 154.914C156.629 153.353 155.363 152.088 153.803 152.088C152.242 152.088 150.977 153.353 150.977 154.914C150.977 156.475 152.242 157.74 153.803 157.74Z" fill="black"/>
<path d="M155.658 156.612C154.74 156.612 153.83 156.521 152.937 156.334C152.044 156.147 151.473 155.209 151.779 154.326C152.033 153.596 152.791 153.182 153.548 153.338C154.238 153.481 154.944 153.552 155.658 153.552C161.778 153.552 166.758 148.182 166.758 141.582C166.758 134.983 161.778 129.613 155.658 129.613C149.537 129.613 144.561 134.578 144.561 141.178L141.497 141.3C141.497 133.016 147.849 126.556 155.654 126.556C163.46 126.556 169.811 133.298 169.811 141.582C169.811 149.867 163.46 156.609 155.654 156.609L155.658 156.612Z" fill="#B8BCBA" stroke="black" stroke-width="0.325" stroke-miterlimit="10"/>
<path d="M157.984 129.881C157.984 129.881 157.94 127.609 160.168 127.34C160.168 127.34 164.394 129.337 165.776 131.087C165.776 131.087 163.338 131.243 163.901 133.576C163.901 133.576 160.478 129.844 157.984 129.881Z" fill="white"/>
<path d="M155.658 156.612C154.74 156.612 153.83 156.521 152.937 156.334C152.044 156.147 151.473 155.209 151.779 154.326C152.033 153.596 152.791 153.182 153.548 153.338C154.238 153.481 154.944 153.552 155.658 153.552C161.778 153.552 166.758 148.182 166.758 141.582C166.758 134.983 161.778 129.613 155.658 129.613C149.537 129.613 144.561 134.578 144.561 141.178L141.497 141.3C141.497 133.016 147.849 126.556 155.654 126.556C163.46 126.556 169.811 133.298 169.811 141.582C169.811 149.867 163.46 156.609 155.654 156.609L155.658 156.612Z" stroke="black" stroke-width="0.325" stroke-miterlimit="10"/>
<path d="M147.062 218.312L165.39 217.656L167.285 215.452L164.639 196.679L146.552 196.407L144.446 198.673L145.282 216.763C145.323 217.656 146.117 218.346 147.062 218.312Z" fill="#A4DED2" stroke="black" stroke-width="0.325" stroke-miterlimit="10"/>
<path d="M148.532 216.121L167.282 215.449L166.633 197.321C166.599 196.417 165.842 195.714 164.942 195.745L146.549 196.404L147.429 215.204C147.452 215.731 147.945 216.142 148.532 216.118V216.121Z" fill="#A4DED2" stroke="black" stroke-width="0.325" stroke-miterlimit="10"/>
<path d="M150.533 208.01L154.351 212.161L163.301 199.705" fill="#A4DED2"/>
<path d="M150.533 208.01L154.351 212.161L163.301 199.705" stroke="black" stroke-width="0.325" stroke-miterlimit="10"/>
<path d="M172.428 217.555L190.756 216.899L192.651 214.695L190.005 195.921L171.918 195.65L169.812 197.915L170.648 216.006C170.689 216.899 171.484 217.589 172.428 217.555Z" fill="#A4DED2" stroke="black" stroke-width="0.325" stroke-miterlimit="10"/>
<path d="M173.899 215.367L192.648 214.695L191.999 196.567C191.965 195.663 191.208 194.96 190.308 194.991L171.915 195.65L172.795 214.45C172.819 214.977 173.311 215.388 173.899 215.364V215.367Z" fill="#A4DED2" stroke="black" stroke-width="0.325" stroke-miterlimit="10"/>
<path d="M175.899 207.253L179.717 211.407L188.664 198.951" fill="#A4DED2"/>
<path d="M175.899 207.253L179.717 211.407L188.664 198.951" stroke="black" stroke-width="0.325" stroke-miterlimit="10"/>
<path d="M197.401 216.196L215.729 215.54L217.624 213.336L214.978 194.563L196.891 194.291L194.785 196.557L195.621 214.647C195.661 215.54 196.456 216.23 197.401 216.196Z" fill="#A4DED2" stroke="black" stroke-width="0.325" stroke-miterlimit="10"/>
<path d="M198.87 214.008L217.62 213.336L216.971 195.208C216.937 194.305 216.18 193.602 215.279 193.632L196.887 194.291L197.766 213.091C197.79 213.618 198.283 214.029 198.87 214.005V214.008Z" fill="#A4DED2" stroke="black" stroke-width="0.325" stroke-miterlimit="10"/>
<path d="M200.873 205.894L204.691 210.048L213.638 197.593" fill="#A4DED2"/>
<path d="M200.873 205.894L204.691 210.048L213.638 197.593" stroke="black" stroke-width="0.325" stroke-miterlimit="10"/>
<path d="M222.248 215.102L240.576 214.447L242.472 212.242L239.826 193.469L221.739 193.197L219.633 195.463L220.468 213.553C220.509 214.447 221.304 215.136 222.248 215.102Z" fill="#A4DED2" stroke="black" stroke-width="0.325" stroke-miterlimit="10"/>
<path d="M223.724 212.911L242.473 212.239L241.824 194.111C241.79 193.208 241.033 192.504 240.133 192.535L221.74 193.194L222.62 211.994C222.644 212.521 223.136 212.932 223.724 212.908V212.911Z" fill="#A4DED2" stroke="black" stroke-width="0.325" stroke-miterlimit="10"/>
<path d="M225.725 204.8L229.539 208.954L238.489 196.499" fill="#A4DED2"/>
<path d="M225.725 204.8L229.539 208.954L238.489 196.499" stroke="black" stroke-width="0.325" stroke-miterlimit="10"/>
<path d="M246.94 214.009L265.268 213.353L267.163 211.149L264.517 192.375L246.43 192.104L244.324 194.369L245.16 212.46C245.201 213.353 245.995 214.042 246.94 214.009Z" fill="#A4DED2" stroke="black" stroke-width="0.325" stroke-miterlimit="10"/>
<path d="M248.409 211.818L267.159 211.145L266.51 193.017C266.476 192.114 265.719 191.411 264.818 191.441L246.426 192.1L247.305 210.901C247.329 211.427 247.822 211.838 248.409 211.814V211.818Z" fill="#A4DED2" stroke="black" stroke-width="0.325" stroke-miterlimit="10"/>
<path d="M250.412 203.707L254.23 207.861L263.18 195.402" fill="#A4DED2"/>
<path d="M250.412 203.707L254.23 207.861L263.18 195.402" stroke="black" stroke-width="0.325" stroke-miterlimit="10"/>
<path d="M148.479 244.425L166.807 243.77L168.702 241.565L166.056 222.792L147.969 222.52L145.863 224.786L146.699 242.876C146.74 243.77 147.534 244.459 148.479 244.425Z" fill="#A4DED2" stroke="black" stroke-width="0.325" stroke-miterlimit="10"/>
<path d="M149.952 242.234L168.702 241.562L168.053 223.434C168.019 222.531 167.262 221.827 166.361 221.858L147.969 222.517L148.848 241.317C148.872 241.844 149.365 242.255 149.952 242.231V242.234Z" fill="#A4DED2" stroke="black" stroke-width="0.325" stroke-miterlimit="10"/>
<path d="M151.953 234.123L155.768 238.277L164.718 225.818" fill="#A4DED2"/>
<path d="M151.953 234.123L155.768 238.277L164.718 225.818" stroke="black" stroke-width="0.325" stroke-miterlimit="10"/>
<path d="M173.845 243.668L192.173 243.012L194.068 240.808L191.422 222.035L173.335 221.763L171.229 224.028L172.065 242.119C172.106 243.012 172.901 243.702 173.845 243.668Z" fill="#A4DED2" stroke="black" stroke-width="0.325" stroke-miterlimit="10"/>
<path d="M175.316 241.48L194.065 240.808L193.416 222.68C193.382 221.777 192.625 221.073 191.725 221.104L173.332 221.763L174.212 240.563C174.236 241.09 174.728 241.501 175.316 241.477V241.48Z" fill="#A4DED2" stroke="black" stroke-width="0.325" stroke-miterlimit="10"/>
<path d="M177.316 233.366L181.134 237.52L190.084 225.064" fill="#A4DED2"/>
<path d="M177.316 233.366L181.134 237.52L190.084 225.064" stroke="black" stroke-width="0.325" stroke-miterlimit="10"/>
<path d="M198.817 242.309L217.145 241.654L219.04 239.449L216.394 220.676L198.307 220.404L196.201 222.67L197.037 240.76C197.077 241.654 197.872 242.343 198.817 242.309Z" fill="#A4DED2" stroke="black" stroke-width="0.325" stroke-miterlimit="10"/>
<path d="M200.292 240.122L219.042 239.449L218.393 221.321C218.359 220.418 217.601 219.715 216.701 219.745L198.309 220.404L199.188 239.205C199.212 239.731 199.705 240.142 200.292 240.118V240.122Z" fill="#A4DED2" stroke="black" stroke-width="0.325" stroke-miterlimit="10"/>
<path d="M202.293 232.007L206.107 236.161L215.057 223.706" fill="#A4DED2"/>
<path d="M202.293 232.007L206.107 236.161L215.057 223.706" stroke="black" stroke-width="0.325" stroke-miterlimit="10"/>
<path d="M223.668 241.215L241.996 240.56L243.892 238.355L241.246 219.582L223.159 219.311L221.053 221.576L221.888 239.667C221.929 240.56 222.724 241.249 223.668 241.215Z" fill="#A4DED2" stroke="black" stroke-width="0.325" stroke-miterlimit="10"/>
<path d="M225.14 239.028L243.889 238.355L243.24 220.228C243.207 219.324 242.449 218.621 241.549 218.652L223.156 219.311L224.036 238.111C224.06 238.637 224.552 239.048 225.14 239.025V239.028Z" fill="#A4DED2" stroke="black" stroke-width="0.325" stroke-miterlimit="10"/>
<path d="M227.141 230.913L230.958 235.068L239.905 222.612" fill="#A4DED2"/>
<path d="M227.141 230.913L230.958 235.068L239.905 222.612" stroke="black" stroke-width="0.325" stroke-miterlimit="10"/>
<path d="M248.354 240.122L266.682 239.466L268.577 237.262L265.931 218.488L247.844 218.217L245.738 220.482L246.574 238.573C246.615 239.466 247.409 240.155 248.354 240.122Z" fill="#A4DED2" stroke="black" stroke-width="0.325" stroke-miterlimit="10"/>
<path d="M249.829 237.931L268.579 237.258L267.93 219.13C267.896 218.227 267.139 217.524 266.238 217.554L247.846 218.213L248.725 237.014C248.749 237.54 249.242 237.951 249.829 237.927V237.931Z" fill="#A4DED2" stroke="black" stroke-width="0.325" stroke-miterlimit="10"/>
<path d="M251.83 229.82L255.644 233.974L264.595 221.515" fill="#A4DED2"/>
<path d="M251.83 229.82L255.644 233.974L264.595 221.515" stroke="black" stroke-width="0.325" stroke-miterlimit="10"/>
<path d="M149.933 270.538L168.261 269.883L170.156 267.678L167.51 248.905L149.423 248.633L147.317 250.899L148.153 268.989C148.194 269.883 148.989 270.572 149.933 270.538Z" fill="#A4DED2" stroke="black" stroke-width="0.325" stroke-miterlimit="10"/>
<path d="M151.404 268.351L170.153 267.678L169.504 249.55C169.47 248.647 168.713 247.944 167.813 247.974L149.42 248.633L150.3 267.434C150.323 267.96 150.816 268.371 151.404 268.347V268.351Z" fill="#A4DED2" stroke="black" stroke-width="0.325" stroke-miterlimit="10"/>
<path d="M153.404 260.236L157.222 264.39L166.169 251.935" fill="#A4DED2"/>
<path d="M153.404 260.236L157.222 264.39L166.169 251.935" stroke="black" stroke-width="0.325" stroke-miterlimit="10"/>
<path d="M175.295 269.784L193.623 269.129L195.519 266.924L192.873 248.151L174.786 247.879L172.68 250.145L173.515 268.235C173.556 269.129 174.351 269.818 175.295 269.784Z" fill="#A4DED2" stroke="black" stroke-width="0.325" stroke-miterlimit="10"/>
<path d="M176.769 267.593L195.518 266.921L194.869 248.793C194.835 247.89 194.078 247.187 193.178 247.217L174.785 247.876L175.665 266.676C175.689 267.203 176.181 267.614 176.769 267.59V267.593Z" fill="#A4DED2" stroke="black" stroke-width="0.325" stroke-miterlimit="10"/>
<path d="M178.77 259.482L182.584 263.636L191.534 251.178" fill="#A4DED2"/>
<path d="M178.77 259.482L182.584 263.636L191.534 251.178" stroke="black" stroke-width="0.325" stroke-miterlimit="10"/>
<path d="M200.266 268.426L218.594 267.77L220.489 265.566L217.843 246.793L199.756 246.521L197.65 248.786L198.486 266.877C198.527 267.77 199.322 268.46 200.266 268.426Z" fill="#A4DED2" stroke="black" stroke-width="0.325" stroke-miterlimit="10"/>
<path d="M201.741 266.235L220.491 265.562L219.842 247.435C219.808 246.531 219.051 245.828 218.151 245.859L199.758 246.518L200.638 265.318C200.661 265.844 201.154 266.255 201.741 266.232V266.235Z" fill="#A4DED2" stroke="black" stroke-width="0.325" stroke-miterlimit="10"/>
<path d="M203.742 258.124L207.56 262.278L216.507 249.819" fill="#A4DED2"/>
<path d="M203.742 258.124L207.56 262.278L216.507 249.819" stroke="black" stroke-width="0.325" stroke-miterlimit="10"/>
<path d="M225.119 267.329L243.447 266.673L245.343 264.469L242.697 245.696L224.61 245.424L222.504 247.689L223.339 265.78C223.38 266.673 224.175 267.363 225.119 267.329Z" fill="#A4DED2" stroke="black" stroke-width="0.325" stroke-miterlimit="10"/>
<path d="M226.589 265.141L245.338 264.469L244.69 246.341C244.656 245.437 243.898 244.734 242.998 244.765L224.605 245.424L225.485 264.224C225.509 264.751 226.001 265.162 226.589 265.138V265.141Z" fill="#A4DED2" stroke="black" stroke-width="0.325" stroke-miterlimit="10"/>
<path d="M228.592 257.027L232.41 261.181L241.356 248.725" fill="#A4DED2"/>
<path d="M228.592 257.027L232.41 261.181L241.356 248.725" stroke="black" stroke-width="0.325" stroke-miterlimit="10"/>
<path d="M249.809 266.235L268.137 265.579L270.032 263.375L267.386 244.602L249.299 244.33L247.193 246.596L248.029 264.686C248.07 265.579 248.865 266.269 249.809 266.235Z" fill="#A4DED2" stroke="black" stroke-width="0.325" stroke-miterlimit="10"/>
<path d="M251.279 264.048L270.028 263.375L269.379 245.247C269.345 244.344 268.588 243.641 267.688 243.671L249.295 244.33L250.175 263.13C250.198 263.657 250.691 264.068 251.279 264.044V264.048Z" fill="#A4DED2" stroke="black" stroke-width="0.325" stroke-miterlimit="10"/>
<path d="M253.281 255.933L257.099 260.087L266.046 247.632" fill="#A4DED2"/>
<path d="M253.281 255.933L257.099 260.087L266.046 247.632" stroke="black" stroke-width="0.325" stroke-miterlimit="10"/>
<path opacity="0.25" d="M268.58 239.83C268.58 239.83 230.857 254.432 230.857 288.938L268.58 287.359V239.83Z" fill="#113D38" stroke="black" stroke-width="0.325" stroke-miterlimit="10"/>
<path d="M279.211 304.454C297.537 304.454 312.392 289.598 312.392 271.272C312.392 252.946 297.537 238.091 279.211 238.091C260.885 238.091 246.029 252.946 246.029 271.272C246.029 289.598 260.885 304.454 279.211 304.454Z" fill="#F3B443" stroke="black" stroke-width="0.325" stroke-miterlimit="10"/>
<path d="M282.446 304.454C298.987 304.454 312.397 289.598 312.397 271.272C312.397 252.946 298.987 238.091 282.446 238.091C265.904 238.091 252.494 252.946 252.494 271.272C252.494 289.598 265.904 304.454 282.446 304.454Z" fill="#FFDD7D" stroke="black" stroke-width="0.325" stroke-miterlimit="10"/>
<path d="M282.447 301.23C297.381 301.23 309.487 287.818 309.487 271.272C309.487 254.727 297.381 241.314 282.447 241.314C267.513 241.314 255.406 254.727 255.406 271.272C255.406 287.818 267.513 301.23 282.447 301.23Z" fill="white" stroke="black" stroke-width="0.325" stroke-miterlimit="10"/>
<path d="M285.533 251.375L283.308 247.642L281.08 251.232V272.563H285.533V251.375Z" fill="#A4DED2" stroke="black" stroke-width="0.325" stroke-miterlimit="10"/>
<path d="M292.972 285.378L296.8 285.84L296.192 282.301L286.457 272.563L283.309 275.712L292.972 285.378Z" fill="#27A394" stroke="black" stroke-width="0.325" stroke-miterlimit="10"/>
<path d="M283.308 276.656C285.568 276.656 287.401 274.823 287.401 272.563C287.401 270.302 285.568 268.47 283.308 268.47C281.047 268.47 279.215 270.302 279.215 272.563C279.215 274.823 281.047 276.656 283.308 276.656Z" fill="#B8BCBA" stroke="black" stroke-width="0.325" stroke-miterlimit="10"/>
<path d="M234.477 98.2042C236.705 98.2042 238.512 96.3976 238.512 94.169C238.512 91.9404 236.705 90.1338 234.477 90.1338C232.248 90.1338 230.441 91.9404 230.441 94.169C230.441 96.3976 232.248 98.2042 234.477 98.2042Z" fill="#59B8AA" stroke="black" stroke-width="0.325" stroke-miterlimit="10"/>
<path d="M257.312 55.349V63.1001" stroke="black" stroke-width="0.325" stroke-miterlimit="10"/>
<path d="M261.187 59.2246H253.436" stroke="black" stroke-width="0.325" stroke-miterlimit="10"/>
<path d="M72.875 275V282.751" stroke="black" stroke-width="0.325" stroke-miterlimit="10"/>
<path d="M76.7511 278.876H69" stroke="black" stroke-width="0.325" stroke-miterlimit="10"/>
<path d="M320.166 154.785C323.387 154.785 325.998 152.174 325.998 148.953C325.998 145.732 323.387 143.121 320.166 143.121C316.945 143.121 314.334 145.732 314.334 148.953C314.334 152.174 316.945 154.785 320.166 154.785Z" fill="#59B8AA" stroke="black" stroke-width="0.325" stroke-miterlimit="10"/>
<path d="M316.902 149.232C316.093 148.077 315.74 146.609 315.862 145.196C314.915 146.215 314.334 147.574 314.334 149.075C314.334 152.227 316.892 154.785 320.044 154.785C322.201 154.785 324.072 153.586 325.04 151.823C322.153 152.604 318.542 151.579 316.902 149.232Z" fill="black"/>
<path d="M322.601 148.433C323.839 148.433 324.843 147.43 324.843 146.192C324.843 144.954 323.839 143.95 322.601 143.95C321.363 143.95 320.359 144.954 320.359 146.192C320.359 147.43 321.363 148.433 322.601 148.433Z" fill="white"/>
<path d="M63.4956 129.535C66.0281 129.535 68.081 127.482 68.081 124.949C68.081 122.417 66.0281 120.364 63.4956 120.364C60.9631 120.364 58.9102 122.417 58.9102 124.949C58.9102 127.482 60.9631 129.535 63.4956 129.535Z" fill="#F3B443" stroke="black" stroke-width="0.325" stroke-miterlimit="10"/>
<path d="M60.9291 125.168C60.2935 124.26 60.0158 123.106 60.1119 121.995C59.3668 122.797 58.9102 123.865 58.9102 125.045C58.9102 127.524 60.9211 129.535 63.3995 129.535C65.0953 129.535 66.5668 128.592 67.3279 127.206C65.0579 127.82 62.219 127.014 60.9291 125.168Z" fill="black"/>
<path d="M65.4101 124.541C66.3835 124.541 67.1727 123.751 67.1727 122.778C67.1727 121.804 66.3835 121.015 65.4101 121.015C64.4366 121.015 63.6475 121.804 63.6475 122.778C63.6475 123.751 64.4366 124.541 65.4101 124.541Z" fill="white"/>
<path d="M224.887 323.774C226.482 323.774 227.774 322.482 227.774 320.887C227.774 319.293 226.482 318 224.887 318C223.293 318 222 319.293 222 320.887C222 322.482 223.293 323.774 224.887 323.774Z" fill="#F3B443" stroke="black" stroke-width="0.325" stroke-miterlimit="10"/>
<path d="M223.271 321.025C222.871 320.453 222.696 319.727 222.757 319.027C222.288 319.532 222 320.204 222 320.948C222 322.508 223.266 323.774 224.827 323.774C225.894 323.774 226.821 323.181 227.3 322.308C225.871 322.695 224.083 322.187 223.271 321.025Z" fill="black"/>
<path d="M226.092 320.63C226.705 320.63 227.202 320.133 227.202 319.52C227.202 318.907 226.705 318.41 226.092 318.41C225.479 318.41 224.982 318.907 224.982 319.52C224.982 320.133 225.479 320.63 226.092 320.63Z" fill="white"/>
<path d="M279.289 110.716L283.368 114.805C283.368 114.805 289.89 115.41 297.95 106.022C306.01 96.6334 304.587 90.8286 304.587 90.8286L300.759 86.4707C300.759 86.4707 281.086 97.6728 279.289 110.719V110.716Z" fill="#F3B443" stroke="black" stroke-width="0.325" stroke-miterlimit="10"/>
<path d="M294.646 102.493C300.464 95.7518 303.204 88.58 300.764 86.4742C298.324 84.3683 291.63 88.1258 285.811 94.8668C279.992 101.608 277.253 108.78 279.693 110.885C282.132 112.991 288.827 109.234 294.646 102.493Z" fill="#FFDB7F" stroke="black" stroke-width="0.325" stroke-miterlimit="10"/>
<path d="M292.947 100.683C297.552 95.3478 299.958 89.8771 298.321 88.4638C296.684 87.0505 291.623 90.2298 287.018 95.5649C282.413 100.9 280.007 106.371 281.644 107.784C283.282 109.197 288.342 106.018 292.947 100.683Z" fill="#FFDB7F" stroke="black" stroke-width="0.325" stroke-miterlimit="10"/>
<path opacity="0.49" d="M301.287 101.565L297.941 98.1381C297.941 98.1381 302.252 91.2668 301.572 87.398L304.585 90.8286C304.585 90.8286 305.377 95.1015 301.284 101.565H301.287Z" fill="black"/>
<path d="M95.3115 209.365L89.5882 215.101C89.5882 215.101 80.4377 215.947 69.1337 202.778C57.8264 189.61 59.8236 181.465 59.8236 181.465L65.1937 175.351C65.1937 175.351 92.7878 191.064 95.3115 209.365Z" fill="#F3B443" stroke="black" stroke-width="0.325" stroke-miterlimit="10"/>
<path d="M94.7479 209.585C98.1688 206.632 94.3261 196.574 86.1651 187.119C78.004 177.665 68.615 172.394 65.1941 175.347C61.7732 178.299 65.6159 188.358 73.7769 197.812C81.938 207.267 91.327 212.538 94.7479 209.585Z" fill="#FFDB7F" stroke="black" stroke-width="0.325" stroke-miterlimit="10"/>
<path d="M92.0139 205.237C94.3115 203.254 90.9375 195.579 84.4778 188.096C78.0181 180.612 70.9188 176.153 68.6212 178.136C66.3235 180.12 69.6976 187.794 76.1573 195.278C82.617 202.761 89.7162 207.22 92.0139 205.237Z" fill="#FFDB7F" stroke="black" stroke-width="0.325" stroke-miterlimit="10"/>
<path opacity="0.49" d="M64.4534 196.525L69.1441 191.716C69.1441 191.716 63.0981 182.079 64.0526 176.648L59.8238 181.461C59.8238 181.461 58.7131 187.456 64.4534 196.522V196.525Z" fill="black"/>
<path d="M144.861 98.5725C144.24 99.0311 138.737 103.026 138.071 103.389C128.095 108.868 113.558 103.987 104.499 91.6978C95.5422 79.5515 95.0836 64.4297 102.984 56.4442C103.609 55.8125 109.142 51.6448 109.869 51.1082C119.814 43.7749 130.85 52.0388 140.513 65.1464C150.177 78.254 154.806 91.2392 144.861 98.5725Z" fill="#F3B443" stroke="black" stroke-width="0.325" stroke-miterlimit="10"/>
<path opacity="0.49" d="M109.88 50.9757C109.153 51.5124 103.617 55.68 102.995 56.3118C96.9491 62.4257 95.8044 72.7209 99.6188 82.6628C100.971 81.3143 102.373 80.0202 103.817 78.777C106.144 76.4436 108.678 74.3241 111.385 72.4457C111.048 65.7931 113.819 56.5424 109.88 50.9757Z" fill="black"/>
<path d="M144.861 98.569C154.807 91.2364 155.035 74.6665 145.372 61.559C135.708 48.4515 119.811 43.7701 109.866 51.1027C99.92 58.4353 99.6914 75.0053 109.355 88.1128C119.019 101.22 134.915 105.902 144.861 98.569Z" fill="#FFDB7F" stroke="black" stroke-width="0.325" stroke-miterlimit="10"/>
<path d="M143.376 95.4571C152.307 88.8726 152.512 73.9923 143.833 62.2211C135.155 50.4499 120.88 46.2453 111.948 52.8299C103.017 59.4144 102.813 74.2947 111.491 86.0659C120.17 97.8371 134.445 102.042 143.376 95.4571Z" fill="#FFDB7F" stroke="black" stroke-width="0.325" stroke-miterlimit="10"/>
<g opacity="0.29">
<path d="M152.548 84.0893L102.587 63.679V63.6756C103.28 58.2037 106.442 54.464 106.442 54.464L151.091 72.8601C152.548 75.3498 152.548 84.0893 152.548 84.0893Z" fill="white"/>
<path d="M151.407 88.7664L102.584 69.2767C102.584 69.2767 102.692 69.1272 102.495 69.066C102.495 69.4057 102.453 69.7494 102.495 70.085C102.614 71.0198 102.82 71.8576 102.835 72.8023C102.835 72.8668 102.869 73.0842 102.859 73.142C102.944 73.339 102.906 73.6039 103.005 73.8213L149.709 92.6725C150.388 91.8234 151.237 89.6156 151.407 88.7664Z" fill="white"/>
</g>
<path d="M151.299 296.621C151.299 296.621 164.514 294.999 164.514 311.593C164.514 311.593 164.514 296.309 178.472 296.576C178.472 296.576 166.463 297.082 164.514 281.024C164.514 281.024 164.885 296.309 151.299 296.618V296.621Z" fill="white" stroke="black" stroke-width="0.325" stroke-miterlimit="10"/>
<path d="M291.918 192.358C291.918 192.358 298.525 191.548 298.525 199.845C298.525 199.845 298.525 192.204 305.504 192.336C305.504 192.336 299.5 192.587 298.525 184.56C298.525 184.56 298.71 192.201 291.918 192.358Z" fill="white" stroke="black" stroke-width="0.325" stroke-miterlimit="10"/>
<path d="M177.113 71.2961C177.113 71.2961 191.997 69.4755 191.997 88.106C191.997 88.106 191.997 70.9463 207.717 71.2486C207.717 71.2486 194.195 71.8158 191.997 53.7899C191.997 53.7899 192.415 70.9497 177.113 71.2961Z" fill="white" stroke="black" stroke-width="0.325" stroke-miterlimit="10"/>
</svg>
