<svg xmlns="http://www.w3.org/2000/svg" fill="none" viewBox="0 0 160 160"><g clip-path="url(#a)"><path fill="#090808" d="M0 0h160v160H0z"/><g fill="#fff" clip-path="url(#b)"><path d="M85.84 172.738c-5.763-1.713-9.867-4.679-12.069-8.842-5.41-10.22 1.373-26.778 18.604-45.434 33.631-36.404 97.425-71.281 142.202-77.746 20.444-2.951 34.357.434 39.172 9.533 5.41 10.22-1.372 26.778-18.604 45.434-33.631 36.404-97.425 71.281-142.202 77.746-11.095 1.603-20.267 1.336-27.106-.696zM234.71 41.629c-44.599 6.439-108.147 41.187-141.656 77.461-16.953 18.35-23.683 34.526-18.467 44.382 4.621 8.732 18.195 11.945 38.227 9.054 44.599-6.439 108.146-41.187 141.655-77.462 16.953-18.349 23.683-34.525 18.468-44.381-4.618-8.73-18.196-11.946-38.227-9.054"/><path d="M81.359 172.66c-6.736-2.001-11.392-5.483-13.625-10.343-5.23-11.366 3.248-29.093 23.255-48.641 37.742-36.875 105.51-69.988 151.064-73.818 20.01-1.681 33.413 2.575 37.738 11.98 5.229 11.366-3.248 29.092-23.255 48.641-37.742 36.874-105.511 69.988-151.065 73.817-9.674.812-17.808.237-24.112-1.636m184.55-130.294c-6.182-1.837-14.201-2.395-23.781-1.591-45.375 3.812-112.887 36.807-150.497 73.559-19.713 19.259-28.12 36.61-23.061 47.602 4.152 9.027 17.23 13.091 36.822 11.446 45.374-3.812 112.888-36.81 150.497-73.56 19.713-19.258 28.119-36.609 23.06-47.601-2.123-4.617-6.576-7.93-13.045-9.853z"/><path d="M77.306 172.407c-7.933-2.357-13.254-6.475-15.492-12.168-4.958-12.618 5.363-31.51 28.316-51.826 41.912-37.097 113.463-68.03 159.503-68.96 19.445-.392 32.257 4.744 36.075 14.457 4.958 12.618-5.359 31.511-28.316 51.826-41.912 37.097-113.463 68.031-159.503 68.959-8.056.164-14.972-.624-20.582-2.291zM269.968 42.624c-5.511-1.638-12.34-2.409-20.316-2.25-45.852.926-117.136 31.758-158.91 68.73-22.648 20.046-32.878 38.564-28.068 50.803 3.666 9.329 16.167 14.256 35.198 13.873 45.853-.926 117.14-31.757 158.911-68.729 22.648-20.047 32.878-38.565 28.068-50.804-2.128-5.42-7.243-9.353-14.883-11.623"/><path d="M73.554 172.021c-9.325-2.771-15.277-7.626-17.485-14.387-4.576-13.994 7.738-34.024 33.79-54.951 46.11-37.04 121.208-65.365 167.412-63.136 19.033.917 30.853 6.784 34.186 16.965 4.575 13.995-7.739 34.025-33.79 54.951-46.111 37.041-121.208 65.365-167.411 63.133-6.396-.307-11.979-1.176-16.697-2.577zM273.711 43.008c-4.646-1.38-10.154-2.235-16.488-2.54-46.007-2.22-120.828 26.013-166.786 62.933-25.736 20.677-37.943 40.337-33.491 53.951 3.201 9.787 14.734 15.437 33.353 16.334 46.008 2.22 120.829-26.013 166.787-62.933 25.735-20.677 37.943-40.337 33.491-53.951-2.113-6.46-7.854-11.116-16.866-13.794"/><path d="M70.669 171.561c-11.16-3.316-18.04-9.122-20.124-17.104-4.048-15.493 10.418-36.621 39.683-57.963 50.307-36.688 128.669-61.943 174.679-56.305 18.232 2.235 29.325 8.979 32.073 19.504 4.048 15.493-10.418 36.622-39.683 57.963-50.307 36.688-128.669 61.944-174.68 56.305-4.406-.54-8.393-1.344-11.948-2.4M276.6 43.473c-3.505-1.041-7.446-1.836-11.804-2.37-45.81-5.616-123.878 19.562-174.021 56.133-28.522 20.801-43.227 42.102-39.338 56.989 2.647 10.128 13.465 16.636 31.292 18.821 45.813 5.618 123.878-19.561 174.021-56.132 28.522-20.8 43.227-42.102 39.338-56.99-1.997-7.649-8.664-13.235-19.488-16.45"/><path d="M68.627 171.14c-13.47-4.003-21.494-11.013-23.336-20.483-3.28-16.867 13.914-39.602 45.996-60.81 54.47-36.013 135.758-57.738 181.197-48.429 17.344 3.552 27.626 11.188 29.745 22.078 3.28 16.866-13.913 39.601-45.996 60.809-54.474 36.012-135.758 57.739-181.197 48.429a77 77 0 0 1-6.409-1.594M272.392 41.866l-.093.449c-45.231-9.269-126.203 12.398-180.502 48.297-31.761 20.997-48.808 43.378-45.599 59.871 2.042 10.498 12.08 17.88 29.024 21.35 45.232 9.269 126.203-12.397 180.502-48.296 31.762-20.997 48.808-43.379 45.598-59.868-2.042-10.498-12.08-17.88-29.028-21.351l.093-.449z"/><path d="m67.604 170.887-.023-.007c-16.372-4.869-25.776-13.412-27.201-24.707-2.346-18.588 17.358-42.299 52.707-63.417 58.557-34.99 142.358-52.703 186.82-39.492l.023.007c16.372 4.87 25.777 13.412 27.202 24.707 2.345 18.588-17.362 42.298-52.707 63.417-58.558 34.99-142.358 52.703-186.82 39.492M279.65 44.144c-44.249-13.149-127.714 4.524-186.084 39.4C58.54 104.473 39 127.843 41.298 146.06c1.376 10.904 10.557 19.182 26.551 23.938l.023.007c44.249 13.148 127.717-4.523 186.083-39.4 35.026-20.929 54.566-44.3 52.267-62.517-1.376-10.904-10.556-19.182-26.551-23.939z"/><path d="M67.654 170.905a81 81 0 0 1-7.328-2.546c-15.34-6.193-23.791-15.673-24.438-27.42-1.126-20.414 21.233-44.975 59.799-65.7C158.243 41.624 244.15 28.418 287.19 45.788c15.34 6.193 23.792 15.673 24.438 27.42 1.122 20.414-21.232 44.975-59.798 65.701-59.182 31.8-139.266 45.337-184.176 31.996M279.571 44.116c-44.683-13.277-124.45.238-183.443 31.937-38.248 20.55-60.422 44.789-59.316 64.838.624 11.364 8.876 20.565 23.865 26.617 42.808 17.28 128.37 4.092 190.717-29.407 38.248-20.551 60.423-44.79 59.316-64.838-.623-11.364-8.876-20.566-23.864-26.617a82 82 0 0 0-7.276-2.526z"/><path d="M68.92 171.352c-5.722-1.7-10.942-3.769-15.583-6.219-14.265-7.538-21.674-18.004-21.436-30.262.439-22.312 25.57-47.564 67.228-67.545 66.395-31.84 153.897-40.053 195.045-18.304 14.265 7.538 21.674 18.003 21.437 30.262-.439 22.312-25.571 47.564-67.228 67.544-58.913 28.254-134.441 37.902-179.465 24.528zm209.357-127.69c-44.79-13.31-120.024-3.67-178.749 24.495-41.337 19.828-66.273 44.773-66.706 66.732-.234 11.886 7.01 22.067 20.945 29.432 4.601 2.431 9.792 4.486 15.467 6.172 44.791 13.31 120.025 3.67 178.75-24.495 41.337-19.828 66.277-44.772 66.706-66.732.234-11.886-7.011-22.067-20.946-29.432-4.601-2.43-9.791-4.486-15.467-6.173"/><path d="M71.584 172.421c-9.603-2.853-18.02-6.604-24.883-11.263-13.15-8.932-19.43-20.449-18.163-33.303 2.394-24.239 30.404-49.964 74.923-68.821 70.046-29.664 158.578-32.377 197.352-6.04 13.15 8.932 19.43 20.449 18.163 33.303-2.394 24.24-30.404 49.964-74.923 68.822-57.648 24.412-127.82 30.569-172.47 17.306zM275.61 42.579c-44.417-13.198-114.32-7.035-171.788 17.303-44.205 18.723-72.006 44.166-74.368 68.063-1.236 12.499 4.908 23.724 17.76 32.455 38.548 26.179 126.683 23.431 196.473-6.127 44.205-18.723 72.006-44.166 74.365-68.064 1.235-12.5-4.908-23.724-17.762-32.452-6.807-4.621-15.162-8.345-24.685-11.175z"/><path d="M75.78 174.334c-14.31-4.252-26.413-10.24-35.276-17.927-12.007-10.409-17.037-23.077-14.552-36.629 4.793-26.11 35.74-52.045 82.78-69.376 73.454-27.062 162.406-23.769 198.291 7.338 12.007 10.409 17.037 23.078 14.552 36.63-4.794 26.109-35.741 52.045-82.78 69.375-55.307 20.378-119.401 23.544-163.013 10.585zM271.436 40.66c-43.387-12.892-107.244-9.713-162.383 10.603-46.732 17.219-77.46 42.893-82.19 68.682-2.427 13.217 2.502 25.587 14.248 35.769 35.656 30.915 124.195 34.13 197.365 7.17 46.732-17.219 77.46-42.893 82.19-68.681 2.427-13.218-2.502-25.587-14.248-35.77-8.788-7.618-20.791-13.556-34.982-17.773"/><path d="M81.526 177.307c-19.901-5.913-36.226-14.811-46.706-26.451-10.818-12.021-14.451-25.971-10.5-40.341 7.65-27.83 41.538-53.642 90.647-69.046 76.579-24.018 165.282-14.227 197.734 21.828 10.818 12.02 14.448 25.97 10.5 40.341-7.65 27.83-41.538 53.642-90.646 69.045-51.859 16.267-109.286 17.028-151.03 4.624M265.713 37.693c-41.537-12.343-98.761-11.567-150.469 4.653-48.81 15.31-82.465 40.885-90.034 68.413-3.865 14.056-.304 27.707 10.295 39.486 32.235 35.812 120.503 45.486 196.771 21.565 48.807-15.311 82.465-40.884 90.034-68.412 3.865-14.056.304-27.708-10.296-39.486-10.379-11.53-26.572-20.357-46.301-26.22"/><path d="M88.662 181.51c-26.316-7.819-47.43-20.45-58.907-37.041-9.56-13.821-11.587-29.226-5.857-44.545 10.948-29.276 47.7-54.567 98.316-67.652 79.366-20.521 167.094-3.74 195.556 37.407 9.561 13.82 11.588 29.226 5.857 44.545-10.948 29.275-47.699 54.567-98.315 67.652-47.362 12.243-97.702 11.207-136.646-.365zM258.607 33.492c-38.765-11.518-88.934-12.541-136.166-.33-50.324 13.011-86.841 38.091-97.68 67.084-5.618 15.026-3.632 30.138 5.752 43.703 28.259 40.855 115.542 57.47 194.562 37.037 50.324-13.011 86.84-38.086 97.685-67.082 5.617-15.026 3.627-30.14-5.753-43.703-11.37-16.435-32.301-28.954-58.4-36.709"/><path d="M96.795 187.06c-33.418-9.93-59.763-27.256-71.4-49.825-8.185-15.879-8.335-32.932-.432-49.323C39.575 57.606 79.025 33.29 130.49 22.874c81.77-16.55 167.734 7.695 191.629 54.044 8.185 15.878 8.336 32.932.432 49.323-14.612 30.306-54.061 54.622-105.528 65.037-41.952 8.492-85.016 6.245-120.23-4.218M250.499 27.959c-35.065-10.42-77.986-12.653-119.825-4.182C79.49 34.137 40.28 58.263 25.794 88.312c-7.772 16.119-7.624 32.891.42 48.504 23.719 46.007 109.232 70.039 190.627 53.564 51.183-10.359 90.393-34.486 104.879-64.535 7.772-16.12 7.624-32.891-.42-48.504-11.525-22.358-37.655-39.53-70.802-49.379z"/><path d="M105.304 193.953c-40.935-12.163-72.744-35.309-83.457-64.821-6.625-18.25-4.546-37.174 6.008-54.722C46.371 43.62 88.234 20.788 139.838 13.327 223.568 1.22 306.934 33.383 325.674 85.02c6.624 18.25 4.546 37.174-6.009 54.722-18.515 30.789-60.378 53.622-111.982 61.083-35.876 5.186-71.692 2.246-102.379-6.873m136.705-172.88c-30.568-9.083-66.263-12.012-102.04-6.838-51.334 7.421-92.95 30.092-111.324 60.645-10.406 17.303-12.457 35.954-5.932 53.938 18.6 51.249 101.514 83.145 184.835 71.099 51.334-7.421 92.949-30.092 111.324-60.645 10.406-17.303 12.457-35.954 5.932-53.938-10.612-29.242-42.173-52.19-82.795-64.26"/><path d="M113.425 202.123c-48.562-14.43-85.72-44.67-94.22-81.967-4.786-20.993-.043-41.994 13.71-60.727 22.47-30.607 66.34-51.445 117.353-55.742C235.467-3.488 315.341 37.027 328.324 94c4.786 20.993.043 41.993-13.71 60.726-22.469 30.607-66.339 51.446-117.353 55.742-29.422 2.477-58.217-.736-83.836-8.344M233.887 12.911c-25.519-7.583-54.214-10.783-83.547-8.313-50.75 4.276-94.37 24.973-116.684 55.37C20.064 78.48 15.376 99.224 20.1 119.95c12.887 56.542 92.322 96.736 177.077 89.599 50.751-4.276 94.374-24.972 116.685-55.37 13.592-18.512 18.279-39.256 13.555-59.982-8.427-36.974-45.312-66.958-93.535-81.287z"/><path d="M120.431 211.427c-56.049-16.655-98.013-55.37-102.874-101.121-2.57-24.15 5.35-47.402 22.894-67.24C66.71 13.375 112.066-4.957 161.782-5.973c86.111-1.756 161.556 47.509 168.182 109.821 2.568 24.145-5.349 47.398-22.897 67.234-26.261 29.692-71.615 48.023-121.331 49.039-22.886.467-45.021-2.671-65.307-8.699zM226.862 3.611c-20.21-6.005-42.254-9.129-65.064-8.664C112.337-4.045 67.233 14.17 41.141 43.673 23.773 63.314 15.93 86.32 18.471 110.205c4.823 45.38 46.506 83.788 102.184 100.336 20.21 6.006 42.254 9.129 65.064 8.665 49.461-1.009 94.565-19.225 120.656-48.727 17.369-19.641 25.208-42.648 22.67-66.532-4.823-45.38-46.504-83.792-102.183-100.336"/><path d="M125.758 221.721C62.508 202.927 16.74 154.274 17.015 99.575c.139-27.724 11.8-53.332 33.726-74.044 30.103-28.446 75.177-43.427 123.658-41.102 86.421 4.147 156.453 62.534 156.113 130.151-.139 27.724-11.8 53.328-33.726 74.044-30.103 28.447-75.177 43.427-123.661 41.101-16.508-.792-32.432-3.566-47.371-8.005zM221.521-6.684c-14.878-4.42-30.717-7.182-47.169-7.97-48.234-2.313-93.056 12.576-122.979 40.849-21.737 20.54-33.3 45.913-33.438 73.384-.274 54.282 45.215 102.579 108.067 121.259 14.878 4.421 30.717 7.182 47.169 7.969 48.234 2.314 93.056-12.575 122.979-40.848 21.737-20.54 33.299-45.913 33.437-73.38.274-54.282-45.214-102.583-108.067-121.259z"/><path d="M129.026 232.874C58.904 212.037 10.725 151.941 17.666 87.979c3.392-31.265 19.818-59.984 46.257-80.874 32.967-26.052 78.23-37.765 124.183-32.143 86.068 10.53 149.656 78.367 141.751 151.211-3.391 31.264-19.817 59.984-46.251 80.871-32.967 26.052-78.23 37.764-124.183 32.143a186 186 0 0 1-30.388-6.315zm89.208-250.715a185 185 0 0 0-30.243-6.284c-45.708-5.594-90.719 6.053-123.494 31.95-26.244 20.738-42.55 49.236-45.913 80.252-6.89 63.515 41.007 123.205 110.702 143.914a185 185 0 0 0 30.244 6.284c45.707 5.594 90.722-6.051 123.494-31.95 26.238-20.735 42.544-49.233 45.908-80.253C335.823 62.557 287.925 2.868 218.23-17.842z"/><path d="M130.059 244.78C53.332 221.99 4.495 148.935 19.618 75.538 35.681-2.405 117.896-51.666 202.887-34.275c41.164 8.424 76.84 31.043 100.451 63.684 23.622 32.658 32.342 71.44 24.559 109.204-7.781 37.761-31.135 69.98-65.757 90.723-34.611 20.734-76.342 27.512-117.506 19.088a173 173 0 0 1-14.574-3.648zm87.296-274.487a174 174 0 0 0-14.655-3.667C118.206-50.664 36.483-1.724 20.523 75.72c-15.026 72.921 33.542 145.515 109.8 168.178a172 172 0 0 0 14.496 3.629c40.938 8.377 82.433 1.637 116.846-18.977 34.399-20.607 57.601-52.61 65.331-90.117 7.727-37.509-.937-76.034-24.407-108.48-20.625-28.518-50.517-49.34-85.235-59.656z"/><path d="M128.794 257.345C45.647 232.639-1.829 145.127 22.965 62.267 47.76-20.593 135.578-67.899 218.724-43.193s130.623 112.218 105.83 195.074-112.612 130.167-195.759 105.461zM218.46-42.311C135.801-66.873 48.498-19.84 23.85 62.53-.797 144.9 46.4 231.902 129.058 256.464c82.659 24.561 169.966-22.471 194.615-104.844 24.648-82.374-22.55-169.369-105.213-193.931"/></g><path fill="#090808" fill-rule="evenodd" d="M105.681 108.521a4 4 0 0 1 1.099-.154h5.145c1.127 0 2.197.475 2.952 1.302 2.093-1.12 4.556-1.657 7.11-1.657 2.571 0 4.638.56 6.168 1.117a4 4 0 0 1 2.161 1.877 6.32 6.32 0 0 1 5.167-2.639h4.384a4 4 0 0 1 3.915 3.18l4.146 19.794a4.002 4.002 0 0 1-3.915 4.82h-4.752a4 4 0 0 1-3.863-2.959h-.532l-.113.311a4 4 0 0 1-3.761 2.636h-5.393a4 4 0 0 1-2.436-.827c-1.904.787-4.043 1.147-6.249 1.147h-.041c-2.43-.025-4.924-.473-6.732-1.164a4 4 0 0 1-2.458.844h-5.132a4 4 0 0 1-3.11-1.484l-.032-.04a4 4 0 0 1-3.143 1.524h-5.429a4 4 0 0 1-3.871-2.994l-3.972-15.291c-.849-.345-2.103-.728-3.391-1.009a4 4 0 0 1-3.068-4.711l.119-.58a4 4 0 0 1 3.919-3.197h8.744a6.34 6.34 0 0 1 5.735 3.579l.42-1.056a4 4 0 0 1 3.717-2.523h5.394c.376 0 .745.053 1.098.154" clip-rule="evenodd"/><path fill="#fff" d="m104.582 112.367-8.316 19.782h-5.43l-4.098-15.781c-.25-.97-.464-1.326-1.224-1.74-1.235-.663-3.267-1.29-5.06-1.681l.118-.58h8.744c1.117 0 2.114.734 2.364 2.012l2.162 11.448 5.346-13.46zm21.265 13.318c.024-5.22-7.247-5.505-7.199-7.837.012-.71.689-1.468 2.174-1.657.737-.095 2.768-.166 5.061.888l.903-4.191c-1.236-.45-2.828-.876-4.8-.876-5.073 0-8.648 2.687-8.672 6.535-.036 2.841 2.554 4.439 4.502 5.386 1.996.971 2.673 1.587 2.662 2.463-.012 1.326-1.592 1.918-3.077 1.929-2.578.048-4.087-.698-5.275-1.243l-.927 4.333c1.2.545 3.41 1.03 5.714 1.054 5.394 0 8.923-2.652 8.946-6.772m13.401 6.464h4.752l-4.146-19.794h-4.384a2.33 2.33 0 0 0-2.186 1.456l-7.698 18.326h5.394l1.069-2.947h6.581l.618 2.947zm-5.726-7.008 2.709-7.435 1.556 7.435h-4.265m-21.61-12.786-4.241 19.782h-5.133l4.23-19.782h5.144"/><path fill="#090808" d="M75.125 133.3c1.378 0 2.594.697 3.313 1.758q.263.01.56.041a4 4 0 0 1 1.968-.869l.734-.107a4 4 0 0 1 1.207.009 4.55 4.55 0 0 1 2.153-.536c.865 0 2.118.248 3.16 1.29q.106.107.206.221.394-.053.814-.054a6.3 6.3 0 0 1 1.854.273 4 4 0 0 1 1.105-.155h.734c.448 0 .878.073 1.28.209a4 4 0 0 1 1.279-.209h.734q.338 0 .66.054.355-.065.727-.066h.71q.2 0 .391.019a5.8 5.8 0 0 1 1.256-.137c.519 0 1.085.061 1.66.221.427-.115.952-.21 1.538-.21.453 0 .963.048 1.49.178a4 4 0 0 1 3.26-1.681h2.535c1.255 0 2.699.335 3.929 1.389q.133.114.257.234c.411.01.807.082 1.179.208a4 4 0 0 1 1.279-.209h.735q.57.002 1.094.151a6.2 6.2 0 0 1 1.187-.234q.092-.105.189-.202c1.042-1.042 2.294-1.29 3.16-1.29s2.118.248 3.16 1.29q.132.133.257.28.554-.111 1.166-.113c.733 0 1.593.12 2.439.49a6.2 6.2 0 0 1 2.485-.514c.707 0 1.568.089 2.447.435a6.4 6.4 0 0 1 2.314-.411c.303 0 .67.014 1.072.071a7 7 0 0 1 1.01-.071c.477 0 1.111.036 1.788.214l.032.009c.179.046.728.187 1.248.448a4 4 0 0 1 2.206 3.367l.035.675q.023.436-.047.859c.251.679.325 1.338.325 1.874 0 1.402-.497 3.077-2.018 4.259-1.205.938-2.577 1.222-3.758 1.222q-.543 0-1.069-.073a7.57 7.57 0 0 1-2.872-.153l-.039-.01a11 11 0 0 1-.347-.098c-.804.252-1.574.31-2.208.31a6.6 6.6 0 0 1-2.075-.327c-.42.151-.873.232-1.345.232h-.735c-.456 0-.894-.076-1.302-.216a4 4 0 0 1-1.268.205h-.734q-.45 0-.874-.096-.447.107-.926.108h-.734q-.415 0-.806-.081a6.8 6.8 0 0 1-1.651.199 7.6 7.6 0 0 1-1.858-.226l-.012-.003q-.452.109-.936.11h-.711q-.203 0-.399-.02a6 6 0 0 1-1.283.139c-.74 0-1.626-.124-2.497-.52-.795.3-1.592.402-2.3.402h-2.7a4 4 0 0 1-1.618-.342 4 4 0 0 1-1.592.329h-.735c-.43 0-.844-.068-1.232-.193a4 4 0 0 1-1.231.193h-.735c-.427 0-.84-.067-1.226-.191a4 4 0 0 1-1.225.191h-.735q-.337 0-.66-.054-.353.065-.727.066h-.699q-.204 0-.403-.02a6.257 6.257 0 0 1-3.142-.138q-.534.156-1.119.158h-.734a4 4 0 0 1-1.303-.216 4 4 0 0 1-1.267.205h-.735q-.34 0-.664-.055a4 4 0 0 1-.733.067h-.735q-.219 0-.43-.023l-.024.005a6.4 6.4 0 0 1-1.347.136 6 6 0 0 1-1.86-.289 4 4 0 0 1-1.12.159H79.2q-.147 0-.29-.011c-.448.094-.88.129-1.274.129-.54 0-1.079-.071-1.607-.221q-.436.102-.904.103h-.734c-.85 0-1.639-.266-2.287-.718a4 4 0 0 1-2.287.718H69a4 4 0 0 1-4-4v-6.301a4 4 0 0 1 4-4h2.085c.5 0 1.02.047 1.543.159a4 4 0 0 1 1.763-.408z"/><path fill="#fff" d="M74.125 143.85v-6.55h-.734v6.55z"/><path fill="#fff" fill-rule="evenodd" d="M68 137.549v6.301h.817v-2.44h1.268c.675 0 1.208-.154 1.61-.474.391-.32.593-.817.593-1.457 0-.639-.19-1.125-.593-1.445-.402-.319-.935-.485-1.61-.485zm.817.651h1.15c.473 0 .84.095 1.089.296.249.202.379.533.379.995s-.13.794-.38.995c-.248.201-.615.296-1.089.296h-1.149zM75.523 140.202l.083-.723a2.68 2.68 0 0 1 1.528-.426c.604 0 1.054.118 1.338.355.296.237.438.628.438 1.173v3.269h-.71v-.901h-.036c-.118.344-.308.604-.568.77q-.374.249-.96.249c-.26 0-.497-.047-.722-.142a1.26 1.26 0 0 1-.521-.438 1.35 1.35 0 0 1-.202-.747c0-.296.06-.544.19-.734q.195-.283.533-.426c.225-.095.51-.178.829-.237.39-.071.699-.13.936-.178.225-.059.39-.13.497-.225v-.213c0-.343-.083-.592-.237-.746s-.45-.237-.888-.237q-.41 0-.817.142c-.273.095-.51.237-.723.426H75.5zm2.665 2.072v-.971c-.083.083-.249.142-.474.201s-.497.119-.829.178a1.7 1.7 0 0 0-.687.249c-.177.118-.26.343-.26.651 0 .284.082.486.248.628s.391.201.675.201a1.35 1.35 0 0 0 1.173-.616 1 1 0 0 0 .154-.521" clip-rule="evenodd"/><path fill="#fff" d="M81.488 143.198c-.13-.106-.19-.308-.19-.604h-.023v-2.807h1.338l.095-.616h-1.433v-1.089l-.735.106v1.007l-.758.106-.094.486h.864v2.926c0 .45.118.769.355.971s.569.296.984.296c.177 0 .343-.012.509-.048.154-.035.284-.071.367-.118l.071-.628h-.024a1.6 1.6 0 0 1-.343.119 2 2 0 0 1-.486.047c-.201 0-.367-.047-.497-.154M83.598 138.023a.43.43 0 0 1 .13-.308c.083-.083.19-.119.332-.119s.248.036.331.119a.4.4 0 0 1 .13.308c0 .13-.047.225-.13.308a.46.46 0 0 1-.331.118.48.48 0 0 1-.332-.118.43.43 0 0 1-.13-.308M84.427 139.171v4.691h-.735v-4.691zM89.437 139.444c-.285-.261-.687-.391-1.197-.391-.225 0-.438.035-.663.106q-.337.107-.604.356c-.178.165-.32.379-.403.639h-.035v-.995h-.71v4.691h.733v-2.867c0-.26.06-.485.19-.687.13-.201.296-.343.51-.45.213-.106.45-.154.71-.154.438 0 .746.095.912.296q.249.303.249.889v2.984h.734v-3.197c0-.557-.142-.96-.426-1.22M93.094 143.328c.249 0 .486-.047.699-.154.213-.106.38-.249.51-.45.13-.189.189-.414.189-.675v-2.878h.734v4.69h-.699v-.983h-.035c-.095.261-.225.486-.403.64a1.8 1.8 0 0 1-.592.355 2.1 2.1 0 0 1-.651.107c-.51 0-.913-.131-1.209-.403-.296-.261-.438-.675-.438-1.232v-3.174h.734v3.008c0 .403.083.687.25.877.165.189.473.272.911.272M100.522 140.178h-.036v-.012c-.071-.379-.237-.675-.497-.853s-.604-.272-1.019-.272c-.213 0-.426.035-.64.118a1.6 1.6 0 0 0-.58.355c-.177.166-.296.379-.39.652h-.036v-1.007h-.71v4.69h.734v-2.89q0-.39.177-.675c.119-.201.284-.343.486-.45.201-.107.426-.154.675-.154.438 0 .734.095.888.273.154.189.225.473.225.876v3.02h.735v-2.89c0-.414.13-.734.39-.947.261-.225.581-.332.96-.332.45 0 .746.095.888.273.154.189.225.473.225.876v3.02h.735v-3.162c0-.557-.131-.96-.403-1.232-.273-.272-.663-.403-1.161-.403-.213 0-.438.048-.651.119a1.6 1.6 0 0 0-.593.355 1.6 1.6 0 0 0-.402.652"/><path fill="#fff" fill-rule="evenodd" d="M106.918 143.85v-6.301h2.535c.556 0 .994.142 1.326.426s.498.663.498 1.125c0 .368-.119.664-.356.912a1.53 1.53 0 0 1-.876.45v.024c.45.048.817.213 1.101.486.285.272.415.651.415 1.113 0 .332-.071.628-.202.9a1.5 1.5 0 0 1-.627.64c-.285.154-.652.237-1.09.237h-2.7zm2.333-5.673h-1.528v2.084h1.528c.782 0 1.173-.355 1.173-1.054 0-.355-.095-.616-.296-.782-.202-.166-.486-.248-.877-.248m.119 5.057c.473 0 .817-.095 1.018-.296.202-.202.308-.498.308-.888 0-.391-.106-.699-.32-.901-.213-.201-.556-.296-1.006-.296h-1.647v2.381z" clip-rule="evenodd"/><path fill="#fff" d="M115.399 143.174a1.55 1.55 0 0 1-.699.154c-.439 0-.746-.083-.912-.272-.166-.19-.249-.474-.249-.877v-3.008h-.734v3.174c0 .557.142.971.438 1.232.284.272.687.403 1.196.403.213 0 .438-.036.652-.107.213-.071.414-.201.592-.355.177-.154.308-.379.402-.64h.036v.983h.711v-4.69h-.735v2.878c0 .261-.059.474-.189.675s-.296.344-.509.45M118.087 140.438c0-.307.071-.568.225-.769s.355-.356.616-.462c.26-.107.556-.154.9-.154.284 0 .545.023.77.083.225.059.39.106.509.165l.035.676h-.023a1.2 1.2 0 0 0-.367-.178c-.154-.047-.308-.095-.486-.119a2.4 2.4 0 0 0-.474-.047q-.48 0-.746.142c-.178.095-.272.284-.272.557 0 .166.035.296.118.391a.9.9 0 0 0 .355.237c.154.059.356.13.581.189.32.095.592.19.829.273.237.082.426.213.556.367.131.166.202.402.202.71 0 .486-.154.853-.474 1.102s-.746.379-1.303.379c-.32 0-.604-.036-.888-.107-.272-.071-.497-.154-.675-.272l-.059-.723h.023c.19.166.427.296.735.391.296.095.58.13.852.13.379 0 .652-.059.829-.177.178-.119.261-.32.261-.581a.6.6 0 0 0-.13-.402.9.9 0 0 0-.391-.237l-.089-.03c-.156-.052-.332-.112-.551-.171a12 12 0 0 1-.758-.249 1.3 1.3 0 0 1-.544-.379c-.131-.166-.202-.415-.202-.735zM122.529 137.715a.43.43 0 0 0 0 .616.48.48 0 0 0 .331.118.48.48 0 0 0 .332-.118.4.4 0 0 0 .13-.308.4.4 0 0 0-.13-.308c-.083-.083-.19-.119-.332-.119s-.248.036-.331.119M123.228 143.862v-4.691h-.735v4.691zM127.045 139.053c.509 0 .912.13 1.196.391.285.26.427.663.427 1.22v3.197h-.735v-2.984q0-.586-.248-.889c-.166-.201-.474-.296-.912-.296-.261 0-.498.048-.711.154a1.25 1.25 0 0 0-.509.45c-.119.19-.19.427-.19.687v2.867h-.734v-4.691h.699v.995h.047c.095-.26.225-.474.403-.639q.266-.25.604-.356c.225-.071.438-.106.663-.106"/><path fill="#fff" fill-rule="evenodd" d="M133.177 143.21c-.272.107-.604.154-1.03.154l.023-.024c-.521 0-.923-.165-1.219-.485s-.462-.758-.462-1.315v-.023h3.541c.012-.06.024-.119.024-.202v-.201c0-.415-.071-.77-.214-1.09a1.56 1.56 0 0 0-.675-.734c-.308-.178-.698-.261-1.196-.261a2.13 2.13 0 0 0-1.149.32 2.3 2.3 0 0 0-.805.877c-.201.367-.296.793-.296 1.267s.095.9.296 1.267c.189.379.474.663.829.877q.533.32 1.244.319c.438 0 .793-.047 1.089-.154.296-.106.509-.213.652-.331l.071-.675h-.012c-.213.177-.45.308-.711.414m-2.215-3.221c.261-.249.593-.379 1.007-.379h.012c.343 0 .616.047.817.165.19.119.332.273.415.474.071.202.118.45.118.723v.083H130.5q.09-.694.462-1.066" clip-rule="evenodd"/><path fill="#fff" d="M134.989 140.438c0-.307.071-.568.225-.769s.355-.356.616-.462.557-.154.9-.154c.284 0 .545.023.77.083.225.059.391.106.509.165l.036.676h-.024a1.2 1.2 0 0 0-.367-.178c-.154-.047-.308-.095-.486-.119a2.4 2.4 0 0 0-.473-.047q-.48 0-.747.142c-.177.095-.272.284-.272.557 0 .166.036.296.118.391a.9.9 0 0 0 .356.237c.154.059.355.13.58.189.32.095.592.19.829.273.237.082.427.213.557.367.13.166.201.402.201.71 0 .486-.154.853-.474 1.102s-.746.379-1.302.379c-.32 0-.604-.036-.889-.107-.272-.071-.497-.154-.675-.272l-.059-.723h.024c.189.166.426.296.734.391.296.095.58.13.853.13.379 0 .651-.059.829-.177.177-.119.26-.32.26-.581a.6.6 0 0 0-.13-.402.9.9 0 0 0-.391-.237l-.088-.03c-.156-.052-.333-.112-.551-.171a11 11 0 0 1-.758-.249 1.3 1.3 0 0 1-.545-.379c-.13-.166-.202-.415-.202-.735zM139.48 139.669c-.154.201-.225.462-.225.769h-.036c0 .32.071.569.201.735.143.166.32.296.545.379s.474.166.758.249c.219.059.395.119.551.171l.089.03a.9.9 0 0 1 .391.237c.083.095.13.237.13.402 0 .261-.083.462-.261.581-.177.118-.45.177-.829.177-.272 0-.556-.035-.852-.13a2 2 0 0 1-.735-.391h-.023l.059.723c.177.118.403.201.675.272.284.071.568.107.888.107.557 0 .983-.13 1.303-.379s.474-.616.474-1.102c0-.308-.071-.544-.202-.71a1.26 1.26 0 0 0-.556-.367 17 17 0 0 0-.829-.273 6 6 0 0 1-.581-.189.9.9 0 0 1-.355-.237c-.083-.095-.118-.225-.118-.391 0-.273.094-.462.272-.557q.266-.142.746-.142c.142 0 .296.012.474.047.178.024.332.072.486.119s.272.107.367.178h.023l-.035-.676a3 3 0 0 0-.509-.165 3 3 0 0 0-.77-.083c-.344 0-.64.047-.9.154-.261.106-.462.26-.616.462"/></g><defs><clipPath id="a"><path fill="#fff" d="M0 0h160v160H0z"/></clipPath><clipPath id="b"><path fill="#fff" d="M67.93-88 369.522 1.615l-89.93 300.54L-22 212.538z"/></clipPath></defs></svg>