<svg xmlns="http://www.w3.org/2000/svg" fill="none" viewBox="0 0 168 88"><g clip-path="url(#a)"><path fill="#090808" d="M0 0h168v88H0z"/><g fill="#fff" clip-path="url(#b)"><path d="M77.84 131.737c-5.763-1.712-9.867-4.678-12.069-8.842-5.41-10.219 1.373-26.778 18.604-45.433C118.006 41.058 181.8 6.18 226.577-.284c20.444-2.952 34.357.433 39.172 9.533 5.41 10.22-1.372 26.778-18.604 45.433-33.631 36.404-97.425 71.282-142.202 77.746-11.095 1.604-20.267 1.336-27.106-.696zM226.71.629C182.112 7.068 118.564 41.816 85.055 78.09c-16.953 18.35-23.683 34.526-18.467 44.381 4.621 8.732 18.195 11.946 38.227 9.054 44.599-6.439 108.146-41.187 141.655-77.461 16.953-18.35 23.683-34.526 18.468-44.382C260.32.952 246.742-2.263 226.711.63"/><path d="M73.357 131.659c-6.736-2.001-11.392-5.483-13.626-10.343-5.228-11.366 3.249-29.092 23.256-48.64C120.729 35.8 188.497 2.686 234.05-1.143c20.01-1.682 33.413 2.574 37.738 11.979 5.229 11.366-3.248 29.093-23.255 48.641-37.742 36.875-105.511 69.988-151.064 73.817-9.675.813-17.809.238-24.113-1.636M257.907 1.365c-6.182-1.837-14.201-2.394-23.781-1.591-45.375 3.812-112.887 36.807-150.497 73.56-19.713 19.259-28.12 36.609-23.061 47.602 4.151 9.026 17.23 13.09 36.822 11.446 45.374-3.812 112.888-36.811 150.497-73.56 19.713-19.259 28.119-36.61 23.061-47.602-2.124-4.616-6.577-7.93-13.046-9.852z"/><path d="M69.304 131.407c-7.933-2.357-13.254-6.475-15.492-12.168-4.958-12.618 5.363-31.51 28.316-51.826C124.04 30.316 195.591-.617 241.631-1.547c19.446-.392 32.258 4.744 36.075 14.457 4.958 12.618-5.359 31.512-28.316 51.826-41.912 37.097-113.463 68.031-159.503 68.959-8.056.164-14.972-.624-20.582-2.291zM261.966 1.624c-5.511-1.637-12.34-2.409-20.316-2.25C195.798.3 124.514 31.132 82.74 68.104c-22.648 20.046-32.878 38.564-28.068 50.803 3.666 9.329 16.167 14.256 35.198 13.873 45.853-.926 117.14-31.757 158.911-68.73 22.648-20.046 32.878-38.564 28.068-50.803-2.128-5.42-7.243-9.353-14.883-11.623"/><path d="M65.554 131.021c-9.325-2.771-15.277-7.626-17.485-14.387-4.576-13.994 7.738-34.024 33.79-54.95C127.968 24.641 203.066-3.683 249.27-1.454c19.033.916 30.853 6.784 34.186 16.965 4.575 13.995-7.739 34.024-33.79 54.951-46.111 37.041-121.208 65.365-167.411 63.133-6.396-.307-11.979-1.176-16.697-2.577zM265.711 2.008c-4.646-1.38-10.154-2.235-16.488-2.54C203.216-2.752 128.395 25.48 82.437 62.4 56.7 83.078 44.494 102.738 48.946 116.352c3.201 9.787 14.734 15.437 33.353 16.334 46.008 2.22 120.829-26.013 166.787-62.934 25.735-20.676 37.943-40.336 33.491-53.95-2.113-6.46-7.854-11.116-16.866-13.794"/><path d="M62.669 130.561c-11.16-3.316-18.04-9.123-20.124-17.104-4.048-15.493 10.418-36.622 39.683-57.963C132.535 18.806 210.897-6.45 256.907-.811c18.232 2.235 29.325 8.978 32.073 19.504 4.048 15.493-10.418 36.621-39.683 57.962-50.307 36.688-128.669 61.944-174.68 56.305-4.406-.539-8.393-1.343-11.948-2.399M268.6 2.473c-3.505-1.042-7.446-1.836-11.804-2.37-45.81-5.616-123.878 19.562-174.021 56.133-28.522 20.8-43.227 42.102-39.338 56.989 2.647 10.127 13.465 16.636 31.292 18.821 45.813 5.617 123.878-19.561 174.021-56.132 28.522-20.801 43.227-42.103 39.338-56.99-1.997-7.65-8.664-13.235-19.488-16.451"/><path d="M60.625 130.14c-13.47-4.003-21.494-11.013-23.336-20.483-3.28-16.867 13.914-39.602 45.996-60.81C137.755 12.834 219.043-8.892 264.482.418c17.344 3.552 27.626 11.188 29.745 22.078 3.28 16.866-13.913 39.6-45.996 60.809-54.474 36.012-135.758 57.739-181.197 48.429a77 77 0 0 1-6.409-1.594M264.39.866l-.093.449C219.066-7.954 138.094 13.713 83.795 49.612 52.035 70.609 34.988 92.99 38.197 109.483c2.042 10.498 12.08 17.88 29.024 21.35 45.232 9.269 126.203-12.397 180.502-48.296 31.762-20.997 48.808-43.379 45.598-59.868-2.042-10.498-12.08-17.88-29.028-21.352l.093-.448z"/><path d="m59.606 129.887-.023-.007c-16.372-4.869-25.776-13.411-27.201-24.707-2.346-18.587 17.358-42.298 52.707-63.417 58.557-34.99 142.358-52.703 186.82-39.491l.023.007c16.372 4.869 25.777 13.411 27.202 24.707 2.345 18.587-17.362 42.297-52.707 63.417-58.558 34.989-142.358 52.703-186.82 39.491M271.65 3.144c-44.248-13.148-127.713 4.525-186.083 39.4-35.026 20.93-54.565 44.3-52.267 62.517 1.376 10.904 10.557 19.182 26.55 23.939l.024.007c44.249 13.148 127.717-4.524 186.083-39.4 35.026-20.93 54.566-44.3 52.267-62.518-1.376-10.904-10.556-19.181-26.551-23.938z"/><path d="M59.654 129.905a81 81 0 0 1-7.328-2.546c-15.34-6.193-23.791-15.673-24.438-27.42-1.126-20.414 21.233-44.975 59.799-65.7C150.243.624 236.15-12.582 279.19 4.788c15.34 6.193 23.792 15.673 24.438 27.42 1.122 20.414-21.232 44.975-59.798 65.701-59.182 31.8-139.266 45.337-184.176 31.996M271.571 3.116c-44.683-13.277-124.45.238-183.443 31.937-38.248 20.55-60.422 44.79-59.316 64.838.624 11.364 8.876 20.565 23.865 26.617 42.808 17.28 128.37 4.092 190.717-29.407 38.248-20.551 60.423-44.79 59.316-64.838-.623-11.364-8.876-20.566-23.864-26.617a82 82 0 0 0-7.276-2.526z"/><path d="M60.92 130.352c-5.722-1.7-10.942-3.768-15.583-6.219-14.265-7.537-21.674-18.003-21.436-30.261.439-22.313 25.57-47.564 67.228-67.545C157.524-5.514 245.026-13.726 286.174 8.023c14.265 7.537 21.674 18.003 21.437 30.261-.439 22.313-25.571 47.564-67.228 67.545-58.913 28.254-134.441 37.901-179.465 24.527zM270.276 2.662c-44.79-13.31-120.024-3.67-178.749 24.496C50.191 46.985 25.255 71.93 24.822 93.889c-.234 11.886 7.01 22.068 20.945 29.432 4.601 2.431 9.792 4.487 15.467 6.173 44.791 13.309 120.025 3.669 178.75-24.496 41.337-19.827 66.277-44.771 66.706-66.731.234-11.887-7.011-22.068-20.946-29.432-4.601-2.431-9.791-4.487-15.467-6.173"/><path d="M63.586 131.422c-9.603-2.854-18.02-6.605-24.883-11.263-13.15-8.932-19.43-20.45-18.163-33.303 2.394-24.24 30.404-49.965 74.923-68.822 70.046-29.664 158.578-32.376 197.352-6.04 13.15 8.932 19.43 20.45 18.163 33.304-2.394 24.24-30.404 49.964-74.923 68.821-57.648 24.413-127.82 30.57-172.47 17.306zM267.612 1.58c-44.417-13.198-114.32-7.036-171.788 17.302C51.62 37.605 23.818 63.048 21.456 86.946c-1.236 12.499 4.908 23.723 17.76 32.455 38.548 26.178 126.683 23.431 196.473-6.127 44.205-18.723 72.006-44.166 74.364-68.065 1.236-12.5-4.907-23.723-17.761-32.451-6.807-4.622-15.162-8.346-24.685-11.175z"/><path d="M67.78 133.334c-14.31-4.252-26.413-10.241-35.276-17.928-12.007-10.408-17.037-23.077-14.552-36.629 4.793-26.109 35.74-52.045 82.78-69.375 73.454-27.062 162.406-23.77 198.291 7.338 12.007 10.409 17.037 23.077 14.552 36.629-4.794 26.109-35.741 52.045-82.78 69.375-55.307 20.378-119.401 23.545-163.013 10.586zM263.436-.341c-43.387-12.892-107.244-9.713-162.383 10.603-46.732 17.22-77.46 42.894-82.19 68.682-2.427 13.218 2.502 25.587 14.248 35.769 35.656 30.915 124.195 34.131 197.365 7.171 46.732-17.219 77.46-42.893 82.19-68.682 2.427-13.217-2.502-25.587-14.248-35.769-8.788-7.619-20.791-13.557-34.982-17.774"/><path d="M73.524 136.307c-19.901-5.913-36.226-14.811-46.706-26.451C16 97.836 12.367 83.885 16.318 69.515c7.65-27.83 41.538-53.642 90.647-69.046 76.579-24.018 165.282-14.227 197.734 21.828 10.818 12.02 14.448 25.97 10.5 40.341-7.65 27.83-41.538 53.642-90.646 69.045-51.859 16.267-109.286 17.028-151.03 4.624M257.71-3.307C216.174-15.65 158.95-14.874 107.242 1.346c-48.81 15.31-82.465 40.885-90.034 68.413-3.865 14.056-.304 27.707 10.296 39.486 32.234 35.812 120.502 45.486 196.77 21.565 48.807-15.311 82.465-40.884 90.034-68.412 3.865-14.056.304-27.708-10.296-39.486-10.379-11.53-26.572-20.357-46.301-26.22"/><path d="M80.664 140.51c-26.316-7.82-47.43-20.45-58.906-37.042-9.562-13.82-11.588-29.226-5.858-44.545C26.848 29.648 63.6 4.356 114.216-8.729c79.366-20.52 167.094-3.74 195.556 37.407 9.561 13.82 11.588 29.226 5.857 44.545-10.948 29.275-47.699 54.567-98.315 67.652-47.362 12.244-97.702 11.208-136.646-.364zM250.61-7.508c-38.765-11.519-88.934-12.542-136.166-.33-50.324 13.01-86.841 38.09-97.68 67.084-5.618 15.025-3.632 30.137 5.752 43.702 28.259 40.855 115.542 57.471 194.562 37.038 50.324-13.011 86.84-38.087 97.685-67.083 5.617-15.025 3.627-30.139-5.753-43.702-11.37-16.436-32.302-28.954-58.4-36.71"/><path d="M88.797 146.059c-33.418-9.93-59.763-27.256-71.4-49.825-8.185-15.878-8.335-32.932-.432-49.323C31.577 16.606 71.027-7.71 122.493-18.126c81.77-16.55 167.734 7.694 191.629 54.044 8.185 15.878 8.335 32.932.432 49.323-14.612 30.305-54.062 54.621-105.528 65.037-41.953 8.491-85.016 6.245-120.23-4.219M242.5-13.041c-35.065-10.42-77.987-12.654-119.826-4.182C71.492-6.864 32.282 17.262 17.796 47.31c-7.772 16.12-7.624 32.892.42 48.504 23.719 46.008 109.232 70.039 190.627 53.564 51.183-10.359 90.393-34.485 104.879-64.535 7.772-16.119 7.624-32.89-.42-48.504-11.525-22.358-37.655-39.529-70.802-49.378z"/><path d="M97.302 152.953c-40.935-12.163-72.744-35.309-83.457-64.822C7.221 69.881 9.3 50.958 19.853 33.41 38.37 2.621 80.232-20.213 131.836-27.674c83.73-12.106 167.096 20.057 185.836 71.695 6.624 18.25 4.546 37.174-6.009 54.722-18.515 30.788-60.378 53.622-111.982 61.083-35.876 5.186-71.692 2.245-102.379-6.873m136.705-172.88c-30.568-9.083-66.263-12.013-102.04-6.839C80.633-19.345 39.017 3.326 20.643 33.88 10.237 51.182 8.186 69.834 14.71 87.817c18.6 51.249 101.514 83.145 184.835 71.1 51.334-7.422 92.95-30.093 111.324-60.646 10.406-17.302 12.457-35.954 5.932-53.937-10.612-29.243-42.173-52.19-82.795-64.261"/><path d="M105.423 161.123c-48.562-14.43-85.72-44.67-94.22-81.967-4.786-20.993-.043-41.994 13.71-60.727 22.47-30.607 66.34-51.445 117.353-55.742C227.465-44.488 307.339-3.973 320.322 53c4.786 20.993.043 41.993-13.71 60.726-22.469 30.607-66.339 51.446-117.353 55.742-29.422 2.477-58.217-.736-83.836-8.344M225.885-28.089c-25.519-7.583-54.214-10.783-83.547-8.313-50.75 4.276-94.37 24.973-116.684 55.37C12.062 37.48 7.374 58.224 12.099 78.95c12.887 56.542 92.322 96.736 177.077 89.599 50.751-4.276 94.374-24.972 116.685-55.37 13.592-18.512 18.279-39.256 13.555-59.982-8.427-36.974-45.312-66.958-93.535-81.287z"/><path d="M112.431 170.427C56.382 153.772 14.418 115.057 9.557 69.306c-2.57-24.15 5.35-47.402 22.894-67.24 26.26-29.691 71.615-48.023 121.331-49.039C239.893-48.729 315.338.536 321.964 62.847c2.568 24.146-5.349 47.399-22.897 67.235-26.261 29.692-71.615 48.023-121.331 49.039-22.886.467-45.021-2.671-65.307-8.699zM218.862-37.389c-20.21-6.005-42.254-9.129-65.064-8.664C104.337-45.045 59.233-26.83 33.141 2.672 15.773 22.314 7.93 45.32 10.471 69.205c4.823 45.38 46.506 83.788 102.184 100.336 20.21 6.006 42.254 9.129 65.064 8.665 49.461-1.009 94.565-19.225 120.656-48.727 17.369-19.641 25.208-42.648 22.67-66.532-4.823-45.38-46.504-83.792-102.183-100.336"/><path d="M117.758 180.721C54.508 161.927 8.74 113.274 9.015 58.574c.139-27.723 11.8-53.331 33.726-74.044 30.103-28.446 75.177-43.426 123.658-41.101 86.421 4.146 156.453 62.534 156.113 130.15-.139 27.725-11.8 53.329-33.726 74.045-30.103 28.446-75.178 43.426-123.661 41.1-16.508-.791-32.432-3.565-47.371-8.004zm95.763-228.405c-14.878-4.421-30.717-7.183-47.169-7.97-48.234-2.314-93.056 12.576-122.979 40.848-21.737 20.54-33.3 45.913-33.438 73.385-.274 54.282 45.215 102.578 108.067 121.258 14.878 4.421 30.717 7.183 47.169 7.97 48.234 2.314 93.056-12.576 122.979-40.848 21.737-20.541 33.299-45.913 33.437-73.38.274-54.283-45.214-102.583-108.067-121.26z"/><path d="M121.028 191.873C50.906 171.037 2.727 110.941 9.668 46.978c3.392-31.264 19.819-59.984 46.257-80.874 32.967-26.052 78.23-37.764 124.183-32.142 86.068 10.53 149.656 78.367 141.751 151.21-3.391 31.265-19.817 59.984-46.251 80.872-32.967 26.051-78.23 37.764-124.183 32.142a186 186 0 0 1-30.388-6.314zm89.208-250.714a185 185 0 0 0-30.243-6.284c-45.708-5.594-90.72 6.052-123.494 31.95-26.244 20.737-42.55 49.236-45.913 80.252C3.696 110.59 51.593 170.28 121.288 190.99a185 185 0 0 0 30.244 6.284c45.707 5.595 90.722-6.051 123.494-31.95 26.238-20.734 42.544-49.233 45.908-80.253 6.891-63.514-41.007-123.204-110.702-143.913z"/><path d="M122.059 203.78C45.332 180.99-3.505 107.935 11.618 34.538 27.681-43.405 109.896-92.666 194.887-75.275c41.164 8.425 76.84 31.044 100.451 63.685 23.622 32.657 32.342 71.44 24.559 109.204-7.781 37.761-31.135 69.98-65.757 90.723-34.611 20.734-76.342 27.511-117.506 19.087a173 173 0 0 1-14.574-3.647zm87.296-274.486a174 174 0 0 0-14.655-3.668C110.206-91.664 28.483-42.724 12.523 34.72c-15.026 72.921 33.542 145.515 109.8 168.179a172 172 0 0 0 14.496 3.628c40.938 8.378 82.433 1.638 116.846-18.977 34.399-20.606 57.601-52.61 65.331-90.117 7.727-37.508-.937-76.034-24.407-108.48-20.625-28.518-50.517-49.34-85.235-59.656z"/><path d="M120.794 216.345C37.647 191.639-9.829 104.127 14.966 21.267s112.611-130.166 195.758-105.46 130.623 112.218 105.83 195.074-112.612 130.167-195.759 105.461zM210.46-83.311C127.801-107.872 40.498-60.84 15.85 21.53-8.797 103.9 38.4 190.902 121.058 215.464c82.659 24.561 169.966-22.471 194.615-104.844 24.648-82.374-22.55-169.369-105.213-193.931"/></g><mask id="c" width="73" height="29" x="75.451" y="24.012" fill="#000" maskUnits="userSpaceOnUse"><path fill="#fff" d="M75.451 24.012h73v29h-73z"/><path d="m104.58 28.367-8.316 19.782h-5.43l-4.098-15.78c-.25-.971-.464-1.327-1.224-1.74-1.235-.664-3.267-1.291-5.06-1.682l.118-.58h8.744c1.117 0 2.115.734 2.364 2.012l2.162 11.449 5.346-13.461zm21.265 13.318c.024-5.22-7.246-5.505-7.199-7.837.012-.71.689-1.468 2.174-1.657.737-.095 2.768-.166 5.061.888l.903-4.191c-1.236-.45-2.828-.876-4.8-.876-5.072 0-8.648 2.687-8.672 6.535-.036 2.841 2.554 4.44 4.502 5.386 1.996.971 2.673 1.587 2.662 2.463-.012 1.326-1.592 1.918-3.077 1.93-2.578.047-4.087-.699-5.275-1.244l-.927 4.333c1.2.545 3.41 1.03 5.715 1.054 5.393 0 8.922-2.652 8.945-6.772m13.401 6.464h4.752l-4.146-19.794h-4.384a2.33 2.33 0 0 0-2.186 1.456l-7.698 18.326h5.394l1.069-2.947h6.581l.618 2.947zm-5.726-7.008 2.709-7.435 1.556 7.435h-4.265m-21.61-12.786-4.241 19.782h-5.133l4.23-19.782h5.144"/></mask><path fill="#fff" d="m104.58 28.367-8.316 19.782h-5.43l-4.098-15.78c-.25-.971-.464-1.327-1.224-1.74-1.235-.664-3.267-1.291-5.06-1.682l.118-.58h8.744c1.117 0 2.115.734 2.364 2.012l2.162 11.449 5.346-13.461zm21.265 13.318c.024-5.22-7.246-5.505-7.199-7.837.012-.71.689-1.468 2.174-1.657.737-.095 2.768-.166 5.061.888l.903-4.191c-1.236-.45-2.828-.876-4.8-.876-5.072 0-8.648 2.687-8.672 6.535-.036 2.841 2.554 4.44 4.502 5.386 1.996.971 2.673 1.587 2.662 2.463-.012 1.326-1.592 1.918-3.077 1.93-2.578.047-4.087-.699-5.275-1.244l-.927 4.333c1.2.545 3.41 1.03 5.715 1.054 5.393 0 8.922-2.652 8.945-6.772m13.401 6.464h4.752l-4.146-19.794h-4.384a2.33 2.33 0 0 0-2.186 1.456l-7.698 18.326h5.394l1.069-2.947h6.581l.618 2.947zm-5.726-7.008 2.709-7.435 1.556 7.435h-4.265m-21.61-12.786-4.241 19.782h-5.133l4.23-19.782h5.144"/><path fill="#000" d="m104.58 28.367 3.687 1.55a4 4 0 0 0-3.687-5.55zm-8.316 19.782v4a4 4 0 0 0 3.687-2.45zm-5.43 0-3.871 1.006a4 4 0 0 0 3.872 2.994zm-4.098-15.78-3.874.995.002.01zm-1.224-1.74 1.914-3.513-.023-.013zm-5.06-1.682-3.92-.803a4 4 0 0 0 3.068 4.711zm.118-.58v-4a4 4 0 0 0-3.919 3.197zm11.108 2.012 3.93-.742-.004-.024zm2.162 11.449-3.93.742a4 4 0 0 0 7.648.734zm5.346-13.461v-4a4 4 0 0 0-3.717 2.523zm19.46 5.481 3.999.082v-.015zm2.174-1.657.506 3.968h.004zm5.061.888-1.67 3.634a4 4 0 0 0 5.58-2.792zm.903-4.191 3.91.842a4 4 0 0 0-2.541-4.6zm-13.472 5.659 4 .05v-.026zm4.502 5.386 1.75-3.597h-.001zm2.662 2.463-4-.054v.018zm-3.077 1.93-.032-4h-.042zm-5.275-1.244 1.667-3.636a4 4 0 0 0-5.579 2.8zm-.927 4.333-3.911-.836a4 4 0 0 0 2.258 4.479zm5.715 1.054-.042 4h.042zm22.346-.308h-4a4 4 0 0 0 4 4zm4.752 0v4a4 4 0 0 0 3.915-4.82zm-4.146-19.794 3.915-.82a4 4 0 0 0-3.915-3.18zm-6.57 1.456 3.688 1.55.007-.017zm-7.698 18.326-3.688-1.549a3.998 3.998 0 0 0 3.688 5.55zm5.394 0v4a4 4 0 0 0 3.76-2.636zm1.069-2.947v-4a4 4 0 0 0-3.76 2.636zm6.581 0 3.915-.82a4 4 0 0 0-3.915-3.18zm.618 2.947h4q0-.414-.085-.82zm-5.726-6.996-3.758-1.37a3.998 3.998 0 0 0 3.758 5.37zm2.709-7.435 3.915-.82a4 4 0 0 0-7.674-.55zm1.556 7.435v4a4 4 0 0 0 3.915-4.82zm-25.875-12.786 3.911.838a4.002 4.002 0 0 0-3.911-4.838zm-4.241 19.782v4a4 4 0 0 0 3.911-3.161zm-5.133 0-3.911-.836a4 4 0 0 0 3.911 4.836zm4.23-19.782v-4a4 4 0 0 0-3.912 3.164zm-5.886-1.55-8.316 19.782 7.375 3.1 8.316-19.782zm-4.628 17.332h-5.43v8h5.43zm-1.558 2.995-4.099-15.781-7.743 2.01 4.099 15.782zM90.61 31.373c-.14-.548-.393-1.467-.996-2.346-.675-.985-1.52-1.547-2.188-1.911l-3.828 7.024c.058.032-.014-.001-.137-.102a2.4 2.4 0 0 1-.444-.486 2 2 0 0 1-.21-.386c-.01-.025.008.016.055.198zm-3.207-4.27c-1.72-.923-4.176-1.645-6.1-2.064L79.6 32.855c1.663.363 3.271.895 4.02 1.298zM84.37 29.75l.119-.58-7.838-1.605-.118.58zm-3.8 2.618h8.744v-8H80.57zm8.744 0c-.325 0-.7-.111-1.023-.376a1.5 1.5 0 0 1-.539-.846l7.852-1.532c-.621-3.184-3.288-5.246-6.29-5.246zm-1.566-1.245L89.91 42.57l7.86-1.485-2.161-11.448zm9.81 12.182 5.346-13.46-7.435-2.954-5.346 13.461zm1.628-10.937h5.394v-8h-5.394zm30.659 9.337c.023-4.99-3.668-7.396-5.65-8.509-.517-.29-1.052-.564-1.426-.76a12 12 0 0 1-.843-.472c-.643-.415.755.209.719 1.967l-7.998-.163c-.06 2.924 2.229 4.458 2.935 4.914a19 19 0 0 0 1.468.837c.472.248.841.436 1.229.654 1.635.918 1.568 1.263 1.566 1.495zm-7.2-7.789c-.015.955-.484 1.627-.879 1.961-.374.317-.62.306-.44.283l-1.012-7.936c-2.42.309-5.607 1.97-5.667 5.558zm-1.315 2.243c.208-.027 1.443-.106 2.881.555l3.34-7.269c-3.147-1.446-5.976-1.383-7.241-1.22zm8.461-2.237.903-4.19-7.82-1.686-.903 4.191zm-1.638-8.792c-1.53-.557-3.597-1.117-6.169-1.117v8c1.373 0 2.49.292 3.431.634zm-6.169-1.117c-3.206 0-6.268.846-8.635 2.629-2.435 1.833-4.017 4.598-4.037 7.881l8 .05c.003-.565.222-1.068.849-1.54.694-.523 1.957-1.02 3.823-1.02zm-12.672 10.484c-.035 2.8 1.273 4.898 2.7 6.304 1.36 1.339 2.968 2.203 4.054 2.73l3.497-7.194c-.862-.42-1.523-.828-1.937-1.236-.346-.34-.315-.462-.314-.503zm6.753 9.034c.439.214.738.376.94.498.209.126.238.165.181.113a2.2 2.2 0 0 1-.455-.649 2.6 2.6 0 0 1-.255-1.15l7.999.108c.024-1.78-.777-3.187-1.866-4.19-.881-.813-2.013-1.422-3.045-1.924zm.411-1.17a2.53 2.53 0 0 1 .468-1.43c.263-.368.537-.538.641-.594.107-.058.14-.055.067-.039a1.5 1.5 0 0 1-.285.029l.064 8c1.175-.01 2.638-.238 3.963-.955 1.406-.761 3.058-2.367 3.081-4.94zm.849-2.034c-.867.016-1.485-.1-1.96-.239-.518-.152-.92-.34-1.574-.64l-3.334 7.272c1.27.582 3.479 1.67 7.015 1.606zm-9.113 1.92-.926 4.333 7.823 1.673.926-4.333zm1.332 8.812c1.829.83 4.618 1.383 7.326 1.41l.083-7.999a14.4 14.4 0 0 1-2.55-.258c-.798-.155-1.327-.336-1.553-.438zm7.368 1.411c3.304 0 6.46-.808 8.897-2.65 2.539-1.917 4.029-4.774 4.048-8.099l-8-.046c-.004.796-.29 1.324-.87 1.762-.681.515-1.987 1.033-4.075 1.033zm22.346-.308h4.752v-8h-4.752zm8.667-4.82-4.146-19.794-7.83 1.64 4.146 19.794zm-8.061-22.974h-4.384v8h4.384zm-4.384 0a6.33 6.33 0 0 0-5.88 3.924l7.389 3.065c-.112.269-.315.533-.605.728a1.64 1.64 0 0 1-.904.283zm-5.873 3.907L121.908 46.6l7.376 3.099 7.698-18.327zm-4.011 23.875h5.394v-8h-5.394zm9.154-2.636 1.069-2.948-7.52-2.727-1.07 2.947zm-2.691-.311h6.581v-8h-6.581zm2.666-3.18.618 2.948 7.83-1.641-.618-2.948zm.533 2.127v.012h8v-.012zm2.032-5.627 2.709-7.435-7.517-2.738-2.708 7.434zm-4.965-7.984 1.557 7.434 7.83-1.639-1.556-7.435zm5.472 2.615h-4.253v8h4.253zm-4.253 0h-.012v8h.012zm-25.533-9.625-4.242 19.783 7.823 1.677 4.241-19.783zm-.33 16.621h-5.133v8h5.133zm-1.221 4.837 4.229-19.783-7.823-1.672-4.23 19.782zm.318-16.62h5.132v-8h-5.132zm5.132 0h.012v-8h-.012z" mask="url(#c)"/><mask id="d" width="83" height="15" x="65.178" y="49.335" fill="#000" maskUnits="userSpaceOnUse"><path fill="#fff" d="M65.178 49.335h83v15h-83z"/><path d="M69.178 59.882v-6.298h2.09c.678 0 1.212.165 1.616.485s.594.805.594 1.444c0 .64-.202 1.137-.594 1.456-.404.32-.938.474-1.615.474h-1.272v2.439zm1.972-5.647h-1.153v2.58h1.153c.475 0 .843-.094 1.093-.295.25-.202.38-.533.38-.995s-.13-.793-.38-.994c-.25-.202-.618-.296-1.093-.296M75.32 53.335v6.547h-.737v-6.547zM76.722 56.235l.083-.722c.178-.118.404-.225.665-.307.261-.083.558-.119.867-.119.606 0 1.058.118 1.343.355.297.237.44.628.44 1.172v3.268h-.713v-.9h-.036c-.119.343-.309.604-.57.77q-.374.248-.963.248a1.8 1.8 0 0 1-.724-.142 1.25 1.25 0 0 1-.523-.438 1.34 1.34 0 0 1-.202-.746c0-.296.06-.544.19-.734q.195-.284.535-.426c.225-.095.51-.178.831-.237.392-.07.701-.13.939-.177.226-.06.392-.13.499-.225v-.213c0-.344-.083-.592-.238-.746s-.451-.237-.89-.237a2.5 2.5 0 0 0-.82.142c-.274.095-.511.237-.725.426h-.012zm2.673 2.072v-.97c-.083.082-.25.141-.475.2-.226.06-.5.12-.832.178-.285.048-.511.13-.69.249-.177.118-.26.343-.26.651 0 .284.083.485.249.627s.392.202.677.202.511-.06.713-.178a1.3 1.3 0 0 0 .463-.438 1 1 0 0 0 .155-.52M82.52 58.627c0 .296.059.497.19.604.13.106.296.154.498.154.19 0 .357-.012.487-.048.143-.035.25-.07.345-.118h.024l-.072.627a1.5 1.5 0 0 1-.368.119 2.4 2.4 0 0 1-.51.047c-.417 0-.75-.095-.987-.296s-.356-.52-.356-.97V55.82h-.868l.096-.485.76-.107v-1.006l.736-.107v1.09h1.438l-.095.615h-1.343v2.806zM84.824 54.057a.43.43 0 0 1 .13-.308c.084-.083.19-.118.333-.118s.25.035.333.118a.4.4 0 0 1 .13.308.4.4 0 0 1-.13.308.46.46 0 0 1-.333.118.48.48 0 0 1-.332-.118.43.43 0 0 1-.131-.308m.832 1.148v4.689h-.737v-4.688zM89.481 55.087c.51 0 .915.13 1.2.39.285.261.428.664.428 1.22v3.197h-.737V56.91q0-.585-.25-.888c-.166-.2-.475-.296-.914-.296-.262 0-.5.048-.713.154a1.22 1.22 0 0 0-.701 1.137v2.865h-.737v-4.688h.713v.994h.036c.083-.26.226-.474.404-.64q.267-.248.606-.354c.225-.071.44-.107.665-.107M94.352 59.36c.25 0 .487-.047.7-.153a1.25 1.25 0 0 0 .512-.45c.13-.19.19-.414.19-.675v-2.876h.736v4.688h-.7v-.983h-.036c-.095.26-.226.485-.404.64a1.8 1.8 0 0 1-.594.354c-.226.072-.44.107-.654.107-.51 0-.914-.13-1.211-.403-.297-.26-.44-.674-.44-1.23v-3.173h.737v3.006c0 .403.083.687.25.877.165.189.474.272.914.272M101.765 56.212h.036c.095-.273.226-.486.404-.651s.38-.285.594-.355c.214-.072.439-.119.653-.119.499 0 .891.13 1.164.403.274.272.404.674.404 1.23v3.162h-.736v-3.02c0-.402-.072-.686-.226-.875-.143-.178-.44-.273-.891-.273-.38 0-.701.107-.962.332-.262.213-.392.533-.392.947v2.889h-.737v-3.02c0-.402-.071-.686-.226-.875-.154-.178-.451-.273-.89-.273-.25 0-.476.048-.678.154a1.2 1.2 0 0 0-.487.45q-.178.285-.178.675v2.889h-.737v-4.688h.713V56.2h.036c.095-.272.214-.486.392-.651s.368-.284.582-.355c.214-.083.428-.119.641-.119.416 0 .761.095 1.022.272.262.178.428.474.499.853zM108.216 59.882v-6.298h2.542c.559 0 .998.142 1.331.426s.499.663.499 1.124c0 .367-.119.663-.356.912-.238.249-.535.39-.88.45v.024c.452.047.82.213 1.105.485s.416.651.416 1.113c0 .331-.071.627-.202.9a1.5 1.5 0 0 1-.629.639c-.286.154-.654.237-1.093.237h-2.709zm2.34-5.671h-1.532v2.084h1.532c.785 0 1.177-.355 1.177-1.054 0-.355-.095-.616-.297-.781s-.487-.249-.88-.249m.119 5.055c.476 0 .82-.095 1.022-.296s.309-.497.309-.888c0-.39-.107-.698-.321-.9-.214-.2-.558-.295-1.01-.295h-1.651v2.38zM116.021 59.36c.25 0 .487-.047.701-.153.214-.107.38-.249.511-.45s.19-.414.19-.675v-2.876h.737v4.688h-.713v-.983h-.036c-.095.26-.225.485-.404.64-.178.153-.38.283-.594.354a2.1 2.1 0 0 1-.653.107c-.511 0-.915-.13-1.2-.403-.297-.26-.439-.674-.439-1.23v-3.173h.736v3.006c0 .403.083.687.25.877s.475.272.914.272M119.419 56.472c0-.308.071-.568.226-.77.154-.2.356-.355.618-.461.261-.107.558-.154.903-.154.285 0 .546.024.772.083s.392.106.511.166l.035.675h-.024a1.2 1.2 0 0 0-.368-.178 3 3 0 0 0-.487-.118 2.4 2.4 0 0 0-.475-.048q-.481 0-.749.142c-.178.095-.273.284-.273.557 0 .165.036.296.119.39a.9.9 0 0 0 .356.237c.155.06.357.13.583.19.32.094.594.189.831.272.238.083.428.213.559.367.13.166.201.402.201.71 0 .486-.154.853-.475 1.101-.32.249-.748.379-1.307.379-.32 0-.605-.035-.891-.107-.273-.07-.499-.154-.677-.272l-.059-.722h.024c.19.166.427.296.736.39.297.095.582.13.856.13.38 0 .653-.058.831-.177.178-.118.262-.32.262-.58a.6.6 0 0 0-.131-.402.9.9 0 0 0-.392-.237c-.178-.06-.38-.13-.642-.201a12 12 0 0 1-.76-.249 1.3 1.3 0 0 1-.547-.379c-.13-.166-.202-.414-.202-.734zM123.744 54.057a.43.43 0 0 1 .13-.308c.083-.083.19-.118.333-.118.142 0 .249.035.333.118a.4.4 0 0 1 .13.308.4.4 0 0 1-.13.308.48.48 0 0 1-.333.118.48.48 0 0 1-.333-.118.43.43 0 0 1-.13-.308m.831 1.148v4.689h-.736v-4.688zM128.401 55.087c.51 0 .914.13 1.199.39.286.261.428.664.428 1.22v3.197h-.736V56.91q0-.585-.25-.888c-.166-.2-.475-.296-.915-.296-.261 0-.499.048-.712.154a1.24 1.24 0 0 0-.511.45c-.119.19-.19.426-.19.687v2.865h-.737v-4.688h.701v.994h.047a1.6 1.6 0 0 1 .404-.64q.269-.248.606-.354c.226-.071.44-.107.666-.107M133.521 59.396c.428 0 .76-.047 1.034-.154.261-.106.498-.236.712-.414h.012l-.071.675c-.143.118-.356.225-.653.331s-.654.154-1.093.154q-.713 0-1.248-.32a2.1 2.1 0 0 1-.831-.875c-.202-.367-.297-.794-.297-1.267 0-.474.095-.9.297-1.267s.463-.663.807-.876a2.14 2.14 0 0 1 1.153-.32c.499 0 .891.083 1.2.26.309.178.534.415.677.735.142.32.214.675.214 1.089v.201c0 .083-.012.142-.024.202h-3.552v.023c0 .557.166.995.463 1.314s.701.486 1.224.486zm-.178-3.752c-.416 0-.749.13-1.01.378q-.375.373-.463 1.066h2.839v-.083c0-.272-.048-.52-.119-.722a1 1 0 0 0-.416-.474c-.202-.118-.475-.165-.819-.165zM136.372 56.472c0-.308.071-.568.226-.77.154-.2.356-.355.618-.461.261-.107.558-.154.903-.154.285 0 .546.024.772.083s.392.106.511.166l.035.675h-.023a1.2 1.2 0 0 0-.369-.178 3 3 0 0 0-.487-.118 2.4 2.4 0 0 0-.475-.048q-.481 0-.749.142c-.178.095-.273.284-.273.557 0 .165.036.296.119.39a.9.9 0 0 0 .356.237c.155.06.357.13.583.19.32.094.594.189.831.272.238.083.428.213.559.367.13.166.202.402.202.71 0 .486-.155.853-.476 1.101-.32.249-.748.379-1.307.379-.32 0-.605-.035-.891-.107-.273-.07-.498-.154-.677-.272l-.059-.722h.024c.19.166.427.296.736.39.297.095.582.13.856.13.38 0 .653-.058.831-.177.178-.118.262-.32.262-.58a.6.6 0 0 0-.131-.402.9.9 0 0 0-.392-.237c-.178-.06-.38-.13-.642-.201a12 12 0 0 1-.76-.249 1.3 1.3 0 0 1-.546-.379c-.131-.166-.202-.414-.202-.734zM140.649 56.472c0-.308.071-.568.226-.77.154-.2.356-.355.618-.461a2.4 2.4 0 0 1 .902-.154c.286 0 .547.024.773.083s.392.106.511.166l.035.675h-.024a1.2 1.2 0 0 0-.368-.178 3 3 0 0 0-.487-.118 2.4 2.4 0 0 0-.475-.048q-.481 0-.749.142c-.178.095-.273.284-.273.557 0 .165.036.296.119.39a.9.9 0 0 0 .356.237c.155.06.357.13.582.19.321.094.594.189.832.272s.428.213.558.367c.131.166.202.402.202.71 0 .486-.154.853-.475 1.101-.321.249-.748.379-1.307.379-.32 0-.606-.035-.891-.107-.273-.07-.499-.154-.677-.272l-.059-.722h.024c.19.166.427.296.736.39.297.095.582.13.855.13.381 0 .654-.058.832-.177.178-.118.261-.32.261-.58a.6.6 0 0 0-.13-.402.9.9 0 0 0-.392-.237c-.178-.06-.38-.13-.642-.201a12 12 0 0 1-.76-.249 1.3 1.3 0 0 1-.547-.379c-.13-.166-.202-.414-.202-.734z"/></mask><path fill="#fff" d="M69.178 59.882v-6.298h2.09c.678 0 1.212.165 1.616.485s.594.805.594 1.444c0 .64-.202 1.137-.594 1.456-.404.32-.938.474-1.615.474h-1.272v2.439zm1.972-5.647h-1.153v2.58h1.153c.475 0 .843-.094 1.093-.295.25-.202.38-.533.38-.995s-.13-.793-.38-.994c-.25-.202-.618-.296-1.093-.296M75.32 53.335v6.547h-.737v-6.547zM76.722 56.235l.083-.722c.178-.118.404-.225.665-.307.261-.083.558-.119.867-.119.606 0 1.058.118 1.343.355.297.237.44.628.44 1.172v3.268h-.713v-.9h-.036c-.119.343-.309.604-.57.77q-.374.248-.963.248a1.8 1.8 0 0 1-.724-.142 1.25 1.25 0 0 1-.523-.438 1.34 1.34 0 0 1-.202-.746c0-.296.06-.544.19-.734q.195-.284.535-.426c.225-.095.51-.178.831-.237.392-.07.701-.13.939-.177.226-.06.392-.13.499-.225v-.213c0-.344-.083-.592-.238-.746s-.451-.237-.89-.237a2.5 2.5 0 0 0-.82.142c-.274.095-.511.237-.725.426h-.012zm2.673 2.072v-.97c-.083.082-.25.141-.475.2-.226.06-.5.12-.832.178-.285.048-.511.13-.69.249-.177.118-.26.343-.26.651 0 .284.083.485.249.627s.392.202.677.202.511-.06.713-.178a1.3 1.3 0 0 0 .463-.438 1 1 0 0 0 .155-.52M82.52 58.627c0 .296.059.497.19.604.13.106.296.154.498.154.19 0 .357-.012.487-.048.143-.035.25-.07.345-.118h.024l-.072.627a1.5 1.5 0 0 1-.368.119 2.4 2.4 0 0 1-.51.047c-.417 0-.75-.095-.987-.296s-.356-.52-.356-.97V55.82h-.868l.096-.485.76-.107v-1.006l.736-.107v1.09h1.438l-.095.615h-1.343v2.806zM84.824 54.057a.43.43 0 0 1 .13-.308c.084-.083.19-.118.333-.118s.25.035.333.118a.4.4 0 0 1 .13.308.4.4 0 0 1-.13.308.46.46 0 0 1-.333.118.48.48 0 0 1-.332-.118.43.43 0 0 1-.131-.308m.832 1.148v4.689h-.737v-4.688zM89.481 55.087c.51 0 .915.13 1.2.39.285.261.428.664.428 1.22v3.197h-.737V56.91q0-.585-.25-.888c-.166-.2-.475-.296-.914-.296-.262 0-.5.048-.713.154a1.22 1.22 0 0 0-.701 1.137v2.865h-.737v-4.688h.713v.994h.036c.083-.26.226-.474.404-.64q.267-.248.606-.354c.225-.071.44-.107.665-.107M94.352 59.36c.25 0 .487-.047.7-.153a1.25 1.25 0 0 0 .512-.45c.13-.19.19-.414.19-.675v-2.876h.736v4.688h-.7v-.983h-.036c-.095.26-.226.485-.404.64a1.8 1.8 0 0 1-.594.354c-.226.072-.44.107-.654.107-.51 0-.914-.13-1.211-.403-.297-.26-.44-.674-.44-1.23v-3.173h.737v3.006c0 .403.083.687.25.877.165.189.474.272.914.272M101.765 56.212h.036c.095-.273.226-.486.404-.651s.38-.285.594-.355c.214-.072.439-.119.653-.119.499 0 .891.13 1.164.403.274.272.404.674.404 1.23v3.162h-.736v-3.02c0-.402-.072-.686-.226-.875-.143-.178-.44-.273-.891-.273-.38 0-.701.107-.962.332-.262.213-.392.533-.392.947v2.889h-.737v-3.02c0-.402-.071-.686-.226-.875-.154-.178-.451-.273-.89-.273-.25 0-.476.048-.678.154a1.2 1.2 0 0 0-.487.45q-.178.285-.178.675v2.889h-.737v-4.688h.713V56.2h.036c.095-.272.214-.486.392-.651s.368-.284.582-.355c.214-.083.428-.119.641-.119.416 0 .761.095 1.022.272.262.178.428.474.499.853zM108.216 59.882v-6.298h2.542c.559 0 .998.142 1.331.426s.499.663.499 1.124c0 .367-.119.663-.356.912-.238.249-.535.39-.88.45v.024c.452.047.82.213 1.105.485s.416.651.416 1.113c0 .331-.071.627-.202.9a1.5 1.5 0 0 1-.629.639c-.286.154-.654.237-1.093.237h-2.709zm2.34-5.671h-1.532v2.084h1.532c.785 0 1.177-.355 1.177-1.054 0-.355-.095-.616-.297-.781s-.487-.249-.88-.249m.119 5.055c.476 0 .82-.095 1.022-.296s.309-.497.309-.888c0-.39-.107-.698-.321-.9-.214-.2-.558-.295-1.01-.295h-1.651v2.38zM116.021 59.36c.25 0 .487-.047.701-.153.214-.107.38-.249.511-.45s.19-.414.19-.675v-2.876h.737v4.688h-.713v-.983h-.036c-.095.26-.225.485-.404.64-.178.153-.38.283-.594.354a2.1 2.1 0 0 1-.653.107c-.511 0-.915-.13-1.2-.403-.297-.26-.439-.674-.439-1.23v-3.173h.736v3.006c0 .403.083.687.25.877s.475.272.914.272M119.419 56.472c0-.308.071-.568.226-.77.154-.2.356-.355.618-.461.261-.107.558-.154.903-.154.285 0 .546.024.772.083s.392.106.511.166l.035.675h-.024a1.2 1.2 0 0 0-.368-.178 3 3 0 0 0-.487-.118 2.4 2.4 0 0 0-.475-.048q-.481 0-.749.142c-.178.095-.273.284-.273.557 0 .165.036.296.119.39a.9.9 0 0 0 .356.237c.155.06.357.13.583.19.32.094.594.189.831.272.238.083.428.213.559.367.13.166.201.402.201.71 0 .486-.154.853-.475 1.101-.32.249-.748.379-1.307.379-.32 0-.605-.035-.891-.107-.273-.07-.499-.154-.677-.272l-.059-.722h.024c.19.166.427.296.736.39.297.095.582.13.856.13.38 0 .653-.058.831-.177.178-.118.262-.32.262-.58a.6.6 0 0 0-.131-.402.9.9 0 0 0-.392-.237c-.178-.06-.38-.13-.642-.201a12 12 0 0 1-.76-.249 1.3 1.3 0 0 1-.547-.379c-.13-.166-.202-.414-.202-.734zM123.744 54.057a.43.43 0 0 1 .13-.308c.083-.083.19-.118.333-.118.142 0 .249.035.333.118a.4.4 0 0 1 .13.308.4.4 0 0 1-.13.308.48.48 0 0 1-.333.118.48.48 0 0 1-.333-.118.43.43 0 0 1-.13-.308m.831 1.148v4.689h-.736v-4.688zM128.401 55.087c.51 0 .914.13 1.199.39.286.261.428.664.428 1.22v3.197h-.736V56.91q0-.585-.25-.888c-.166-.2-.475-.296-.915-.296-.261 0-.499.048-.712.154a1.24 1.24 0 0 0-.511.45c-.119.19-.19.426-.19.687v2.865h-.737v-4.688h.701v.994h.047a1.6 1.6 0 0 1 .404-.64q.269-.248.606-.354c.226-.071.44-.107.666-.107M133.521 59.396c.428 0 .76-.047 1.034-.154.261-.106.498-.236.712-.414h.012l-.071.675c-.143.118-.356.225-.653.331s-.654.154-1.093.154q-.713 0-1.248-.32a2.1 2.1 0 0 1-.831-.875c-.202-.367-.297-.794-.297-1.267 0-.474.095-.9.297-1.267s.463-.663.807-.876a2.14 2.14 0 0 1 1.153-.32c.499 0 .891.083 1.2.26.309.178.534.415.677.735.142.32.214.675.214 1.089v.201c0 .083-.012.142-.024.202h-3.552v.023c0 .557.166.995.463 1.314s.701.486 1.224.486zm-.178-3.752c-.416 0-.749.13-1.01.378q-.375.373-.463 1.066h2.839v-.083c0-.272-.048-.52-.119-.722a1 1 0 0 0-.416-.474c-.202-.118-.475-.165-.819-.165zM136.372 56.472c0-.308.071-.568.226-.77.154-.2.356-.355.618-.461.261-.107.558-.154.903-.154.285 0 .546.024.772.083s.392.106.511.166l.035.675h-.023a1.2 1.2 0 0 0-.369-.178 3 3 0 0 0-.487-.118 2.4 2.4 0 0 0-.475-.048q-.481 0-.749.142c-.178.095-.273.284-.273.557 0 .165.036.296.119.39a.9.9 0 0 0 .356.237c.155.06.357.13.583.19.32.094.594.189.831.272.238.083.428.213.559.367.13.166.202.402.202.71 0 .486-.155.853-.476 1.101-.32.249-.748.379-1.307.379-.32 0-.605-.035-.891-.107-.273-.07-.498-.154-.677-.272l-.059-.722h.024c.19.166.427.296.736.39.297.095.582.13.856.13.38 0 .653-.058.831-.177.178-.118.262-.32.262-.58a.6.6 0 0 0-.131-.402.9.9 0 0 0-.392-.237c-.178-.06-.38-.13-.642-.201a12 12 0 0 1-.76-.249 1.3 1.3 0 0 1-.546-.379c-.131-.166-.202-.414-.202-.734zM140.649 56.472c0-.308.071-.568.226-.77.154-.2.356-.355.618-.461a2.4 2.4 0 0 1 .902-.154c.286 0 .547.024.773.083s.392.106.511.166l.035.675h-.024a1.2 1.2 0 0 0-.368-.178 3 3 0 0 0-.487-.118 2.4 2.4 0 0 0-.475-.048q-.481 0-.749.142c-.178.095-.273.284-.273.557 0 .165.036.296.119.39a.9.9 0 0 0 .356.237c.155.06.357.13.582.19.321.094.594.189.832.272s.428.213.558.367c.131.166.202.402.202.71 0 .486-.154.853-.475 1.101-.321.249-.748.379-1.307.379-.32 0-.606-.035-.891-.107-.273-.07-.499-.154-.677-.272l-.059-.722h.024c.19.166.427.296.736.39.297.095.582.13.855.13.381 0 .654-.058.832-.177.178-.118.261-.32.261-.58a.6.6 0 0 0-.13-.402.9.9 0 0 0-.392-.237c-.178-.06-.38-.13-.642-.201a12 12 0 0 1-.76-.249 1.3 1.3 0 0 1-.547-.379c-.13-.166-.202-.414-.202-.734z"/><path stroke="#000" stroke-linejoin="round" stroke-width="8" d="M69.178 59.882v-6.298h2.09c.678 0 1.212.165 1.616.485s.594.805.594 1.444c0 .64-.202 1.137-.594 1.456-.404.32-.938.474-1.615.474h-1.272v2.439zm1.972-5.647h-1.153v2.58h1.153c.475 0 .843-.094 1.093-.295.25-.202.38-.533.38-.995s-.13-.793-.38-.994c-.25-.202-.618-.296-1.093-.296ZM75.32 53.335v6.547h-.737v-6.547zM76.722 56.235l.083-.722c.178-.118.404-.225.665-.307.261-.083.558-.119.867-.119.606 0 1.058.118 1.343.355.297.237.44.628.44 1.172v3.268h-.713v-.9h-.036c-.119.343-.309.604-.57.77q-.374.248-.963.248a1.8 1.8 0 0 1-.724-.142 1.25 1.25 0 0 1-.523-.438 1.34 1.34 0 0 1-.202-.746c0-.296.06-.544.19-.734q.195-.284.535-.426c.225-.095.51-.178.831-.237.392-.07.701-.13.939-.177.226-.06.392-.13.499-.225v-.213c0-.344-.083-.592-.238-.746s-.451-.237-.89-.237a2.5 2.5 0 0 0-.82.142c-.274.095-.511.237-.725.426h-.012zm2.673 2.072v-.97c-.083.082-.25.141-.475.2-.226.06-.5.12-.832.178-.285.048-.511.13-.69.249-.177.118-.26.343-.26.651 0 .284.083.485.249.627s.392.202.677.202.511-.06.713-.178a1.3 1.3 0 0 0 .463-.438 1 1 0 0 0 .155-.52ZM82.52 58.627c0 .296.059.497.19.604.13.106.296.154.498.154.19 0 .357-.012.487-.048.143-.035.25-.07.345-.118h.024l-.072.627a1.5 1.5 0 0 1-.368.119 2.4 2.4 0 0 1-.51.047c-.417 0-.75-.095-.987-.296s-.356-.52-.356-.97V55.82h-.868l.096-.485.76-.107v-1.006l.736-.107v1.09h1.438l-.095.615h-1.343v2.806zM84.824 54.057a.43.43 0 0 1 .13-.308c.084-.083.19-.118.333-.118s.25.035.333.118a.4.4 0 0 1 .13.308.4.4 0 0 1-.13.308.46.46 0 0 1-.333.118.48.48 0 0 1-.332-.118.43.43 0 0 1-.131-.308Zm.832 1.148v4.689h-.737v-4.688zM89.481 55.087c.51 0 .915.13 1.2.39.285.261.428.664.428 1.22v3.197h-.737V56.91q0-.585-.25-.888c-.166-.2-.475-.296-.914-.296-.262 0-.5.048-.713.154a1.22 1.22 0 0 0-.701 1.137v2.865h-.737v-4.688h.713v.994h.036c.083-.26.226-.474.404-.64q.267-.248.606-.354c.225-.071.44-.107.665-.107ZM94.352 59.36c.25 0 .487-.047.7-.153a1.25 1.25 0 0 0 .512-.45c.13-.19.19-.414.19-.675v-2.876h.736v4.688h-.7v-.983h-.036c-.095.26-.226.485-.404.64a1.8 1.8 0 0 1-.594.354c-.226.072-.44.107-.654.107-.51 0-.914-.13-1.211-.403-.297-.26-.44-.674-.44-1.23v-3.173h.737v3.006c0 .403.083.687.25.877.165.189.474.272.914.272ZM101.765 56.212h.036c.095-.273.226-.486.404-.651s.38-.285.594-.355c.214-.072.439-.119.653-.119.499 0 .891.13 1.164.403.274.272.404.674.404 1.23v3.162h-.736v-3.02c0-.402-.072-.686-.226-.875-.143-.178-.44-.273-.891-.273-.38 0-.701.107-.962.332-.262.213-.392.533-.392.947v2.889h-.737v-3.02c0-.402-.071-.686-.226-.875-.154-.178-.451-.273-.89-.273-.25 0-.476.048-.678.154a1.2 1.2 0 0 0-.487.45q-.178.285-.178.675v2.889h-.737v-4.688h.713V56.2h.036c.095-.272.214-.486.392-.651s.368-.284.582-.355c.214-.083.428-.119.641-.119.416 0 .761.095 1.022.272.262.178.428.474.499.853zM108.216 59.882v-6.298h2.542c.559 0 .998.142 1.331.426s.499.663.499 1.124c0 .367-.119.663-.356.912-.238.249-.535.39-.88.45v.024c.452.047.82.213 1.105.485s.416.651.416 1.113c0 .331-.071.627-.202.9a1.5 1.5 0 0 1-.629.639c-.286.154-.654.237-1.093.237h-2.709zm2.34-5.671h-1.532v2.084h1.532c.785 0 1.177-.355 1.177-1.054 0-.355-.095-.616-.297-.781s-.487-.249-.88-.249Zm.119 5.055c.476 0 .82-.095 1.022-.296s.309-.497.309-.888c0-.39-.107-.698-.321-.9-.214-.2-.558-.295-1.01-.295h-1.651v2.38zM116.021 59.36c.25 0 .487-.047.701-.153.214-.107.38-.249.511-.45s.19-.414.19-.675v-2.876h.737v4.688h-.713v-.983h-.036c-.095.26-.225.485-.404.64-.178.153-.38.283-.594.354a2.1 2.1 0 0 1-.653.107c-.511 0-.915-.13-1.2-.403-.297-.26-.439-.674-.439-1.23v-3.173h.736v3.006c0 .403.083.687.25.877s.475.272.914.272ZM119.419 56.472c0-.308.071-.568.226-.77.154-.2.356-.355.618-.461.261-.107.558-.154.903-.154.285 0 .546.024.772.083s.392.106.511.166l.035.675h-.024a1.2 1.2 0 0 0-.368-.178 3 3 0 0 0-.487-.118 2.4 2.4 0 0 0-.475-.048q-.481 0-.749.142c-.178.095-.273.284-.273.557 0 .165.036.296.119.39a.9.9 0 0 0 .356.237c.155.06.357.13.583.19.32.094.594.189.831.272.238.083.428.213.559.367.13.166.201.402.201.71 0 .486-.154.853-.475 1.101-.32.249-.748.379-1.307.379-.32 0-.605-.035-.891-.107-.273-.07-.499-.154-.677-.272l-.059-.722h.024c.19.166.427.296.736.39.297.095.582.13.856.13.38 0 .653-.058.831-.177.178-.118.262-.32.262-.58a.6.6 0 0 0-.131-.402.9.9 0 0 0-.392-.237c-.178-.06-.38-.13-.642-.201a12 12 0 0 1-.76-.249 1.3 1.3 0 0 1-.547-.379c-.13-.166-.202-.414-.202-.734zM123.744 54.057a.43.43 0 0 1 .13-.308c.083-.083.19-.118.333-.118.142 0 .249.035.333.118a.4.4 0 0 1 .13.308.4.4 0 0 1-.13.308.48.48 0 0 1-.333.118.48.48 0 0 1-.333-.118.43.43 0 0 1-.13-.308Zm.831 1.148v4.689h-.736v-4.688zM128.401 55.087c.51 0 .914.13 1.199.39.286.261.428.664.428 1.22v3.197h-.736V56.91q0-.585-.25-.888c-.166-.2-.475-.296-.915-.296-.261 0-.499.048-.712.154a1.24 1.24 0 0 0-.511.45c-.119.19-.19.426-.19.687v2.865h-.737v-4.688h.701v.994h.047a1.6 1.6 0 0 1 .404-.64q.269-.248.606-.354c.226-.071.44-.107.666-.107ZM133.521 59.396c.428 0 .76-.047 1.034-.154.261-.106.498-.236.712-.414h.012l-.071.675c-.143.118-.356.225-.653.331s-.654.154-1.093.154q-.713 0-1.248-.32a2.1 2.1 0 0 1-.831-.875c-.202-.367-.297-.794-.297-1.267 0-.474.095-.9.297-1.267s.463-.663.807-.876a2.14 2.14 0 0 1 1.153-.32c.499 0 .891.083 1.2.26.309.178.534.415.677.735.142.32.214.675.214 1.089v.201c0 .083-.012.142-.024.202h-3.552v.023c0 .557.166.995.463 1.314s.701.486 1.224.486zm-.178-3.752c-.416 0-.749.13-1.01.378q-.375.373-.463 1.066h2.839v-.083c0-.272-.048-.52-.119-.722a1 1 0 0 0-.416-.474c-.202-.118-.475-.165-.819-.165zM136.372 56.472c0-.308.071-.568.226-.77.154-.2.356-.355.618-.461.261-.107.558-.154.903-.154.285 0 .546.024.772.083s.392.106.511.166l.035.675h-.023a1.2 1.2 0 0 0-.369-.178 3 3 0 0 0-.487-.118 2.4 2.4 0 0 0-.475-.048q-.481 0-.749.142c-.178.095-.273.284-.273.557 0 .165.036.296.119.39a.9.9 0 0 0 .356.237c.155.06.357.13.583.19.32.094.594.189.831.272.238.083.428.213.559.367.13.166.202.402.202.71 0 .486-.155.853-.476 1.101-.32.249-.748.379-1.307.379-.32 0-.605-.035-.891-.107-.273-.07-.498-.154-.677-.272l-.059-.722h.024c.19.166.427.296.736.39.297.095.582.13.856.13.38 0 .653-.058.831-.177.178-.118.262-.32.262-.58a.6.6 0 0 0-.131-.402.9.9 0 0 0-.392-.237c-.178-.06-.38-.13-.642-.201a12 12 0 0 1-.76-.249 1.3 1.3 0 0 1-.546-.379c-.131-.166-.202-.414-.202-.734zM140.649 56.472c0-.308.071-.568.226-.77.154-.2.356-.355.618-.461a2.4 2.4 0 0 1 .902-.154c.286 0 .547.024.773.083s.392.106.511.166l.035.675h-.024a1.2 1.2 0 0 0-.368-.178 3 3 0 0 0-.487-.118 2.4 2.4 0 0 0-.475-.048q-.481 0-.749.142c-.178.095-.273.284-.273.557 0 .165.036.296.119.39a.9.9 0 0 0 .356.237c.155.06.357.13.582.19.321.094.594.189.832.272s.428.213.558.367c.131.166.202.402.202.71 0 .486-.154.853-.475 1.101-.321.249-.748.379-1.307.379-.32 0-.606-.035-.891-.107-.273-.07-.499-.154-.677-.272l-.059-.722h.024c.19.166.427.296.736.39.297.095.582.13.855.13.381 0 .654-.058.832-.177.178-.118.261-.32.261-.58a.6.6 0 0 0-.13-.402.9.9 0 0 0-.392-.237c-.178-.06-.38-.13-.642-.201a12 12 0 0 1-.76-.249 1.3 1.3 0 0 1-.547-.379c-.13-.166-.202-.414-.202-.734z" mask="url(#d)"/></g><defs><clipPath id="a"><path fill="#fff" d="M0 0h168v88H0z"/></clipPath><clipPath id="b"><path fill="#fff" d="m59.93-129 301.592 89.615-89.93 300.54L-30 171.538z"/></clipPath></defs></svg>