<svg xmlns="http://www.w3.org/2000/svg" fill="none" viewBox="0 0 1536 969"><g clip-path="url(#a)"><path fill="#1A191B" d="M0 0h1536v969H0z"/><path fill="#fff" fill-rule="evenodd" d="M306.281 156.5V80.417h-9.721v13.986q-5.776-7.972-13.455-11.958-7.607-3.987-17.047-3.986-16.343 0-27.966 11.678t-11.623 28.112q0 16.783 11.482 28.531 11.552 11.678 27.825 11.678 9.157 0 16.837-3.776 7.748-3.775 13.947-11.259V156.5zm-54.664-64.545q6.974-4.056 15.216-4.056 12.82 0 21.556 8.881 8.805 8.882 8.805 22.098 0 8.672-3.945 15.594-3.875 6.924-11.13 10.979-7.255 4.057-15.357 4.056-8.03 0-15.074-4.056-6.975-4.125-11.13-11.468-4.157-7.342-4.157-15.385 0-8.112 4.086-15.384 4.156-7.273 11.13-11.259" clip-rule="evenodd"/><path fill="#fff" d="M169.474 80.417h-11.835l26.276 36.153-29.022 39.93h11.763l23.106-31.958L213.22 156.5h11.975l-29.516-39.93 26.205-36.153H210.05l-20.288 28.181zM144.164 80.118H56V92.85h8.016v-3.183h72.134v3.183h8.015V83.3zM77.641 113.536v-2.021h-8.015v13.526h8.015v-1.958h45.685v1.958h8.015v-13.526h-8.015v2.021zM64.016 146.953v-3.183H56v12.731h88.164V143.77h-8.015v3.183z"/><g fill="#fff" clip-path="url(#b)"><path d="m1271.42 744.949-44.03 105.095h-28.74l-21.7-83.837c-1.32-5.157-2.45-7.044-6.47-9.245-6.54-3.522-17.3-6.855-26.8-8.931l.63-3.082h46.29c5.91 0 11.2 3.9 12.52 10.692l11.44 60.818 28.31-71.51zM1384 815.704c.12-27.736-38.37-29.245-38.12-41.635.07-3.774 3.65-7.799 11.51-8.805 3.9-.503 14.66-.881 26.8 4.717l4.78-22.264c-6.54-2.39-14.97-4.655-25.41-4.655-26.86 0-45.79 14.277-45.91 34.717-.19 15.095 13.52 23.585 23.83 28.617 10.57 5.157 14.15 8.428 14.09 13.082-.06 7.044-8.43 10.188-16.29 10.251-13.65.252-21.63-3.711-27.92-6.604l-4.91 23.019c6.35 2.893 18.05 5.472 30.25 5.598 28.56 0 47.24-14.088 47.36-35.975m70.94 34.34h25.16l-21.95-105.158H1435c-5.22 0-9.62 3.019-11.57 7.736l-40.75 97.359h28.55l5.66-15.661h34.84l3.27 15.661zm-30.31-37.233 14.34-39.497 8.24 39.497h-22.58m-114.4-67.925-22.46 105.095h-27.17l22.39-105.095h27.240000000000002M1084 912.37v-33.459h11.07c3.58 0 6.41.881 8.55 2.579s3.15 4.276 3.15 7.673c0 3.396-1.07 6.037-3.15 7.736-2.14 1.698-4.97 2.515-8.55 2.515h-6.73v12.956zm10.44-30h-6.1v13.711h6.1c2.52 0 4.47-.503 5.79-1.572 1.32-1.07 2.01-2.831 2.01-5.283s-.69-4.214-2.01-5.283c-1.32-1.07-3.27-1.573-5.79-1.573M1116.52 877.591v34.78h-3.9v-34.78zM1123.94 893l.44-3.836c.94-.629 2.14-1.195 3.52-1.636s2.96-.629 4.59-.629c3.21 0 5.6.629 7.11 1.887 1.57 1.258 2.32 3.334 2.32 6.227v17.358h-3.77v-4.78h-.19c-.63 1.824-1.63 3.208-3.02 4.088-1.32.881-3.02 1.321-5.09 1.321a9.8 9.8 0 0 1-3.84-.755c-1.13-.503-2.07-1.32-2.77-2.327-.69-1.069-1.06-2.39-1.06-3.962s.31-2.893 1-3.899 1.64-1.761 2.83-2.264c1.2-.504 2.71-.944 4.4-1.258 2.08-.378 3.72-.692 4.97-.944 1.2-.314 2.08-.692 2.64-1.195v-1.132c0-1.824-.44-3.144-1.25-3.962-.82-.818-2.39-1.258-4.72-1.258-1.45 0-2.89.252-4.34.755s-2.7 1.258-3.84 2.264h-.06zm14.15 11.006v-5.157c-.44.44-1.32.755-2.52 1.069-1.19.315-2.64.629-4.4.944-1.51.251-2.7.692-3.65 1.32-.94.629-1.38 1.824-1.38 3.46 0 1.509.44 2.578 1.32 3.333s2.07 1.069 3.58 1.069 2.71-.314 3.78-.943 1.88-1.384 2.45-2.327.82-1.824.82-2.768M1154.63 905.704c0 1.573.31 2.642 1 3.208.7.566 1.58.818 2.65.818 1 0 1.88-.063 2.57-.252.76-.189 1.32-.377 1.83-.629h.12l-.37 3.333c-.44.252-1.14.441-1.95.629-.88.189-1.76.252-2.71.252-2.2 0-3.96-.503-5.22-1.572-1.26-1.07-1.88-2.768-1.88-5.158v-15.534h-4.6l.51-2.579 4.02-.566v-5.346l3.9-.566v5.786h7.61l-.5 3.271h-7.11v14.905zM1166.83 881.427c0-.629.25-1.195.69-1.635s1.01-.629 1.76-.629c.76 0 1.33.189 1.77.629s.69.943.69 1.635-.25 1.195-.69 1.635c-.44.441-1.07.629-1.77.629-.69 0-1.25-.188-1.76-.629a2.28 2.28 0 0 1-.69-1.635m4.4 6.101v24.906h-3.89v-24.906zM1191.48 886.899c2.71 0 4.85.692 6.35 2.076 1.51 1.384 2.27 3.522 2.27 6.478v16.981h-3.9v-15.849q0-3.114-1.32-4.717c-.88-1.069-2.52-1.572-4.84-1.572-1.39 0-2.65.251-3.78.817s-2.01 1.321-2.7 2.39-1.01 2.264-1.01 3.648v15.22h-3.9v-24.906h3.78v5.283h.18a7.9 7.9 0 0 1 2.14-3.396 8.44 8.44 0 0 1 3.21-1.887c1.2-.377 2.33-.566 3.52-.566M1217.27 909.604c1.32 0 2.58-.252 3.71-.818s2.01-1.321 2.71-2.39c.69-1.006 1-2.201 1-3.585v-15.283h3.9v24.906h-3.71v-5.22h-.19c-.5 1.384-1.19 2.578-2.14 3.396-.94.818-2.01 1.51-3.14 1.887-1.2.377-2.33.566-3.46.566-2.71 0-4.84-.692-6.42-2.138-1.57-1.384-2.32-3.585-2.32-6.541v-16.856h3.9v15.975c0 2.139.44 3.648 1.32 4.654.88 1.007 2.51 1.447 4.84 1.447M1256.52 892.874h.18c.51-1.447 1.2-2.579 2.14-3.459a8.6 8.6 0 0 1 3.15-1.887c1.13-.378 2.32-.629 3.46-.629 2.64 0 4.71.692 6.16 2.138 1.45 1.447 2.14 3.585 2.14 6.541v16.793h-3.9v-16.038c0-2.139-.38-3.648-1.2-4.654-.75-.944-2.32-1.447-4.71-1.447-2.02 0-3.71.566-5.1 1.761-1.38 1.132-2.07 2.83-2.07 5.032v15.346h-3.9v-16.038c0-2.139-.38-3.648-1.2-4.654-.82-.944-2.39-1.447-4.71-1.447-1.33 0-2.52.252-3.59.818s-1.95 1.321-2.58 2.39c-.63 1.006-.94 2.201-.94 3.585v15.346h-3.9v-24.906h3.77v5.346h.19c.5-1.447 1.13-2.579 2.08-3.459.94-.881 1.95-1.51 3.08-1.887a9.2 9.2 0 0 1 3.39-.629c2.21 0 4.03.503 5.41 1.446 1.39.944 2.27 2.516 2.65 4.529zM1290.67 912.37v-33.459h13.46c2.95 0 5.28.755 7.04 2.264 1.76 1.51 2.64 3.522 2.64 5.975 0 1.95-.63 3.522-1.88 4.843-1.26 1.321-2.83 2.075-4.66 2.39v.126c2.39.251 4.34 1.132 5.85 2.578 1.51 1.447 2.2 3.459 2.2 5.912 0 1.761-.38 3.334-1.07 4.78-.75 1.447-1.82 2.579-3.33 3.396-1.51.818-3.46 1.258-5.79 1.258h-14.34zm12.39-30.126h-8.12v11.07h8.12c4.15 0 6.22-1.887 6.22-5.598 0-1.887-.5-3.27-1.57-4.151s-2.58-1.321-4.65-1.321m.63 26.856c2.51 0 4.34-.503 5.41-1.573 1.06-1.069 1.63-2.641 1.63-4.717s-.57-3.71-1.7-4.779c-1.13-1.07-2.95-1.573-5.34-1.573h-8.75V909.1zM1331.99 909.604c1.32 0 2.58-.252 3.71-.818s2.01-1.321 2.7-2.39c.7-1.069 1.01-2.201 1.01-3.585v-15.283h3.9v24.906h-3.77v-5.22h-.19c-.51 1.384-1.2 2.578-2.14 3.396s-2.01 1.51-3.15 1.887a11 11 0 0 1-3.45.566c-2.71 0-4.85-.692-6.36-2.138-1.57-1.384-2.32-3.585-2.32-6.541v-16.856h3.9v15.975c0 2.139.44 3.648 1.32 4.654.88 1.007 2.51 1.447 4.84 1.447M1349.98 894.258c0-1.635.37-3.019 1.19-4.088s1.89-1.887 3.27-2.453 2.96-.818 4.78-.818c1.51 0 2.89.126 4.09.441 1.19.314 2.07.566 2.7.88l.19 3.585h-.12c-.51-.377-1.14-.692-1.95-.943-.82-.252-1.64-.503-2.58-.629-.95-.189-1.76-.252-2.52-.252q-2.55 0-3.96.755c-.94.503-1.45 1.509-1.45 2.956 0 .88.19 1.572.63 2.075s1.07.944 1.89 1.258 1.89.692 3.08 1.006c1.7.504 3.14 1.007 4.4 1.447s2.27 1.132 2.96 1.95c.69.88 1.07 2.138 1.07 3.773 0 2.579-.82 4.529-2.52 5.849s-3.96 2.013-6.92 2.013c-1.69 0-3.2-.189-4.71-.566-1.45-.377-2.64-.818-3.59-1.447l-.31-3.836h.12c1.01.88 2.27 1.572 3.9 2.075a14.7 14.7 0 0 0 4.53.692c2.01 0 3.46-.314 4.4-.943.95-.629 1.39-1.698 1.39-3.082 0-.88-.25-1.635-.69-2.138s-1.14-.944-2.08-1.258-2.01-.692-3.4-1.069a60 60 0 0 1-4.02-1.321 6.8 6.8 0 0 1-2.89-2.013c-.7-.88-1.07-2.201-1.07-3.899zM1372.87 881.427c0-.629.25-1.195.69-1.635s1.01-.629 1.76-.629 1.32.189 1.76.629.69.943.69 1.635-.25 1.195-.69 1.635c-.5.441-1.07.629-1.76.629s-1.26-.188-1.76-.629a2.28 2.28 0 0 1-.69-1.635m4.4 6.101v24.906h-3.9v-24.906zM1397.52 886.899c2.71 0 4.84.692 6.35 2.076s2.27 3.522 2.27 6.478v16.981h-3.9v-15.849q0-3.114-1.32-4.717c-.88-1.069-2.52-1.572-4.84-1.572-1.39 0-2.65.251-3.78.817s-2.01 1.321-2.7 2.39c-.63 1.006-1.01 2.264-1.01 3.648v15.22h-3.9v-24.906h3.71v5.283h.25c.51-1.383 1.2-2.515 2.14-3.396.95-.88 2.01-1.509 3.21-1.887 1.19-.377 2.33-.566 3.52-.566M1424.63 909.792c2.26 0 4.02-.251 5.47-.817 1.38-.566 2.64-1.258 3.77-2.202h.07l-.38 3.585c-.76.629-1.89 1.195-3.46 1.761s-3.46.818-5.79.818q-3.765 0-6.6-1.698c-1.89-1.132-3.4-2.642-4.4-4.654-1.07-1.95-1.58-4.214-1.58-6.73s.51-4.78 1.58-6.729c1.07-1.95 2.45-3.522 4.27-4.654 1.83-1.133 3.84-1.699 6.1-1.699 2.65 0 4.72.441 6.36 1.384 1.63.943 2.83 2.201 3.58 3.899.76 1.699 1.13 3.585 1.13 5.787v1.069c0 .44-.06.755-.12 1.069h-18.81v.126c0 2.956.88 5.283 2.46 6.981 1.57 1.698 3.71 2.579 6.47 2.579zm-.95-19.937c-2.2 0-3.96.692-5.34 2.013-1.32 1.321-2.14 3.207-2.45 5.66h15.03v-.44c0-1.447-.25-2.767-.63-3.837-.44-1.069-1.2-1.886-2.2-2.515-1.07-.629-2.52-.881-4.34-.881zM1439.73 894.258c0-1.635.37-3.019 1.19-4.088s1.89-1.887 3.27-2.453 2.96-.818 4.78-.818c1.51 0 2.89.126 4.09.441 1.19.314 2.07.566 2.7.88l.19 3.585h-.12c-.51-.377-1.14-.692-1.95-.943-.82-.252-1.64-.503-2.58-.629-.95-.189-1.76-.252-2.52-.252q-2.55 0-3.96.755c-.94.503-1.45 1.509-1.45 2.956 0 .88.19 1.572.63 2.075s1.07.944 1.89 1.258 1.89.692 3.08 1.006c1.7.504 3.14 1.007 4.4 1.447s2.27 1.132 2.96 1.95c.69.88 1.07 2.138 1.07 3.773 0 2.579-.82 4.529-2.52 5.849s-3.96 2.013-6.92 2.013c-1.69 0-3.2-.189-4.71-.566-1.45-.377-2.64-.818-3.59-1.447l-.31-3.836h.12c1.01.88 2.27 1.572 3.9 2.075a14.7 14.7 0 0 0 4.53.692c2.01 0 3.46-.314 4.4-.943.95-.629 1.39-1.698 1.39-3.082 0-.88-.25-1.635-.69-2.138s-1.14-.944-2.08-1.258-2.01-.692-3.4-1.069a60 60 0 0 1-4.02-1.321 6.8 6.8 0 0 1-2.89-2.013c-.7-.88-1.07-2.201-1.07-3.899zM1462.37 894.258c0-1.635.37-3.019 1.19-4.088s1.89-1.887 3.27-2.453 2.96-.818 4.78-.818c1.51 0 2.89.126 4.09.441 1.19.314 2.07.566 2.7.88l.19 3.585h-.12c-.51-.377-1.14-.692-1.95-.943-.82-.252-1.64-.503-2.58-.629-.95-.189-1.76-.252-2.52-.252q-2.55 0-3.96.755c-.94.503-1.45 1.509-1.45 2.956 0 .88.19 1.572.63 2.075s1.07.944 1.89 1.258 1.89.692 3.08 1.006c1.7.504 3.15 1.007 4.4 1.447 1.26.44 2.27 1.132 2.96 1.95.69.88 1.07 2.138 1.07 3.773 0 2.579-.82 4.529-2.52 5.849s-3.96 2.013-6.92 2.013c-1.69 0-3.2-.189-4.71-.566-1.45-.377-2.64-.818-3.59-1.447l-.31-3.836h.12c1.01.88 2.27 1.572 3.9 2.075 1.58.504 3.09.692 4.53.692 2.01 0 3.46-.314 4.4-.943.95-.629 1.39-1.698 1.39-3.082 0-.88-.25-1.635-.69-2.138s-1.14-.944-2.08-1.258-2.01-.692-3.4-1.069a60 60 0 0 1-4.02-1.321 6.8 6.8 0 0 1-2.89-2.013c-.7-.88-1.07-2.201-1.07-3.899z"/></g><g fill="#fff" clip-path="url(#c)"><path d="M878.932 1182.57c-36.442-10.86-62.396-29.68-76.316-56.1-34.21-64.86 8.677-169.931 117.641-288.314C1132.92 607.148 1536.33 385.823 1819.48 344.8c129.28-18.729 217.26 2.752 247.71 60.494 34.21 64.852-8.68 169.927-117.64 288.31-212.67 231.009-616.08 452.336-899.23 493.356-70.157 10.17-128.163 8.48-171.405-4.42zm941.398-831.976c-282.03 40.859-683.88 261.362-895.773 491.549-107.203 116.44-149.761 219.087-116.779 281.637 29.226 55.41 115.061 75.8 241.732 57.45 282.02-40.86 683.87-261.363 895.77-491.55 107.2-116.44 149.76-219.092 116.78-281.634-29.2-55.401-115.06-75.803-241.73-57.452"/><path d="M850.586 1182.08c-42.591-12.7-72.034-34.79-86.159-65.64-33.065-72.12 20.541-184.611 147.057-308.659 238.666-233.997 667.206-444.127 955.266-468.426 126.53-10.67 211.29 16.336 238.64 76.017 33.06 72.126-20.54 184.615-147.06 308.663-238.66 233.997-667.2 444.125-955.26 468.425-61.182 5.16-112.617 1.51-152.484-10.38M2017.61 355.266c-39.1-11.657-89.81-15.195-150.39-10.097-286.93 24.191-713.85 233.568-951.677 466.79-124.655 122.213-177.812 232.311-145.826 302.071 26.252 57.28 108.956 83.07 232.843 72.63 286.93-24.19 713.86-233.588 951.68-466.786 124.66-122.213 177.81-232.315 145.83-302.071-13.43-29.295-41.59-50.323-82.5-62.52z"/><path d="M824.959 1180.48c-50.165-14.96-83.814-41.09-97.963-77.22-31.353-80.07 33.913-199.956 179.056-328.876C1171.08 538.979 1623.54 342.68 1914.68 336.788c122.97-2.491 203.98 30.097 228.12 91.736 31.35 80.072-33.89 199.963-179.06 328.876-265.03 235.406-717.49 431.7-1008.623 437.6-50.943 1.04-94.674-3.97-130.151-14.55zM2043.27 356.906c-34.85-10.392-78.03-15.285-128.47-14.278-289.95 5.879-740.72 201.526-1004.881 436.14C766.703 905.977 702.014 1023.49 732.43 1101.15c23.185 59.2 102.233 90.47 222.581 88.04 289.949-5.88 740.739-201.521 1004.879-436.142 143.22-127.21 207.91-244.719 177.49-322.384-13.45-34.398-45.8-59.354-94.11-73.758"/><path d="M801.239 1178.03c-58.967-17.59-96.604-48.4-110.572-91.3-28.933-88.806 48.938-215.909 213.673-348.704 291.58-235.052 766.47-414.789 1058.64-400.649 120.36 5.818 195.11 43.05 216.18 107.661 28.93 88.805-48.94 215.908-213.67 348.703-291.58 235.049-766.47 414.789-1058.639 400.629-40.44-1.95-75.747-7.46-105.581-16.36zM2066.94 359.342c-29.37-8.759-64.21-14.183-104.26-16.119-290.93-14.084-764.07 165.071-1054.683 399.36C745.258 873.793 668.06 998.55 696.215 1084.94c20.244 62.11 93.172 97.96 210.913 103.65 290.932 14.09 764.072-165.07 1054.692-399.358 162.73-131.21 239.93-255.967 211.78-342.36-13.36-40.986-49.67-70.537-106.66-87.53"/><path d="M782.992 1175.11c-70.568-21.04-114.075-57.89-127.256-108.54-25.597-98.314 65.881-232.39 250.94-367.817C1224.8 465.941 1720.32 305.674 2011.27 341.455c115.29 14.182 185.44 56.975 202.81 123.767 25.6 98.315-65.88 232.39-250.93 367.817-318.12 232.811-813.65 393.081-1104.6 357.301-27.867-3.43-53.08-8.53-75.558-15.23M2085.21 362.294c-22.16-6.609-47.08-11.649-74.64-15.036-289.68-35.638-783.35 124.132-1100.439 356.201C729.772 835.456 636.784 970.631 661.375 1065.1c16.737 64.26 85.15 105.57 197.881 119.43 289.704 35.65 783.354-124.13 1100.434-356.197 180.36-131.997 273.35-267.172 248.76-361.641-12.63-48.542-54.8-83.989-123.24-104.398"/><path d="M770.079 1172.44c-85.183-25.4-135.917-69.89-147.569-129.99-20.74-107.025 87.986-251.295 290.86-385.874 344.45-228.533 858.48-366.397 1145.81-307.321 109.68 22.539 174.7 70.998 188.1 140.098 20.74 107.03-87.99 251.3-290.86 385.88-344.47 228.527-858.48 366.397-1145.815 307.317-14.275-2.94-27.792-6.31-40.526-10.11M2058.6 352.1l-.59 2.846c-286.02-58.815-798.05 78.674-1141.412 306.479-200.846 133.241-308.641 275.267-288.35 379.935 12.911 66.61 76.389 113.46 183.536 135.48 286.026 58.81 798.056-78.68 1141.416-306.481 200.85-133.241 308.64-275.267 288.34-379.906-12.91-66.616-76.39-113.461-183.56-135.49l.59-2.846z"/><path d="m763.628 1170.83-.144-.04c-103.53-30.9-162.999-85.11-172.011-156.79-14.831-117.95 109.765-268.413 333.296-402.426C1295.06 389.54 1824.98 277.134 2106.14 360.972l.15.043c103.53 30.897 163 85.107 172.01 156.784 14.83 117.953-109.79 268.408-333.3 402.429-370.29 222.032-900.21 334.442-1181.372 250.602M2104.51 366.55c-279.82-83.435-807.61 28.712-1176.715 250.023-221.491 132.81-345.05 281.113-330.516 396.717 8.701 69.2 66.756 121.72 167.897 151.91l.145.04c279.809 83.44 807.629-28.7 1176.709-250.021 221.49-132.81 345.05-281.113 330.52-396.718-8.7-69.195-66.76-121.723-167.9-151.908z"/><path d="M763.931 1170.95c-16.207-4.83-31.65-10.2-46.341-16.16-97.005-39.3-150.447-99.46-154.534-173.999-7.12-129.545 134.264-285.401 378.14-416.92C1336.78 350.559 1880.02 266.759 2152.18 376.985c97.01 39.299 150.45 99.459 154.54 174.001 7.09 129.539-134.27 285.402-378.14 416.921C1554.34 1169.7 1047.92 1255.6 763.931 1170.95M2104 366.375c-282.56-84.255-786.96 1.513-1160.012 202.662-241.864 130.411-382.087 284.224-375.089 411.448 3.946 72.105 56.128 130.505 150.907 168.905 270.705 109.66 811.754 25.97 1206.014-186.61 241.87-130.412 382.09-284.224 375.09-411.449-3.94-72.11-56.12-130.503-150.9-168.901-14.58-5.896-29.95-11.241-46.01-16.031z"/><path d="M771.938 1173.78c-36.176-10.79-69.186-23.91-98.532-39.46-90.208-47.83-137.057-114.25-135.555-192.034 2.775-141.591 161.696-301.83 425.119-428.623 419.85-202.056 973.18-254.169 1233.38-116.154 90.21 47.83 137.06 114.244 135.56 192.03-2.78 141.591-161.7 301.83-425.12 428.621-372.54 179.29-850.14 240.52-1134.859 155.64zM2095.83 363.491c-283.24-84.456-758.98-23.286-1130.335 155.442-261.4 125.821-419.085 284.117-421.819 423.461-1.483 75.426 44.329 140.036 132.448 186.766 29.094 15.43 61.919 28.47 97.806 39.17 283.24 84.46 758.98 23.29 1130.33-155.44 261.4-125.819 419.11-284.108 421.82-423.459 1.49-75.429-44.33-140.037-132.44-186.77-29.1-15.425-61.92-28.469-97.81-39.17"/><path d="M788.797 1180.57c-60.728-18.11-113.954-41.91-157.347-71.48-83.158-56.67-122.87-129.758-114.856-211.328 15.139-153.818 192.262-317.06 473.781-436.724C1433.32 272.8 1993.15 255.585 2238.34 422.714c83.16 56.678 122.87 129.762 114.86 211.332-15.14 153.818-192.26 317.06-473.78 436.724-364.54 154.92-808.28 193.99-1090.63 109.82zM2078.97 356.625c-280.87-83.752-722.91-44.648-1086.313 109.795-279.532 118.812-455.334 280.267-470.272 431.913-7.816 79.318 31.034 150.547 112.311 205.947 243.757 166.13 801.084 148.69 1242.404-38.87 279.54-118.817 455.34-280.273 470.25-431.926 7.82-79.318-31.03-150.542-112.32-205.927-43.04-29.327-95.87-52.959-156.09-70.915z"/><path d="M815.324 1192.71c-90.489-26.99-167.029-64.99-223.076-113.77-75.925-66.05-107.733-146.439-92.018-232.435 30.311-165.682 226.007-330.265 523.47-440.239 464.49-171.729 1026.98-150.832 1253.9 46.565 75.93 66.05 107.74 146.442 92.02 232.438-30.31 165.682-226.01 330.261-523.47 440.241-349.73 129.31-755.03 149.41-1030.819 67.17zM2052.56 344.442c-274.36-81.809-678.17-61.637-1026.84 67.285-295.517 109.267-489.825 272.19-519.739 435.837-15.345 83.874 15.821 162.366 90.099 226.986 225.473 196.17 785.36 216.58 1248.05 45.5 295.52-109.27 489.83-272.192 519.74-435.839 15.34-83.874-15.82-162.368-90.1-226.981-55.57-48.348-131.47-86.028-221.21-112.788"/><path d="M851.642 1211.57c-125.845-37.52-229.077-93.99-295.346-167.85-68.408-76.283-91.384-164.809-66.399-255.998 48.379-176.603 262.669-340.396 573.213-438.143 484.26-152.415 1045.17-90.286 1250.39 138.509 68.41 76.284 91.36 164.802 66.4 255.998-48.38 176.603-262.67 340.394-573.22 438.144-327.93 103.22-691.07 108.05-955.038 29.34M2016.36 325.614c-262.66-78.322-624.52-73.401-951.5 29.53-308.655 97.154-521.472 259.442-569.332 434.126-24.443 89.197-1.927 175.826 65.103 250.57 203.837 227.25 762.009 288.64 1244.289 136.85 308.64-97.16 521.48-259.444 569.34-434.127 24.44-89.198 1.92-175.827-65.11-250.57-65.63-73.171-168.03-129.178-292.79-166.379"/><path d="M896.788 1238.24c-166.41-49.62-299.925-129.77-372.501-235.05-60.461-87.704-73.277-185.464-37.042-282.674 69.234-185.774 301.633-346.268 621.705-429.303 501.88-130.221 1056.63-23.735 1236.62 237.375 60.46 87.701 73.27 185.461 37.04 282.671-69.24 185.774-301.64 346.271-621.71 429.301-299.49 77.7-617.82 71.12-864.087-2.31zM1971.45 298.958c-245.13-73.093-562.39-79.584-861.06-2.09-318.225 82.562-549.146 241.711-617.689 425.695-35.522 95.348-22.964 191.245 36.377 277.326C707.774 1259.14 1259.71 1364.58 1759.41 1234.92c318.22-82.57 549.14-241.69 617.71-425.691 35.52-95.348 22.94-191.253-36.38-277.326-71.9-104.296-204.26-183.734-369.29-232.945"/><path d="M948.214 1273.46c-211.317-63.01-377.913-172.96-451.495-316.179-51.761-100.759-52.713-208.979-2.738-312.991 92.404-192.311 341.865-346.615 667.309-412.71 517.09-105.02 1060.69 48.826 1211.78 342.948 51.76 100.759 52.72 208.979 2.74 312.991-92.4 192.311-341.86 346.611-667.31 412.711-265.3 53.88-537.61 39.63-760.286-26.77M1920.18 263.842c-221.74-66.118-493.16-80.292-757.73-26.534-323.661 65.735-571.608 218.836-663.212 409.521-49.147 102.289-48.212 208.718 2.659 307.794C651.881 1246.57 1192.63 1399.07 1707.33 1294.52c323.67-65.73 571.61-218.83 663.22-409.516 49.14-102.29 48.21-208.719-2.66-307.794-72.88-141.88-238.12-250.843-447.72-313.344z"/><path d="M1002.01 1317.2c-258.856-77.18-460.004-224.06-527.749-411.34-41.891-115.805-28.746-235.894 37.994-347.25C629.34 363.233 894.064 218.339 1220.38 170.991c529.48-76.823 1056.65 127.274 1175.15 454.957 41.89 115.806 28.75 235.895-37.99 347.251-117.09 195.381-381.81 340.271-708.13 387.621-226.87 32.91-453.35 14.25-647.4-43.62m864.46-1097.051c-193.3-57.639-419.02-76.229-645.26-43.395-324.613 47.094-587.769 190.958-703.962 384.842-65.803 109.797-78.772 228.152-37.509 342.274 117.614 325.21 641.931 527.62 1168.821 451.18 324.61-47.1 587.77-190.96 703.96-384.844 65.8-109.797 78.77-228.153 37.51-342.274-67.1-185.563-266.68-331.187-523.56-407.783"/><path d="M1053.36 1369.05c-307.09-91.57-542.06-283.47-595.81-520.145-30.265-133.217-.271-266.481 86.701-385.355C686.335 269.324 963.75 137.09 1286.34 109.824c538.76-45.532 1043.85 211.569 1125.95 573.094 30.27 133.217.27 266.481-86.7 385.352-142.09 194.23-419.5 326.46-742.09 353.73-186.05 15.72-368.14-4.67-530.14-52.95m761.75-1200.695c-161.37-48.118-342.83-68.425-528.31-52.749-320.927 27.134-596.761 158.472-737.869 351.361-85.95 117.472-115.59 249.109-85.713 380.634C544.712 1206.4 1047.02 1461.46 1582.98 1416.17c320.92-27.13 596.78-158.46 737.86-351.36 85.95-117.472 115.59-249.109 85.72-380.634-53.29-234.624-286.54-424.9-591.48-515.828z"/><path d="M1097.68 1428.09c-354.432-105.69-619.795-351.37-650.537-641.692-16.254-153.253 33.835-300.8 144.773-426.683C757.977 171.299 1044.78 54.97 1359.16 48.525c544.53-11.143 1021.62 301.476 1063.51 696.893 16.24 153.221-33.82 300.772-144.79 426.652-166.06 188.41-452.86 304.74-767.24 311.19-144.72 2.96-284.7-16.95-412.98-55.2zM1770.7 109.339c-127.8-38.107-267.19-57.928-411.44-54.98-312.77 6.4-597.984 121.995-762.977 309.206-109.832 124.637-159.429 270.623-143.355 422.194 30.499 287.971 294.079 531.701 646.162 636.711 127.8 38.11 267.2 57.93 411.44 54.98 312.77-6.4 597.99-122 762.98-309.21 109.83-124.63 159.4-270.628 143.35-422.191-30.49-287.969-294.07-531.722-646.16-636.71"/><path d="M1131.36 1493.41c-399.97-119.26-689.389-428-687.652-775.11.881-175.928 74.626-338.428 213.271-469.863C847.34 67.923 1132.37-27.137 1438.94-12.383c546.49 26.314 989.34 396.824 987.19 825.905-.88 175.928-74.62 338.408-213.27 469.868-190.36 180.51-475.39 275.57-781.98 260.81-104.39-5.03-205.08-22.63-299.55-50.8zM1736.92 44.012c-94.08-28.054-194.24-45.578-298.28-50.573-305.01-14.685-588.446 79.8-777.664 259.21-137.454 130.346-210.57 291.352-211.446 465.68-1.735 344.461 285.916 650.931 683.37 769.471 94.08 28.06 194.24 45.58 298.27 50.58 305.01 14.68 588.45-79.8 777.67-259.21 137.46-130.35 210.57-291.356 211.44-465.66 1.73-344.458-285.91-650.96-683.37-769.474z"/><path d="M1152.03 1564.18c-443.42-132.22-748.084-513.57-704.185-919.466 21.446-198.395 125.318-380.642 292.505-513.205 208.468-165.319 494.69-239.643 785.28-203.97 544.26 66.826 946.36 497.3 896.37 959.546-21.44 198.395-125.32 380.645-292.47 513.185-208.47 165.32-494.69 239.65-785.28 203.97-66.33-8.14-130.61-21.72-192.16-40.07zM1716.14-26.788c-61.28-18.273-125.19-31.764-191.24-39.877-289.04-35.5-573.667 38.408-780.924 202.748C578.024 267.675 474.911 448.52 453.645 645.341 410.07 1048.39 712.956 1427.16 1153.68 1558.58c61.28 18.27 125.2 31.76 191.24 39.88 289.04 35.5 573.69-38.4 780.93-202.75 165.92-131.58 269.03-312.42 290.3-509.266 43.58-403.047-259.31-781.823-700.03-913.239z"/><path d="M1158.55 1639.74c-485.184-144.63-794.006-608.21-698.378-1073.971C561.75 71.162 1081.64-241.435 1619.08-131.075c260.31 53.458 485.91 196.992 635.21 404.125 149.38 207.234 204.52 453.337 155.31 692.982-49.21 239.618-196.89 444.078-415.82 575.708-218.87 131.57-482.75 174.58-743.06 121.12-31.33-6.43-62.13-14.19-92.16-23.15zm552.03-1741.826a1097 1097 0 0 0-92.67-23.274C1083.6-235.072 566.816 75.483 465.894 566.924 370.878 1029.66 677.998 1490.32 1160.22 1634.14c29.91 8.92 60.44 16.61 91.67 23.03 258.87 53.16 521.27 10.39 738.89-120.43 217.51-130.76 364.24-333.85 413.12-571.856 48.86-238.017-5.93-482.491-154.34-688.386-130.42-180.967-319.45-313.097-538.99-378.56z"/><path d="M1150.56 1719.47c-525.788-156.78-826.006-712.1-669.219-1237.912C638.129-44.252 1193.45-344.446 1719.23-187.666c525.79 156.78 826.01 712.107 669.23 1237.896-156.78 525.78-712.11 826-1237.9 669.22zm567.01-1901.54C1194.87-337.93 642.796-39.472 486.937 483.226 331.077 1005.92 629.527 1558.02 1152.23 1713.88c522.69 155.86 1074.79-142.59 1230.66-665.31 155.86-522.727-142.6-1074.773-665.32-1230.64"/></g></g><defs><clipPath id="a"><path fill="#fff" d="M0 0h1536v969H0z"/></clipPath><clipPath id="b"><path fill="#fff" d="M1084 743h396.101v170H1084z"/></clipPath><clipPath id="c"><path fill="#fff" d="m765.676-472 1907.14 568.677-568.677 1907.14-1907.14-568.677z"/></clipPath></defs></svg>