<svg xmlns="http://www.w3.org/2000/svg" fill="none" viewBox="0 0 160 160"><g clip-path="url(#a)"><path fill="#090808" d="M0 0h160v160H0z"/><path fill="#FBFDFC" d="M218.235-17.841h.002-.004z"/><path fill="#FBFDFC" fill-rule="evenodd" d="M22.966 62.267c-24.794 82.86 22.682 170.371 105.829 195.078l.001-.004c83.147 24.706 170.966-22.604 195.759-105.46 24.793-82.857-22.683-170.368-105.83-195.075S47.76-20.594 22.966 62.266m10.712-24.611C66.888-28.977 144.532-64.28 218.461-42.312 282.815-23.19 325.675 33.772 329.873 96.935c-2.61-23.755-11.59-46.867-26.535-67.527-23.61-32.641-59.286-55.26-100.45-63.684-70.203-14.365-138.512 16.745-169.21 71.932M17.58 116.075c6.018 58.26 50.003 110.146 112.48 128.704l.001-.004a172 172 0 0 0 14.573 3.647c41.165 8.425 82.896 1.647 117.507-19.087 21.98-13.169 39.418-30.963 51.214-51.863-33.482 66.002-110.73 100.851-184.296 78.991C64.322 237.227 21.336 179.69 17.58 116.075M217.356-29.708a174 174 0 0 0-14.655-3.668c-75.72-15.493-149.214 22.2-175.148 85.932C35.548 35.313 47.897 19.77 63.926 7.105c32.967-26.052 78.23-37.765 124.183-32.143 71.52 8.75 127.517 57.071 139.868 114.954C324.5 68.83 315.94 48.408 302.59 29.95c-20.625-28.517-50.517-49.34-85.235-59.655zm-88.327 262.582C72.92 216.201 30.861 174.393 19.847 125.58c9.562 53.929 51.831 100.888 110.476 118.317a173 173 0 0 0 14.497 3.629c40.938 8.377 82.433 1.637 116.846-18.978 27.154-16.266 47.33-39.634 58.428-67.205-7.991 17.343-20.381 32.976-36.485 45.701-32.967 26.052-78.23 37.764-124.183 32.143a186 186 0 0 1-30.388-6.315zm58.964-256.999a185 185 0 0 1 30.242 6.284c52.27 15.532 92.279 52.99 106.111 97.542-18.869-51.755-78.864-91.861-149.947-95.272-48.48-2.325-93.554 12.655-123.657 41.102-12.22 11.544-21.252 24.608-26.877 38.712 7.34-21.624 21.287-41.13 40.634-56.418 32.776-25.897 77.787-37.544 123.494-31.95M23.156 134.381c14.462 39.765 53.2 72.66 102.601 87.339h-.002l.004.001-.002-.001c14.939 4.439 30.861 7.213 47.368 8.004 48.484 2.327 93.558-12.654 123.662-41.1 12.18-11.507 21.192-24.523 26.821-38.573-7.354 21.568-21.281 41.021-40.582 56.274-32.771 25.898-77.786 37.544-123.494 31.95a185 185 0 0 1-30.243-6.284c-52.297-15.54-92.32-53.027-106.133-97.61M221.522-6.684c-14.878-4.42-30.717-7.182-47.169-7.97-48.234-2.314-93.057 12.576-122.98 40.848C35.29 41.394 24.777 59.24 20.34 78.622c3.673-12.61 10.426-24.603 20.112-35.555 26.26-29.692 71.615-48.024 121.331-49.04 70.66-1.44 134.139 31.473 158.304 77.759-16.46-35.737-52.937-64.908-98.566-78.466zm-101.09 218.111c-42.337-12.58-76.637-37.747-92.982-69.026 16.468 35.723 52.938 64.879 98.553 78.436 14.878 4.421 30.717 7.183 47.169 7.97 48.234 2.314 93.056-12.575 122.979-40.848 16.105-15.218 26.624-33.089 31.05-52.499-3.668 12.635-10.428 24.651-20.133 35.622-26.261 29.692-71.615 48.024-121.332 49.039-22.885.467-45.02-2.671-65.307-8.699zm41.367-216.48c22.81-.465 44.854 2.659 65.064 8.664 38.588 11.466 70.453 33.436 87.985 60.95-28.927-40.768-94.977-66.736-164.581-60.874C99.253 7.984 55.383 28.822 32.914 59.43c-7.316 9.965-12.083 20.572-14.222 31.478 2.225-16.887 9.819-32.95 22.45-47.235C67.234 14.172 112.338-4.044 161.8-5.053M32.629 149.525c16.688 23.566 45.776 42.193 80.795 52.598 25.619 7.608 54.414 10.822 83.836 8.345 51.014-4.297 94.883-25.135 117.352-55.743 7.281-9.916 12.037-20.468 14.191-31.318-2.253 16.828-9.836 32.834-22.427 47.072-26.092 29.502-71.195 47.718-120.656 48.727-22.811.464-44.855-2.659-65.064-8.664-38.62-11.478-70.505-33.473-88.028-61.017M233.883 12.91C208.365 5.328 179.671 2.128 150.339 4.6c-50.75 4.275-94.37 24.973-116.685 55.37-9.674 13.176-14.837 27.483-15.306 42.111.941-9.4 4.12-18.715 9.506-27.67C46.37 43.62 88.233 20.788 139.837 13.326c68.039-9.837 135.839 9.558 168.916 44.88-17.066-20.11-43.581-35.998-74.869-45.296M105.303 193.953c-27.502-8.172-50.884-21.301-66.518-37.987 30.993 36.5 93.114 59.08 158.392 53.583 50.75-4.276 94.374-24.972 116.685-55.369 9.666-13.166 14.829-27.46 15.305-42.074-.945 9.389-4.123 18.692-9.503 27.637-18.515 30.789-60.378 53.622-111.982 61.083-35.876 5.186-71.692 2.246-102.379-6.873m34.665-179.719c35.777-5.174 71.472-2.244 102.04 6.839 23.811 7.075 44.509 17.888 59.699 31.515C265.051 22.7 196.41 9.532 130.494 22.874 79.028 33.29 39.578 57.606 24.966 87.911c-3.907 8.103-5.846 16.368-5.819 24.573-.974-12.734 2.217-25.5 9.497-37.604 18.374-30.553 59.99-53.224 111.324-60.646M45.767 161.527c13.329 10.882 30.896 19.55 51.03 25.532 35.214 10.464 78.277 12.711 120.23 4.219 51.466-10.415 90.916-34.732 105.528-65.037 3.894-8.075 5.833-16.311 5.819-24.488.953 12.706-2.239 25.441-9.503 37.518-18.375 30.554-59.99 53.225-111.324 60.646-63.67 9.205-127.102-7.249-161.78-38.39M250.5 27.962c16.462 4.892 31.194 11.59 43.265 19.832-39.627-24.529-108.248-31.89-171.55-15.524C71.6 45.356 34.849 70.647 23.901 99.922c-2.756 7.368-3.718 14.756-2.91 21.977-2.138-11.111-.538-22.504 4.806-33.587 14.486-30.05 53.696-54.176 104.879-64.535 41.839-8.472 84.761-6.238 119.826 4.181zm73.129 86.26c2.736-7.312 3.703-14.644 2.928-21.814 2.094 11.064.485 22.403-4.835 33.437-14.486 30.049-53.696 54.175-104.879 64.534-61.653 12.479-125.668 1.719-163.402-24.229 10.045 6.267 21.975 11.422 35.223 15.359l.004.001c38.944 11.572 89.284 12.608 136.645.364 50.616-13.085 87.368-38.376 98.316-67.652M62.11 170.044c40.197 20.786 103.891 26.217 162.968 10.941 50.324-13.011 86.84-38.087 97.685-67.083 3.806-10.181 4.119-20.402 1.008-30.154 1.467 6.43 1.29 13.113-.571 19.89-7.65 27.83-41.538 53.641-90.647 69.045-51.858 16.266-109.285 17.027-151.029 4.623-6.938-2.061-13.441-4.486-19.414-7.262M285.524 44.162c-41.913-19.54-110.023-21.68-170.559-2.693-49.108 15.403-82.996 41.215-90.646 69.045-1.855 6.745-2.038 13.397-.593 19.801-3.082-9.727-2.758-19.918 1.037-30.07 10.84-28.993 47.357-54.073 97.681-67.083 47.232-12.212 97.401-11.19 136.166.329 9.773 2.904 18.821 6.476 26.914 10.671m-19.812-6.47a152 152 0 0 1 10.567 3.554c-43.616-14.59-110.289-11.938-167.546 9.156-47.04 17.33-77.987 43.266-82.78 69.376-1.16 6.326-.683 12.461 1.378 18.262-3.967-8.617-4.713-17.859-2.122-27.282 7.569-27.528 41.223-53.102 90.034-68.412 51.708-16.22 108.932-16.996 150.469-4.654m55.864 56.677c1.151-6.276.69-12.362-1.33-18.123 3.915 8.58 4.641 17.776 2.063 27.151-7.569 27.528-41.227 53.101-90.034 68.413-56.311 17.661-119.164 17.009-161.175 1.044q2.298.772 4.682 1.48v-.004c43.613 12.959 107.707 9.793 163.013-10.585 47.04-17.331 77.987-43.267 82.781-69.376m-54.813-55.015c-43.214-11.34-104.519-7.69-157.71 11.909-46.732 17.219-77.46 42.893-82.19 68.681-1.603 8.729.002 17.087 4.66 24.69-2.55-5.228-3.565-10.862-2.982-16.779 2.394-24.24 30.404-49.964 74.923-68.822 53.842-22.801 118.607-29.679 163.299-19.68m49.188 30.07c2.583 5.254 3.615 10.92 3.028 16.873-2.394 24.24-30.404 49.964-74.923 68.821-53.761 22.767-118.413 29.657-163.1 19.725 43.203 11.281 104.41 7.61 157.52-11.959 46.732-17.219 77.46-42.893 82.19-68.682 1.609-8.762-.015-17.152-4.715-24.779m-72.261 84.849C193.807 175.4 134.553 182.83 90.732 175.79c45.176 5.68 107.447-4.885 157.652-28.963 41.657-19.981 66.789-45.232 67.227-67.545.109-5.63-1.395-10.884-4.437-15.648 5.334 6.749 7.69 14.388 6.88 22.574-2.358 23.899-30.159 49.342-74.364 68.065M99.13 67.325c50.212-24.08 112.496-34.646 157.673-28.959-43.823-7.044-103.087.386-152.978 21.515-44.205 18.724-72.006 44.167-74.368 68.064-.81 8.196 1.552 15.843 6.898 22.6-3.052-4.772-4.562-10.034-4.453-15.675.439-22.312 25.57-47.564 67.227-67.545m147.485-29.044c-43.87-3.088-100.641 7.6-147.086 29.875-41.338 19.827-66.274 44.773-66.706 66.731-.153 7.743 2.868 14.763 8.845 20.751-3.525-4.351-5.48-9.284-5.779-14.698-1.126-20.415 21.232-44.976 59.799-65.701 46.472-24.972 105.83-38.68 150.927-36.958m59.275 20.278c3.499 4.339 5.442 9.255 5.739 14.65 1.122 20.413-21.233 44.975-59.799 65.7-46.522 24.998-105.962 38.71-151.078 36.952 43.891 3.122 100.736-7.564 147.232-29.864 41.338-19.828 66.278-44.772 66.706-66.732.153-7.724-2.853-14.728-8.8-20.706M96.13 76.053c43.02-23.116 97.089-36.563 140.542-37-44.545 1.798-100.801 18.14-143.582 43.703-35.35 21.118-55.053 44.829-52.707 63.417.657 5.207 3.01 9.829 6.959 13.776-6.536-5.272-10.126-11.713-10.529-19.058-1.107-20.048 21.068-44.287 59.316-64.838m211.005-8.075c-.658-5.213-3.015-9.84-6.972-13.789 6.548 5.275 10.145 11.722 10.548 19.074 1.107 20.048-21.068 44.287-59.316 64.838-43.019 23.114-97.09 36.559-140.544 36.996 44.545-1.799 100.797-18.14 143.577-43.702 35.345-21.12 55.052-44.83 52.707-63.417m-80.249-27.406c-42.608 3.58-93.734 19.32-133.318 42.971-35.026 20.929-54.566 44.3-52.267 62.518.883 7.001 4.985 12.92 12.042 17.519-4.354-3.559-7.075-7.895-8.053-12.923-3.28-16.867 13.914-39.601 45.996-60.81 39.107-25.855 92.038-44.347 135.6-49.275m67.249 9.966c4.377 3.566 7.111 7.913 8.093 12.958 3.28 16.866-13.914 39.601-45.996 60.809-39.087 25.84-91.977 44.325-135.525 49.267 42.597-3.591 93.69-19.327 133.251-42.966 35.026-20.929 54.566-44.3 52.267-62.517-.885-7.018-5.003-12.948-12.09-17.551M91.796 90.612c36.14-23.893 84.095-41.482 125.464-47.841-42.18 7.686-91.574 27.865-127.031 53.723-29.265 21.341-43.731 42.47-39.683 57.963 1.275 4.884 4.347 8.954 9.095 12.137-7.562-3.957-12.138-9.397-13.444-16.11-3.209-16.494 13.838-38.875 45.6-59.872m205.185-30.92c-1.271-4.865-4.325-8.923-9.043-12.1 7.526 3.954 12.081 9.382 13.383 16.077 3.21 16.49-13.837 38.871-45.598 59.868-36.117 23.878-84.035 41.46-125.386 47.829 42.165-7.696 91.523-27.867 126.961-53.71 29.264-21.342 43.731-42.47 39.683-57.963m-89.26-14.067c-39.738 8.787-84.271 27.78-116.946 51.61-28.521 20.802-43.226 42.103-39.338 56.99 1.681 6.431 6.657 11.403 14.63 14.735-5.078-2.803-8.453-6.599-9.998-11.327-4.575-13.994 7.74-34.024 33.79-54.95 31.823-25.564 77.452-46.976 117.862-57.058m73.772-.42c5.057 2.801 8.421 6.591 9.964 11.307 4.576 13.994-7.739 34.024-33.79 54.95-31.885 25.614-77.632 47.06-118.101 57.116 39.799-8.763 84.444-27.785 117.185-51.664 28.522-20.8 43.227-42.103 39.338-56.99-1.676-6.42-6.643-11.387-14.596-14.72M90.438 103.4c29.458-23.666 70.774-43.761 108.76-54.556-38.513 12.045-80.62 34.386-109.07 59.567-22.952 20.316-33.273 39.208-28.315 51.826 1.853 4.714 5.819 8.347 11.63 10.796-8.8-2.695-14.413-7.312-16.496-13.682-4.453-13.615 7.755-33.274 33.49-53.951m166.649 7.351c-29.515 23.711-70.935 43.839-108.982 54.618 38.572-12.028 80.783-34.406 109.286-59.634 22.956-20.315 33.274-39.208 28.316-51.827-1.851-4.707-5.814-8.34-11.621-10.789 8.797 2.695 14.409 7.312 16.492 13.68 4.452 13.615-7.756 33.275-33.491 53.952m-100.611 50.905c35.992-12.477 74.002-33.324 100.306-56.607 22.648-20.047 32.878-38.564 28.068-50.803-2.128-5.421-7.243-9.354-14.883-11.624a43 43 0 0 0-2.016-.545c5.777 2.063 9.808 5.344 11.839 9.76 5.229 11.365-3.249 29.092-23.256 48.64-25.165 24.587-63.68 47.502-100.058 61.179m34.585-109.166c-36.382 13.676-74.904 36.594-100.073 61.184-20.007 19.549-28.484 37.275-23.256 48.641 2.03 4.416 6.06 7.695 11.831 9.758-8.756-2.155-14.579-6.286-16.89-12.168-4.81-12.239 5.42-30.757 28.067-50.803 26.311-23.285 64.326-44.135 100.321-56.612M91.63 114.334c23.261-22.731 57.961-44.025 91.788-57.866-34.076 14.98-69.024 38.16-91.042 61.994-17.232 18.655-24.014 35.214-18.604 45.434 2.201 4.163 6.306 7.129 12.069 8.841l-.003-.005.331.097.113.032.114.032c-9.074-1.566-15.216-5.28-17.827-10.957-5.058-10.993 3.348-28.343 23.06-47.602m182.119-64.085c-2.258-4.268-6.517-7.278-12.513-8.968q2.487.435 4.672 1.085l-.005.002c6.469 1.922 10.922 5.236 13.045 9.853 5.059 10.992-3.348 28.343-23.06 47.602-23.329 22.795-58.164 44.147-92.084 57.985 34.17-14.975 69.259-38.221 91.342-62.125 17.231-18.656 24.013-35.214 18.603-45.434m-39.037-8.62c-44.599 6.439-108.147 41.187-141.656 77.461-16.953 18.349-23.683 34.526-18.467 44.382 4.621 8.731 18.195 11.945 38.227 9.053 44.598-6.438 108.146-41.187 141.655-77.46 16.953-18.35 23.683-34.527 18.468-44.382-4.618-8.73-18.196-11.946-38.227-9.054" clip-rule="evenodd"/><path fill="#090808" d="M101.8 108.508q.524-.152 1.094-.153h5.129c.75 0 1.473.21 2.094.594.312.193.601.43.855.706 2.086-1.118 4.543-1.655 7.09-1.655 1.121 0 2.145.107 3.07.274 1.192.215 2.223.531 3.082.845a4 4 0 0 1 2.145 1.847 6.3 6.3 0 0 1 5.137-2.611h4.371a4 4 0 0 1 3.914 3.182l4.133 19.771a4 4 0 0 1-.813 3.34c-.304.377-.672.69-1.082.93l-.277.147q-.152.075-.317.137c.348.208.676.469.997.787 1.312 1.309 1.574 2.932 1.574 4.06v3.161c0 2.209-1.789 4-4 4h-.731a4 4 0 0 1-1.234-.193 4 4 0 0 1-.934.182l-.297.011h-.734c-.426 0-.84-.067-1.223-.191-.386.124-.8.191-1.226.191h-.735c-.222 0-.445-.018-.656-.054q-.356.065-.73.066h-.696c-.136 0-.273-.007-.402-.02a6.2 6.2 0 0 1-1.281.138l-.387-.011-.371-.032a6 6 0 0 1-1.105-.234 4 4 0 0 1-1.122.159h-.73a4 4 0 0 1-1.305-.217 4 4 0 0 1-1.265.205h-.735q-.17 0-.34-.015l-.32-.039-.289.042a4 4 0 0 1-.437.024h-.735c-.148 0-.293-.008-.461-.018a6.4 6.4 0 0 1-1.347.136 6 6 0 0 1-1.864-.289c-.355.103-.73.159-1.117.159h-.711l-.289-.011-.348.063-.218.028a7 7 0 0 1-.707.038 6 6 0 0 1-1.602-.219q-.435.1-.898.101h-.735c-.851 0-1.64-.266-2.289-.721a4 4 0 0 1-2.293.721h-.816c-2.211 0-4-1.791-4-4v-6.298c0-.506.094-.989.266-1.434h-1.868a4 4 0 0 1-3.11-1.484l-.019-.028a4.02 4.02 0 0 1-3.132 1.512h-5.41a4 4 0 0 1-3.872-2.999l-3.96-15.305q-.32-.13-.708-.264a21 21 0 0 0-.855-.274 25 25 0 0 0-1.805-.465 4 4 0 0 1-3.066-4.707l.117-.581a4 4 0 0 1 3.922-3.2h8.71a6.34 6.34 0 0 1 5.72 3.555l.402-1.016a4 4 0 0 1 3.719-2.527h5.375a3.9 3.9 0 0 1 1.093.153"/><path fill="#fff" d="m92.417 132.137 8.287-19.782H95.33l-5.328 13.449-2.154-11.448c-.249-1.279-1.243-2.013-2.356-2.013h-8.714l-.118.58c1.788.391 3.824 1.019 5.043 1.681.758.415.971.77 1.22 1.741l4.084 15.792zM117.261 120.108c2.072 1.085 4.66 2.441 4.646 5.566l.012.011c-.024 4.12-3.54 6.772-8.914 6.772-2.297-.024-4.499-.509-5.695-1.054l.924-4.333.143.067c1.163.537 2.647 1.222 5.113 1.177 1.48-.012 3.054-.604 3.066-1.93.012-.876-.663-1.492-2.652-2.463-1.941-.947-4.522-2.545-4.487-5.386.024-3.848 3.588-6.535 8.643-6.535 1.965 0 3.551.426 4.782.876l-.899 4.191c-2.285-1.054-4.31-.983-5.044-.888-1.479.189-2.154.947-2.166 1.657-.019.937 1.138 1.543 2.528 2.272"/><path fill="#fff" fill-rule="evenodd" d="M139.996 132.126h-4.735v.011l-.616-2.947h-6.558l-1.066 2.947h-5.374l7.671-18.326a2.32 2.32 0 0 1 2.178-1.456h4.369zm-7.754-14.443-2.699 7.434h4.25z" clip-rule="evenodd"/><path fill="#fff" d="m103.794 132.137 4.226-19.782h-5.126l-4.214 19.782zM110.413 143.87v-6.547h-.734v6.547z"/><path fill="#fff" fill-rule="evenodd" d="M104.281 137.571v6.299h.817v-2.439h1.266c.675 0 1.208-.154 1.611-.474.39-.319.591-.817.591-1.456s-.189-1.125-.591-1.444c-.403-.32-.936-.486-1.611-.486zm.817.652h1.148c.474 0 .841.094 1.089.296.249.201.379.532.379.994s-.13.793-.379.994c-.248.202-.615.296-1.089.296h-1.148zM111.8 140.223l.083-.722c.177-.118.402-.225.663-.308a2.9 2.9 0 0 1 .864-.118c.604 0 1.053.118 1.338.355.296.237.438.627.438 1.172v3.267h-.711v-.899h-.035c-.119.343-.308.604-.568.769q-.374.249-.959.249c-.261 0-.498-.047-.723-.142a1.25 1.25 0 0 1-.52-.438 1.34 1.34 0 0 1-.202-.746c0-.296.06-.545.19-.734a1.2 1.2 0 0 1 .532-.426 4 4 0 0 1 .829-.237c.391-.071.699-.13.935-.178.225-.059.391-.13.498-.225v-.213c0-.343-.083-.592-.237-.745s-.45-.237-.888-.237q-.409 0-.817.142a2.1 2.1 0 0 0-.722.426h-.012zm2.675 2.072v-.971c-.083.083-.248.142-.473.201s-.497.119-.829.178c-.284.047-.509.13-.687.249-.177.118-.26.343-.26.651 0 .284.083.485.249.627s.39.201.674.201a1.35 1.35 0 0 0 1.172-.615 1 1 0 0 0 .154-.521" clip-rule="evenodd"/><path fill="#fff" d="M117.764 143.218c-.13-.106-.19-.307-.19-.603h-.023v-2.806h1.337l.095-.616h-1.432v-1.089l-.734.107v1.006l-.758.107-.095.485h.865v2.924c0 .45.118.77.355.971s.568.296.982.296c.178 0 .344-.012.509-.048.154-.035.285-.071.367-.118l.071-.627h-.023a1.7 1.7 0 0 1-.344.118c-.13.035-.296.047-.485.047-.201 0-.367-.047-.497-.154M119.882 138.045c0-.118.048-.225.131-.308.082-.083.189-.118.331-.118s.249.035.331.118a.41.41 0 0 1 .131.308c0 .13-.048.225-.131.308a.45.45 0 0 1-.331.118.47.47 0 0 1-.331-.118.43.43 0 0 1-.131-.308M120.711 139.193v4.688h-.734v-4.688zM125.708 139.466c-.284-.261-.687-.391-1.196-.391-.225 0-.438.035-.663.106a1.6 1.6 0 0 0-.604.356 1.5 1.5 0 0 0-.402.639h-.036v-.995h-.71v4.688h.734v-2.864a1.22 1.22 0 0 1 .699-1.137c.213-.106.449-.154.71-.154.438 0 .746.095.911.296q.249.302.249.888v2.983h.734v-3.196c0-.557-.142-.959-.426-1.219M129.366 143.349c.249 0 .486-.048.699-.154a1.25 1.25 0 0 0 .509-.45c.13-.189.189-.414.189-.675v-2.876h.734v4.688h-.698v-.983h-.036c-.095.26-.225.485-.402.639a1.8 1.8 0 0 1-.592.355 2.1 2.1 0 0 1-.651.107c-.509 0-.912-.13-1.208-.403-.296-.26-.438-.674-.438-1.231v-3.172h.734v3.007c0 .402.083.686.249.876s.473.272.911.272M136.789 140.2h-.036v-.012q-.106-.568-.497-.853c-.26-.177-.604-.272-1.018-.272a1.7 1.7 0 0 0-.639.119 1.6 1.6 0 0 0-.58.355 1.43 1.43 0 0 0-.391.651h-.036v-1.006h-.71v4.688h.734v-2.889q0-.39.178-.675c.118-.201.284-.343.485-.45s.426-.154.675-.154c.438 0 .734.095.888.273.154.189.225.473.225.876v3.019h.734v-2.889c0-.414.13-.734.39-.947.261-.225.58-.332.959-.332.45 0 .746.095.888.273.154.189.225.473.225.876v3.019h.734v-3.161c0-.557-.13-.959-.402-1.232-.273-.272-.663-.402-1.161-.402-.213 0-.438.035-.651.118-.213.071-.414.19-.592.356a1.45 1.45 0 0 0-.402.651"/></g><defs><clipPath id="a"><path fill="#fff" d="M0 0h160v160H0z"/></clipPath></defs></svg>