<svg xmlns="http://www.w3.org/2000/svg" fill="none" viewBox="0 0 24 24"><g fill="#12A594"><path fill-rule="evenodd" d="M11.603 1.841a.71.71 0 0 1 .797-.002l7.937 5.322a.74.74 0 0 1 .324.613v8.167a.74.74 0 0 1-.334.62L12.391 21.7a.71.71 0 0 1-.778-.002l-7.846-5.14a.74.74 0 0 1-.331-.617V7.775c0-.245.12-.474.32-.61zm.403 1.492L5.45 7.78l6.556 4.523 6.63-4.523zm7.212 5.817-6.493 4.43v6.163l6.493-4.204zm-7.936 10.585v-6.157L4.879 9.159v6.382z" clip-rule="evenodd"/><circle cx="12.049" cy="13.202" r="2.153"/><circle cx="12.049" cy="3.153" r="2.153"/><circle cx="19.943" cy="7.46" r="2.153"/><circle cx="19.943" cy="16.073" r="2.153"/><circle cx="12.049" cy="21.097" r="2.153"/><circle cx="4.153" cy="16.073" r="2.153"/><circle cx="4.153" cy="7.46" r="2.153"/></g></svg>