<svg width="390" height="390" viewBox="0 0 390 390" fill="none" xmlns="http://www.w3.org/2000/svg">
<path d="M214 360C248.794 360 277 355.075 277 349C277 342.925 248.794 338 214 338C179.206 338 151 342.925 151 349C151 355.075 179.206 360 214 360Z" fill="#D6D6D6"/>
<path d="M125.361 303.995V312.128" stroke="black" stroke-width="0.325" stroke-miterlimit="10"/>
<path d="M129.425 308.063H121.295" stroke="black" stroke-width="0.325" stroke-miterlimit="10"/>
<path d="M257.336 283.197C260.68 283.197 263.392 280.485 263.392 277.141C263.392 273.796 260.68 271.084 257.336 271.084C253.991 271.084 251.279 273.796 251.279 277.141C251.279 280.485 253.991 283.197 257.336 283.197Z" fill="#F3B443" stroke="black" stroke-width="0.325" stroke-miterlimit="10"/>
<path d="M253.946 277.43C253.106 276.23 252.74 274.707 252.867 273.239C251.882 274.298 251.279 275.708 251.279 277.267C251.279 280.541 253.935 283.197 257.209 283.197C259.448 283.197 261.392 281.952 262.397 280.121C259.399 280.932 255.65 279.867 253.946 277.43Z" fill="black"/>
<path d="M259.865 276.601C261.151 276.601 262.193 275.559 262.193 274.273C262.193 272.987 261.151 271.945 259.865 271.945C258.579 271.945 257.537 272.987 257.537 274.273C257.537 275.559 258.579 276.601 259.865 276.601Z" fill="white"/>
<path d="M103.968 195.202C106.231 195.202 108.065 193.368 108.065 191.105C108.065 188.843 106.231 187.008 103.968 187.008C101.705 187.008 99.8711 188.843 99.8711 191.105C99.8711 193.368 101.705 195.202 103.968 195.202Z" fill="#F3B443" stroke="black" stroke-width="0.325" stroke-miterlimit="10"/>
<path d="M101.675 191.301C101.107 190.49 100.859 189.459 100.945 188.466C100.279 189.182 99.8711 190.137 99.8711 191.191C99.8711 193.406 101.668 195.202 103.882 195.202C105.397 195.202 106.712 194.36 107.392 193.122C105.364 193.67 102.827 192.95 101.675 191.301Z" fill="black"/>
<path d="M105.678 190.74C106.548 190.74 107.253 190.035 107.253 189.165C107.253 188.296 106.548 187.591 105.678 187.591C104.809 187.591 104.104 188.296 104.104 189.165C104.104 190.035 104.809 190.74 105.678 190.74Z" fill="white"/>
<path d="M268.693 113.535C271.031 113.535 272.925 111.64 272.925 109.302C272.925 106.965 271.031 105.07 268.693 105.07C266.356 105.07 264.461 106.965 264.461 109.302C264.461 111.64 266.356 113.535 268.693 113.535Z" fill="#59B8AA" stroke="black" stroke-width="0.325" stroke-miterlimit="10"/>
<path d="M146.744 337.105V349.72C146.744 349.72 153.73 360.522 184.714 360.497C212.672 360.475 219.256 349.129 219.256 349.129L219.591 335.669C219.591 335.669 171.39 320.429 146.744 337.105Z" fill="#F3B443" stroke="black" stroke-width="0.325" stroke-miterlimit="10"/>
<path d="M183.422 349.569C203.538 349.172 219.729 342.95 219.585 335.671C219.442 328.393 203.018 322.814 182.902 323.211C162.786 323.608 146.595 329.83 146.738 337.108C146.882 344.387 163.306 349.965 183.422 349.569Z" fill="#FFDB7F" stroke="black" stroke-width="0.325" stroke-miterlimit="10"/>
<path d="M183.901 343.99C199.823 343.676 212.653 339.459 212.556 334.57C212.46 329.682 199.474 325.974 183.552 326.288C167.63 326.602 154.801 330.819 154.897 335.708C154.994 340.596 167.979 344.304 183.901 343.99Z" fill="#FFDB7F" stroke="black" stroke-width="0.325" stroke-miterlimit="10"/>
<path opacity="0.49" d="M195.536 359.631L195.479 348.459C195.479 348.459 213.722 346.738 219.536 337.746L219.347 349.467C221.196 347.447 213.384 358.234 195.536 359.631Z" fill="black"/>
<path d="M153.973 320.977V332.545C153.973 332.545 160.959 342.449 191.942 342.427C219.901 342.406 226.484 332.004 226.484 332.004L226.819 319.663C226.819 319.663 178.618 305.691 153.973 320.981V320.977Z" fill="#F3B443" stroke="black" stroke-width="0.325" stroke-miterlimit="10"/>
<path d="M190.595 332.412C210.71 332.058 226.921 326.359 226.804 319.684C226.686 313.009 210.284 307.886 190.169 308.241C170.054 308.595 153.843 314.294 153.961 320.968C154.079 327.643 170.481 332.767 190.595 332.412Z" fill="#FFDB7F" stroke="black" stroke-width="0.325" stroke-miterlimit="10"/>
<path d="M191.102 327.289C207.023 327.005 219.865 323.143 219.785 318.662C219.705 314.18 206.734 310.777 190.813 311.061C174.893 311.344 162.051 315.207 162.131 319.688C162.211 324.169 175.182 327.572 191.102 327.289Z" fill="#FFDB7F" stroke="black" stroke-width="0.325" stroke-miterlimit="10"/>
<path opacity="0.49" d="M202.764 341.633L202.707 331.387C202.707 331.387 220.951 329.809 226.765 321.565L226.576 332.313C228.425 330.461 220.612 340.354 202.764 341.633Z" fill="black"/>
<path d="M146.162 304.219V316.834C146.162 316.834 153.148 327.636 184.132 327.611C212.09 327.589 218.674 316.243 218.674 316.243L219.009 302.783C219.009 302.783 170.808 287.543 146.162 304.219Z" fill="#F3B443" stroke="black" stroke-width="0.325" stroke-miterlimit="10"/>
<path d="M182.846 316.679C202.962 316.282 219.153 310.06 219.009 302.782C218.865 295.503 202.442 289.925 182.326 290.322C162.21 290.718 146.019 296.94 146.162 304.219C146.306 311.497 162.73 317.076 182.846 316.679Z" fill="#FFDB7F" stroke="black" stroke-width="0.325" stroke-miterlimit="10"/>
<path d="M183.319 311.105C199.241 310.79 212.071 306.573 211.974 301.685C211.878 296.796 198.892 293.088 182.97 293.402C167.048 293.716 154.219 297.934 154.315 302.822C154.412 307.71 167.397 311.419 183.319 311.105Z" fill="#FFDB7F" stroke="black" stroke-width="0.325" stroke-miterlimit="10"/>
<path opacity="0.49" d="M194.957 326.745L194.9 315.573C194.9 315.573 213.144 313.852 218.958 304.86L218.769 316.581C220.618 314.561 212.806 325.349 194.957 326.745Z" fill="black"/>
<path d="M151.664 292.399L151.913 305.01C151.913 305.01 159.109 315.673 190.086 315.035C218.037 314.461 224.396 302.99 224.396 302.99L224.464 289.524C224.464 289.524 175.974 275.238 151.66 292.399H151.664Z" fill="#F3B443" stroke="black" stroke-width="0.325" stroke-miterlimit="10"/>
<path d="M188.58 304.137C208.685 303.343 224.75 296.803 224.463 289.529C224.176 282.255 207.645 277.001 187.541 277.795C167.436 278.588 151.371 285.128 151.658 292.402C151.946 299.677 168.476 304.93 188.58 304.137Z" fill="#FFDB7F" stroke="black" stroke-width="0.325" stroke-miterlimit="10"/>
<path d="M188.946 298.552C204.859 297.924 217.603 293.454 217.41 288.569C217.217 283.683 204.161 280.232 188.248 280.86C172.335 281.488 159.592 285.957 159.785 290.843C159.977 295.728 173.034 299.18 188.946 298.552Z" fill="#FFDB7F" stroke="black" stroke-width="0.325" stroke-miterlimit="10"/>
<path opacity="0.49" d="M200.893 313.956L200.615 302.787C200.615 302.787 218.82 300.707 224.456 291.601L224.498 303.325C226.308 301.269 218.709 312.21 200.893 313.956Z" fill="black"/>
<path d="M144.972 282.196L145.222 294.807C145.222 294.807 152.418 305.47 183.394 304.832C211.346 304.259 217.705 292.787 217.705 292.787L217.773 279.321C217.773 279.321 169.283 265.035 144.969 282.196H144.972Z" fill="#F3B443" stroke="black" stroke-width="0.325" stroke-miterlimit="10"/>
<path d="M181.891 293.931C201.995 293.138 218.06 286.598 217.773 279.324C217.486 272.049 200.956 266.796 180.851 267.589C160.747 268.383 144.682 274.923 144.969 282.197C145.256 289.471 161.787 294.725 181.891 293.931Z" fill="#FFDB7F" stroke="black" stroke-width="0.325" stroke-miterlimit="10"/>
<path d="M182.257 288.346C198.17 287.718 210.913 283.249 210.721 278.363C210.528 273.478 197.472 270.026 181.559 270.654C165.646 271.282 152.902 275.752 153.095 280.637C153.288 285.523 166.344 288.974 182.257 288.346Z" fill="#FFDB7F" stroke="black" stroke-width="0.325" stroke-miterlimit="10"/>
<path opacity="0.49" d="M194.2 303.753L193.922 292.584C193.922 292.584 212.126 290.504 217.762 281.398L217.805 293.122C219.615 291.067 212.016 302.007 194.2 303.753Z" fill="black"/>
<path d="M153.847 266.563L154.097 279.175C154.097 279.175 161.293 289.837 192.269 289.2C220.221 288.626 226.58 277.155 226.58 277.155L226.648 263.688C226.648 263.688 178.158 249.403 153.844 266.563H153.847Z" fill="#F3B443" stroke="black" stroke-width="0.325" stroke-miterlimit="10"/>
<path d="M190.766 278.3C210.87 277.506 226.935 270.966 226.648 263.692C226.361 256.418 209.831 251.164 189.726 251.957C169.622 252.751 153.557 259.291 153.844 266.565C154.131 273.839 170.662 279.093 190.766 278.3Z" fill="#FFDB7F" stroke="black" stroke-width="0.325" stroke-miterlimit="10"/>
<path d="M191.132 272.714C207.045 272.086 219.788 267.617 219.596 262.731C219.403 257.846 206.347 254.394 190.434 255.022C174.521 255.65 161.777 260.12 161.97 265.006C162.163 269.891 175.219 273.342 191.132 272.714Z" fill="#FFDB7F" stroke="black" stroke-width="0.325" stroke-miterlimit="10"/>
<path opacity="0.49" d="M203.081 288.12L202.803 276.952C202.803 276.952 221.007 274.871 226.643 265.765L226.686 277.49C228.496 275.434 220.897 286.375 203.081 288.12Z" fill="black"/>
<path d="M145.662 254.123L145.911 266.734C145.911 266.734 153.107 277.397 184.084 276.759C212.035 276.186 218.394 264.715 218.394 264.715L218.462 251.248C218.462 251.248 169.972 236.962 145.658 254.123H145.662Z" fill="#F3B443" stroke="black" stroke-width="0.325" stroke-miterlimit="10"/>
<path d="M182.58 265.86C202.685 265.067 218.75 258.527 218.463 251.253C218.176 243.979 201.645 238.725 181.541 239.518C161.436 240.312 145.371 246.852 145.658 254.126C145.946 261.4 162.476 266.654 182.58 265.86Z" fill="#FFDB7F" stroke="black" stroke-width="0.325" stroke-miterlimit="10"/>
<path d="M182.946 260.275C198.859 259.647 211.603 255.178 211.41 250.292C211.217 245.407 198.161 241.955 182.248 242.583C166.335 243.211 153.592 247.681 153.785 252.566C153.977 257.452 167.034 260.903 182.946 260.275Z" fill="#FFDB7F" stroke="black" stroke-width="0.325" stroke-miterlimit="10"/>
<path opacity="0.49" d="M194.891 275.68L194.613 264.511C194.613 264.511 212.818 262.431 218.454 253.325L218.496 265.049C220.306 262.994 212.707 273.934 194.891 275.68Z" fill="black"/>
<path d="M154.244 238.565L154.493 251.177C154.493 251.177 161.689 261.839 192.666 261.202C220.617 260.628 226.976 249.157 226.976 249.157L227.044 235.69C227.044 235.69 178.555 221.405 154.24 238.565H154.244Z" fill="#F3B443" stroke="black" stroke-width="0.325" stroke-miterlimit="10"/>
<path d="M191.162 250.304C211.267 249.511 227.332 242.971 227.045 235.696C226.758 228.422 210.227 223.169 190.123 223.962C170.018 224.755 153.953 231.295 154.241 238.57C154.528 245.844 171.058 251.098 191.162 250.304Z" fill="#FFDB7F" stroke="black" stroke-width="0.325" stroke-miterlimit="10"/>
<path d="M191.525 244.719C207.437 244.091 220.181 239.622 219.988 234.736C219.795 229.851 206.739 226.399 190.826 227.027C174.914 227.655 162.17 232.125 162.363 237.01C162.556 241.896 175.612 245.347 191.525 244.719Z" fill="#FFDB7F" stroke="black" stroke-width="0.325" stroke-miterlimit="10"/>
<path opacity="0.49" d="M203.471 260.126L203.193 248.957C203.193 248.957 221.398 246.877 227.034 237.771L227.077 249.495C228.886 247.44 221.287 258.38 203.471 260.126Z" fill="black"/>
<path d="M300.314 172.808C300.203 172.609 300.086 172.409 299.965 172.21C299.245 171.002 298.362 169.687 296.979 169.417C296.071 169.238 295.148 169.563 294.29 169.901C289.836 171.661 285.611 173.998 281.742 176.823C280.887 177.447 279.961 178.505 279.013 178.946C278.087 179.377 276.751 179.189 275.718 179.26C272.971 179.452 270.688 179.481 268.233 180.71C268.13 180.763 268.116 180.325 268.105 180.265C267.905 180.66 267.977 181.276 267.959 181.714C267.934 182.324 267.92 182.936 267.92 183.546C267.92 184.529 267.959 185.544 268.29 186.481C268.622 187.418 269.341 188.074 270.146 188.661C272.205 190.161 273.826 191.921 275.829 193.478C276.602 194.08 276.719 195.195 276.081 195.94L264.453 209.549C263.866 210.236 262.843 210.361 262.102 209.841L242.138 195.787C241.375 195.249 240.321 195.402 239.744 196.128L191.347 257.265C190.773 257.992 189.719 258.142 188.956 257.611L142.565 225.081C141.785 224.536 140.705 224.707 140.139 225.47L86.7578 292.477L86.8861 296.143C87.1354 297.269 86.5298 299.171 87.31 299.731L93.833 304.419C94.6132 304.978 95.7069 304.811 96.2733 304.041L142.743 241.28C143.306 240.518 144.389 240.347 145.169 240.892L191.265 273.215C192.027 273.749 193.082 273.596 193.655 272.869L242.042 211.747C242.619 211.02 243.673 210.867 244.436 211.405L264.065 225.224C264.806 225.744 265.829 225.619 266.416 224.932L285.234 202.908C285.843 202.195 286.912 202.089 287.653 202.666L292.017 206.061C294.311 207.846 297.703 206.513 298.123 203.663C299.22 196.239 300.314 188.815 301.411 181.39C301.518 180.671 301.611 179.947 301.728 179.228C302.131 176.77 301.465 174.864 300.296 172.787L300.314 172.808Z" fill="#27A394" stroke="black" stroke-width="0.325" stroke-miterlimit="10"/>
<g opacity="0.48">
<path d="M294.976 197.561L297.826 204.141L297.83 204.137L301.966 178.726C302.166 177.489 301.474 175.384 300.865 174.294L298.721 170.457L294.976 197.561Z" fill="#113D38"/>
<path d="M265.436 225.687L263.028 219.228L283.028 194.753L286.227 202.356L265.436 225.687Z" fill="#113D38"/>
<path d="M191.161 266.054L192.664 273.646L242.055 211.768L241.182 202.288L191.161 266.054Z" fill="#113D38"/>
<path d="M95.1719 297.187L95.7597 304.764L143.793 240.632L142.799 232.573L95.1719 297.187Z" fill="#113D38"/>
</g>
<path d="M293.593 168.302L270.337 177.568C267.662 178.633 267.145 182.195 269.404 183.98L273.098 186.894C273.861 187.496 273.975 188.612 273.348 189.356L261.887 202.965C261.31 203.653 260.298 203.777 259.568 203.257L239.895 189.203C239.144 188.665 238.103 188.818 237.537 189.545L189.842 250.682C189.275 251.408 188.235 251.558 187.487 251.027L141.769 218.498C141 217.953 139.934 218.124 139.379 218.886L86.9417 290.746C86.3823 291.515 86.5498 292.591 87.3193 293.151L93.7461 297.839C94.5156 298.398 95.5915 298.231 96.1508 297.461L141.947 234.7C142.503 233.938 143.568 233.767 144.338 234.312L189.767 266.635C190.519 267.169 191.555 267.016 192.122 266.289L239.806 205.167C240.373 204.44 241.413 204.287 242.165 204.825L261.513 218.644C262.243 219.164 263.251 219.039 263.832 218.352L282.379 196.328C282.977 195.615 284.032 195.509 284.762 196.086L289.062 199.481C291.324 201.266 294.666 199.933 295.079 197.083L298.684 172.309C299.098 169.459 296.273 167.229 293.597 168.294L293.593 168.302Z" fill="#A4DED2" stroke="black" stroke-width="0.325" stroke-miterlimit="10"/>
<path opacity="0.48" d="M224.537 211.647L223.956 214.169C220.96 222.181 217.54 226.659 210.746 231.857L195.299 243.678L216.603 216.367L224.533 211.643L224.537 211.647Z" fill="#113D38"/>
<g opacity="0.29">
<path d="M296.707 184.198L273.347 189.353L273.343 189.349L274.059 188.27L273.657 187.692C273.283 187.158 272.859 186.659 272.392 186.203L271.576 185.409C271.576 185.409 270.237 184.443 269.015 183.318C267.793 182.192 268.441 179.659 268.441 179.659L298.199 173.446L296.707 184.198Z" fill="white"/>
<path d="M230.375 198.9L230.372 198.9V198.904L230.375 198.9Z" fill="white"/>
<path d="M230.375 198.9L249.129 195.605L240.572 189.673C239.424 188.879 237.836 189.121 236.995 190.225L230.375 198.9Z" fill="white"/>
<path d="M134.856 225.084L134.853 225.085V225.088L134.856 225.084Z" fill="white"/>
<path d="M134.856 225.084L147.76 222.762L141.872 218.58C141.081 218.02 139.987 218.191 139.41 218.968L134.856 225.084Z" fill="white"/>
<path d="M172.121 253.888C172.121 253.888 186.524 250.653 185.851 250.122C184.761 249.26 171.804 240.094 171.804 240.094L157.18 243.197L172.121 253.888Z" fill="white"/>
<path d="M102.335 269.645L102.34 269.643L102.338 269.645H102.335Z" fill="white"/>
<path d="M102.34 269.643L112.053 256.332L132.62 247.486C132.62 247.486 122.16 260.974 122.153 261.829C122.146 262.676 102.69 269.52 102.34 269.643Z" fill="white"/>
<path d="M100.45 291.334L100.447 291.334L100.45 291.33V291.334Z" fill="white"/>
<path d="M100.447 291.334L95.8935 297.451C95.3164 298.227 94.2227 298.398 93.4318 297.839L87.543 293.656L100.447 291.334Z" fill="white"/>
<path d="M253.261 212.762L272.926 207.963L264.23 217.657C263.461 218.658 262.282 218.882 261.256 218.145L253.261 212.762Z" fill="white"/>
</g>
<path d="M293.593 168.301L270.337 177.568C267.662 178.633 267.145 182.195 269.404 183.98L273.098 186.894C273.861 187.496 273.975 188.611 273.348 189.356L261.887 202.965C261.31 203.652 260.298 203.777 259.568 203.257L239.895 189.203C239.144 188.665 238.103 188.818 237.537 189.545L189.842 250.681C189.275 251.408 188.235 251.558 187.487 251.027L141.769 218.498C141 217.952 139.934 218.123 139.379 218.886L86.9417 290.746C86.3823 291.515 86.5498 292.591 87.3193 293.15L93.7461 297.842C94.5156 298.402 95.5915 298.234 96.1508 297.465L141.947 234.703C142.503 233.941 143.568 233.77 144.338 234.315L189.767 266.638C190.519 267.172 191.555 267.019 192.122 266.292L239.806 205.17C240.373 204.443 241.413 204.29 242.165 204.828L261.513 218.647C262.243 219.167 263.251 219.043 263.832 218.355L282.379 196.331C282.977 195.619 284.032 195.512 284.762 196.089L289.062 199.484C291.324 201.269 294.666 199.937 295.079 197.087L298.684 172.313C299.098 169.463 296.273 167.233 293.597 168.298L293.593 168.301Z" stroke="black" stroke-width="0.325" stroke-miterlimit="10"/>
<path d="M176.097 150.044C176.816 150.574 183.204 155.209 183.973 155.633C195.544 161.989 212.409 156.324 222.915 142.071C233.304 127.981 233.838 110.439 224.675 101.176C223.952 100.446 217.532 95.6082 216.688 94.9883C205.153 86.4845 192.349 96.0677 181.141 111.273C169.933 126.478 164.561 141.54 176.097 150.047V150.044Z" fill="#F3B443" stroke="black" stroke-width="0.325" stroke-miterlimit="10"/>
<path opacity="0.49" d="M181.131 111.112C192.338 95.9074 205.142 86.3206 216.678 94.828C217.522 95.4514 223.942 100.286 224.665 101.016C231.679 108.109 233.005 120.051 228.584 131.583C227.016 130.019 225.392 128.519 223.714 127.072C221.017 124.368 218.078 121.907 214.935 119.727C215.356 111.401 215.705 103.531 214.586 104.707C209.221 110.357 200.999 133.107 193.699 146.26C193.51 146.178 193.307 146.132 193.097 146.132C193.229 145.918 193.357 145.704 193.482 145.491C194.33 144.048 192.766 142.911 191.547 143.41C191.597 143.275 191.654 143.139 191.701 143.001C192.189 141.604 190.112 140.339 189.153 141.519C188.911 141.814 188.68 142.117 188.448 142.42C188.712 141.964 188.972 141.504 189.225 141.045C190.19 139.285 187.732 137.956 186.592 139.506C185.071 141.572 183.835 144.051 182.402 146.353C183.35 144.532 184.259 142.691 184.736 140.678C185.138 138.982 182.873 138.034 181.95 139.502C180.952 141.091 180.062 142.755 179.153 144.408C179.125 144.212 179.096 144.016 179.071 143.816C179.299 143.097 179.535 142.377 179.795 141.665C179.898 141.401 179.998 141.137 180.094 140.874C180.493 139.773 179.649 139.071 178.744 139.039C178.555 137.781 178.192 136.535 177.796 135.37C177.81 135.07 177.821 134.771 177.828 134.472C177.835 133.866 177.468 133.385 176.984 133.139C176.083 130.845 175.028 128.619 174.102 126.331C173.842 125.69 173.218 125.298 172.605 125.256C174.633 120.688 177.586 115.907 181.123 111.109L181.131 111.112Z" fill="black"/>
<path d="M217.283 137.917C228.493 122.712 228.228 103.491 216.691 94.9856C205.154 86.4798 186.714 91.9104 175.504 107.115C164.294 122.32 164.56 141.541 176.096 150.047C187.633 158.552 206.073 153.122 217.283 137.917Z" fill="#FFDB7F" stroke="black" stroke-width="0.325" stroke-miterlimit="10"/>
<path d="M214.812 135.542C224.879 121.888 224.641 104.626 214.28 96.9882C203.92 89.35 187.361 94.227 177.294 107.881C167.227 121.535 167.465 138.796 177.825 146.435C188.186 154.073 204.745 149.196 214.812 135.542Z" fill="#FFDB7F" stroke="black" stroke-width="0.325" stroke-miterlimit="10"/>
<path opacity="0.29" d="M225.135 109.563L167.18 133.239C167.18 133.239 167.18 123.1 168.868 120.215L220.66 98.875C220.66 98.875 224.326 103.214 225.131 109.563H225.135Z" fill="white"/>
<path opacity="0.29" d="M168.374 138.676L225.136 116.057C225.136 116.057 225.328 115.929 225.556 115.861C225.392 117.34 225.147 118.804 225.125 120.296C225.125 120.371 225.125 120.439 225.136 120.507C225.036 120.735 224.933 120.973 224.815 121.223L170.187 143.243C170.187 143.243 170.041 143.172 169.824 143.036C169.792 142.933 169.753 142.83 169.699 142.73C169.29 141.985 168.908 141.237 168.588 140.46C168.549 140.307 168.499 140.154 168.438 140.001C168.406 139.926 168.37 139.851 168.331 139.78C168.281 139.637 168.224 139.499 168.182 139.356C168.164 139.299 168.142 139.246 168.121 139.192C168.189 139.025 168.271 138.854 168.374 138.676Z" fill="white"/>
<path opacity="0.49" fill-rule="evenodd" clip-rule="evenodd" d="M203.576 106.894C203.123 106.745 202.664 106.976 202.55 107.418L202.268 108.501C202.19 108.797 202.364 109.146 202.66 109.26C207.466 111.105 210.195 115.676 208.955 120.991C207.68 126.453 202.617 131.041 196.661 132.605C196.255 132.712 195.923 133.036 195.831 133.407L195.51 134.643C195.378 135.149 195.731 135.455 196.29 135.33C203.797 133.638 210.238 127.938 211.78 121.116C213.273 114.522 209.696 108.936 203.576 106.898V106.894ZM194.498 107.133C194.619 106.698 194.295 106.438 193.779 106.552C186.828 108.102 180.547 113.221 178.545 119.655C176.472 126.306 179.568 132.373 185.816 134.767C186.287 134.949 186.785 134.686 186.928 134.183L187.27 132.954C187.363 132.619 187.199 132.227 186.892 132.096C182.029 129.997 179.632 125.12 181.26 119.773C182.845 114.568 187.822 110.364 193.415 108.918C193.764 108.829 194.114 108.501 194.196 108.205L194.498 107.129V107.133ZM198.26 110.749L196.907 110.699C196.533 110.685 196.158 110.938 196.069 111.262L195.567 113.097C192.785 113.328 190.601 114.832 190.024 116.873C189.265 119.545 190.79 120.671 194.53 121.308C197.063 121.814 197.683 122.356 197.331 123.713C196.974 125.077 195.446 125.932 193.633 125.843C191.189 125.726 190.651 124.721 190.704 123.464C190.715 123.168 190.498 122.94 190.166 122.926L188.588 122.854C188.189 122.837 187.787 123.147 187.754 123.503C187.562 125.619 188.613 127.243 191.57 127.771L191.014 129.805C190.918 130.165 191.153 130.471 191.545 130.489L192.963 130.56C193.355 130.582 193.75 130.304 193.846 129.944L194.388 127.902C197.416 127.621 199.757 125.872 200.327 123.617C201.068 120.688 199.336 119.63 195.656 119.003C192.963 118.522 192.582 117.92 192.902 116.766C193.205 115.679 194.352 114.949 196.158 115.024C197.797 115.092 198.61 115.633 198.691 116.819C198.709 117.087 198.927 117.283 199.237 117.293L200.69 117.354C201.096 117.372 201.495 117.055 201.499 116.702C201.513 114.839 200.387 113.681 198.278 113.25L198.781 111.358C198.866 111.03 198.634 110.756 198.26 110.742V110.749Z" fill="black"/>
<path opacity="0.48" d="M171.721 113.204L201.878 99.8654L177.542 104.55C177.542 104.55 173.025 110.439 171.724 113.204H171.721Z" fill="#113D38"/>
<path d="M211.848 93.5597C211.274 94.2473 206.187 100.275 205.539 100.87C195.824 109.812 178.096 108.351 164.48 97.0296C151.018 85.8361 146.301 68.9319 152.977 57.7456C153.504 56.862 158.581 50.6312 159.251 49.8225C168.413 38.8036 183.141 45.0416 197.665 57.1185C212.19 69.1955 221.011 82.5372 211.848 93.5561V93.5597Z" fill="#F3B443" stroke="black" stroke-width="0.325" stroke-miterlimit="10"/>
<path opacity="0.49" d="M197.642 56.9689C183.118 44.8919 168.394 38.6504 159.227 49.6728C158.558 50.478 153.481 56.7124 152.954 57.5959C147.841 66.1602 149.416 78.0734 156.47 88.2088C157.617 86.3171 158.835 84.4681 160.118 82.6654C162.088 79.3915 164.354 76.2992 166.88 73.4314C164.478 65.4477 162.255 57.8916 163.62 58.768C170.182 62.9682 183.613 83.0894 193.852 94.1083C194.015 93.9836 194.201 93.891 194.404 93.8376C194.226 93.663 194.051 93.4849 193.876 93.3067C192.708 92.1097 193.951 90.6313 195.255 90.8237C195.173 90.7025 195.088 90.585 195.006 90.4603C194.197 89.2241 195.911 87.4962 197.126 88.4118C197.432 88.6398 197.728 88.8785 198.023 89.1208C197.656 88.7396 197.297 88.3584 196.94 87.9701C195.583 86.4916 197.649 84.6142 199.128 85.8468C201.098 87.4891 202.893 89.6017 204.835 91.4934C203.478 89.9508 202.156 88.3833 201.212 86.5415C200.414 84.9918 202.391 83.5312 203.634 84.7353C204.981 86.0392 206.246 87.4392 207.525 88.8251C207.503 88.6291 207.485 88.4296 207.464 88.2301C207.069 87.5853 206.67 86.9441 206.246 86.3135C206.082 86.0819 205.921 85.8504 205.765 85.6152C205.113 84.6427 205.765 83.7591 206.637 83.5133C206.52 82.2486 206.573 80.9519 206.677 79.7228C206.591 79.4378 206.509 79.1492 206.431 78.8607C206.278 78.2764 206.52 77.7207 206.933 77.3644C207.261 74.9205 207.749 72.5051 208.102 70.0648C208.201 69.3808 208.711 68.85 209.295 68.6611C206.235 64.7139 202.22 60.7773 197.639 56.9689H197.642Z" fill="black"/>
<path d="M211.845 93.5461C221.008 82.5243 216.661 63.7993 202.135 51.7227C187.61 39.646 168.406 38.7909 159.242 49.8127C150.079 60.8344 154.426 79.5594 168.952 91.6361C183.477 103.713 202.681 104.568 211.845 93.5461Z" fill="#FFDB7F" stroke="black" stroke-width="0.325" stroke-miterlimit="10"/>
<path d="M209.304 90.4502C217.533 80.5526 213.629 63.7372 200.585 52.892C187.54 42.0467 170.295 41.2786 162.066 51.1763C153.837 61.0739 157.741 77.8893 170.785 88.7346C183.83 99.5798 201.075 100.348 209.304 90.4502Z" fill="#FFDB7F" stroke="black" stroke-width="0.325" stroke-miterlimit="10"/>
<path opacity="0.22" d="M154.541 66.0035L216.483 75.1129C216.483 75.1129 214.053 65.2696 211.724 62.872L156.326 54.5571C156.326 54.5571 153.804 59.648 154.541 66.0035Z" fill="white"/>
<path opacity="0.22" d="M216.624 80.674L156.097 72.3092C156.097 72.3092 155.879 72.2308 155.641 72.2201C156.154 73.6166 156.745 74.9811 157.123 76.4203C157.14 76.4916 157.155 76.5593 157.162 76.6269C157.315 76.8265 157.472 77.0295 157.643 77.2468L215.954 85.5404C215.954 85.5404 216.079 85.4371 216.257 85.2554C216.264 85.145 216.275 85.0381 216.307 84.9276C216.528 84.1083 216.717 83.2889 216.845 82.4552C216.845 82.2949 216.856 82.1346 216.881 81.9743C216.895 81.8924 216.913 81.814 216.93 81.7356C216.945 81.586 216.966 81.4364 216.977 81.2867C216.98 81.2262 216.987 81.1692 216.995 81.1157C216.891 80.9697 216.767 80.8236 216.624 80.674Z" fill="white"/>
<g opacity="0.82">
<path opacity="0.7" d="M184.733 51.5824L184.52 65.4513L196.354 74.2508L184.733 51.5788V51.5824Z" fill="black"/>
<path d="M184.729 51.5824L172.734 67.4036L184.516 65.4513L184.729 51.5824Z" fill="black"/>
<path opacity="0.7" d="M184.292 80.1111L184.139 90.0719L196.355 76.5308L184.292 80.1111Z" fill="black"/>
<path d="M184.135 90.072L184.288 80.1076L172.674 69.6195L184.135 90.0685V90.072Z" fill="black"/>
<path opacity="0.5" d="M184.326 77.8347L196.353 74.2543L184.519 65.4549L184.326 77.8347Z" fill="black"/>
<path opacity="0.7" d="M172.734 67.4036L184.323 77.8311L184.516 65.4513L172.734 67.4V67.4036Z" fill="black"/>
</g>
<path d="M219.287 220.76C218.653 221.394 213.042 226.937 212.34 227.472C201.855 235.498 184.335 232.438 171.798 219.93C159.404 207.564 156.237 190.304 163.9 179.766C164.506 178.932 170.124 173.186 170.865 172.445C180.99 162.299 195.09 169.848 208.46 183.19C221.831 196.531 229.412 210.614 219.287 220.76Z" fill="#F3B443" stroke="black" stroke-width="0.325" stroke-miterlimit="10"/>
<path opacity="0.49" d="M207.127 180.507C206.543 180.525 205.959 180.179 205.681 179.627C205.585 179.57 205.488 179.509 205.389 179.449C205.139 179.42 204.886 179.385 204.637 179.346C202.756 180.457 200.401 181.063 198.559 181.715C196.39 182.481 195.463 179.036 197.612 178.28C198.146 178.092 198.787 177.917 199.453 177.721C198.545 177.29 197.686 176.795 196.903 176.246C195.004 175.968 193.116 175.651 191.295 175.117C191.178 175.081 191.071 175.038 190.967 174.992C189.86 175.217 188.755 175.441 187.654 175.694C186.981 175.847 186.301 175.562 185.916 175.085C183.337 179.363 181.117 184.529 179.218 190.176C176.293 198.868 174.672 207.108 175.332 213.813C176.607 211.964 178.185 210.251 180.173 209.2C180.96 208.783 181.687 208.943 182.175 209.388C183.169 209.485 184.013 210.308 183.693 211.547C183.508 212.263 183.247 212.947 182.945 213.617C183.803 213.56 184.662 214.13 184.847 215.039C185.275 214.839 185.731 214.836 186.133 214.978C186.489 214.779 186.86 214.59 187.262 214.44C188.652 213.924 189.674 215.427 189.453 216.631C189.446 216.677 189.432 216.72 189.425 216.766C190.244 216.439 191.242 216.848 191.684 217.586C192.556 216.66 193.668 217.176 194.199 218.088C197.501 209.998 207.084 195.669 213.223 184.191C211.121 183.111 209.136 181.754 207.131 180.503L207.127 180.507Z" fill="black"/>
<path opacity="0.49" d="M216.717 215.894C212.955 215.235 209.25 214.241 205.662 212.919C201.587 216.093 197.636 219.143 195.299 220.625C195.413 220.906 195.445 221.227 195.359 221.572C195.57 221.758 195.737 221.989 195.844 222.249C196.307 221.978 196.845 221.957 197.322 222.114C197.458 221.971 197.6 221.864 197.75 221.786C198.163 221.049 198.573 220.304 198.965 219.552C200.026 217.518 203.101 219.321 202.039 221.351C200.194 224.885 198.074 228.259 195.944 231.626C202.018 232.655 206.752 231.419 212.338 227.472C213.45 226.075 216.307 223.952 217.565 222.62C219.25 220.838 220.742 219.036 222.281 217.123C220.329 216.759 218.641 216.382 216.717 215.894Z" fill="black"/>
<path d="M219.286 220.783C229.41 210.638 226.778 191.596 213.407 178.252C200.036 164.909 180.988 162.317 170.864 172.463C160.739 182.608 163.371 201.65 176.742 214.994C190.114 228.337 209.161 230.929 219.286 220.783Z" fill="#FFDB7F" stroke="black" stroke-width="0.325" stroke-miterlimit="10"/>
<path opacity="0.29" d="M164.705 188.131L225.568 202.808C225.568 202.808 224.039 192.783 221.934 190.186L167.516 176.895C167.516 176.895 164.545 181.736 164.705 188.134V188.131Z" fill="white"/>
<path opacity="0.29" d="M225.208 208.362L165.686 194.554C165.686 194.554 165.479 194.458 165.24 194.422C165.625 195.858 166.088 197.272 166.334 198.74C166.345 198.811 166.352 198.883 166.355 198.95C166.487 199.16 166.63 199.378 166.779 199.609L224.1 213.147C224.1 213.147 224.236 213.054 224.428 212.89C224.442 212.784 224.467 212.673 224.507 212.57C224.799 211.775 225.062 210.974 225.265 210.158C225.283 209.998 225.305 209.841 225.347 209.681C225.369 209.602 225.394 209.524 225.419 209.449C225.447 209.303 225.479 209.157 225.504 209.007C225.515 208.947 225.525 208.893 225.54 208.836C225.447 208.679 225.34 208.523 225.212 208.362H225.208Z" fill="white"/>
<path d="M217.031 217.471C226.123 208.36 223.76 191.26 211.752 179.277C199.744 167.294 182.639 164.966 173.547 174.077C164.455 183.188 166.818 200.288 178.826 212.271C190.834 224.254 207.939 226.582 217.031 217.471Z" stroke="black" stroke-width="0.325" stroke-miterlimit="10"/>
<g opacity="0.55">
<mask id="mask0_4141_21899" style="mask-type:luminance" maskUnits="userSpaceOnUse" x="172" y="177" width="47" height="38">
<path d="M172.906 177.575H208.058L218.763 212.281L182.849 214.059L172.906 177.575Z" fill="white"/>
</mask>
<g mask="url(#mask0_4141_21899)">
<path d="M201.253 213.147C197.687 213.321 193.857 212.406 190.262 210.503C186.654 208.594 183.469 205.79 181.128 202.459C178.795 199.139 177.423 195.47 177.181 191.928C176.942 188.419 177.826 185.213 179.703 182.712C181.556 180.243 184.295 178.573 187.562 177.903C190.793 177.24 194.406 177.579 197.954 178.868C201.481 180.147 204.808 182.317 207.526 185.106C210.248 187.896 212.261 191.202 213.319 194.618C214.025 196.902 214.285 199.189 214.085 201.348C213.886 203.521 213.219 205.527 212.126 207.251C211.021 208.989 209.5 210.407 207.644 211.419C205.774 212.438 203.604 213.026 201.253 213.143V213.147ZM191.296 178.915C188.079 178.922 185.175 179.869 182.952 181.651C180.704 183.45 179.258 186.022 178.805 189.05C178.349 192.103 178.934 195.473 180.49 198.719C182.054 201.978 184.52 204.949 187.569 207.24C190.612 209.527 194.078 211.016 197.512 211.522C200.922 212.025 204.128 211.533 206.728 210.122C209.301 208.729 211.164 206.499 212.09 203.731C213.006 200.992 212.97 197.835 211.997 194.657C211.353 192.555 210.312 190.493 208.937 188.58C207.562 186.67 205.877 184.942 203.971 183.489C202.065 182.035 199.97 180.885 197.801 180.101C195.624 179.314 193.415 178.911 191.292 178.918L191.296 178.915Z" fill="black"/>
<path d="M188.308 204.846C185.162 202.299 182.872 198.918 181.896 195.388C180.927 191.882 181.329 188.505 183.004 185.929L181.732 184.967C179.851 187.81 179.384 191.547 180.456 195.441C181.536 199.363 184.087 203.118 187.592 205.933L188.312 204.85L188.308 204.846Z" fill="black"/>
<path d="M208.243 205.021C206.444 207.479 203.529 208.936 200.07 209.089C196.575 209.242 192.799 208.052 189.497 205.744L188.773 206.795C192.432 209.363 196.625 210.689 200.498 210.514C204.327 210.34 207.544 208.704 209.518 205.968L208.246 205.024L208.243 205.021Z" fill="black"/>
<path d="M203.976 184.725L203.32 185.68C206.309 188.12 208.536 191.33 209.562 194.707C210.599 198.106 210.353 201.444 208.856 204.073L210.103 205.017C211.764 202.114 212.034 198.419 210.884 194.664C209.744 190.938 207.278 187.39 203.965 184.704L203.972 184.725H203.976Z" fill="black"/>
<path d="M183.678 185.01C185.609 182.684 188.591 181.398 192.025 181.38C195.427 181.362 199.05 182.591 202.192 184.825L202.852 183.874C199.385 181.398 195.384 180.026 191.619 180.037C187.818 180.051 184.515 181.472 182.385 184.052L183.674 185.01H183.678Z" fill="black"/>
<path d="M201.134 191.679C200.347 189.68 198.423 189.036 196.171 188.865L195.363 186.107L193.66 186.129L194.451 188.84C194.002 188.847 193.539 188.854 193.083 188.861L192.295 186.146L190.592 186.168L191.397 188.961L187.885 189.014L188.408 190.849C188.408 190.849 189.687 190.803 189.673 190.828C189.898 190.799 190.147 190.86 190.371 190.995C190.596 191.13 190.774 191.337 190.874 191.562L193.107 199.342C193.125 199.424 193.129 199.502 193.111 199.577C193.093 199.652 193.065 199.72 193.018 199.773C192.972 199.83 192.915 199.873 192.844 199.901C192.773 199.93 192.694 199.944 192.612 199.941C192.641 199.958 191.34 199.98 191.34 199.98L191.604 202.085L195.11 201.968L195.954 204.9L197.689 204.835L196.855 201.957L198.234 201.911L199.068 204.771L200.792 204.707L199.947 201.829C202.78 201.554 204.561 200.771 204.002 198.045C203.553 195.865 202.26 194.925 200.525 194.572C201.362 194.062 201.704 193.147 201.13 191.679H201.134ZM200.557 197.803C201.187 199.944 197.472 199.812 196.303 199.848L195.199 196.032C196.364 196.008 199.901 195.58 200.557 197.803ZM198.202 192.509C198.772 194.447 195.669 194.283 194.696 194.305L193.702 190.874C194.671 190.856 197.61 190.5 198.202 192.509Z" fill="black"/>
</g>
</g>
<path d="M92.7461 135.829C92.7461 135.829 113.142 133.332 113.142 158.864C113.142 158.864 113.142 135.352 134.681 135.761C134.681 135.761 116.152 136.538 113.142 111.839C113.142 111.839 113.715 135.352 92.7461 135.829Z" fill="white" stroke="black" stroke-width="0.325" stroke-miterlimit="10"/>
<path d="M229.191 164.985C229.191 164.985 239.847 163.681 239.847 177.023C239.847 177.023 239.847 164.735 251.101 164.953C251.101 164.953 241.418 165.359 239.847 152.452C239.847 152.452 240.146 164.739 229.191 164.988V164.985Z" fill="white" stroke="black" stroke-width="0.325" stroke-miterlimit="10"/>
<path d="M230.096 76.748C230.096 76.748 234.663 76.1887 234.663 81.9066C234.663 81.9066 234.663 76.6412 239.487 76.7338C239.487 76.7338 235.336 76.9083 234.663 71.3757C234.663 71.3757 234.791 76.6412 230.096 76.748Z" fill="white" stroke="black" stroke-width="0.325" stroke-miterlimit="10"/>
</svg>
