<svg xmlns="http://www.w3.org/2000/svg" fill="none" viewBox="0 0 1200 1200"><path fill="#D6D6D6" d="M651.65 1038.93c98.174 0 177.76-13.92 177.76-31.1 0-17.176-79.586-31.1-177.76-31.1s-177.76 13.924-177.76 31.1c0 17.18 79.586 31.1 177.76 31.1"/><path stroke="#000" stroke-miterlimit="10" d="M402.54 881.38v22.83M413.95 892.8h-22.82"/><path fill="#F3B443" stroke="#000" stroke-miterlimit="10" d="M773 823c9.389 0 17-7.611 17-17s-7.611-17-17-17-17 7.611-17 17 7.611 17 17 17Z"/><path fill="#000" d="M763.485 806.812c-2.356-3.367-3.386-7.644-3.03-11.763-2.762 2.971-4.455 6.931-4.455 11.307 0 9.188 7.455 16.644 16.644 16.644 6.287 0 11.742-3.495 14.564-8.634-8.416 2.278-18.941-.713-23.723-7.554"/><path fill="#fff" d="M780.099 804.485a6.535 6.535 0 1 0 0-13.07 6.535 6.535 0 0 0 0 13.07"/><path fill="#F3B443" stroke="#000" stroke-miterlimit="10" d="M342.5 576c6.351 0 11.5-5.149 11.5-11.5s-5.149-11.5-11.5-11.5-11.5 5.149-11.5 11.5 5.149 11.5 11.5 11.5Z"/><path fill="#000" d="M336.063 565.049c-1.594-2.277-2.29-5.17-2.049-7.957a11.18 11.18 0 0 0-3.014 7.649c0 6.216 5.043 11.259 11.259 11.259 4.253 0 7.943-2.364 9.852-5.84-5.693 1.54-12.813-.483-16.048-5.111"/><path fill="#fff" d="M347.302 563.475a4.42 4.42 0 1 0 .001-8.84 4.42 4.42 0 0 0-.001 8.84"/><path fill="#59B8AA" stroke="#000" stroke-miterlimit="10" d="M804.88 346.76c6.561 0 11.88-5.319 11.88-11.88S811.441 323 804.88 323 793 328.319 793 334.88s5.319 11.88 11.88 11.88Z"/><path fill="#F3B443" stroke="#000" stroke-miterlimit="10" d="M462.58 974.32v35.41s19.61 30.32 106.58 30.25c78.48-.06 96.96-31.91 96.96-31.91l.94-37.78s-135.3-42.78-204.48 4.03Z"/><path fill="#FFDB7F" stroke="#000" stroke-miterlimit="10" d="M565.535 1009.31c56.465-1.12 101.913-18.584 101.51-39.014s-46.504-36.09-102.97-34.976-101.913 18.579-101.51 39.009c.403 20.431 46.504 36.091 102.97 34.981Z"/><path fill="#FFDB7F" stroke="#000" stroke-miterlimit="10" d="M566.876 993.647c44.693-.881 80.705-12.72 80.434-26.441-.271-13.722-36.721-24.131-81.414-23.249-44.694.881-80.705 12.72-80.435 26.441.271 13.722 36.721 24.131 81.415 23.249Z"/><path fill="#000" d="m599.54 1037.55-.16-31.36s51.21-4.83 67.53-30.07l-.53 32.9c5.19-5.67-16.74 24.61-66.84 28.53" opacity=".49"/><path fill="#F3B443" stroke="#000" stroke-miterlimit="10" d="M482.87 929.05v32.47s19.61 27.8 106.58 27.74c78.48-.06 96.96-29.26 96.96-29.26l.94-34.64s-135.3-39.22-204.48 3.7z"/><path fill="#FFDB7F" stroke="#000" stroke-miterlimit="10" d="M585.671 961.147c56.462-.995 101.966-16.991 101.636-35.727s-46.37-33.118-102.832-32.122c-56.463.995-101.967 16.991-101.636 35.727.33 18.736 46.37 33.118 102.832 32.122Z"/><path fill="#FFDB7F" stroke="#000" stroke-miterlimit="10" d="M587.091 946.766c44.689-.795 80.735-11.638 80.512-24.217-.224-12.579-36.634-22.131-81.323-21.335s-80.736 11.638-80.512 24.217 36.634 22.131 81.323 21.335Z"/><path fill="#000" d="m619.83 987.03-.16-28.76s51.21-4.43 67.53-27.57l-.53 30.17c5.19-5.2-16.74 22.57-66.84 26.16" opacity=".49"/><path fill="#F3B443" stroke="#000" stroke-miterlimit="10" d="M460.95 882.01v35.41s19.61 30.32 106.58 30.25c78.48-.06 96.96-31.91 96.96-31.91l.94-37.78s-135.3-42.78-204.48 4.03Z"/><path fill="#FFDB7F" stroke="#000" stroke-miterlimit="10" d="M563.915 916.985c56.465-1.113 101.913-18.579 101.51-39.009-.403-20.431-46.504-36.09-102.97-34.976-56.465 1.113-101.913 18.579-101.51 39.009.403 20.431 46.504 36.09 102.97 34.976Z"/><path fill="#FFDB7F" stroke="#000" stroke-miterlimit="10" d="M565.246 901.337c44.693-.881 80.705-12.72 80.434-26.441-.271-13.722-36.721-24.131-81.414-23.249s-80.705 12.72-80.435 26.441c.271 13.722 36.722 24.131 81.415 23.249Z"/><path fill="#000" d="m597.91 945.24-.16-31.36s51.21-4.83 67.53-30.07l-.53 32.9c5.19-5.67-16.74 24.61-66.84 28.53" opacity=".49"/><path fill="#F3B443" stroke="#000" stroke-miterlimit="10" d="m476.39 848.83.7 35.4s20.2 29.93 107.15 28.14c78.46-1.61 96.31-33.81 96.31-33.81l.19-37.8s-136.11-40.1-204.36 8.07z"/><path fill="#FFDB7F" stroke="#000" stroke-miterlimit="10" d="M580.013 881.779c56.433-2.227 101.527-20.585 100.721-41.004s-47.206-35.166-103.639-32.939-101.527 20.585-100.722 41.004 47.207 35.166 103.64 32.939Z"/><path fill="#FFDB7F" stroke="#000" stroke-miterlimit="10" d="M581.043 866.101c44.667-1.762 80.438-14.308 79.897-28.022s-37.19-23.402-81.857-21.639-80.438 14.309-79.897 28.023c.541 13.713 37.19 23.401 81.857 21.638Z"/><path fill="#000" d="m614.57 909.34-.78-31.35s51.1-5.84 66.92-31.4l.12 32.91c5.08-5.77-16.25 24.94-66.26 29.84" opacity=".49"/><path fill="#F3B443" stroke="#000" stroke-miterlimit="10" d="m457.61 820.19.7 35.4s20.2 29.93 107.15 28.14c78.46-1.61 96.31-33.81 96.31-33.81l.19-37.8s-136.11-40.1-204.36 8.07z"/><path fill="#FFDB7F" stroke="#000" stroke-miterlimit="10" d="M561.238 853.132c56.432-2.228 101.527-20.586 100.721-41.004-.806-20.419-47.207-35.166-103.64-32.939s-101.527 20.585-100.721 41.004 47.207 35.166 103.64 32.939Z"/><path fill="#FFDB7F" stroke="#000" stroke-miterlimit="10" d="M562.268 837.454c44.667-1.762 80.438-14.309 79.897-28.022-.541-13.714-37.19-23.402-81.857-21.639s-80.438 14.309-79.897 28.022c.541 13.714 37.19 23.402 81.857 21.639Z"/><path fill="#000" d="m595.79 880.7-.78-31.35s51.1-5.84 66.92-31.4l.12 32.91c5.08-5.77-16.25 24.94-66.26 29.84" opacity=".49"/><path fill="#F3B443" stroke="#000" stroke-miterlimit="10" d="m482.52 776.31.7 35.4s20.2 29.93 107.15 28.14c78.46-1.61 96.31-33.81 96.31-33.81l.19-37.8s-136.11-40.1-204.36 8.07z"/><path fill="#FFDB7F" stroke="#000" stroke-miterlimit="10" d="M586.148 809.253c56.433-2.227 101.527-20.585 100.721-41.003-.806-20.419-47.207-35.166-103.639-32.939-56.433 2.227-101.528 20.585-100.722 41.004s47.207 35.166 103.64 32.938Z"/><path fill="#FFDB7F" stroke="#000" stroke-miterlimit="10" d="M587.178 793.576c44.667-1.763 80.439-14.309 79.897-28.022-.541-13.714-37.189-23.402-81.857-21.639s-80.438 14.309-79.897 28.022c.542 13.714 37.19 23.402 81.857 21.639Z"/><path fill="#000" d="m620.71 836.82-.78-31.35s51.1-5.84 66.92-31.4l.12 32.91c5.08-5.77-16.25 24.94-66.26 29.84" opacity=".49"/><path fill="#F3B443" stroke="#000" stroke-miterlimit="10" d="m459.54 741.39.7 35.4s20.2 29.93 107.15 28.14c78.46-1.61 96.31-33.81 96.31-33.81l.19-37.8s-136.11-40.1-204.36 8.07z"/><path fill="#FFDB7F" stroke="#000" stroke-miterlimit="10" d="M563.169 774.337c56.433-2.227 101.527-20.585 100.722-41.004s-47.207-35.166-103.64-32.939-101.527 20.585-100.721 41.004 47.207 35.166 103.639 32.939Z"/><path fill="#FFDB7F" stroke="#000" stroke-miterlimit="10" d="M564.199 758.659c44.668-1.762 80.439-14.308 79.897-28.022s-37.189-23.402-81.856-21.639c-44.668 1.763-80.439 14.309-79.898 28.023.542 13.713 37.19 23.401 81.857 21.638Z"/><path fill="#000" d="m597.73 801.9-.78-31.35s51.1-5.84 66.92-31.4l.12 32.91c5.08-5.77-16.25 24.94-66.26 29.84" opacity=".49"/><path fill="#F3B443" stroke="#000" stroke-miterlimit="10" d="m483.63 697.72.7 35.4s20.2 29.93 107.15 28.14c78.46-1.61 96.31-33.81 96.31-33.81l.19-37.8s-136.11-40.1-204.36 8.07z"/><path fill="#FFDB7F" stroke="#000" stroke-miterlimit="10" d="M587.258 730.671c56.433-2.227 101.527-20.585 100.722-41.004s-47.207-35.166-103.64-32.939-101.527 20.585-100.721 41.004 47.206 35.166 103.639 32.939Z"/><path fill="#FFDB7F" stroke="#000" stroke-miterlimit="10" d="M588.278 714.994c44.667-1.763 80.439-14.309 79.897-28.023-.541-13.713-37.189-23.401-81.857-21.639s-80.438 14.309-79.897 28.023 37.19 23.402 81.857 21.639Z"/><path fill="#000" d="m621.81 758.24-.78-31.35s51.1-5.84 66.92-31.4l.12 32.91c5.08-5.77-16.25 24.94-66.26 29.84" opacity=".49"/><path fill="#27A394" stroke="#000" stroke-miterlimit="10" d="M893.63 513.14c-.31-.56-.64-1.12-.98-1.68-2.02-3.39-4.5-7.08-8.38-7.84-2.55-.5-5.14.41-7.55 1.36-12.5 4.94-24.36 11.5-35.22 19.43-2.4 1.75-5 4.72-7.66 5.96-2.6 1.21-6.35.68-9.25.88-7.71.54-14.12.62-21.01 4.07-.29.15-.33-1.08-.36-1.25-.56 1.11-.36 2.84-.41 4.07-.07 1.71-.11 3.43-.11 5.14 0 2.76.11 5.61 1.04 8.24s2.95 4.47 5.21 6.12c5.78 4.21 10.33 9.15 15.95 13.52 2.17 1.69 2.5 4.82.71 6.91l-32.64 38.2c-1.65 1.93-4.52 2.28-6.6.82l-56.04-39.45a4.954 4.954 0 0 0-6.72.96L587.76 750.21c-1.61 2.04-4.57 2.46-6.71.97l-130.22-91.31c-2.19-1.53-5.22-1.05-6.81 1.09L294.18 849.05l.36 10.29c.7 3.16-1 8.5 1.19 10.07l18.31 13.16c2.19 1.57 5.26 1.1 6.85-1.06l130.44-176.17c1.58-2.14 4.62-2.62 6.81-1.09l129.39 90.73c2.14 1.5 5.1 1.07 6.71-.97l135.82-171.57a4.954 4.954 0 0 1 6.72-.96l55.1 38.79c2.08 1.46 4.95 1.11 6.6-.82l52.82-61.82c1.71-2 4.71-2.3 6.79-.68l12.25 9.53c6.44 5.01 15.96 1.27 17.14-6.73 3.08-20.84 6.15-41.68 9.23-62.52.3-2.02.56-4.05.89-6.07 1.13-6.9-.74-12.25-4.02-18.08z"/><g fill="#113D38" opacity=".48"><path d="m878.65 582.62 8 18.47.01-.01 11.61-71.33c.56-3.47-1.38-9.38-3.09-12.44l-6.02-10.77zM795.73 661.57l-6.76-18.13 56.14-68.7 8.981 21.34zM587.24 774.88l4.22 21.31L730.1 622.5l-2.45-26.61zM317.801 862.27l1.65 21.27 134.83-180.02-2.79-22.62z"/></g><path fill="#A4DED2" stroke="#000" stroke-miterlimit="10" d="m874.77 500.49-65.28 26.01c-7.51 2.99-8.96 12.99-2.62 18l10.37 8.18a4.836 4.836 0 0 1 .7 6.91l-32.17 38.2c-1.62 1.93-4.46 2.28-6.51.82l-55.22-39.45a4.83 4.83 0 0 0-6.62.96L583.54 731.73a4.84 4.84 0 0 1-6.61.97L448.6 641.39a4.84 4.84 0 0 0-6.71 1.09L294.7 844.19a4.83 4.83 0 0 0 1.06 6.75l18.04 13.16a4.83 4.83 0 0 0 6.75-1.06L449.1 686.87a4.84 4.84 0 0 1 6.71-1.09l127.52 90.73a4.83 4.83 0 0 0 6.61-.97l133.85-171.57a4.83 4.83 0 0 1 6.62-.96l54.31 38.79a4.84 4.84 0 0 0 6.51-.82l52.06-61.82c1.68-2 4.64-2.3 6.69-.68l12.07 9.53c6.35 5.01 15.73 1.27 16.89-6.73l10.12-69.54c1.16-8-6.77-14.26-14.28-11.27z"/><path fill="#113D38" d="m680.93 622.16-1.63 7.08c-8.41 22.49-18.01 35.06-37.08 49.65l-43.36 33.18 59.8-76.66 22.26-13.26z" opacity=".48"/><g fill="#fff" opacity=".29"><path d="m883.511 545.11-65.57 14.47-.01-.01 2.01-3.03-1.13-1.62c-1.05-1.5-2.24-2.9-3.55-4.18l-2.29-2.23s-3.76-2.71-7.19-5.87-1.61-10.27-1.61-10.27l83.53-17.44zM697.319 586.378l-.009.002v.01zM697.319 586.378l52.641-9.248-24.02-16.65c-3.22-2.23-7.68-1.55-10.04 1.55zM429.199 659.878l-.009.002v.01zM429.199 659.878l36.221-6.518-16.53-11.74c-2.22-1.57-5.29-1.09-6.91 1.09zM533.8 740.73s40.43-9.08 38.54-10.57c-3.06-2.42-39.43-28.15-39.43-28.15l-41.05 8.71zM337.911 784.96l.013-.005-.003.005zM337.924 784.955l27.267-37.365 57.73-24.83s-29.36 37.86-29.38 40.26c-.02 2.378-54.632 21.589-55.617 21.935M332.62 845.84l-.008.002.008-.012zM332.612 845.842 319.83 863.01c-1.62 2.18-4.69 2.66-6.91 1.09l-16.53-11.74zM761.56 625.29l55.2-13.47-24.41 27.21c-2.16 2.81-5.47 3.44-8.35 1.37z"/></g><path stroke="#000" stroke-miterlimit="10" d="m874.77 500.49-65.28 26.01c-7.51 2.99-8.96 12.99-2.62 18l10.37 8.18a4.836 4.836 0 0 1 .7 6.91l-32.17 38.2c-1.62 1.93-4.46 2.28-6.51.82l-55.22-39.45a4.83 4.83 0 0 0-6.62.96L583.54 731.73a4.84 4.84 0 0 1-6.61.97L448.6 641.39a4.84 4.84 0 0 0-6.71 1.09L294.7 844.19a4.83 4.83 0 0 0 1.06 6.75l18.04 13.17a4.83 4.83 0 0 0 6.75-1.06L449.1 686.88a4.84 4.84 0 0 1 6.71-1.09l127.52 90.73a4.83 4.83 0 0 0 6.61-.97l133.85-171.57a4.83 4.83 0 0 1 6.62-.96l54.31 38.79a4.84 4.84 0 0 0 6.51-.82l52.06-61.82c1.68-2 4.64-2.3 6.69-.68l12.07 9.53c6.35 5.01 15.73 1.27 16.89-6.73l10.12-69.54c1.16-8-6.77-14.26-14.28-11.27z"/><path fill="#F3B443" stroke="#000" stroke-miterlimit="10" d="M544.97 449.24c2.02 1.49 19.95 14.5 22.11 15.69 32.48 17.84 79.82 1.94 109.31-38.07 29.16-39.55 30.66-88.79 4.94-114.79-2.03-2.05-20.05-15.63-22.42-17.37-32.38-23.87-68.32 3.03-99.78 45.71s-46.54 84.96-14.16 108.84z"/><path fill="#000" d="M559.1 339.96c31.46-42.68 67.4-69.59 99.78-45.71 2.37 1.75 20.39 15.32 22.42 17.37 19.69 19.91 23.41 53.43 11 85.8-4.4-4.39-8.96-8.6-13.67-12.66-7.57-7.59-15.82-14.5-24.64-20.62 1.18-23.37 2.16-45.46-.98-42.16-15.06 15.86-38.14 79.72-58.63 116.64-.53-.23-1.1-.36-1.69-.36q.555-.9 1.08-1.8c2.38-4.05-2.01-7.24-5.43-5.84.14-.38.3-.76.43-1.15 1.37-3.92-4.46-7.47-7.15-4.16-.68.83-1.33 1.68-1.98 2.53.74-1.28 1.47-2.57 2.18-3.86 2.71-4.94-4.19-8.67-7.39-4.32-4.27 5.8-7.74 12.76-11.76 19.22 2.66-5.11 5.21-10.28 6.55-15.93 1.13-4.76-5.23-7.42-7.82-3.3-2.8 4.46-5.3 9.13-7.85 13.77-.08-.55-.16-1.1-.23-1.66.64-2.02 1.3-4.04 2.03-6.04q.435-1.11.84-2.22c1.12-3.09-1.25-5.06-3.79-5.15-.53-3.53-1.55-7.03-2.66-10.3q.06-1.26.09-2.52c.02-1.7-1.01-3.05-2.37-3.74-2.53-6.44-5.49-12.69-8.09-19.11-.73-1.8-2.48-2.9-4.2-3.02 5.69-12.82 13.98-26.24 23.91-39.71z" opacity=".49"/><path fill="#FFDB7F" stroke="#000" stroke-miterlimit="10" d="M660.577 415.201c31.466-42.68 30.722-96.633-1.662-120.509-32.384-23.875-84.145-8.632-115.611 34.048s-30.721 96.633 1.663 120.508c32.384 23.876 84.144 8.632 115.61-34.047Z"/><path fill="#FFDB7F" stroke="#000" stroke-miterlimit="10" d="M653.638 408.533c28.258-38.327 27.59-86.779-1.491-108.219-29.081-21.441-75.564-7.751-103.821 30.576-28.257 38.328-27.59 86.779 1.492 108.22 29.081 21.44 75.563 7.751 103.82-30.577Z"/><path fill="#fff" d="m682.62 335.61-162.68 66.46s0-28.46 4.74-36.56l145.38-59.9s10.29 12.18 12.55 30zM523.29 417.33l159.33-63.49s.54-.36 1.18-.55c-.46 4.15-1.15 8.26-1.21 12.45 0 .21 0 .4.03.59-.28.64-.57 1.31-.9 2.01l-153.34 61.81s-.41-.2-1.02-.58c-.09-.29-.2-.58-.35-.86-1.15-2.09-2.22-4.19-3.12-6.37q-.165-.645-.42-1.29c-.09-.21-.19-.42-.3-.62-.14-.4-.3-.79-.42-1.19-.05-.16-.11-.31-.17-.46.19-.47.42-.95.71-1.45" opacity=".29"/><path fill="#000" fill-rule="evenodd" d="M622.1 328.12c-1.27-.42-2.56.23-2.88 1.47l-.79 3.04c-.22.83.27 1.81 1.1 2.13 13.49 5.18 21.15 18.01 17.67 32.93-3.58 15.33-17.79 28.21-34.51 32.6-1.14.3-2.07 1.21-2.33 2.25l-.9 3.47c-.37 1.42.62 2.28 2.19 1.93 21.07-4.75 39.15-20.75 43.48-39.9 4.19-18.51-5.85-34.19-23.03-39.91zm-25.48.67c.34-1.22-.57-1.95-2.02-1.63-19.51 4.35-37.14 18.72-42.76 36.78-5.82 18.67 2.87 35.7 20.41 42.42 1.32.51 2.72-.23 3.12-1.64l.96-3.45c.26-.94-.2-2.04-1.06-2.41-13.65-5.89-20.38-19.58-15.81-34.59 4.45-14.61 18.42-26.41 34.12-30.47.98-.25 1.96-1.17 2.19-2l.85-3.02zm10.56 10.15-3.8-.14c-1.05-.04-2.1.67-2.35 1.58l-1.41 5.15c-7.81.65-13.94 4.87-15.56 10.6-2.13 7.5 2.15 10.66 12.65 12.45 7.11 1.42 8.85 2.94 7.86 6.75-1 3.83-5.29 6.23-10.38 5.98-6.86-.33-8.37-3.15-8.22-6.68.03-.83-.58-1.47-1.51-1.51l-4.43-.2c-1.12-.05-2.25.82-2.34 1.82-.54 5.94 2.41 10.5 10.71 11.98l-1.56 5.71c-.27 1.01.39 1.87 1.49 1.92l3.98.2c1.1.06 2.21-.72 2.48-1.73l1.52-5.73c8.5-.79 15.07-5.7 16.67-12.03 2.08-8.22-2.78-11.19-13.11-12.95-7.56-1.35-8.63-3.04-7.73-6.28.85-3.05 4.07-5.1 9.14-4.89 4.6.19 6.88 1.71 7.11 5.04.05.75.66 1.3 1.53 1.33l4.08.17c1.14.05 2.26-.84 2.27-1.83.04-5.23-3.12-8.48-9.04-9.69l1.41-5.31c.24-.92-.41-1.69-1.46-1.73z" clip-rule="evenodd" opacity=".49"/><path fill="#113D38" d="m532.69 345.83 84.65-37.44-68.31 13.15s-12.68 16.53-16.33 24.29z" opacity=".48"/><path fill="#F3B443" stroke="#000" stroke-miterlimit="10" d="M645.32 290.69c-1.61 1.93-15.89 18.85-17.71 20.52-27.27 25.1-77.03 21-115.25-10.78-37.79-31.42-51.03-78.87-32.29-110.27 1.48-2.48 15.73-19.97 17.61-22.24 25.72-30.93 67.06-13.42 107.83 20.48s65.53 71.35 39.81 102.28z"/><path fill="#000" d="M605.44 187.98c-40.77-33.9-82.1-51.42-107.83-20.48-1.88 2.26-16.13 19.76-17.61 22.24-14.35 24.04-9.93 57.48 9.87 85.93 3.22-5.31 6.64-10.5 10.24-15.56 5.53-9.19 11.89-17.87 18.98-25.92-6.74-22.41-12.98-43.62-9.15-41.16 18.42 11.79 56.12 68.27 84.86 99.2a4.4 4.4 0 0 1 1.55-.76c-.5-.49-.99-.99-1.48-1.49-3.28-3.36.21-7.51 3.87-6.97-.23-.34-.47-.67-.7-1.02-2.27-3.47 2.54-8.32 5.95-5.75.86.64 1.69 1.31 2.52 1.99-1.03-1.07-2.04-2.14-3.04-3.23-3.81-4.15 1.99-9.42 6.14-5.96 5.53 4.61 10.57 10.54 16.02 15.85-3.81-4.33-7.52-8.73-10.17-13.9-2.24-4.35 3.31-8.45 6.8-5.07 3.78 3.66 7.33 7.59 10.92 11.48-.06-.55-.11-1.11-.17-1.67-1.11-1.81-2.23-3.61-3.42-5.38-.46-.65-.91-1.3-1.35-1.96-1.83-2.73 0-5.21 2.45-5.9-.33-3.55-.18-7.19.11-10.64-.24-.8-.47-1.61-.69-2.42-.43-1.64.25-3.2 1.41-4.2.92-6.86 2.29-13.64 3.28-20.49.28-1.92 1.71-3.41 3.35-3.94-8.59-11.08-19.86-22.13-32.72-32.82z" opacity=".49"/><path fill="#FFDB7F" stroke="#000" stroke-miterlimit="10" d="M645.309 290.652c25.721-30.938 13.519-83.499-27.254-117.398s-94.679-36.3-120.401-5.361-13.52 83.498 27.254 117.397 94.679 36.3 120.401 5.362Z"/><path fill="#FFDB7F" stroke="#000" stroke-miterlimit="10" d="M638.178 281.962c23.098-27.783 12.14-74.983-24.476-105.426s-85.024-32.598-108.123-4.816c-23.098 27.783-12.14 74.984 24.476 105.426s85.024 32.599 108.123 4.816Z"/><path fill="#fff" d="m484.46 213.34 173.87 25.57s-6.82-27.63-13.36-34.36l-155.5-23.34s-7.08 14.29-5.01 32.13M658.73 254.52l-169.9-23.48s-.61-.22-1.28-.25c1.44 3.92 3.1 7.75 4.16 11.79.05.2.09.39.11.58.43.56.87 1.13 1.35 1.74l163.68 23.28s.35-.29.85-.8c.02-.31.05-.61.14-.92.62-2.3 1.15-4.6 1.51-6.94 0-.45.03-.9.1-1.35.04-.23.09-.45.14-.67.04-.42.1-.84.13-1.26.01-.17.03-.33.05-.48-.29-.41-.64-.82-1.04-1.24" opacity=".22"/><g fill="#000" opacity=".82"><path d="m569.2 172.86-.6 38.93 33.22 24.7-32.62-63.64z" opacity=".7"/><path d="m569.19 172.86-33.67 44.41 33.07-5.48z"/><path d="m567.96 252.94-.43 27.96 34.29-38.01z" opacity=".7"/><path d="m567.52 280.9.43-27.97-32.6-29.44 32.17 57.4z"/><path d="m568.06 246.55 33.76-10.05-33.22-24.7z" opacity=".5"/><path d="m535.52 217.27 32.53 29.27.54-34.75-33.07 5.47z" opacity=".7"/></g><path fill="#F3B443" stroke="#000" stroke-miterlimit="10" d="M666.19 647.74c-1.78 1.78-17.53 17.34-19.5 18.84-29.43 22.53-78.61 13.94-113.8-21.17-34.79-34.71-43.68-83.16-22.17-112.74 1.7-2.34 17.47-18.47 19.55-20.55 28.42-28.48 68-7.29 105.53 30.16s58.81 76.98 30.39 105.46Z"/><path fill="#000" d="M632.06 534.75c-1.64.05-3.28-.92-4.06-2.47-.27-.16-.54-.33-.82-.5-.7-.08-1.41-.18-2.11-.29-5.28 3.12-11.89 4.82-17.06 6.65-6.09 2.15-8.69-7.52-2.66-9.64 1.5-.53 3.3-1.02 5.17-1.57-2.55-1.21-4.96-2.6-7.16-4.14-5.33-.78-10.63-1.67-15.74-3.17-.33-.1-.63-.22-.92-.35-3.11.63-6.21 1.26-9.3 1.97-1.89.43-3.8-.37-4.88-1.71-7.24 12.01-13.47 26.51-18.8 42.36-8.21 24.4-12.76 47.53-10.91 66.35 3.58-5.19 8.01-10 13.59-12.95 2.21-1.17 4.25-.72 5.62.53 2.79.27 5.16 2.58 4.26 6.06-.52 2.01-1.25 3.93-2.1 5.81 2.41-.16 4.82 1.44 5.34 3.99 1.2-.56 2.48-.57 3.61-.17 1-.56 2.04-1.09 3.17-1.51 3.9-1.45 6.77 2.77 6.15 6.15-.02.13-.06.25-.08.38 2.3-.92 5.1.23 6.34 2.3 2.45-2.6 5.57-1.15 7.06 1.41 9.27-22.71 36.17-62.93 53.4-95.15-5.9-3.03-11.47-6.84-17.1-10.35zM658.98 634.08a179.3 179.3 0 0 1-31.03-8.35c-11.44 8.91-22.53 17.47-29.09 21.63.32.79.41 1.69.17 2.66a5.15 5.15 0 0 1 1.36 1.9c1.3-.76 2.81-.82 4.15-.38.38-.4.78-.7 1.2-.92 1.16-2.07 2.31-4.16 3.41-6.27 2.98-5.71 11.61-.65 8.63 5.05-5.18 9.92-11.13 19.39-17.11 28.84 17.05 2.89 30.34-.58 46.02-11.66 3.12-3.92 11.14-9.88 14.67-13.62 4.73-5 8.92-10.06 13.24-15.43-5.48-1.02-10.22-2.08-15.62-3.45" opacity=".49"/><path fill="#FFDB7F" stroke="#000" stroke-miterlimit="10" d="M666.191 647.806c28.42-28.48 21.032-81.93-16.501-119.385s-91-44.731-119.419-16.252c-28.42 28.48-21.032 81.93 16.501 119.385s90.999 44.731 119.419 16.252Z"/><path fill="#fff" d="m512.99 556.15 170.84 41.2s-4.29-28.14-10.2-35.43l-152.75-37.31s-8.34 13.59-7.89 31.55zM682.82 612.94l-167.08-38.76s-.58-.27-1.25-.37c1.08 4.03 2.38 8 3.07 12.12.03.2.05.4.06.59.37.59.77 1.2 1.19 1.85l160.9 38s.38-.26.92-.72c.04-.3.11-.61.22-.9.82-2.23 1.56-4.48 2.13-6.77.05-.45.11-.89.23-1.34.06-.22.13-.44.2-.65.08-.41.17-.82.24-1.24.03-.17.06-.32.1-.48-.26-.44-.56-.88-.92-1.33z" opacity=".29"/><path stroke="#000" stroke-miterlimit="10" d="M659.868 638.508c25.521-25.575 18.886-73.575-14.82-107.211s-81.72-40.17-107.241-14.595-18.887 73.574 14.82 107.21 81.719 40.17 107.241 14.596Z"/><g opacity=".55"><mask id="a" width="129" height="103" x="536" y="526" maskUnits="userSpaceOnUse" style="mask-type:luminance"><path fill="#fff" d="M536 526.52h98.67l30.05 97.42-100.81 4.99z"/></mask><g fill="#000" mask="url(#a)"><path d="M615.57 626.37c-10.01.49-20.76-2.08-30.85-7.42-10.13-5.36-19.07-13.23-25.64-22.58-6.55-9.32-10.4-19.62-11.08-29.56-.67-9.85 1.81-18.85 7.08-25.87 5.2-6.93 12.89-11.62 22.06-13.5 9.07-1.86 19.21-.91 29.17 2.71 9.9 3.59 19.24 9.68 26.87 17.51 7.64 7.83 13.29 17.11 16.26 26.7 1.98 6.41 2.71 12.83 2.15 18.89-.56 6.1-2.43 11.73-5.5 16.57-3.1 4.88-7.37 8.86-12.58 11.7-5.25 2.86-11.34 4.51-17.94 4.84zm-27.95-96.09c-9.03.02-17.18 2.68-23.42 7.68-6.31 5.05-10.37 12.27-11.64 20.77-1.28 8.57.36 18.03 4.73 27.14 4.39 9.15 11.31 17.49 19.87 23.92 8.54 6.42 18.27 10.6 27.91 12.02 9.57 1.41 18.57.03 25.87-3.93 7.22-3.91 12.45-10.17 15.05-17.94 2.57-7.69 2.47-16.55-.26-25.47-1.81-5.9-4.73-11.69-8.59-17.06-3.86-5.36-8.59-10.21-13.94-14.29s-11.23-7.31-17.32-9.51c-6.11-2.21-12.31-3.34-18.27-3.32z"/><path d="M579.23 603.07c-8.83-7.15-15.26-16.64-18-26.55-2.72-9.84-1.59-19.32 3.11-26.55l-3.57-2.7c-5.28 7.98-6.59 18.47-3.58 29.4 3.03 11.01 10.19 21.55 20.03 29.45l2.02-3.04zM635.19 603.56c-5.05 6.9-13.23 10.99-22.94 11.42-9.81.43-20.41-2.91-29.68-9.39l-2.03 2.95c10.27 7.21 22.04 10.93 32.91 10.44 10.75-.49 19.78-5.08 25.32-12.76l-3.57-2.65zM623.21 546.59l-1.84 2.68c8.39 6.85 14.64 15.86 17.52 25.34 2.91 9.54 2.22 18.91-1.98 26.29l3.5 2.65c4.66-8.15 5.42-18.52 2.19-29.06-3.2-10.46-10.12-20.42-19.42-27.96l.02.06zM566.24 547.39c5.42-6.53 13.79-10.14 23.43-10.19 9.55-.05 19.72 3.4 28.54 9.67l1.85-2.67c-9.73-6.95-20.96-10.8-31.53-10.77-10.67.04-19.94 4.03-25.92 11.27l3.62 2.69zM615.24 566.11c-2.21-5.61-7.61-7.42-13.93-7.9l-2.27-7.74-4.78.06 2.22 7.61-3.84.06-2.21-7.62-4.78.06 2.26 7.84-9.86.15 1.47 5.15s3.59-.13 3.55-.06c.63-.08 1.33.09 1.96.47s1.13.96 1.41 1.59l6.27 21.84c.05.23.06.45.01.66s-.13.4-.26.55c-.13.16-.29.28-.49.36s-.42.12-.65.11c.08.05-3.57.11-3.57.11l.74 5.91 9.84-.33 2.37 8.23 4.87-.18-2.34-8.08 3.87-.13 2.34 8.03 4.84-.18-2.37-8.08c7.95-.77 12.95-2.97 11.38-10.62-1.26-6.12-4.89-8.76-9.76-9.75 2.35-1.43 3.31-4 1.7-8.12zm-1.62 17.19c1.77 6.01-8.66 5.64-11.94 5.74l-3.1-10.71c3.27-.07 13.2-1.27 15.04 4.97m-6.61-14.86c1.6 5.44-7.11 4.98-9.84 5.04l-2.79-9.63c2.72-.05 10.97-1.05 12.63 4.59"/></g></g><path fill="#fff" stroke="#000" stroke-miterlimit="10" d="M311 409.34s57.25-7.01 57.25 64.66c0 0 0-66 60.46-64.85 0 0-52.01 2.18-60.46-67.15 0 0 1.61 66-57.25 67.34ZM694 491.18s29.91-3.66 29.91 33.79c0 0 0-34.49 31.59-33.88 0 0-27.18 1.14-31.59-35.09 0 0 .84 34.49-29.91 35.19zM696.54 243.5s12.82-1.57 12.82 14.48c0 0 0-14.78 13.54-14.52 0 0-11.65.49-13.54-15.04 0 0 .36 14.78-12.82 15.08Z"/></svg>