<svg xmlns="http://www.w3.org/2000/svg" fill="none" viewBox="0 0 390 390"><path fill="#F7F9F8" fill-rule="evenodd" d="M205.132 71.839c32.423 5.13 48.787 39.046 69.712 64.469 17.871 21.712 43.816 42.043 41.039 70.086-2.69 27.162-34.508 38.05-53.664 57.394-19.238 19.426-30.3 49.325-57.087 54.444-30.036 5.74-63.355-4.724-83.882-27.505-19.907-22.092-14.936-54.588-16.892-84.333-2.192-33.333-14.97-69.584 5.017-96.271 21.48-28.68 60.482-43.866 95.757-38.284" clip-rule="evenodd"/><path stroke="#000" stroke-miterlimit="10" stroke-width=".257" d="M105.356 79.23v8.409M109.572 83.422h-8.405"/><path fill="#F3B443" stroke="#000" stroke-miterlimit="10" stroke-width=".257" d="M70.261 268.523a6.262 6.262 0 1 0 0-12.524 6.262 6.262 0 0 0 0 12.524Z"/><path fill="#000" d="M66.757 262.555c-.868-1.24-1.247-2.815-1.116-4.332A6.1 6.1 0 0 0 64 262.387a6.13 6.13 0 0 0 6.13 6.13 6.11 6.11 0 0 0 5.364-3.18c-3.1.839-6.976-.262-8.737-2.782"/><path fill="#F3B443" stroke="#000" stroke-miterlimit="10" stroke-width=".257" d="M197.739 90.893a4.235 4.235 0 1 0 .001-8.47 4.235 4.235 0 0 0-.001 8.47Z"/><path fill="#000" d="M195.369 86.856c-.587-.838-.844-1.904-.755-2.93a4.12 4.12 0 0 0-1.11 2.817 4.15 4.15 0 0 0 4.147 4.147c1.566 0 2.925-.871 3.628-2.151-2.096.567-4.719-.178-5.91-1.883"/><path fill="#fff" d="M199.497 86.28a1.628 1.628 0 1 0 0-3.257 1.628 1.628 0 0 0 0 3.257"/><path fill="#59B8AA" stroke="#000" stroke-miterlimit="10" stroke-width=".257" d="M329.376 184.751a4.375 4.375 0 1 0 0-8.75 4.375 4.375 0 0 0 0 8.75Z"/><path fill="#fff" stroke="#000" stroke-miterlimit="10" stroke-width=".257" d="M85 129.341s14.823-1.805 14.823 16.652c0 0 0-16.997 15.653-16.701 0 0-13.466.562-15.653-17.292 0 0 .416 16.996-14.823 17.341ZM259 297.957s11.016-1.348 11.016 12.445c0 0 0-12.703 11.635-12.478 0 0-10.011.42-11.635-12.924 0 0 .31 12.703-11.016 12.961zM232 59.554s4.722-.578 4.722 5.333c0 0 0-5.443 4.987-5.348 0 0-4.291.18-4.987-5.539 0 0 .132 5.444-4.722 5.554Z"/><path fill="#F3B443" d="m195.964 130.309-9.504 9.504 66.525 66.524 9.504-9.503zM229.229 106.551l-28.51 28.51 57.02 57.022 28.511-28.51zM262.491 101.796c-5.249-5.248-13.759-5.248-19.007 0l-9.504 9.504 47.518 47.518 9.503-9.504c5.249-5.249 5.249-13.758 0-19.007z"/><path fill="#EAA323" d="m290.998 60.5-3.644-3.125zM355 40.7a4.8 4.8 0 1 1 0 9.6zm-81.655 71.955c2.374-2.374 3.794-5.55 4.632-9.658.853-4.183 1.026-8.899 1.194-14.177.163-5.107.322-10.746 1.319-16.063 1.008-5.382 2.931-10.793 6.864-15.382l7.289 6.249c-2.467 2.877-3.894 6.508-4.718 10.901-.835 4.456-.99 9.321-1.159 14.601-.163 5.11-.338 10.665-1.383 15.789-1.06 5.2-3.089 10.367-7.249 14.528zm14.009-55.28c7.168-8.36 15.043-12.62 25.855-14.689C323.6 40.696 336.942 40.7 355 40.701v9.6c-18.444 0-30.702.037-39.986 1.814-8.863 1.697-14.738 4.937-20.371 11.508z"/><path fill="#FFE5A4" fill-rule="evenodd" d="m233.99 168.332-3.771 15.237 21.977 21.977 3.771-15.237z" clip-rule="evenodd" opacity=".4"/><path fill="#7C5C22" d="m200.764 135.105 4.752-4.752 57.02 57.021-4.75 4.752zM234.023 111.344l4.752-4.752 47.517 47.518-4.751 4.752z"/><path fill="#FFE5A4" fill-rule="evenodd" d="m267.28 144.599-11.312 45.709-21.977-21.977 11.313-45.709zM274.825 114.127l-7.541 30.473-21.977-21.977 6.106-24.672a13.42 13.42 0 0 1 11.08 3.844z" clip-rule="evenodd" opacity=".4"/><path fill="#fff" d="M72.407 261.814a2.407 2.407 0 1 0 0-4.814 2.407 2.407 0 0 0 0 4.814"/><path fill="#F3B443" d="m128.884 197.391 9.504-9.504 66.524 66.525-9.503 9.504z"/><path fill="#F3B443" d="m105.125 230.648 28.51-28.51 57.022 57.02-28.51 28.511zM100.372 263.91c-5.249-5.249-5.249-13.759 0-19.007l9.503-9.504 47.518 47.518-9.504 9.503c-5.248 5.249-13.758 5.249-19.007 0z"/><path fill="gray" d="m162.144 197.391-7.128 7.128 7.128 7.127 7.128-7.127zM188.273 223.523l-7.128 7.128 7.128 7.127 7.128-7.127z"/><path fill="#D9D9D9" d="M208.094 210.829a5.04 5.04 0 0 0-7.128 0l-12.812 12.813 7.127 7.128 12.813-12.813a5.04 5.04 0 0 0 0-7.128M181.958 184.697a5.04 5.04 0 0 0-7.127 0l-12.813 12.812 7.128 7.128 12.812-12.813a5.04 5.04 0 0 0 0-7.127"/><path fill="#FFE5A4" fill-rule="evenodd" d="m165.062 233.571-21.977-21.976 3.663-15.345 21.977 21.977z" clip-rule="evenodd" opacity=".4"/><path fill="#7C5C22" d="m128.928 206.938 4.752-4.752 57.02 57.021-4.75 4.752zM105.172 240.199l4.752-4.752 47.517 47.518-4.751 4.752z"/><path fill="#FFE5A4" fill-rule="evenodd" d="m154.074 279.593-21.977-21.977 10.989-46.033 21.977 21.977zM124.771 288.31l7.326-30.688 21.977 21.977-2.082 8.72-4.102 4.103c-5.249 5.248-13.759 5.248-19.007 0z" clip-rule="evenodd" opacity=".4"/><path fill="#EAA323" d="m96 338.501-4.337-2.055zm-62.486 29.198a4.8 4.8 0 0 1 1.972-9.395zm83.962-86.681c-5.268 5.268-7.421 14.132-9.218 25.565-1.69 10.751-3.039 23.669-7.919 33.973l-8.676-4.11c4.118-8.695 5.277-19.682 7.111-31.353 1.727-10.989 4.115-23.064 11.914-30.863zm-17.137 59.538c-4.38 9.245-10.188 18.651-20.82 24.337-10.632 5.685-25.17 7.179-46.005 2.806l1.972-9.395c19.666 4.127 31.633 2.333 39.505-1.877 7.87-4.209 12.562-11.304 16.672-19.981z"/></svg>