<svg xmlns="http://www.w3.org/2000/svg" fill="none" viewBox="0 0 63 20"><path fill="#FBFDFC" fill-rule="evenodd" d="M62.57 19.51V.49h-2.43v3.496q-1.444-1.993-3.364-2.99Q54.875 0 52.514 0q-4.085 0-6.991 2.92t-2.906 7.028q0 4.195 2.87 7.132Q48.377 20 52.445 20q2.29 0 4.21-.944 1.936-.945 3.486-2.815v3.27zM48.904 3.375a7.43 7.43 0 0 1 3.804-1.014q3.205 0 5.39 2.22 2.2 2.22 2.2 5.525 0 2.168-.986 3.898-.968 1.732-2.782 2.745a7.75 7.75 0 0 1-3.84 1.014 7.43 7.43 0 0 1-3.768-1.014q-1.743-1.03-2.783-2.867T45.1 10.035q0-2.028 1.022-3.846 1.039-1.818 2.782-2.815" clip-rule="evenodd"/><path fill="#FBFDFC" d="M28.369.49h-2.96l6.57 9.038-7.256 9.983h2.941l5.777-7.99 5.864 7.99h2.994l-7.38-9.983L41.472.49h-2.959l-5.071 7.045zM22.041.415H0v3.183h2.004v-.796h18.034v.796h2.003V.415M5.41 8.77v-.506H3.407v3.382H5.41v-.49h11.422v.49h2.003V8.264h-2.003v.505zM2.004 17.124v-.796H0v3.183h22.041v-3.183h-2.003v.796z"/></svg>