<svg xmlns="http://www.w3.org/2000/svg" fill="none" viewBox="0 0 1200 1200"><path fill="#D6D6D6" d="M584.7 1107.34c138.16 0 250.16-13.43 250.16-29.99s-112-29.99-250.16-29.99-250.16 13.43-250.16 29.99 112 29.99 250.16 29.99"/><path fill="#59B8AA" stroke="#000" stroke-miterlimit="10" d="M256.86 399.86c9.483 0 17.17-7.687 17.17-17.17s-7.687-17.17-17.17-17.17-17.17 7.687-17.17 17.17 7.687 17.17 17.17 17.17Z"/><path fill="#000" d="M247.25 383.51c-2.38-3.4-3.42-7.72-3.06-11.88-2.79 3-4.5 7-4.5 11.42 0 9.28 7.53 16.81 16.81 16.81 6.35 0 11.86-3.53 14.71-8.72-8.5 2.3-19.13-.72-23.96-7.63"/><path fill="#fff" d="M264.03 381.16a6.6 6.6 0 1 0 0-13.2 6.6 6.6 0 0 0 0 13.2"/><path fill="#59B8AA" stroke="#000" stroke-miterlimit="10" d="M896.29 381.58c7.339 0 13.29-5.95 13.29-13.29S903.629 355 896.29 355c-7.34 0-13.29 5.95-13.29 13.29s5.95 13.29 13.29 13.29Z"/><path fill="#000" d="M888.851 368.925c-1.842-2.632-2.647-5.976-2.368-9.196a12.92 12.92 0 0 0-3.483 8.839c0 7.183 5.828 13.012 13.011 13.012 4.915 0 9.18-2.732 11.386-6.75-6.579 1.781-14.807-.557-18.546-5.905"/><path fill="#fff" d="M901.84 367.106a5.109 5.109 0 1 0-.002-10.218 5.109 5.109 0 0 0 .002 10.218"/><path fill="#F3B443" stroke="#000" stroke-miterlimit="10" d="M455.53 912.06c6.367 0 11.53-5.162 11.53-11.53S461.897 889 455.53 889c-6.368 0-11.53 5.162-11.53 11.53s5.162 11.53 11.53 11.53Z"/><path fill="#000" d="M449.076 901.081c-1.598-2.283-2.296-5.184-2.055-7.978a11.22 11.22 0 0 0-3.021 7.669c0 6.231 5.056 11.288 11.288 11.288 4.264 0 7.964-2.37 9.878-5.856-5.708 1.545-12.846-.483-16.09-5.123"/><path fill="#fff" d="M460.345 899.503a4.433 4.433 0 1 0-.002-8.866 4.433 4.433 0 0 0 .002 8.866"/><path stroke="#000" stroke-miterlimit="10" d="M267.17 733.81v22.82M278.59 745.22h-22.83M782.45 240.84v22.82M793.86 252.25h-22.82"/><path fill="#59B8AA" stroke="#000" stroke-miterlimit="10" d="M891.03 729.38c6.561 0 11.88-5.319 11.88-11.88s-5.319-11.88-11.88-11.88-11.88 5.319-11.88 11.88 5.319 11.88 11.88 11.88Z"/><path fill="#238274" stroke="#000" stroke-miterlimit="10" d="M236.12 516.43c-10.42 4.41-11.92 4.37-16.17 14.32-.83 1.93.22 21.89 1.61 23.65l190.52 241.36c10.53 12.72 28.87 16.37 44.09 9.95 1.21-.5 2.43-1 3.64-1.51 3.47-1.43 6.93-2.87 10.4-4.3 5.47-2.26 10.93-4.52 16.4-6.78 7.21-2.98 14.42-5.97 21.63-8.95l26.1-10.8c9.93-4.11 19.87-8.22 29.8-12.33 10.91-4.51 21.82-9.03 32.74-13.54 11.64-4.81 23.27-9.63 34.91-14.44 12.11-5.01 24.21-10.02 36.32-15.02 12.32-5.1 24.64-10.19 36.96-15.29l36.84-15.24c11.99-4.96 23.97-9.92 35.96-14.87 11.44-4.73 22.87-9.46 34.31-14.19 10.63-4.4 21.26-8.8 31.89-13.19l28.71-11.88c8.26-3.42 16.51-6.83 24.77-10.25 6.69-2.77 13.37-5.53 20.06-8.3 4.86-2.01 9.72-4.02 14.59-6.03 5.15-2.13 10.4-4.86 13.98-9.34 4.07-5.09 6.29-11.78 7.42-18.12.45-2.51 2.1-6.42 1.26-8.96-.65-1.97-2.69-2.6-4.4-3.4-3.07-1.43-5.7-3.29-7.83-5.96L798.49 357.94c-13.26-16.54-50.63-28.66-70.15-20.39L236.15 516.43z"/><path fill="#27A394" stroke="#000" stroke-miterlimit="10" d="M232.47 512.35c-12.48 5.29-16.5 21.01-8.09 31.64l188.61 238.2c10.53 12.72 28.16 17.04 43.38 10.62L934.7 598.43c21.31-8.66 28.26-35.4 13.87-53.34L788.46 343.15c-13.26-16.54-36.45-29-55.96-20.73z"/><path fill="#fff" d="m510.021 515.59-126.75 49.88 13.52 17.8 11.57-4.56-3.38-4.45 103.69-40.87 3.369 4.43 11.471-4.52-13.49-17.7zM436.281 601.61l14.38 18.92 11.55-4.58-2.08-2.74 65.63-26.02 2.08 2.73 11.48-4.55-14.36-18.85-11.481 4.54 2.151 2.82-65.64 25.98-2.15-2.82-11.55 4.57zM569.491 613.19l-103.6 41.24-3.39-4.46-11.56 4.6 13.56 17.85L591.1 621.95l-13.529-17.75-11.46 4.56 3.38 4.44z"/><path stroke="#000" stroke-miterlimit="10" d="m510.021 515.59-126.75 49.88 13.52 17.8 11.57-4.56-3.38-4.45 103.69-40.87 3.369 4.43 11.471-4.52-13.49-17.7zM436.281 601.61l14.38 18.92 11.55-4.58-2.08-2.74 65.63-26.02 2.08 2.73 11.48-4.55-14.36-18.85-11.481 4.54 2.151 2.82-65.64 25.98-2.15-2.82-11.55 4.57zM569.491 613.19l-103.6 41.24-3.39-4.46-11.56 4.6 13.56 17.85L591.1 621.95l-13.529-17.75-11.46 4.56 3.38 4.44z"/><path fill="#FFDB7F" stroke="#000" stroke-miterlimit="10" d="m707.591 481.18 22.389 29.15a9.01 9.01 0 0 0 10.72 2.78l48.88-21.17c5.42-2.35 7.15-9.18 3.5-13.82l-22.38-28.5a9 9 0 0 0-10.57-2.74l-48.89 20.51c-5.44 2.28-7.25 9.1-3.66 13.79z"/><path fill="#FFDB7F" d="m713.92 489.43 11.33-5.52c2.61-1.27 3.37-4.64 1.55-6.91-1.87-2.34-1-5.83 1.76-7l25.19-10.72c1.77-.75 3.82-.31 5.12 1.11l3.1 3.38a4.53 4.53 0 0 0 5.24 1.05l11.32-5.21"/><path stroke="#000" stroke-miterlimit="10" d="m713.92 489.43 11.33-5.52c2.61-1.27 3.37-4.64 1.55-6.91-1.87-2.34-1-5.83 1.76-7l25.19-10.72c1.77-.75 3.82-.31 5.12 1.11l3.1 3.38a4.53 4.53 0 0 0 5.24 1.05l11.32-5.21"/><path fill="#FFDB7F" d="m786.701 470.56-11.33 5.52c-2.61 1.27-3.37 4.64-1.55 6.91 1.87 2.34 1 5.83-1.76 7l-25.19 10.72c-1.77.75-3.82.31-5.12-1.11l-3.1-3.38a4.53 4.53 0 0 0-5.24-1.05l-11.32 5.21"/><path stroke="#000" stroke-miterlimit="10" d="m786.701 470.56-11.33 5.52c-2.61 1.27-3.37 4.64-1.55 6.91 1.87 2.34 1 5.83-1.76 7l-25.19 10.72c-1.77.75-3.82.31-5.12-1.11l-3.1-3.38a4.53 4.53 0 0 0-5.24-1.05l-11.32 5.21"/><g fill="#fff" opacity=".15"><path d="m693.763 337.575-.023-.005.01.01zM693.763 337.575 801.93 360.13l-21.32-25.24c-10.4-11.36-34.5-18.26-49.65-12.2zM256.86 502.02l.017.004-.017.006zM256.877 502.024 445.86 431.31l486.54 94.17 18.14 23.02c12.01 17.12 5.12 41.96-15.83 49.93l-85.51 34.75zM342.42 693.06l238.61 49.12-129.76 52.84c-13.24 5.39-28.44 1.32-37.22-9.95z"/></g><path fill="#fff" d="m271.8 545.48.62.77c2.96 3.66 7.94 4.99 12.33 3.29l384.33-149.26c6.23-2.42 8.8-9.87 5.37-15.61-2.7-4.52-8.26-6.45-13.18-4.55L276.32 528.61c-6.84 2.64-9.12 11.17-4.52 16.87" opacity=".05"/><path fill="#113D38" d="M446.36 349.81c-4.04-.57-28.57 34.44-77.36 60.69l34-49.5z" opacity=".48"/><path fill="#F3B443" stroke="#000" stroke-miterlimit="10" d="M387.981 375.96c42.089 0 76.21-34.12 76.21-76.21s-34.121-76.21-76.21-76.21c-42.09 0-76.21 34.12-76.21 76.21s34.12 76.21 76.21 76.21Z"/><path fill="#FFDB7F" stroke="#000" stroke-miterlimit="10" d="m443.89 292.03-76.76-48.41-37.34 63.05c-4.1 6.97 10.09 22.91 31.68 35.6 21.59 12.7 42.42 17.34 46.51 10.37.19-.32.33-.67.44-1.03l.13.07 35.34-59.67z"/><path fill="#CC963E" stroke="#000" stroke-miterlimit="10" d="M444.171 290.731c4.098-6.97-10.084-22.91-31.675-35.603s-42.417-17.332-46.515-10.362 10.084 22.91 31.676 35.603 42.417 17.333 46.514 10.362Z"/><path fill="#FFDB7F" stroke="#000" stroke-miterlimit="10" d="M428.34 228.49c-13.31-7.88-30.54-3.47-38.42 9.84l-8.41 14.2a5.595 5.595 0 0 0 1.32 8.54c2.66 1.58 6.09.7 7.67-1.96l8.96-15.13c4.77-8.05 15.19-10.72 23.24-5.95s10.72 15.19 5.95 23.24l-8.41 14.2a5.595 5.595 0 0 0 1.32 8.54c2.66 1.58 6.09.7 7.67-1.96l8.96-15.13c7.88-13.31 3.47-30.54-9.84-38.42z"/><g fill="#fff" opacity=".2"><path d="M371.031 347.4c-24.52-15.37-24.77-68.56-24.77-68.56l16.97-28.66c-3.49 62.31 30.23 105.7 30.23 105.7-5.49.01-22.43-8.48-22.43-8.48M420.2 332.01c-19.07-20.25-19.88-50.11-19.88-50.11v-.01l24.55 11.58c-1.74 7.42 5.58 21.24 5.58 21.24z"/></g><path fill="#fff" d="M435.15 251.94c-.11-7.96-5.2-15.75-12.6-18.83-.94-.39-1.61-1.23-1.31-2.31.25-.89 1.37-1.7 2.31-1.31 8.99 3.74 15.22 12.66 15.35 22.45.03 2.42-3.72 2.41-3.75 0M434.69 262.12c2.41 0 2.42-3.75 0-3.75s-2.42 3.75 0 3.75"/><path fill="#000" d="M385.721 308.96a7.74 7.74 0 1 0 0-15.48 7.74 7.74 0 0 0 0 15.48"/><path fill="#000" d="m381.811 300.79-12.26 15.94c-.57.75-.37 1.83.44 2.31l7.13 4.22c.79.47 1.82.16 2.22-.67l8.64-18.14z"/><path fill="#113D38" fill-rule="evenodd" d="M826.908 849.684c-10.985 29.03-26.029 54.705-47.956 74.198-16.196-10.857-35.811-30.853-41.001-57.882-8.451-44-.001-68-.001-68z" clip-rule="evenodd" opacity=".48"/><path fill="#FFDB7F" stroke="#000" stroke-miterlimit="10" d="M801.35 888.7c37.197 0 67.351-30.154 67.351-67.35S838.547 754 801.35 754c-37.196 0-67.35 30.154-67.35 67.35s30.154 67.35 67.35 67.35Z"/><path fill="#CC963E" d="M763.25 805.38c0 1.1.9 2 2 2s2-.9 2-2v-11.3c0-5.31 4.32-9.63 9.63-9.63h12.2c1.1 0 2-.9 2-2s-.9-2-2-2h-12.2c-7.52 0-13.63 6.12-13.63 13.63zM838.631 806.28c0 1.1.9 2 2 2s2-.9 2-2v-12.2c0-7.52-6.12-13.63-13.63-13.63h-11.3c-1.1 0-2 .9-2 2s.9 2 2 2h11.3c5.31 0 9.63 4.32 9.63 9.63zM829 858.68h-12.2c-1.1 0-2-.9-2-2s.9-2 2-2H829c5.31 0 9.63-4.32 9.63-9.62v-11.3c0-1.1.9-2 2-2s2 .9 2 2v11.3c0 7.51-6.11 13.62-13.63 13.62M776.88 858.68h11.3c1.1 0 2-.9 2-2s-.9-2-2-2h-11.3c-5.31 0-9.63-4.31-9.63-9.62v-12.2c0-1.1-.9-2-2-2s-2 .9-2 2v12.2c0 7.51 6.12 13.62 13.63 13.62M787.06 817.49c-1.1 0-2-.9-2-2v-9.22c0-1.1.9-2 2-2s2 .9 2 2v9.22c0 1.1-.9 2-2 2M815.701 815.49c0 1.1.9 2 2 2s2-.9 2-2v-9.22c0-1.1-.9-2-2-2s-2 .9-2 2zM799.43 827.72h-2.26c-1.1 0-2-.9-2-2s.9-2 2-2h2.26c.62 0 1.13-.51 1.13-1.13v-15.41c0-1.1.9-2 2-2s2 .9 2 2v15.41c0 2.83-2.3 5.13-5.13 5.13M798.46 843.56c.15.99 1 1.7 1.97 1.7l-.01-.01c.11 0 .21 0 .31-.02 13.48-2.06 18.63-15.32 18.84-15.88.39-1.03-.13-2.18-1.16-2.57s-2.19.13-2.58 1.16c-.04.11-4.57 11.63-15.7 13.34a2 2 0 0 0-1.67 2.28"/><path stroke="#000" stroke-miterlimit="10" d="M763.25 805.38c0 1.1.9 2 2 2s2-.9 2-2v-11.3c0-5.31 4.32-9.63 9.63-9.63h12.2c1.1 0 2-.9 2-2s-.9-2-2-2h-12.2c-7.52 0-13.63 6.12-13.63 13.63zM838.631 806.28c0 1.1.9 2 2 2s2-.9 2-2v-12.2c0-7.52-6.12-13.63-13.63-13.63h-11.3c-1.1 0-2 .9-2 2s.9 2 2 2h11.3c5.31 0 9.63 4.32 9.63 9.63zM829 858.68h-12.2c-1.1 0-2-.9-2-2s.9-2 2-2H829c5.31 0 9.63-4.32 9.63-9.62v-11.3c0-1.1.9-2 2-2s2 .9 2 2v11.3c0 7.51-6.11 13.62-13.63 13.62ZM776.88 858.68h11.3c1.1 0 2-.9 2-2s-.9-2-2-2h-11.3c-5.31 0-9.63-4.31-9.63-9.62v-12.2c0-1.1-.9-2-2-2s-2 .9-2 2v12.2c0 7.51 6.12 13.62 13.63 13.62ZM787.06 817.49c-1.1 0-2-.9-2-2v-9.22c0-1.1.9-2 2-2s2 .9 2 2v9.22c0 1.1-.9 2-2 2ZM815.701 815.49c0 1.1.9 2 2 2s2-.9 2-2v-9.22c0-1.1-.9-2-2-2s-2 .9-2 2zM799.43 827.72h-2.26c-1.1 0-2-.9-2-2s.9-2 2-2h2.26c.62 0 1.13-.51 1.13-1.13v-15.41c0-1.1.9-2 2-2s2 .9 2 2v15.41c0 2.83-2.3 5.13-5.13 5.13ZM798.46 843.56c.15.99 1 1.7 1.97 1.7l-.01-.01c.11 0 .21 0 .31-.02 13.48-2.06 18.63-15.32 18.84-15.88.39-1.03-.13-2.18-1.16-2.57s-2.19.13-2.58 1.16c-.04.11-4.57 11.63-15.7 13.34a2 2 0 0 0-1.67 2.28Z"/><path fill="#fff" d="M553.25 228.59s52.54-6.43 52.54 59.35c0 0 0-60.58 55.49-59.52 0 0-47.74 2-55.49-61.64 0 0 1.48 60.58-52.54 61.81M570.82 828.66s35.45-4.34 35.45 40.04c0 0 0-40.87 37.44-40.16 0 0-32.21 1.35-37.44-41.59 0 0 1 40.87-35.45 41.7zM932.01 474.01s16.82-2.06 16.82 19c0 0 0-19.4 17.77-19.06 0 0-15.29.64-17.77-19.74 0 0 .47 19.4-16.82 19.79z"/><path stroke="#000" stroke-miterlimit="10" d="M553.25 228.59s52.54-6.43 52.54 59.35c0 0 0-60.58 55.49-59.52 0 0-47.74 2-55.49-61.64 0 0 1.48 60.58-52.54 61.81ZM570.82 828.66s35.45-4.34 35.45 40.04c0 0 0-40.87 37.44-40.16 0 0-32.21 1.35-37.44-41.59 0 0 1 40.87-35.45 41.7zM932.01 474.01s16.82-2.06 16.82 19c0 0 0-19.4 17.77-19.06 0 0-15.29.64-17.77-19.74 0 0 .47 19.4-16.82 19.79z"/></svg>