<svg width="390" height="390" viewBox="0 0 390 390" fill="none" xmlns="http://www.w3.org/2000/svg">
<path d="M76.4072 124.965C79.6886 124.965 82.3486 122.305 82.3486 119.024C82.3486 115.742 79.6886 113.082 76.4072 113.082C73.1259 113.082 70.4658 115.742 70.4658 119.024C70.4658 122.305 73.1259 124.965 76.4072 124.965Z" fill="#59B8AA" stroke="black" stroke-width="0.325" stroke-miterlimit="10"/>
<path d="M73.0818 119.308C72.2583 118.131 71.8984 116.636 72.023 115.197C71.0575 116.235 70.4658 117.619 70.4658 119.148C70.4658 122.36 73.0715 124.965 76.2827 124.965C78.48 124.965 80.3866 123.744 81.3728 121.948C78.4315 122.744 74.7532 121.699 73.0818 119.308Z" fill="black"/>
<path d="M78.8883 118.494C80.1496 118.494 81.1721 117.472 81.1721 116.211C81.1721 114.949 80.1496 113.927 78.8883 113.927C77.627 113.927 76.6045 114.949 76.6045 116.211C76.6045 117.472 77.627 118.494 78.8883 118.494Z" fill="white"/>
<path d="M297.672 118.64C300.212 118.64 302.271 116.581 302.271 114.041C302.271 111.501 300.212 109.442 297.672 109.442C295.132 109.442 293.073 111.501 293.073 114.041C293.073 116.581 295.132 118.64 297.672 118.64Z" fill="#59B8AA" stroke="black" stroke-width="0.325" stroke-miterlimit="10"/>
<path d="M295.098 114.261C294.461 113.35 294.182 112.193 294.279 111.079C293.531 111.882 293.073 112.953 293.073 114.137C293.073 116.623 295.09 118.64 297.576 118.64C299.276 118.64 300.752 117.694 301.516 116.304C299.239 116.92 296.392 116.111 295.098 114.261Z" fill="black"/>
<path d="M299.593 113.631C300.569 113.631 301.361 112.84 301.361 111.863C301.361 110.887 300.569 110.096 299.593 110.096C298.617 110.096 297.825 110.887 297.825 111.863C297.825 112.84 298.617 113.631 299.593 113.631Z" fill="white"/>
<path d="M145.153 302.204C147.356 302.204 149.143 300.418 149.143 298.214C149.143 296.011 147.356 294.224 145.153 294.224C142.949 294.224 141.163 296.011 141.163 298.214C141.163 300.418 142.949 302.204 145.153 302.204Z" fill="#F3B443" stroke="black" stroke-width="0.325" stroke-miterlimit="10"/>
<path d="M142.92 298.405C142.367 297.615 142.125 296.611 142.209 295.644C141.56 296.341 141.163 297.271 141.163 298.298C141.163 300.454 142.913 302.204 145.069 302.204C146.545 302.204 147.825 301.384 148.487 300.178C146.512 300.712 144.042 300.01 142.92 298.405Z" fill="black"/>
<path d="M146.82 297.859C147.667 297.859 148.353 297.172 148.353 296.325C148.353 295.478 147.667 294.791 146.82 294.791C145.973 294.791 145.286 295.478 145.286 296.325C145.286 297.172 145.973 297.859 146.82 297.859Z" fill="white"/>
<path d="M79.9746 240.523V248.42" stroke="black" stroke-width="0.325" stroke-miterlimit="10"/>
<path d="M83.9263 244.472H76.0264" stroke="black" stroke-width="0.325" stroke-miterlimit="10"/>
<path d="M258.278 69.9388V77.8353" stroke="black" stroke-width="0.325" stroke-miterlimit="10"/>
<path d="M262.227 73.8871H254.33" stroke="black" stroke-width="0.325" stroke-miterlimit="10"/>
<path d="M295.851 238.99C298.122 238.99 299.962 237.15 299.962 234.88C299.962 232.609 298.122 230.769 295.851 230.769C293.581 230.769 291.74 232.609 291.74 234.88C291.74 237.15 293.581 238.99 295.851 238.99Z" fill="#59B8AA" stroke="black" stroke-width="0.325" stroke-miterlimit="10"/>
<path d="M69.2304 165.302C65.6247 166.828 65.1056 166.815 63.635 170.258C63.3478 170.925 63.7111 177.832 64.1921 178.441L130.119 261.96C133.762 266.362 140.109 267.625 145.375 265.403C145.794 265.23 146.216 265.057 146.635 264.881C147.836 264.386 149.033 263.888 150.234 263.393C152.126 262.611 154.016 261.829 155.908 261.047C158.403 260.015 160.898 258.981 163.393 257.95C166.404 256.704 169.414 255.458 172.425 254.212C175.861 252.79 179.3 251.368 182.737 249.946C186.512 248.385 190.287 246.821 194.066 245.261C198.094 243.596 202.118 241.928 206.146 240.264C210.336 238.53 214.523 236.797 218.714 235.066C222.977 233.302 227.24 231.54 231.503 229.776C235.752 228.018 240.002 226.26 244.251 224.502C248.4 222.786 252.545 221.069 256.694 219.356C260.653 217.72 264.608 216.083 268.567 214.446C272.245 212.924 275.924 211.401 279.602 209.882C282.913 208.512 286.225 207.141 289.537 205.771C292.395 204.588 295.25 203.408 298.108 202.224C300.423 201.266 302.734 200.311 305.049 199.352C306.731 198.657 308.413 197.961 310.098 197.266C311.88 196.529 313.697 195.584 314.935 194.034C316.344 192.272 317.112 189.957 317.503 187.763C317.659 186.895 318.23 185.542 317.939 184.663C317.714 183.981 317.008 183.763 316.416 183.486C315.354 182.992 314.444 182.348 313.707 181.424L263.83 110.459C259.241 104.736 246.31 100.542 239.555 103.404L69.2407 165.302H69.2304Z" fill="#238274" stroke="black" stroke-width="0.325" stroke-miterlimit="10"/>
<path d="M67.967 163.891C63.6485 165.721 62.2574 171.161 65.1676 174.839L130.433 257.264C134.077 261.666 140.177 263.161 145.444 260.939L310.963 193.677C318.337 190.681 320.742 181.428 315.762 175.22L260.359 105.342C255.77 99.6182 247.746 95.3066 240.995 98.1683L67.967 163.891Z" fill="#27A394" stroke="black" stroke-width="0.325" stroke-miterlimit="10"/>
<path d="M164.009 165.012L120.149 182.272L123.658 186.892L124.828 188.431L128.831 186.854L127.662 185.314L163.542 171.171L164.708 172.704L168.677 171.14L165.175 166.545L164.009 165.015V165.012Z" fill="white" stroke="black" stroke-width="0.325" stroke-miterlimit="10"/>
<path d="M138.493 194.778L143.469 201.325L147.466 199.74L146.746 198.792L169.456 189.788L170.176 190.733L174.149 189.158L169.179 182.635L165.207 184.206L165.951 185.182L143.237 194.172L142.493 193.196L138.497 194.778H138.493Z" fill="white" stroke="black" stroke-width="0.325" stroke-miterlimit="10"/>
<path d="M184.588 198.785L148.739 213.055L147.566 211.512L143.565 213.104L148.258 219.28L192.066 201.816L187.384 195.674L183.418 197.252L184.588 198.788V198.785Z" fill="white" stroke="black" stroke-width="0.325" stroke-miterlimit="10"/>
<path d="M232.375 153.105L240.123 163.192C240.991 164.323 242.521 164.721 243.832 164.154L260.746 156.828C262.622 156.015 263.22 153.651 261.957 152.046L254.213 142.184C253.348 141.08 251.85 140.692 250.556 141.236L233.638 148.333C231.756 149.122 231.129 151.482 232.372 153.105H232.375Z" fill="#FFDB7F" stroke="black" stroke-width="0.325" stroke-miterlimit="10"/>
<path d="M234.565 155.959L238.486 154.049C239.389 153.61 239.652 152.444 239.022 151.658C238.375 150.849 238.676 149.641 239.631 149.236L248.348 145.527C248.96 145.267 249.67 145.419 250.12 145.911L251.192 147.08C251.653 147.582 252.386 147.731 253.006 147.444L256.923 145.641" fill="#FFDB7F"/>
<path d="M234.565 155.959L238.486 154.049C239.389 153.61 239.652 152.444 239.022 151.658C238.375 150.849 238.676 149.641 239.631 149.236L248.348 145.527C248.96 145.267 249.67 145.419 250.12 145.911L251.192 147.08C251.653 147.582 252.386 147.731 253.006 147.444L256.923 145.641" stroke="black" stroke-width="0.325" stroke-miterlimit="10"/>
<path d="M259.75 149.43L255.829 151.34C254.926 151.779 254.663 152.946 255.293 153.731C255.94 154.541 255.639 155.748 254.684 156.153L245.967 159.863C245.355 160.122 244.645 159.97 244.196 159.479L243.123 158.309C242.663 157.807 241.929 157.659 241.31 157.946L237.393 159.749" fill="#FFDB7F"/>
<path d="M259.75 149.43L255.829 151.34C254.926 151.779 254.663 152.946 255.293 153.731C255.94 154.541 255.639 155.748 254.684 156.153L245.967 159.863C245.355 160.122 244.645 159.97 244.196 159.479L243.123 158.309C242.663 157.807 241.929 157.659 241.31 157.946L237.393 159.749" stroke="black" stroke-width="0.325" stroke-miterlimit="10"/>
<g opacity="0.15">
<path d="M227.59 103.412L227.582 103.411L227.585 103.414L227.59 103.412Z" fill="white"/>
<path d="M227.59 103.412L265.019 111.217L257.642 102.483C254.043 98.5524 245.703 96.1648 240.461 98.2618L227.59 103.412Z" fill="white"/>
<path d="M76.4062 160.316L76.4121 160.317L76.4062 160.32V160.316Z" fill="white"/>
<path d="M76.4121 160.317L141.807 135.848L310.166 168.434L316.443 176.4C320.599 182.324 318.215 190.919 310.966 193.677L281.376 205.702L76.4121 160.317Z" fill="white"/>
<path d="M106.013 226.422L188.58 243.42L143.679 261.704C139.097 263.569 133.838 262.161 130.8 258.261L106.013 226.422Z" fill="white"/>
</g>
<path opacity="0.05" d="M81.5762 175.355L81.7907 175.621C82.815 176.888 84.5382 177.348 86.0573 176.76L219.049 125.111C221.204 124.273 222.094 121.695 220.907 119.709C219.973 118.145 218.049 117.477 216.346 118.134L83.1402 169.517C80.7734 170.431 79.9844 173.382 81.5762 175.355Z" fill="white"/>
<path opacity="0.48" d="M141.98 107.646C140.582 107.449 132.094 119.564 115.211 128.647L126.976 111.518L141.98 107.646Z" fill="#113D38"/>
<path d="M121.779 116.695C136.343 116.695 148.15 104.888 148.15 90.3238C148.15 75.7594 136.343 63.9526 121.779 63.9526C107.214 63.9526 95.4072 75.7594 95.4072 90.3238C95.4072 104.888 107.214 116.695 121.779 116.695Z" fill="#F3B443" stroke="black" stroke-width="0.325" stroke-miterlimit="10"/>
<path d="M141.125 87.6525L114.563 70.9009L101.643 92.7184C100.224 95.1303 105.134 100.646 112.605 105.037C120.076 109.432 127.284 111.037 128.699 108.626C128.765 108.515 128.813 108.394 128.851 108.269L128.896 108.293L141.125 87.6455V87.6525Z" fill="#FFDB7F" stroke="black" stroke-width="0.325" stroke-miterlimit="10"/>
<path d="M141.222 87.203C142.64 84.7911 137.733 79.2752 130.262 74.883C122.79 70.4908 115.584 68.8854 114.166 71.2974C112.748 73.7093 117.655 79.2252 125.127 83.6174C132.598 88.0096 139.804 89.615 141.222 87.203Z" fill="#CC963E" stroke="black" stroke-width="0.325" stroke-miterlimit="10"/>
<path d="M135.744 65.6654C131.138 62.9387 125.176 64.4647 122.449 69.0704L119.539 73.9841C119.456 74.0775 119.383 74.1744 119.318 74.2852C118.771 75.2056 119.075 76.3925 119.996 76.9392C120.916 77.486 122.103 77.1815 122.65 76.261L125.75 71.0255C127.401 68.2399 131.007 67.316 133.792 68.9666C136.578 70.6172 137.502 74.2229 135.851 77.0084L132.941 81.9221C132.858 82.0156 132.785 82.1125 132.72 82.2232C132.173 83.1436 132.477 84.3305 133.398 84.8773C134.318 85.424 135.505 85.1195 136.052 84.199L139.152 78.9635C141.879 74.3578 140.353 68.3957 135.747 65.6689L135.744 65.6654Z" fill="#FFDB7F" stroke="black" stroke-width="0.325" stroke-miterlimit="10"/>
<g opacity="0.15">
<path d="M115.914 106.812C107.429 101.494 107.343 83.0883 107.343 83.0883L113.215 73.171C112.007 94.7324 123.676 109.747 123.676 109.747C121.776 109.75 115.914 106.812 115.914 106.812Z" fill="white"/>
<path d="M132.928 101.487C126.33 94.4798 126.049 84.1472 126.049 84.1472V84.1437L134.544 88.1508C133.942 90.7184 136.475 95.5006 136.475 95.5006L132.928 101.487Z" fill="white"/>
</g>
<path d="M138.101 73.78C138.063 71.0256 136.302 68.33 133.741 67.2642C133.416 67.1292 133.184 66.8385 133.288 66.4648C133.374 66.1569 133.762 65.8766 134.087 66.0115C137.198 67.3057 139.354 70.3923 139.399 73.78C139.409 74.6174 138.111 74.6139 138.101 73.78Z" fill="white"/>
<path d="M137.942 77.3026C138.776 77.3026 138.779 76.005 137.942 76.005C137.104 76.005 137.104 77.3026 137.942 77.3026Z" fill="white"/>
<path d="M120.998 93.5109C122.477 93.5109 123.676 92.3118 123.676 90.8326C123.676 89.3534 122.477 88.1543 120.998 88.1543C119.518 88.1543 118.319 89.3534 118.319 90.8326C118.319 92.3118 119.518 93.5109 120.998 93.5109Z" fill="black"/>
<path d="M119.644 90.6836L115.402 96.1994C115.204 96.4589 115.274 96.8326 115.554 96.9987L118.021 98.459C118.294 98.6216 118.651 98.5143 118.789 98.2271L121.779 91.9501L119.644 90.6836Z" fill="black"/>
<path opacity="0.48" fill-rule="evenodd" clip-rule="evenodd" d="M273.663 280.62C269.862 290.665 264.656 299.549 257.069 306.295C251.464 302.538 244.677 295.618 242.881 286.266C239.957 271.04 242.88 262.735 242.88 262.735L273.663 280.62Z" fill="#113D38"/>
<path d="M264.819 294.121C277.69 294.121 288.124 283.686 288.124 270.815C288.124 257.944 277.69 247.51 264.819 247.51C251.948 247.51 241.514 257.944 241.514 270.815C241.514 283.686 251.948 294.121 264.819 294.121Z" fill="#FFDB7F" stroke="black" stroke-width="0.325" stroke-miterlimit="10"/>
<path d="M251.635 265.289C251.635 265.67 251.946 265.981 252.327 265.981C252.707 265.981 253.019 265.67 253.019 265.289V261.379C253.019 259.541 254.514 258.046 256.351 258.046H260.573C260.953 258.046 261.265 257.735 261.265 257.354C261.265 256.974 260.953 256.662 260.573 256.662H256.351C253.749 256.662 251.635 258.78 251.635 261.379V265.289Z" fill="#CC963E"/>
<path d="M277.719 265.6C277.719 265.981 278.03 266.292 278.411 266.292C278.792 266.292 279.103 265.981 279.103 265.6V261.379C279.103 258.777 276.985 256.662 274.387 256.662H270.476C270.096 256.662 269.784 256.974 269.784 257.354C269.784 257.735 270.096 258.046 270.476 258.046H274.387C276.224 258.046 277.719 259.541 277.719 261.379V265.6Z" fill="#CC963E"/>
<path d="M274.386 283.733H270.165C269.784 283.733 269.473 283.421 269.473 283.04C269.473 282.66 269.784 282.348 270.165 282.348H274.386C276.224 282.348 277.719 280.854 277.719 279.02V275.109C277.719 274.729 278.03 274.417 278.411 274.417C278.791 274.417 279.103 274.729 279.103 275.109V279.02C279.103 281.618 276.989 283.733 274.386 283.733Z" fill="#CC963E"/>
<path d="M256.351 283.733H260.261C260.642 283.733 260.953 283.421 260.953 283.04C260.953 282.66 260.642 282.348 260.261 282.348H256.351C254.514 282.348 253.019 280.857 253.019 279.02V274.798C253.019 274.417 252.707 274.106 252.327 274.106C251.946 274.106 251.635 274.417 251.635 274.798V279.02C251.635 281.618 253.752 283.733 256.351 283.733Z" fill="#CC963E"/>
<path d="M259.874 269.479C259.493 269.479 259.182 269.168 259.182 268.787V265.597C259.182 265.216 259.493 264.905 259.874 264.905C260.254 264.905 260.566 265.216 260.566 265.597V268.787C260.566 269.168 260.254 269.479 259.874 269.479Z" fill="#CC963E"/>
<path d="M269.784 268.787C269.784 269.168 270.096 269.479 270.476 269.479C270.857 269.479 271.168 269.168 271.168 268.787V265.597C271.168 265.216 270.857 264.905 270.476 264.905C270.096 264.905 269.784 265.216 269.784 265.597V268.787Z" fill="#CC963E"/>
<path d="M264.154 273.019H263.372C262.992 273.019 262.68 272.708 262.68 272.327C262.68 271.947 262.992 271.635 263.372 271.635H264.154C264.369 271.635 264.545 271.459 264.545 271.244V265.912C264.545 265.531 264.857 265.22 265.237 265.22C265.618 265.22 265.929 265.531 265.929 265.912V271.244C265.929 272.223 265.134 273.019 264.154 273.019Z" fill="#CC963E"/>
<path d="M263.818 278.501C263.87 278.843 264.165 279.089 264.5 279.089L264.497 279.085C264.535 279.085 264.569 279.085 264.604 279.078C269.269 278.366 271.051 273.777 271.123 273.583C271.258 273.227 271.078 272.829 270.722 272.694C270.365 272.559 269.964 272.739 269.829 273.095C269.815 273.134 268.248 277.12 264.396 277.712C264.019 277.77 263.76 278.123 263.818 278.501Z" fill="#CC963E"/>
<path d="M251.635 265.289C251.635 265.67 251.946 265.981 252.327 265.981C252.707 265.981 253.019 265.67 253.019 265.289V261.379C253.019 259.541 254.514 258.046 256.351 258.046H260.573C260.953 258.046 261.265 257.735 261.265 257.354C261.265 256.974 260.953 256.662 260.573 256.662H256.351C253.749 256.662 251.635 258.78 251.635 261.379V265.289Z" stroke="black" stroke-width="0.325" stroke-miterlimit="10"/>
<path d="M277.719 265.6C277.719 265.981 278.03 266.292 278.411 266.292C278.792 266.292 279.103 265.981 279.103 265.6V261.379C279.103 258.777 276.985 256.662 274.387 256.662H270.476C270.096 256.662 269.784 256.974 269.784 257.354C269.784 257.735 270.096 258.046 270.476 258.046H274.387C276.224 258.046 277.719 259.541 277.719 261.379V265.6Z" stroke="black" stroke-width="0.325" stroke-miterlimit="10"/>
<path d="M274.386 283.733H270.165C269.784 283.733 269.473 283.421 269.473 283.04C269.473 282.66 269.784 282.348 270.165 282.348H274.386C276.224 282.348 277.719 280.854 277.719 279.02V275.109C277.719 274.729 278.03 274.417 278.411 274.417C278.791 274.417 279.103 274.729 279.103 275.109V279.02C279.103 281.618 276.989 283.733 274.386 283.733Z" stroke="black" stroke-width="0.325" stroke-miterlimit="10"/>
<path d="M256.351 283.733H260.261C260.642 283.733 260.953 283.421 260.953 283.04C260.953 282.66 260.642 282.348 260.261 282.348H256.351C254.514 282.348 253.019 280.857 253.019 279.02V274.798C253.019 274.417 252.707 274.106 252.327 274.106C251.946 274.106 251.635 274.417 251.635 274.798V279.02C251.635 281.618 253.752 283.733 256.351 283.733Z" stroke="black" stroke-width="0.325" stroke-miterlimit="10"/>
<path d="M259.874 269.479C259.493 269.479 259.182 269.168 259.182 268.787V265.597C259.182 265.216 259.493 264.905 259.874 264.905C260.254 264.905 260.566 265.216 260.566 265.597V268.787C260.566 269.168 260.254 269.479 259.874 269.479Z" stroke="black" stroke-width="0.325" stroke-miterlimit="10"/>
<path d="M269.784 268.787C269.784 269.168 270.096 269.479 270.476 269.479C270.857 269.479 271.168 269.168 271.168 268.787V265.597C271.168 265.216 270.857 264.905 270.476 264.905C270.096 264.905 269.784 265.216 269.784 265.597V268.787Z" stroke="black" stroke-width="0.325" stroke-miterlimit="10"/>
<path d="M264.154 273.019H263.372C262.992 273.019 262.68 272.708 262.68 272.327C262.68 271.947 262.992 271.635 263.372 271.635H264.154C264.369 271.635 264.545 271.459 264.545 271.244V265.912C264.545 265.531 264.857 265.22 265.237 265.22C265.618 265.22 265.929 265.531 265.929 265.912V271.244C265.929 272.223 265.134 273.019 264.154 273.019Z" stroke="black" stroke-width="0.325" stroke-miterlimit="10"/>
<path d="M263.818 278.501C263.87 278.843 264.165 279.089 264.5 279.089L264.497 279.085C264.535 279.085 264.569 279.085 264.604 279.078C269.269 278.366 271.051 273.777 271.123 273.583C271.258 273.227 271.078 272.829 270.722 272.694C270.365 272.559 269.964 272.739 269.829 273.095C269.815 273.134 268.248 277.12 264.396 277.712C264.019 277.77 263.76 278.123 263.818 278.501Z" stroke="black" stroke-width="0.325" stroke-miterlimit="10"/>
<path d="M178.967 65.6998C178.967 65.6998 197.147 63.4748 197.147 86.2369C197.147 86.2369 197.147 65.2742 216.349 65.641C216.349 65.641 199.829 66.333 197.147 44.3114C197.147 44.3114 197.66 65.2742 178.967 65.6998Z" fill="white" stroke="black" stroke-width="0.325" stroke-miterlimit="10"/>
<path d="M185.046 273.345C185.046 273.345 197.313 271.843 197.313 287.2C197.313 287.2 197.313 273.057 210.268 273.303C210.268 273.303 199.123 273.77 197.313 258.911C197.313 258.911 197.659 273.054 185.046 273.341V273.345Z" fill="white" stroke="black" stroke-width="0.325" stroke-miterlimit="10"/>
<path d="M310.03 150.623C310.03 150.623 315.851 149.911 315.851 157.198C315.851 157.198 315.851 150.485 322 150.603C322 150.603 316.709 150.824 315.851 143.772C315.851 143.772 316.013 150.485 310.03 150.62V150.623Z" fill="white" stroke="black" stroke-width="0.325" stroke-miterlimit="10"/>
</svg>
