<svg xmlns="http://www.w3.org/2000/svg" fill="none" viewBox="0 0 178 88"><g clip-path="url(#a)"><path fill="#fff" d="M71.452 132.485c-5.763-1.712-9.867-4.678-12.068-8.842-5.41-10.22 1.372-26.778 18.603-45.433C111.618 41.806 175.412 6.928 220.19.464c20.444-2.952 34.357.433 39.172 9.533 5.41 10.22-1.372 26.778-18.604 45.433-33.63 36.404-97.425 71.282-142.201 77.746-11.095 1.603-20.268 1.336-27.106-.696zM220.323 1.376c-44.599 6.44-108.147 41.188-141.656 77.462-16.953 18.349-23.683 34.526-18.467 44.381 4.622 8.732 18.196 11.946 38.227 9.054 44.599-6.439 108.147-41.187 141.656-77.461 16.953-18.35 23.683-34.526 18.467-44.382-4.618-8.73-18.196-11.945-38.227-9.053"/><path fill="#fff" d="M66.97 132.407c-6.736-2.001-11.392-5.483-13.626-10.343-5.228-11.366 3.249-29.093 23.256-48.641C114.342 36.548 182.11 3.435 227.664-.394c20.01-1.682 33.413 2.574 37.738 11.979 5.229 11.366-3.248 29.092-23.255 48.64-37.742 36.875-105.511 69.989-151.065 73.818-9.674.813-17.808.237-24.112-1.636M251.52 2.113C245.338.276 237.319-.282 227.739.522c-45.375 3.812-112.887 36.807-150.497 73.56-19.713 19.258-28.12 36.609-23.061 47.601 4.152 9.027 17.23 13.091 36.822 11.446 45.374-3.812 112.888-36.81 150.497-73.56 19.713-19.258 28.119-36.609 23.06-47.601-2.123-4.617-6.576-7.93-13.045-9.852z"/><path fill="#fff" d="M62.917 132.155c-7.933-2.358-13.254-6.476-15.492-12.169-4.958-12.618 5.363-31.51 28.316-51.826C117.652 31.063 189.204.13 235.244-.8c19.445-.392 32.257 4.744 36.075 14.457 4.958 12.618-5.36 31.512-28.316 51.827-41.912 37.096-113.463 68.03-159.503 68.959-8.056.163-14.972-.625-20.582-2.292zM255.579 2.371c-5.511-1.637-12.34-2.408-20.316-2.25-45.852.927-117.136 31.758-158.91 68.73-22.648 20.046-32.878 38.564-28.068 50.803 3.666 9.329 16.167 14.256 35.198 13.873 45.852-.926 117.14-31.756 158.911-68.73 22.648-20.046 32.878-38.564 28.068-50.802-2.128-5.421-7.243-9.354-14.883-11.624"/><path fill="#fff" d="M59.166 131.768c-9.325-2.77-15.277-7.626-17.486-14.387-4.575-13.994 7.74-34.024 33.79-54.95C121.58 25.39 196.678-2.934 242.882-.706c19.033.917 30.854 6.784 34.186 16.966 4.576 13.994-7.739 34.024-33.79 54.95-46.11 37.041-121.208 65.365-167.41 63.133-6.396-.307-11.98-1.175-16.697-2.577zM259.323 2.755c-4.646-1.38-10.154-2.235-16.488-2.54-46.007-2.22-120.829 26.013-166.786 62.934-25.736 20.677-37.944 40.336-33.491 53.951 3.201 9.787 14.734 15.436 33.353 16.333 46.008 2.22 120.829-26.013 166.787-62.933 25.735-20.677 37.943-40.337 33.491-53.951-2.113-6.46-7.854-11.116-16.866-13.794"/><path fill="#fff" d="M56.28 131.308c-11.16-3.316-18.04-9.122-20.124-17.104-4.048-15.493 10.419-36.621 39.684-57.963C126.147 19.554 204.509-5.702 250.519-.064c18.231 2.235 29.324 8.979 32.072 19.504 4.048 15.493-10.418 36.622-39.683 57.963-50.307 36.688-128.669 61.944-174.68 56.305-4.406-.539-8.393-1.344-11.948-2.4M262.211 3.22c-3.505-1.041-7.445-1.835-11.804-2.37-45.809-5.615-123.878 19.562-174.021 56.133-28.522 20.801-43.227 42.103-39.338 56.99 2.647 10.127 13.465 16.636 31.293 18.821 45.813 5.617 123.877-19.562 174.021-56.133 28.521-20.8 43.226-42.102 39.338-56.99-1.997-7.649-8.665-13.235-19.489-16.45"/><path fill="#fff" d="M54.238 130.888c-13.47-4.003-21.493-11.014-23.336-20.484-3.28-16.866 13.914-39.601 45.996-60.809 54.47-36.014 135.758-57.739 181.197-48.43 17.344 3.552 27.626 11.189 29.746 22.078 3.279 16.867-13.914 39.601-45.996 60.81-54.474 36.012-135.759 57.738-181.198 48.429a77 77 0 0 1-6.409-1.594M258.003 1.614l-.093.448C212.679-7.206 131.707 14.46 77.409 50.36c-31.762 20.997-48.808 43.378-45.6 59.872 2.042 10.498 12.08 17.88 29.025 21.35 45.231 9.269 126.202-12.398 180.501-48.297 31.762-20.997 48.808-43.378 45.598-59.868-2.042-10.497-12.08-17.88-29.028-21.351l.093-.448z"/><path fill="#fff" d="m53.218 130.634-.023-.007c-16.372-4.869-25.776-13.411-27.202-24.707C23.648 87.333 43.351 63.622 78.7 42.503 137.258 7.513 221.058-10.2 265.521 3.012l.023.007c16.372 4.869 25.776 13.411 27.201 24.707 2.346 18.587-17.362 42.297-52.707 63.417-58.557 34.989-142.358 52.703-186.82 39.491M265.262 3.891c-44.249-13.148-127.713 4.525-186.083 39.4-35.026 20.93-54.566 44.3-52.267 62.517 1.376 10.904 10.556 19.182 26.55 23.939l.023.007c44.25 13.148 127.718-4.524 186.084-39.4 35.026-20.93 54.565-44.3 52.267-62.518-1.376-10.904-10.557-19.181-26.551-23.938z"/><path fill="#fff" d="M53.266 130.653a82 82 0 0 1-7.328-2.546c-15.34-6.193-23.792-15.673-24.438-27.42C20.374 80.272 42.733 55.712 81.3 34.986c62.556-33.615 148.463-46.82 191.503-29.45 15.34 6.192 23.791 15.673 24.438 27.42 1.122 20.413-21.233 44.975-59.799 65.7-59.181 31.8-139.265 45.337-184.175 31.997M265.183 3.863C220.499-9.414 140.733 4.102 81.74 35.8c-38.248 20.551-60.423 44.79-59.316 64.839.624 11.363 8.876 20.565 23.864 26.616 42.81 17.281 128.371 4.092 190.718-29.407 38.248-20.55 60.423-44.79 59.316-64.838-.624-11.364-8.876-20.565-23.864-26.617a82 82 0 0 0-7.276-2.526z"/><path fill="#fff" d="M54.532 131.099c-5.72-1.7-10.94-3.768-15.581-6.219-14.266-7.537-21.675-18.003-21.437-30.261.439-22.313 25.57-47.564 67.228-67.545C151.137-4.767 238.639-12.98 279.787 8.77c14.265 7.537 21.674 18.003 21.437 30.261-.439 22.313-25.571 47.564-67.228 67.545-58.913 28.254-134.44 37.901-179.465 24.527zM263.89 3.409C219.1-9.901 143.866-.261 85.141 27.905 43.804 47.732 18.868 72.677 18.435 94.636c-.234 11.886 7.01 22.068 20.945 29.432 4.601 2.431 9.792 4.487 15.467 6.173 44.79 13.309 120.025 3.669 178.75-24.496 41.337-19.827 66.277-44.771 66.706-66.731.234-11.887-7.011-22.068-20.946-29.432-4.601-2.431-9.791-4.487-15.467-6.173"/><path fill="#fff" d="M57.198 132.169c-9.603-2.854-18.02-6.605-24.882-11.263-13.15-8.932-19.431-20.449-18.164-33.303 2.395-24.24 30.404-49.965 74.923-68.822 70.046-29.664 158.578-32.376 197.352-6.04 13.15 8.932 19.431 20.45 18.163 33.304-2.394 24.24-30.404 49.964-74.923 68.821-57.648 24.413-127.819 30.57-172.47 17.307zM261.224 2.327C216.807-10.871 146.904-4.71 89.436 19.629 45.231 38.352 17.43 63.795 15.068 87.693c-1.236 12.499 4.908 23.723 17.76 32.455 38.548 26.178 126.683 23.431 196.473-6.127 44.205-18.723 72.006-44.166 74.365-68.065 1.236-12.5-4.908-23.723-17.762-32.451-6.807-4.622-15.162-8.346-24.685-11.175z"/><path fill="#fff" d="M61.393 134.082c-14.31-4.252-26.413-10.241-35.277-17.928C14.11 105.746 9.08 93.077 11.565 79.525c4.793-26.109 35.74-52.045 82.78-69.375 73.454-27.062 162.406-23.77 198.291 7.338 12.007 10.408 17.037 23.077 14.552 36.629-4.794 26.109-35.741 52.045-82.781 69.375-55.306 20.378-119.4 23.545-163.012 10.586zM257.047.407C213.66-12.485 149.804-9.306 94.665 11.01c-46.733 17.22-77.46 42.894-82.19 68.682-2.427 13.217 2.501 25.587 14.248 35.769 35.656 30.915 124.195 34.131 197.365 7.171 46.732-17.219 77.459-42.894 82.19-68.682 2.427-13.218-2.502-25.587-14.248-35.77-8.788-7.618-20.791-13.556-34.983-17.773"/><path fill="#fff" d="M67.136 137.054c-19.9-5.913-36.226-14.811-46.705-26.45C9.613 98.582 5.979 84.632 9.93 70.262c7.65-27.83 41.538-53.642 90.646-69.045 76.58-24.019 165.282-14.228 197.735 21.827 10.818 12.02 14.447 25.97 10.5 40.341-7.651 27.83-41.538 53.642-90.647 69.046-51.859 16.266-109.286 17.027-151.029 4.623M251.324-2.56c-41.538-12.342-98.761-11.567-150.469 4.654-48.811 15.31-82.466 40.884-90.034 68.412-3.866 14.056-.305 27.707 10.295 39.486 32.235 35.812 120.503 45.486 196.771 21.565 48.807-15.311 82.465-40.884 90.033-68.412 3.866-14.056.305-27.707-10.295-39.486-10.379-11.53-26.572-20.357-46.301-26.219"/><path fill="#fff" d="M74.276 141.258c-26.316-7.82-47.43-20.451-58.907-37.042C5.808 90.396 3.781 74.99 9.511 59.671c10.949-29.275 47.7-54.567 98.316-67.652 79.367-20.521 167.094-3.74 195.556 37.407 9.561 13.82 11.588 29.226 5.858 44.545-10.949 29.275-47.7 54.567-98.316 67.652-47.361 12.244-97.701 11.207-136.645-.364zM244.22-6.761c-38.765-11.518-88.935-12.54-136.166-.329C57.731 5.92 21.213 31 10.375 59.994c-5.618 15.025-3.632 30.137 5.752 43.702 28.258 40.855 115.542 57.471 194.562 37.037 50.324-13.01 86.84-38.086 97.684-67.082 5.618-15.026 3.628-30.139-5.752-43.703C291.25 13.513 270.319.994 244.221-6.76"/><path fill="#fff" d="M82.408 146.807c-33.417-9.93-59.762-27.256-71.399-49.825-8.185-15.878-8.336-32.932-.433-49.323C25.19 17.353 64.64-6.963 116.105-17.378c81.771-16.55 167.735 7.694 191.629 54.043 8.186 15.879 8.336 32.933.433 49.323-14.613 30.306-54.062 54.622-105.528 65.038-41.953 8.491-85.016 6.244-120.23-4.219M236.113-12.294c-35.065-10.42-77.987-12.653-119.826-4.182C65.104-6.116 25.894 18.01 11.407 48.06c-7.771 16.12-7.623 32.891.421 48.504 23.719 46.008 109.231 70.039 190.626 53.564 51.184-10.359 90.394-34.486 104.88-64.535 7.772-16.12 7.624-32.891-.421-48.504-11.525-22.358-37.655-39.53-70.801-49.378z"/><path fill="#fff" d="M90.915 153.701C49.98 141.537 18.17 118.391 7.458 88.879c-6.625-18.25-4.546-37.174 6.008-54.722C31.982 3.368 73.845-19.465 125.45-26.926 209.178-39.032 292.544-6.87 311.285 44.769c6.624 18.249 4.546 37.173-6.009 54.721-18.515 30.789-60.378 53.622-111.982 61.084-35.876 5.185-71.692 2.245-102.38-6.873M227.62-19.179c-30.568-9.084-66.263-12.013-102.04-6.84C74.245-18.596 32.63 4.075 14.256 34.628 3.85 51.93 1.799 70.581 8.324 88.565c18.6 51.249 101.514 83.145 184.835 71.099 51.334-7.421 92.949-30.092 111.324-60.645 10.406-17.303 12.457-35.954 5.931-53.938-10.611-29.242-42.172-52.19-82.794-64.26"/><path fill="#fff" d="M99.036 161.87c-48.563-14.43-85.72-44.669-94.22-81.967C.028 58.91 4.771 37.91 18.525 19.177 40.995-11.43 84.865-32.27 135.879-36.565c85.199-7.176 165.073 33.34 178.056 90.311 4.786 20.993.043 41.994-13.711 60.727-22.469 30.607-66.339 51.445-117.353 55.742-29.422 2.477-58.216-.736-83.836-8.345M219.497-27.342c-25.519-7.582-54.213-10.783-83.546-8.312-50.75 4.276-94.37 24.973-116.685 55.37C5.674 38.226.986 58.97 5.712 79.697c12.887 56.541 92.321 96.736 177.077 89.598 50.75-4.275 94.374-24.971 116.685-55.369 13.592-18.512 18.279-39.256 13.554-59.983-8.426-36.973-45.311-66.958-93.535-81.287z"/><path fill="#fff" d="M106.044 171.174C49.995 154.52 8.031 115.804 3.17 70.054.6 45.902 8.52 22.65 26.064 2.813c26.26-29.692 71.615-48.024 121.331-49.04 86.111-1.755 161.556 47.51 168.182 109.821 2.568 24.146-5.35 47.398-22.897 67.234-26.261 29.692-71.615 48.024-121.331 49.04-22.886.467-45.021-2.672-65.307-8.699zM212.475-36.642c-20.21-6.005-42.254-9.128-65.064-8.664C97.95-44.297 52.846-26.08 26.754 3.421 9.386 23.06 1.542 46.067 4.084 69.952c4.823 45.38 46.506 83.789 102.184 100.337 20.21 6.005 42.254 9.129 65.064 8.664 49.461-1.009 94.564-19.225 120.656-48.726 17.369-19.641 25.208-42.648 22.67-66.532-4.823-45.38-46.504-83.792-102.183-100.337"/><path fill="#fff" d="M111.37 181.468C48.12 162.674 2.351 114.022 2.626 59.322c.14-27.724 11.801-53.332 33.727-74.044C66.456-43.168 111.53-58.148 160.01-55.823c86.421 4.146 156.454 62.533 156.114 130.15-.139 27.724-11.8 53.328-33.726 74.044-30.104 28.447-75.178 43.427-123.662 41.101-16.508-.792-32.431-3.566-47.37-8.005zm95.763-228.404c-14.878-4.421-30.718-7.183-47.169-7.97C111.73-57.22 66.907-42.33 36.984-14.058 15.249 6.482 3.686 31.855 3.548 59.327c-.274 54.281 45.214 102.578 108.066 121.258 14.878 4.421 30.718 7.182 47.169 7.969 48.235 2.314 93.057-12.575 122.98-40.847 21.737-20.541 33.299-45.914 33.436-73.381.275-54.282-45.213-102.582-108.066-121.259z"/><path fill="#fff" d="M114.64 192.621C44.518 171.785-3.662 111.689 3.28 47.726 6.672 16.46 23.098-12.258 49.537-33.148 82.504-59.2 127.767-70.912 173.72-65.291 259.788-54.76 323.376 13.076 315.471 85.92c-3.392 31.264-19.818 59.984-46.252 80.871-32.966 26.052-78.23 37.765-124.183 32.143a186 186 0 0 1-30.387-6.315zm89.207-250.714a185 185 0 0 0-30.243-6.284c-45.707-5.595-90.718 6.052-123.494 31.95C23.867-11.69 7.56 16.808 4.198 47.825-2.693 111.339 45.205 171.029 114.9 191.738a185 185 0 0 0 30.243 6.284c45.708 5.594 90.723-6.051 123.494-31.95 26.239-20.734 42.545-49.233 45.909-80.253 6.891-63.514-41.007-123.204-110.702-143.914z"/><path fill="#fff" d="M115.67 204.527C38.944 181.737-9.893 108.682 5.23 35.285 21.293-42.658 103.507-91.919 188.498-74.528c41.165 8.425 76.841 31.044 100.451 63.685 23.623 32.657 32.343 71.44 24.56 109.204-7.781 37.761-31.136 69.98-65.757 90.723-34.611 20.734-76.342 27.511-117.507 19.087a173 173 0 0 1-14.573-3.648zm87.297-274.486a174 174 0 0 0-14.655-3.668C103.818-90.917 22.094-41.977 6.135 35.467c-15.026 72.921 33.541 145.515 109.799 168.179a172 172 0 0 0 14.497 3.628c40.937 8.378 82.433 1.638 116.846-18.977 34.398-20.607 57.601-52.61 65.331-90.117 7.727-37.508-.937-76.034-24.407-108.48-20.625-28.518-50.517-49.34-85.235-59.656z"/><path fill="#fff" d="M114.406 217.093C31.26 192.386-16.216 104.875 8.578 22.015s112.611-130.167 195.758-105.46c83.147 24.706 130.623 112.217 105.83 195.074-24.793 82.856-112.611 130.166-195.758 105.46zm89.666-299.657C121.413-107.125 34.11-60.092 9.462 22.278-15.185 104.647 32.012 191.65 114.67 216.21c82.659 24.561 169.967-22.47 194.615-104.844 24.649-82.374-22.55-169.368-105.213-193.93"/><path fill="#090808" d="M111.8 24.508a4 4 0 0 1 1.094-.153h5.129c.75 0 1.473.21 2.094.594.312.193.601.43.855.706 2.086-1.118 4.543-1.655 7.09-1.655 1.121 0 2.145.107 3.07.274 1.192.215 2.223.53 3.082.845a4 4 0 0 1 2.145 1.847 6.3 6.3 0 0 1 5.137-2.611h4.371a4 4 0 0 1 3.914 3.182l4.133 19.77a4 4 0 0 1-.813 3.341c-.304.377-.672.69-1.082.93l-.277.147q-.152.075-.317.137c.348.208.676.469.997.787 1.312 1.309 1.574 2.932 1.574 4.06v3.161c0 2.21-1.789 4-4 4h-.731a4 4 0 0 1-1.234-.193 4 4 0 0 1-.934.182l-.297.011h-.734c-.426 0-.84-.067-1.223-.191-.386.124-.8.191-1.226.191h-.735c-.222 0-.445-.018-.656-.054q-.356.065-.73.066h-.696c-.136 0-.273-.007-.402-.02a6 6 0 0 1-1.281.139l-.387-.012-.371-.032a6 6 0 0 1-1.105-.234 4 4 0 0 1-1.122.159h-.73c-.457 0-.895-.076-1.305-.217a4 4 0 0 1-1.265.205h-.735q-.17 0-.34-.015l-.32-.04-.289.043a4 4 0 0 1-.437.024h-.735c-.148 0-.293-.008-.461-.018a6.4 6.4 0 0 1-1.347.136 6 6 0 0 1-1.864-.29c-.355.105-.73.16-1.117.16h-.711l-.289-.01-.348.062-.218.028a6 6 0 0 1-.707.038c-.539 0-1.075-.07-1.602-.22a4 4 0 0 1-.898.102h-.735c-.851 0-1.64-.267-2.289-.72a4 4 0 0 1-2.293.72h-.816c-2.211 0-4-1.79-4-4v-6.298c0-.506.094-.989.265-1.434h-1.867a4 4 0 0 1-3.109-1.484l-.02-.028a4.02 4.02 0 0 1-3.132 1.512h-5.41a4 4 0 0 1-3.872-2.999l-3.96-15.305q-.32-.13-.708-.264a25.215 25.215 0 0 0-2.66-.739 4 4 0 0 1-3.066-4.707l.117-.58a4 4 0 0 1 3.922-3.2h8.71a6.34 6.34 0 0 1 5.72 3.554l.402-1.016a4 4 0 0 1 3.719-2.527h5.375a4 4 0 0 1 1.093.153"/><path fill="#fff" d="m102.417 48.138 8.288-19.783h-5.375l-5.328 13.449-2.154-11.448c-.249-1.279-1.243-2.013-2.356-2.013h-8.714l-.118.58c1.788.391 3.824 1.019 5.043 1.682.758.414.971.769 1.22 1.74l4.084 15.793zM127.262 36.108c2.071 1.085 4.66 2.442 4.646 5.566l.011.011c-.023 4.12-3.539 6.772-8.914 6.772-2.297-.023-4.499-.509-5.694-1.053l.923-4.333.144.066c1.162.537 2.646 1.222 5.112 1.177 1.48-.012 3.055-.604 3.067-1.93.011-.876-.663-1.492-2.652-2.462-1.942-.947-4.523-2.546-4.487-5.387.024-3.848 3.587-6.535 8.642-6.535 1.965 0 3.552.426 4.783.876l-.9 4.191c-2.285-1.054-4.309-.983-5.043-.888-1.48.19-2.155.947-2.167 1.657-.019.937 1.139 1.543 2.529 2.272"/><path fill="#fff" fill-rule="evenodd" d="M149.997 48.126h-4.735v.012l-.616-2.948h-6.559l-1.065 2.948h-5.375l7.672-18.327a2.32 2.32 0 0 1 2.178-1.456h4.368zm-7.754-14.443-2.699 7.434h4.25z" clip-rule="evenodd"/><path fill="#fff" d="m113.794 48.138 4.227-19.783h-5.126l-4.215 19.783zM120.414 59.87v-6.547h-.734v6.547z"/><path fill="#fff" fill-rule="evenodd" d="M114.281 53.572v6.298h.817v-2.439h1.267c.675 0 1.207-.154 1.61-.473.391-.32.592-.817.592-1.456 0-.64-.19-1.125-.592-1.445-.403-.32-.935-.485-1.61-.485zm.817.65h1.148c.474 0 .841.096 1.09.297.248.201.378.533.378.994 0 .462-.13.794-.378.995-.249.201-.616.296-1.09.296h-1.148zM121.8 56.224l.083-.723a2.67 2.67 0 0 1 1.527-.426c.604 0 1.054.119 1.338.355.296.237.438.628.438 1.172v3.268h-.71v-.9h-.036c-.118.343-.308.604-.568.77q-.373.248-.959.248c-.26 0-.497-.047-.722-.142a1.25 1.25 0 0 1-.521-.438 1.35 1.35 0 0 1-.201-.746c0-.296.059-.544.189-.734q.195-.284.533-.426c.225-.095.509-.178.829-.237.39-.07.698-.13.935-.177.225-.06.391-.13.497-.225v-.213c0-.344-.083-.592-.237-.746s-.45-.237-.888-.237q-.408 0-.816.142c-.273.095-.51.237-.723.426h-.011zm2.676 2.071v-.97c-.083.082-.249.142-.474.2-.225.06-.497.12-.828.178-.285.048-.51.13-.687.249-.178.118-.261.343-.261.651 0 .284.083.486.249.628s.391.2.675.2.509-.058.71-.177c.201-.118.355-.26.462-.438a1 1 0 0 0 .154-.52" clip-rule="evenodd"/><path fill="#fff" d="M127.764 59.219c-.13-.107-.189-.308-.189-.604h-.024v-2.806h1.338l.095-.615h-1.433v-1.09l-.734.107v1.006l-.757.107-.095.485h.864v2.924c0 .45.118.77.355.971.237.202.568.296.983.296.177 0 .343-.012.509-.047a1.5 1.5 0 0 0 .367-.119l.071-.627h-.024a1.6 1.6 0 0 1-.343.118c-.13.036-.296.048-.485.048-.202 0-.367-.048-.498-.154M129.883 54.045a.43.43 0 0 1 .13-.308c.083-.082.189-.118.332-.118.142 0 .248.036.331.118a.4.4 0 0 1 .13.308.4.4 0 0 1-.13.308.46.46 0 0 1-.331.118.48.48 0 0 1-.332-.118.43.43 0 0 1-.13-.308M130.712 55.194v4.688h-.734v-4.688zM135.708 55.466c-.284-.26-.686-.39-1.195-.39-.225 0-.438.035-.663.106q-.337.106-.604.355c-.178.166-.32.379-.403.64h-.035v-.995h-.71v4.688h.734v-2.865a1.22 1.22 0 0 1 .698-1.137c.213-.106.45-.154.71-.154.438 0 .746.095.912.297q.249.301.249.887v2.984h.734v-3.197c0-.556-.142-.959-.427-1.22M139.367 59.35c.248 0 .485-.048.698-.155.213-.106.379-.248.509-.45.131-.189.19-.414.19-.674v-2.877h.734v4.688h-.699v-.983h-.035c-.095.26-.225.486-.403.64a1.8 1.8 0 0 1-.592.355 2.1 2.1 0 0 1-.651.106c-.509 0-.911-.13-1.207-.402-.296-.26-.438-.675-.438-1.231v-3.173h.734V58.2c0 .402.083.687.248.876.166.19.474.272.912.272M146.79 56.2h-.036v-.012q-.107-.568-.497-.852c-.261-.178-.604-.273-1.018-.273a1.8 1.8 0 0 0-.64.119c-.213.07-.402.19-.58.355a1.44 1.44 0 0 0-.39.651h-.036v-1.006h-.71v4.688h.734v-2.889q0-.39.177-.675c.119-.2.285-.343.486-.45s.426-.153.675-.153c.438 0 .734.094.887.272.154.19.225.474.225.876v3.019h.734v-2.889c0-.414.131-.734.391-.947.261-.225.58-.331.959-.331.45 0 .746.094.888.272.154.19.225.474.225.876v3.019h.734v-3.16c0-.557-.13-.96-.403-1.232-.272-.273-.663-.403-1.16-.403-.213 0-.438.036-.651.119-.213.07-.414.19-.592.355a1.45 1.45 0 0 0-.402.651"/></g><defs><clipPath id="a"><path fill="#fff" d="M0 0h178v88H0z"/></clipPath></defs></svg>