<svg xmlns="http://www.w3.org/2000/svg" fill="none" viewBox="0 0 24 24"><g clip-path="url(#a)"><path fill="#FF0420" d="M12 24c6.627 0 12-5.373 12-12S18.627 0 12 0 0 5.373 0 12s5.373 12 12 12"/><path fill="#fff" fill-rule="evenodd" d="M6.744 14.683q.684.504 1.757.504c.864 0 1.555-.197 2.069-.6.518-.408.878-1.027 1.09-1.848.129-.504.235-1.027.326-1.56q.043-.288.043-.475 0-.627-.317-1.08a1.9 1.9 0 0 0-.864-.687 3.1 3.1 0 0 0-1.243-.235q-2.55 0-3.163 2.477a29 29 0 0 0-.331 1.56c-.03.192-.044.35-.044.485 0 .628.226 1.118.677 1.459m2.741-1.09a1.3 1.3 0 0 1-.854.298c-.576 0-.87-.274-.864-.83q.001-.201.038-.38c.11-.585.216-1.075.326-1.478q.152-.618.504-.912a1.32 1.32 0 0 1 .864-.298q.857 0 .855.821-.002.201-.039.389-.108.631-.316 1.478-.153.619-.514.912m2.808 1.445c.039.044.087.063.154.063h1.224q.093 0 .173-.063a.26.26 0 0 0 .1-.163l.413-1.973h1.215q1.18.001 1.857-.494.69-.495.912-1.531.052-.246.053-.47-.001-.785-.614-1.2-.605-.412-1.604-.413h-2.395q-.093-.001-.173.062a.24.24 0 0 0-.1.163l-1.244 5.856q-.015.093.03.163m3.999-3.585a1.07 1.07 0 0 1-.658.206h-1.032l.34-1.613h1.08c.245 0 .423.048.524.144q.152.139.154.399 0 .117-.03.269a1 1 0 0 1-.379.595" clip-rule="evenodd"/></g><defs><clipPath id="a"><path fill="#fff" d="M0 0h24v24H0z"/></clipPath></defs></svg>