<svg xmlns="http://www.w3.org/2000/svg" viewBox="0 0 48 48"><path d="M24 36.22v8.967c-9.224 0-16.703-7.48-16.703-16.703 0-9.224 7.48-16.704 16.703-16.704V2.813c9.224 0 16.703 7.48 16.703 16.703 0 9.224-7.48 16.704-16.703 16.704" style="fill:#fff"/><path d="M24 0C10.746 0 0 10.746 0 24s10.746 24 24 24 24-10.746 24-24S37.254 0 24 0m0 36.22v8.967c-9.224 0-16.703-7.48-16.703-16.703 0-9.224 7.48-16.704 16.703-16.704V2.813c9.224 0 16.703 7.48 16.703 16.703 0 9.224-7.48 16.704-16.703 16.704m8.264-12.297v.154q-5.465 2.723-8.187 8.187h-.154q-2.722-5.465-8.187-8.187v-.154q5.464-2.722 8.187-8.187h.154q2.723 5.464 8.187 8.187" style="fill:#ff0420"/></svg>