<svg width="390" height="390" viewBox="0 0 390 390" fill="none" xmlns="http://www.w3.org/2000/svg">
<path d="M129.587 122.242C134.627 122.242 138.712 118.156 138.712 113.116C138.712 108.076 134.627 103.991 129.587 103.991C124.547 103.991 120.461 108.076 120.461 113.116C120.461 118.156 124.547 122.242 129.587 122.242Z" fill="#59B8AA" stroke="black" stroke-width="0.325" stroke-miterlimit="10"/>
<path d="M124.479 113.552C123.214 111.745 122.661 109.449 122.853 107.238C121.37 108.833 120.461 110.958 120.461 113.308C120.461 118.24 124.463 122.242 129.395 122.242C132.77 122.242 135.699 120.366 137.213 117.607C132.696 118.83 127.046 117.225 124.479 113.552Z" fill="black"/>
<path d="M133.398 112.303C135.336 112.303 136.906 110.733 136.906 108.795C136.906 106.858 135.336 105.287 133.398 105.287C131.461 105.287 129.891 106.858 129.891 108.795C129.891 110.733 131.461 112.303 133.398 112.303Z" fill="white"/>
<path d="M243.824 307.383C246.432 307.383 248.545 305.27 248.545 302.662C248.545 300.055 246.432 297.941 243.824 297.941C241.217 297.941 239.104 300.055 239.104 302.662C239.104 305.27 241.217 307.383 243.824 307.383Z" fill="#59B8AA" stroke="black" stroke-width="0.325" stroke-miterlimit="10"/>
<path d="M241.182 302.888C240.528 301.953 240.242 300.765 240.341 299.621C239.574 300.446 239.104 301.546 239.104 302.761C239.104 305.313 241.174 307.383 243.725 307.383C245.471 307.383 246.986 306.413 247.77 304.986C245.433 305.618 242.51 304.788 241.182 302.888Z" fill="black"/>
<path d="M245.795 302.242C246.797 302.242 247.61 301.429 247.61 300.427C247.61 299.425 246.797 298.612 245.795 298.612C244.793 298.612 243.98 299.425 243.98 300.427C243.98 301.429 244.793 302.242 245.795 302.242Z" fill="white"/>
<path d="M249.949 59.6093C252.211 59.6093 254.045 57.7756 254.045 55.5136C254.045 53.2516 252.211 51.4179 249.949 51.4179C247.687 51.4179 245.854 53.2516 245.854 55.5136C245.854 57.7756 247.687 59.6093 249.949 59.6093Z" fill="#F3B443" stroke="black" stroke-width="0.325" stroke-miterlimit="10"/>
<path d="M247.657 55.7092C247.089 54.8982 246.841 53.8677 246.927 52.8754C246.261 53.591 245.854 54.5452 245.854 55.5995C245.854 57.8131 247.65 59.6093 249.863 59.6093C251.378 59.6093 252.692 58.7673 253.372 57.5293C251.345 58.0779 248.809 57.3575 247.657 55.7092Z" fill="black"/>
<path d="M251.658 55.1487C252.528 55.1487 253.233 54.4438 253.233 53.5743C253.233 52.7048 252.528 52 251.658 52C250.789 52 250.084 52.7048 250.084 53.5743C250.084 54.4438 250.789 55.1487 251.658 55.1487Z" fill="white"/>
<path d="M70.5215 105.412V113.518" stroke="black" stroke-width="0.325" stroke-miterlimit="10"/>
<path d="M74.5765 109.465H66.4668" stroke="black" stroke-width="0.325" stroke-miterlimit="10"/>
<path d="M279.746 80.5461V88.6523" stroke="black" stroke-width="0.325" stroke-miterlimit="10"/>
<path d="M283.798 84.5992H275.691" stroke="black" stroke-width="0.325" stroke-miterlimit="10"/>
<path d="M80.5 185C82.9853 185 85 183.209 85 181C85 178.791 82.9853 177 80.5 177C78.0147 177 76 178.791 76 181C76 183.209 78.0147 185 80.5 185Z" fill="#F3B443" stroke="black" stroke-width="0.325" stroke-miterlimit="10"/>
<path opacity="0.48" d="M282.568 251.055C281.133 250.852 278.888 257.801 262.726 268.103C262.726 268.103 254.733 241.816 257.22 230.627C259.707 219.438 282.568 251.055 282.568 251.055Z" fill="#113D38"/>
<path d="M283.935 261.858C298.886 261.858 311.006 249.738 311.006 234.787C311.006 219.835 298.886 207.715 283.935 207.715C268.984 207.715 256.863 219.835 256.863 234.787C256.863 249.738 268.984 261.858 283.935 261.858Z" fill="#F3B443" stroke="black" stroke-width="0.325" stroke-miterlimit="10"/>
<path d="M303.795 232.044L276.528 214.848L263.264 237.245C261.808 239.721 266.848 245.383 274.518 249.891C282.187 254.402 289.586 256.05 291.039 253.574C291.107 253.461 291.156 253.336 291.195 253.208L291.241 253.233L303.795 232.037V232.044Z" fill="#FFDB7F" stroke="black" stroke-width="0.325" stroke-miterlimit="10"/>
<path d="M303.895 231.583C305.35 229.107 300.313 223.445 292.643 218.936C284.973 214.427 277.575 212.779 276.12 215.255C274.664 217.731 279.702 223.393 287.372 227.902C295.041 232.411 302.439 234.059 303.895 231.583Z" fill="#CC963E" stroke="black" stroke-width="0.325" stroke-miterlimit="10"/>
<path d="M298.272 209.474C293.544 206.674 287.424 208.241 284.625 212.969L281.637 218.013C281.552 218.109 281.477 218.208 281.41 218.322C280.849 219.267 281.161 220.485 282.106 221.047C283.051 221.608 284.269 221.295 284.831 220.35L288.013 214.976C289.708 212.116 293.409 211.168 296.269 212.862C299.128 214.557 300.077 218.258 298.382 221.118L295.395 226.162C295.31 226.258 295.235 226.357 295.168 226.471C294.606 227.416 294.919 228.634 295.864 229.195C296.809 229.757 298.027 229.444 298.588 228.499L301.771 223.125C304.57 218.397 303.004 212.276 298.276 209.477L298.272 209.474Z" fill="#FFDB7F" stroke="black" stroke-width="0.325" stroke-miterlimit="10"/>
<g opacity="0.15">
<path d="M277.914 251.713C269.204 246.253 269.115 227.359 269.115 227.359L275.143 217.178C273.904 239.312 285.882 254.725 285.882 254.725C283.932 254.729 277.914 251.713 277.914 251.713Z" fill="white"/>
<path d="M295.38 246.246C288.606 239.053 288.318 228.446 288.318 228.446V228.442L297.039 232.556C296.421 235.192 299.021 240.101 299.021 240.101L295.38 246.246Z" fill="white"/>
</g>
<path d="M300.691 217.803C300.652 214.976 298.844 212.209 296.216 211.115C295.882 210.976 295.644 210.678 295.75 210.294C295.839 209.978 296.237 209.69 296.571 209.829C299.764 211.157 301.977 214.326 302.024 217.803C302.034 218.663 300.702 218.66 300.691 217.803Z" fill="white"/>
<path d="M300.528 221.42C301.384 221.42 301.388 220.088 300.528 220.088C299.668 220.088 299.668 221.42 300.528 221.42Z" fill="white"/>
<path d="M283.132 238.058C284.651 238.058 285.882 236.827 285.882 235.309C285.882 233.79 284.651 232.559 283.132 232.559C281.614 232.559 280.383 233.79 280.383 235.309C280.383 236.827 281.614 238.058 283.132 238.058Z" fill="black"/>
<path d="M281.744 235.156L277.389 240.818C277.186 241.085 277.257 241.468 277.545 241.639L280.078 243.138C280.359 243.305 280.724 243.195 280.867 242.9L283.936 236.456L281.744 235.156Z" fill="black"/>
<path opacity="0.48" fill-rule="evenodd" clip-rule="evenodd" d="M176.609 59.7374C174.924 63.9572 172.983 67.9626 170.712 71.6822C170.266 71.7941 169.797 71.9068 169.302 72.0209C166.487 72.8609 147.634 74.5074 135.379 59.2329C141.773 55.5031 144.97 54.0822 144.97 54.0822L176.609 59.7374Z" fill="#113D38"/>
<path d="M168.184 71.9143C181.397 71.9143 192.108 61.2031 192.108 47.9901C192.108 34.7772 181.397 24.066 168.184 24.066C154.971 24.066 144.26 34.7772 144.26 47.9901C144.26 61.2031 154.971 71.9143 168.184 71.9143Z" fill="#FFDB7F" stroke="black" stroke-width="0.325" stroke-miterlimit="10"/>
<path d="M154.648 42.3173C154.648 42.708 154.968 43.0277 155.359 43.0277C155.75 43.0277 156.069 42.708 156.069 42.3173V38.3033C156.069 36.4171 157.604 34.8825 159.49 34.8825H163.824C164.215 34.8825 164.534 34.5628 164.534 34.1721C164.534 33.7813 164.215 33.4616 163.824 33.4616H159.49C156.819 33.4616 154.648 35.6356 154.648 38.3033V42.3173Z" fill="#CC963E"/>
<path d="M181.425 42.637C181.425 43.0277 181.745 43.3474 182.136 43.3474C182.526 43.3474 182.846 43.0277 182.846 42.637V38.3033C182.846 35.632 180.672 33.4616 178.004 33.4616H173.99C173.6 33.4616 173.28 33.7813 173.28 34.1721C173.28 34.5628 173.6 34.8825 173.99 34.8825H178.004C179.891 34.8825 181.425 36.4171 181.425 38.3033V42.637Z" fill="#CC963E"/>
<path d="M178.004 61.2506H173.67C173.28 61.2506 172.96 60.9309 172.96 60.5401C172.96 60.1494 173.28 59.8297 173.67 59.8297H178.004C179.89 59.8297 181.425 58.2951 181.425 56.4125V52.3985C181.425 52.0077 181.745 51.688 182.135 51.688C182.526 51.688 182.846 52.0077 182.846 52.3985V56.4125C182.846 59.0802 180.675 61.2506 178.004 61.2506Z" fill="#CC963E"/>
<path d="M159.49 61.2505H163.504C163.895 61.2505 164.215 60.9308 164.215 60.5401C164.215 60.1493 163.895 59.8296 163.504 59.8296H159.49C157.604 59.8296 156.069 58.2986 156.069 56.4124V52.0787C156.069 51.688 155.75 51.3683 155.359 51.3683C154.968 51.3683 154.648 51.688 154.648 52.0787V56.4124C154.648 59.0801 156.822 61.2505 159.49 61.2505Z" fill="#CC963E"/>
<path d="M163.106 46.619C162.715 46.619 162.396 46.2993 162.396 45.9086V42.6334C162.396 42.2427 162.715 41.923 163.106 41.923C163.497 41.923 163.817 42.2427 163.817 42.6334V45.9086C163.817 46.2993 163.497 46.619 163.106 46.619Z" fill="#CC963E"/>
<path d="M173.28 45.9086C173.28 46.2993 173.6 46.619 173.99 46.619C174.381 46.619 174.701 46.2993 174.701 45.9086V42.6334C174.701 42.2427 174.381 41.923 173.99 41.923C173.6 41.923 173.28 42.2427 173.28 42.6334V45.9086Z" fill="#CC963E"/>
<path d="M167.5 50.2529H166.698C166.307 50.2529 165.987 49.9332 165.987 49.5425C165.987 49.1517 166.307 48.832 166.698 48.832H167.5C167.721 48.832 167.902 48.6508 167.902 48.4306V42.9567C167.902 42.5659 168.221 42.2462 168.612 42.2462C169.003 42.2462 169.323 42.5659 169.323 42.9567V48.4306C169.323 49.4359 168.506 50.2529 167.5 50.2529Z" fill="#CC963E"/>
<path d="M167.156 55.8796C167.209 56.2313 167.511 56.4835 167.855 56.4835L167.852 56.48C167.891 56.48 167.926 56.48 167.962 56.4728C172.75 55.7411 174.58 51.0309 174.654 50.8319C174.793 50.4661 174.608 50.0576 174.242 49.919C173.876 49.7805 173.464 49.9652 173.326 50.3311C173.312 50.3702 171.702 54.4623 167.749 55.0697C167.362 55.1301 167.095 55.4924 167.156 55.8796Z" fill="#CC963E"/>
<path d="M154.648 42.3173C154.648 42.708 154.968 43.0277 155.359 43.0277C155.75 43.0277 156.069 42.708 156.069 42.3173V38.3033C156.069 36.4171 157.604 34.8825 159.49 34.8825H163.824C164.215 34.8825 164.534 34.5628 164.534 34.1721C164.534 33.7813 164.215 33.4616 163.824 33.4616H159.49C156.819 33.4616 154.648 35.6356 154.648 38.3033V42.3173Z" stroke="black" stroke-width="0.325" stroke-miterlimit="10"/>
<path d="M181.425 42.637C181.425 43.0277 181.745 43.3474 182.136 43.3474C182.526 43.3474 182.846 43.0277 182.846 42.637V38.3033C182.846 35.632 180.672 33.4616 178.004 33.4616H173.99C173.6 33.4616 173.28 33.7813 173.28 34.1721C173.28 34.5628 173.6 34.8825 173.99 34.8825H178.004C179.891 34.8825 181.425 36.4171 181.425 38.3033V42.637Z" stroke="black" stroke-width="0.325" stroke-miterlimit="10"/>
<path d="M178.004 61.2506H173.67C173.28 61.2506 172.96 60.9309 172.96 60.5401C172.96 60.1494 173.28 59.8297 173.67 59.8297H178.004C179.89 59.8297 181.425 58.2951 181.425 56.4125V52.3985C181.425 52.0077 181.745 51.688 182.135 51.688C182.526 51.688 182.846 52.0077 182.846 52.3985V56.4125C182.846 59.0802 180.675 61.2506 178.004 61.2506Z" stroke="black" stroke-width="0.325" stroke-miterlimit="10"/>
<path d="M159.49 61.2505H163.504C163.895 61.2505 164.215 60.9308 164.215 60.5401C164.215 60.1493 163.895 59.8296 163.504 59.8296H159.49C157.604 59.8296 156.069 58.2986 156.069 56.4124V52.0787C156.069 51.688 155.75 51.3683 155.359 51.3683C154.968 51.3683 154.648 51.688 154.648 52.0787V56.4124C154.648 59.0801 156.822 61.2505 159.49 61.2505Z" stroke="black" stroke-width="0.325" stroke-miterlimit="10"/>
<path d="M163.106 46.619C162.715 46.619 162.396 46.2993 162.396 45.9086V42.6334C162.396 42.2427 162.715 41.923 163.106 41.923C163.497 41.923 163.817 42.2427 163.817 42.6334V45.9086C163.817 46.2993 163.497 46.619 163.106 46.619Z" stroke="black" stroke-width="0.325" stroke-miterlimit="10"/>
<path d="M173.28 45.9086C173.28 46.2993 173.6 46.619 173.99 46.619C174.381 46.619 174.701 46.2993 174.701 45.9086V42.6334C174.701 42.2427 174.381 41.923 173.99 41.923C173.6 41.923 173.28 42.2427 173.28 42.6334V45.9086Z" stroke="black" stroke-width="0.325" stroke-miterlimit="10"/>
<path d="M167.5 50.2529H166.698C166.307 50.2529 165.987 49.9332 165.987 49.5425C165.987 49.1517 166.307 48.832 166.698 48.832H167.5C167.721 48.832 167.902 48.6508 167.902 48.4306V42.9567C167.902 42.5659 168.221 42.2462 168.612 42.2462C169.003 42.2462 169.323 42.5659 169.323 42.9567V48.4306C169.323 49.4359 168.506 50.2529 167.5 50.2529Z" stroke="black" stroke-width="0.325" stroke-miterlimit="10"/>
<path d="M167.156 55.8796C167.209 56.2313 167.511 56.4835 167.855 56.4835L167.852 56.48C167.891 56.48 167.926 56.48 167.962 56.4728C172.75 55.7411 174.58 51.0309 174.654 50.8319C174.793 50.4661 174.608 50.0576 174.242 49.919C173.876 49.7805 173.464 49.9652 173.326 50.3311C173.312 50.3702 171.702 54.4623 167.749 55.0697C167.362 55.1301 167.095 55.4924 167.156 55.8796Z" stroke="black" stroke-width="0.325" stroke-miterlimit="10"/>
<g clip-path="url(#clip0_4141_22222)">
<path d="M274.141 126.951C274.136 128.262 273.663 129.572 272.718 130.787C270.606 128.099 266.534 126.62 263.501 125.926C258.358 124.755 252.834 125.179 247.977 127.264C246.388 127.944 244.85 128.806 243.646 130.042C243.427 130.269 243.222 130.504 243.035 130.752C240.338 127.29 241.43 123.084 246.324 120.241C252.658 116.56 262.959 116.56 269.335 120.241C272.441 122.029 274.04 124.359 274.136 126.706C274.141 126.788 274.141 126.871 274.141 126.951Z" fill="#7C5C22" stroke="black" stroke-width="0.32"/>
<mask id="mask0_4141_22222" style="mask-type:luminance" maskUnits="userSpaceOnUse" x="179" y="136" width="7" height="25">
<path d="M179.557 144.76L179.578 136.958C179.562 142.197 181.559 147.44 185.562 152.265L185.54 160.067C181.538 155.242 179.541 149.999 179.557 144.76Z" fill="white" stroke="white" stroke-width="0.32"/>
</mask>
<g mask="url(#mask0_4141_22222)">
<path d="M179.582 136.958L179.561 144.76C179.545 149.997 181.542 155.242 185.544 160.067L185.566 152.266C181.563 147.44 179.566 142.197 179.582 136.958Z" fill="#B7830F" stroke="black" stroke-width="0.32"/>
</g>
<path d="M193.829 157.465L193.808 165.27L189.279 162.654L189.301 154.852L193.829 157.465Z" fill="#B7830F" stroke="black" stroke-width="0.32"/>
<path d="M300.927 137.988C300.746 143.836 297.502 149.602 293.654 153.859C289.673 158.266 284.597 161.578 279.222 164.103C265.802 170.408 250.807 172.829 236.049 172.185C228.712 171.86 221.382 170.805 214.299 168.852L214.277 176.654C214.277 177.308 223.679 178.695 224.6 178.84C228.277 179.411 231.985 179.784 235.702 179.958C250.372 180.641 265.621 178.445 278.936 172.036C280.231 171.411 281.51 170.747 282.763 170.042C287.409 167.426 291.777 164.197 295.125 160.049C297.534 157.067 299.392 153.595 300.319 149.866C301.328 145.801 300.919 141.453 300.933 137.3C300.933 137.529 300.933 137.759 300.925 137.991L300.927 137.988Z" fill="#7C5C22" stroke="black" stroke-width="0.32"/>
<path d="M214.299 168.849L214.278 176.654L196.092 187.218L196.113 179.416L214.299 168.849Z" fill="#D69C0B" stroke="black" stroke-width="0.32"/>
<path d="M196.113 179.416L196.092 187.218L175.289 184.629L175.31 176.824L196.113 179.416Z" fill="#7C5C22" stroke="black" stroke-width="0.32"/>
<path d="M175.31 176.824L175.289 184.629L166.184 189.86L166.205 182.059L175.31 176.824Z" fill="#D69C0B" stroke="black" stroke-width="0.32"/>
<path d="M168.228 195.001L168.206 202.803L163.168 205.731L163.189 197.929L168.228 195.001Z" fill="#D69C0B" stroke="black" stroke-width="0.32"/>
<path d="M163.191 197.929L163.17 205.731L148.746 207.408L148.767 199.606L163.191 197.929Z" fill="#7C5C22" stroke="black" stroke-width="0.32"/>
<path d="M148.766 199.606L148.744 207.407L137.666 213.843L137.69 206.041L148.766 199.606Z" fill="#D69C0B" stroke="black" stroke-width="0.32"/>
<path d="M189.301 154.852L189.28 162.654L85.1113 223.169L85.1327 215.367L189.301 154.852Z" fill="#CA9F24" stroke="black" stroke-width="0.32"/>
<path d="M193.83 160.059L89.6613 220.574L85.1328 217.961L189.301 157.446L193.83 160.059Z" fill="#FFDB7F" stroke="black" stroke-width="0.32"/>
<path d="M193.829 157.465L193.807 165.27L89.6387 225.785L89.66 217.98L193.829 157.465Z" fill="#B58E20" stroke="black" stroke-width="0.32"/>
<path d="M138.465 212.495L138.444 220.297L125.182 228L125.203 220.198L138.465 212.495Z" fill="#D69C0B" stroke="black" stroke-width="0.32"/>
<path d="M125.203 220.198L125.181 228H93.4766L93.5006 220.198H125.203Z" fill="#7C5C22" stroke="black" stroke-width="0.32"/>
<path d="M283.022 112.292C259.25 98.5701 220.83 98.5701 197.215 112.29C178.597 123.105 174.736 139.213 185.568 152.268L81.0234 212.997L85.1327 215.367L189.301 154.852L193.832 157.468L89.6585 217.983L93.5008 220.201H125.203L138.465 212.498L137.691 206.044L148.766 199.608L163.19 197.932L168.226 195.007L166.205 182.061L175.31 176.827L196.115 179.419L214.301 168.852C236.89 175.084 264.689 172.791 283.302 161.979C306.922 148.262 306.796 126.012 283.022 112.295V112.292ZM288.274 136.643C287.929 143.34 283.374 149.97 274.597 155.071C256.249 165.729 226.298 165.734 207.829 155.071C198.887 149.909 194.249 143.182 193.931 136.405C193.915 136.05 193.912 135.698 193.92 135.34C193.923 135.234 193.923 135.127 193.929 135.02C193.931 134.908 193.939 134.799 193.947 134.686C193.955 134.58 193.958 134.473 193.966 134.366C193.977 134.254 193.99 134.145 194.001 134.032C194.009 133.926 194.019 133.819 194.03 133.715C194.046 133.603 194.059 133.493 194.075 133.381C194.091 133.274 194.105 133.168 194.126 133.058C194.142 132.946 194.163 132.839 194.185 132.73C194.204 132.623 194.222 132.516 194.246 132.41C194.27 132.298 194.297 132.188 194.318 132.081C194.342 131.975 194.364 131.868 194.39 131.764C194.417 131.652 194.449 131.542 194.479 131.43C194.505 131.326 194.532 131.219 194.564 131.112C194.599 131.006 194.633 130.894 194.668 130.784C194.697 130.68 194.732 130.573 194.767 130.469C194.802 130.357 194.844 130.25 194.882 130.141C194.916 130.037 194.954 129.93 194.994 129.826C195.037 129.714 195.079 129.607 195.125 129.498C195.162 129.394 195.205 129.292 195.248 129.188C195.293 129.076 195.344 128.969 195.389 128.862C195.434 128.758 195.48 128.651 195.528 128.547C195.579 128.441 195.632 128.334 195.685 128.227C195.736 128.123 195.784 128.022 195.838 127.917C195.891 127.811 195.95 127.704 196.006 127.597C196.059 127.493 196.113 127.392 196.171 127.288C196.23 127.181 196.294 127.077 196.356 126.97C196.414 126.866 196.47 126.764 196.532 126.66C196.596 126.556 196.665 126.449 196.732 126.343C196.794 126.244 196.855 126.14 196.919 126.041C196.988 125.934 197.061 125.83 197.133 125.723C197.197 125.625 197.266 125.523 197.336 125.424C197.408 125.318 197.485 125.214 197.563 125.107C197.635 125.011 197.704 124.912 197.776 124.813C197.854 124.709 197.936 124.602 198.016 124.498C198.089 124.402 198.166 124.303 198.243 124.205C198.329 124.101 198.412 123.999 198.5 123.895C198.577 123.799 198.657 123.7 198.737 123.604C198.825 123.5 198.916 123.399 199.01 123.294C199.095 123.198 199.175 123.102 199.263 123.006C199.354 122.907 199.45 122.803 199.546 122.705C199.635 122.609 199.72 122.512 199.811 122.416C199.907 122.318 200.011 122.216 200.11 122.115C200.201 122.024 200.289 121.928 200.385 121.834C200.489 121.73 200.598 121.632 200.703 121.528C200.799 121.439 200.889 121.349 200.986 121.255C201.098 121.151 201.215 121.052 201.327 120.948C201.423 120.86 201.52 120.772 201.618 120.687C201.733 120.583 201.856 120.481 201.974 120.377C202.072 120.292 202.168 120.209 202.273 120.124C202.39 120.019 202.518 119.923 202.641 119.825C202.745 119.737 202.847 119.651 202.956 119.563C203.082 119.467 203.212 119.368 203.338 119.269C203.45 119.189 203.557 119.101 203.666 119.021C203.8 118.917 203.941 118.816 204.083 118.714C204.19 118.637 204.294 118.557 204.401 118.482C204.547 118.378 204.694 118.276 204.841 118.175C204.948 118.098 205.055 118.026 205.162 117.948C205.322 117.841 205.487 117.735 205.648 117.628C205.752 117.564 205.85 117.497 205.955 117.428C206.139 117.31 206.331 117.19 206.521 117.073C206.606 117.022 206.686 116.969 206.769 116.915C207.044 116.747 207.327 116.579 207.613 116.413C225.962 105.755 255.912 105.755 274.384 116.413C274.672 116.582 274.958 116.75 275.238 116.918C275.329 116.977 275.417 117.033 275.511 117.091C275.698 117.206 275.882 117.321 276.066 117.436C276.181 117.508 276.296 117.585 276.408 117.663C276.56 117.761 276.718 117.863 276.867 117.962C276.979 118.039 277.086 118.111 277.195 118.188C277.345 118.293 277.495 118.394 277.639 118.498C277.751 118.575 277.852 118.65 277.959 118.73C278.101 118.829 278.247 118.933 278.384 119.037C278.496 119.123 278.603 119.205 278.712 119.291C278.843 119.39 278.974 119.491 279.102 119.59C279.209 119.675 279.313 119.758 279.417 119.846C279.542 119.945 279.673 120.046 279.796 120.148C279.9 120.236 279.999 120.321 280.103 120.406C280.221 120.511 280.344 120.609 280.458 120.713C280.562 120.802 280.659 120.89 280.752 120.978C280.867 121.082 280.987 121.183 281.096 121.287C281.193 121.375 281.289 121.466 281.385 121.56C281.492 121.664 281.604 121.762 281.711 121.869C281.801 121.96 281.895 122.053 281.986 122.144C282.09 122.248 282.191 122.35 282.293 122.454C282.383 122.55 282.469 122.641 282.56 122.737C282.656 122.841 282.755 122.942 282.848 123.046C282.936 123.142 283.016 123.238 283.102 123.335C283.193 123.439 283.289 123.54 283.382 123.649C283.462 123.746 283.54 123.842 283.62 123.938C283.708 124.045 283.799 124.151 283.884 124.255C283.962 124.354 284.036 124.45 284.111 124.549C284.196 124.656 284.279 124.76 284.359 124.867C284.437 124.965 284.506 125.067 284.578 125.166C284.656 125.272 284.736 125.376 284.808 125.483C284.877 125.582 284.947 125.686 285.014 125.785C285.086 125.892 285.16 125.998 285.227 126.105C285.291 126.204 285.353 126.305 285.419 126.404C285.489 126.511 285.558 126.623 285.622 126.73C285.684 126.834 285.74 126.933 285.801 127.037C285.863 127.143 285.927 127.25 285.988 127.362C286.047 127.466 286.1 127.568 286.154 127.669C286.215 127.781 286.271 127.888 286.33 127.998C286.383 128.102 286.429 128.203 286.482 128.304C286.535 128.417 286.589 128.526 286.64 128.638C286.69 128.742 286.736 128.844 286.781 128.948C286.832 129.055 286.88 129.167 286.928 129.276C286.973 129.38 287.013 129.487 287.053 129.591C287.099 129.703 287.144 129.813 287.187 129.925C287.224 130.029 287.259 130.136 287.299 130.24C287.342 130.352 287.379 130.461 287.417 130.573C287.451 130.677 287.486 130.784 287.515 130.891C287.55 131.003 287.587 131.11 287.62 131.219C287.654 131.326 287.681 131.433 287.708 131.54C287.737 131.652 287.769 131.761 287.798 131.873C287.825 131.98 287.849 132.084 287.871 132.191C287.897 132.303 287.924 132.418 287.948 132.527C287.972 132.631 287.991 132.738 288.009 132.845C288.028 132.957 288.052 133.066 288.071 133.181C288.089 133.288 288.1 133.395 288.116 133.499C288.135 133.613 288.151 133.726 288.167 133.835C288.178 133.942 288.191 134.049 288.202 134.161C288.212 134.273 288.226 134.382 288.236 134.494C288.244 134.601 288.252 134.708 288.26 134.815C288.263 134.929 288.276 135.041 288.279 135.151C288.282 135.258 288.282 135.364 288.287 135.474C288.29 135.586 288.29 135.701 288.295 135.81C288.295 136.09 288.284 136.365 288.271 136.646L288.274 136.643Z" fill="#F3B443" stroke="black" stroke-width="0.32"/>
<path d="M89.6611 217.98L89.6531 220.572L85.1326 217.961V215.367L81.0233 212.997L81.002 220.799L85.1112 223.169L89.6397 225.785V225.651V225.785L93.4766 228L93.5007 220.198L89.6611 217.98Z" fill="#A5730F" stroke="black" stroke-width="0.32"/>
<path d="M288.288 135.471C288.282 135.362 288.282 135.255 288.28 135.148C288.28 135.036 288.264 134.927 288.261 134.812C288.253 134.705 288.245 134.598 288.237 134.489C288.226 134.379 288.216 134.267 288.202 134.158C288.192 134.046 288.181 133.939 288.168 133.832C288.154 133.72 288.138 133.608 288.12 133.493C288.104 133.392 288.093 133.285 288.074 133.176C288.053 133.061 288.031 132.951 288.013 132.839C287.991 132.733 287.973 132.626 287.951 132.522C287.927 132.41 287.901 132.295 287.874 132.185C287.85 132.079 287.829 131.975 287.802 131.868C287.77 131.756 287.74 131.646 287.708 131.534C287.682 131.427 287.655 131.321 287.62 131.214C287.591 131.102 287.551 130.995 287.519 130.883C287.487 130.776 287.452 130.669 287.417 130.565C287.38 130.456 287.343 130.344 287.3 130.232C287.26 130.13 287.228 130.021 287.188 129.919C287.145 129.807 287.1 129.698 287.054 129.586C287.011 129.482 286.974 129.375 286.929 129.271C286.881 129.161 286.833 129.049 286.782 128.942C286.736 128.838 286.691 128.734 286.64 128.633C286.59 128.521 286.536 128.411 286.483 128.299C286.429 128.2 286.384 128.096 286.331 127.992C286.272 127.883 286.216 127.773 286.154 127.664C286.101 127.565 286.048 127.461 285.989 127.357C285.927 127.245 285.863 127.138 285.802 127.031C285.741 126.927 285.682 126.828 285.62 126.724C285.556 126.618 285.487 126.508 285.417 126.399C285.353 126.3 285.292 126.201 285.228 126.102C285.158 125.993 285.086 125.886 285.012 125.779C284.945 125.681 284.875 125.577 284.806 125.478C284.734 125.371 284.654 125.267 284.576 125.16C284.504 125.059 284.435 124.96 284.357 124.861C284.277 124.755 284.192 124.65 284.109 124.544C284.037 124.442 283.96 124.349 283.882 124.247C283.799 124.146 283.706 124.037 283.618 123.93C283.538 123.834 283.46 123.74 283.38 123.644C283.289 123.537 283.193 123.433 283.102 123.329C283.017 123.233 282.937 123.137 282.849 123.044C282.758 122.939 282.657 122.835 282.56 122.731C282.47 122.635 282.384 122.544 282.293 122.448C282.195 122.344 282.09 122.243 281.986 122.139C281.896 122.048 281.802 121.955 281.711 121.864C281.605 121.757 281.492 121.656 281.386 121.554C281.289 121.461 281.193 121.37 281.097 121.282C280.988 121.178 280.868 121.074 280.753 120.972C280.659 120.884 280.563 120.796 280.459 120.708C280.344 120.604 280.221 120.503 280.104 120.401C280 120.313 279.898 120.228 279.797 120.14C279.674 120.038 279.543 119.937 279.418 119.838C279.314 119.75 279.209 119.664 279.103 119.582C278.972 119.483 278.844 119.382 278.713 119.283C278.601 119.197 278.494 119.115 278.382 119.029C278.246 118.928 278.099 118.824 277.957 118.722C277.85 118.642 277.746 118.567 277.637 118.49C277.49 118.386 277.34 118.284 277.191 118.18C277.081 118.103 276.975 118.031 276.862 117.954C276.713 117.855 276.555 117.756 276.403 117.655C276.291 117.58 276.176 117.502 276.061 117.43C275.877 117.316 275.696 117.201 275.506 117.086C275.415 117.027 275.327 116.971 275.234 116.913C274.956 116.744 274.668 116.576 274.382 116.408C255.908 105.747 225.957 105.747 207.608 116.408C207.325 116.571 207.042 116.742 206.767 116.91C206.682 116.963 206.602 117.017 206.516 117.065C206.326 117.185 206.134 117.302 205.95 117.422C205.846 117.492 205.747 117.556 205.643 117.62C205.483 117.729 205.317 117.836 205.157 117.943C205.05 118.02 204.943 118.092 204.837 118.167C204.69 118.268 204.54 118.373 204.396 118.474C204.287 118.551 204.185 118.631 204.078 118.709C203.934 118.808 203.793 118.912 203.659 119.013C203.55 119.096 203.44 119.184 203.331 119.264C203.205 119.363 203.074 119.462 202.946 119.558C202.839 119.646 202.738 119.731 202.634 119.819C202.511 119.918 202.385 120.014 202.265 120.118C202.161 120.201 202.065 120.286 201.966 120.369C201.849 120.473 201.726 120.577 201.611 120.679C201.512 120.764 201.416 120.852 201.32 120.94C201.208 121.044 201.09 121.143 200.978 121.247C200.882 121.338 200.791 121.431 200.695 121.519C200.591 121.621 200.482 121.722 200.378 121.824C200.281 121.917 200.193 122.013 200.102 122.104C200.001 122.208 199.9 122.307 199.803 122.406C199.71 122.502 199.627 122.598 199.539 122.694C199.443 122.793 199.347 122.897 199.256 122.996C199.168 123.092 199.088 123.188 199.002 123.284C198.912 123.388 198.818 123.489 198.73 123.593C198.65 123.69 198.57 123.788 198.492 123.884C198.404 123.988 198.322 124.093 198.236 124.194C198.159 124.295 198.084 124.394 198.009 124.49C197.929 124.592 197.846 124.701 197.769 124.803C197.697 124.904 197.627 125.003 197.555 125.099C197.478 125.206 197.4 125.31 197.328 125.416C197.259 125.515 197.189 125.614 197.125 125.715C197.053 125.822 196.981 125.926 196.912 126.033C196.845 126.132 196.784 126.236 196.722 126.335C196.658 126.441 196.589 126.548 196.525 126.652C196.463 126.756 196.404 126.86 196.348 126.962C196.287 127.069 196.223 127.173 196.164 127.28C196.108 127.384 196.052 127.488 195.999 127.592C195.942 127.699 195.884 127.805 195.83 127.912C195.777 128.016 195.729 128.12 195.678 128.222C195.625 128.329 195.571 128.438 195.521 128.545C195.475 128.646 195.43 128.756 195.382 128.857C195.336 128.966 195.288 129.073 195.24 129.183C195.2 129.287 195.157 129.391 195.117 129.492C195.072 129.604 195.029 129.711 194.989 129.823C194.949 129.927 194.912 130.034 194.877 130.136C194.84 130.248 194.797 130.354 194.762 130.466C194.728 130.571 194.693 130.677 194.663 130.779C194.629 130.891 194.594 131.003 194.559 131.11C194.53 131.217 194.503 131.323 194.477 131.427C194.445 131.537 194.415 131.649 194.388 131.761C194.359 131.862 194.338 131.972 194.314 132.079C194.292 132.185 194.266 132.295 194.242 132.407C194.218 132.514 194.199 132.62 194.18 132.73C194.162 132.839 194.137 132.946 194.124 133.058C194.103 133.165 194.089 133.272 194.073 133.379C194.057 133.491 194.041 133.603 194.028 133.712C194.015 133.816 194.004 133.923 193.996 134.03C193.985 134.142 193.975 134.251 193.961 134.363C193.953 134.47 193.951 134.577 193.943 134.686C193.935 134.796 193.927 134.908 193.924 135.017C193.924 135.124 193.924 135.234 193.916 135.34C193.908 135.695 193.913 136.048 193.927 136.405C194.244 143.18 198.885 149.909 207.827 155.068C226.296 165.731 256.247 165.729 274.596 155.068C283.375 149.97 287.927 143.337 288.272 136.64C288.282 136.363 288.296 136.088 288.296 135.807C288.29 135.695 288.29 135.581 288.288 135.471ZM272.718 130.787C271.939 131.793 270.836 132.735 269.413 133.563C263.079 137.246 252.775 137.246 246.399 133.563C244.949 132.727 243.828 131.772 243.035 130.752C240.338 127.29 241.43 123.084 246.325 120.241C252.658 116.56 262.959 116.56 269.335 120.241C272.441 122.029 274.04 124.359 274.136 126.706C274.142 126.788 274.142 126.871 274.142 126.951C274.136 128.262 273.664 129.572 272.718 130.787Z" fill="#F3B443"/>
<mask id="path-46-inside-1_4141_22222" fill="white">
<path d="M196.081 148.619C195.992 148.518 195.91 148.414 195.824 148.31C195.91 148.414 195.992 148.515 196.081 148.619Z"/>
</mask>
<path d="M196.081 148.619L196.002 148.688L196.16 148.552L196.081 148.619ZM196.159 148.551C196.072 148.451 195.991 148.35 195.905 148.244L195.744 148.376C195.828 148.478 195.913 148.585 196.002 148.688L196.159 148.551ZM195.744 148.376C195.829 148.48 195.912 148.582 196.001 148.687L196.16 148.552C196.072 148.449 195.99 148.348 195.905 148.244L195.744 148.376Z" fill="black" mask="url(#path-46-inside-1_4141_22222)"/>
<mask id="path-48-inside-2_4141_22222" fill="white">
<path d="M197.24 149.89C197.144 149.791 197.053 149.69 196.957 149.588C197.05 149.69 197.144 149.789 197.24 149.89Z"/>
</mask>
<path d="M197.24 149.89L197.166 149.963L197.316 149.819L197.24 149.89ZM196.957 149.588L197.033 149.517L196.881 149.659L196.957 149.588ZM197.315 149.818C197.218 149.719 197.132 149.622 197.033 149.517L196.882 149.66C196.974 149.758 197.07 149.864 197.166 149.963L197.315 149.818ZM196.881 149.659C196.975 149.761 197.068 149.86 197.165 149.962L197.316 149.819C197.219 149.717 197.126 149.619 197.034 149.518L196.881 149.659Z" fill="black" mask="url(#path-48-inside-2_4141_22222)"/>
<mask id="path-50-inside-3_4141_22222" fill="white">
<path d="M194.114 146.004C194.044 145.897 193.978 145.788 193.908 145.681C193.975 145.788 194.042 145.897 194.114 146.004Z"/>
</mask>
<path d="M194.114 146.004L194.028 146.062L194.201 145.947L194.114 146.004ZM193.908 145.681L193.995 145.624L193.82 145.736L193.908 145.681ZM194.201 145.947C194.167 145.894 194.133 145.841 194.099 145.787C194.065 145.733 194.031 145.678 193.995 145.624L193.821 145.737C193.855 145.79 193.889 145.844 193.923 145.898C193.957 145.952 193.991 146.006 194.027 146.06L194.201 145.947ZM193.82 145.736C193.886 145.841 193.954 145.953 194.028 146.062L194.2 145.946C194.129 145.841 194.064 145.734 193.996 145.626L193.82 145.736Z" fill="black" mask="url(#path-50-inside-3_4141_22222)"/>
<mask id="path-52-inside-4_4141_22222" fill="white">
<path d="M194.565 146.666C194.49 146.559 194.418 146.452 194.346 146.343C194.418 146.449 194.49 146.556 194.565 146.666Z"/>
</mask>
<path d="M194.565 146.666L194.479 146.725L194.651 146.607L194.565 146.666ZM194.346 146.343L194.432 146.284L194.259 146.4L194.346 146.343ZM194.65 146.606C194.576 146.5 194.504 146.394 194.433 146.285L194.259 146.4C194.331 146.51 194.404 146.618 194.479 146.725L194.65 146.606ZM194.26 146.401C194.332 146.508 194.404 146.615 194.479 146.724L194.651 146.607C194.576 146.498 194.504 146.391 194.432 146.284L194.26 146.401Z" fill="black" mask="url(#path-52-inside-4_4141_22222)"/>
<mask id="path-54-inside-5_4141_22222" fill="white">
<path d="M197.861 150.517C197.763 150.421 197.666 150.322 197.57 150.224C197.666 150.322 197.763 150.418 197.861 150.517Z"/>
</mask>
<path d="M197.861 150.517L197.789 150.592L197.935 150.444L197.861 150.517ZM197.934 150.443C197.836 150.348 197.741 150.25 197.645 150.151L197.496 150.296C197.592 150.395 197.689 150.494 197.789 150.592L197.934 150.443ZM197.496 150.296C197.592 150.395 197.689 150.492 197.788 150.591L197.935 150.444C197.836 150.345 197.74 150.249 197.645 150.151L197.496 150.296Z" fill="black" mask="url(#path-54-inside-5_4141_22222)"/>
<mask id="path-56-inside-6_4141_22222" fill="white">
<path d="M201.404 153.531C201.284 153.443 201.17 153.352 201.055 153.261C201.172 153.349 201.287 153.44 201.404 153.531Z"/>
</mask>
<path d="M201.404 153.531L201.343 153.615L201.468 153.449L201.404 153.531ZM201.055 153.261L201.117 153.178L200.99 153.343L201.055 153.261ZM201.466 153.447C201.348 153.36 201.234 153.271 201.119 153.18L200.99 153.343C201.105 153.433 201.221 153.525 201.343 153.615L201.466 153.447ZM200.992 153.344C201.109 153.432 201.222 153.521 201.341 153.613L201.468 153.449C201.352 153.359 201.235 153.267 201.117 153.178L200.992 153.344Z" fill="black" mask="url(#path-56-inside-6_4141_22222)"/>
<mask id="path-58-inside-7_4141_22222" fill="white">
<path d="M202.199 154.11C202.076 154.022 201.959 153.934 201.836 153.848C201.956 153.936 202.076 154.024 202.199 154.11Z"/>
</mask>
<path d="M202.199 154.11L202.14 154.195L202.26 154.025L202.199 154.11ZM201.836 153.848L201.895 153.763L201.774 153.932L201.836 153.848ZM202.26 154.025C202.14 153.939 202.019 153.849 201.895 153.763L201.777 153.934C201.899 154.019 202.013 154.104 202.138 154.194L202.26 154.025ZM201.774 153.932C201.894 154.02 202.016 154.109 202.14 154.195L202.258 154.024C202.137 153.94 202.018 153.853 201.897 153.764L201.774 153.932Z" fill="black" mask="url(#path-58-inside-7_4141_22222)"/>
<mask id="path-60-inside-8_4141_22222" fill="white">
<path d="M200.639 152.943C200.524 152.853 200.412 152.759 200.297 152.669C200.412 152.759 200.521 152.853 200.639 152.943Z"/>
</mask>
<path d="M200.639 152.943L200.575 153.026L200.703 152.862L200.639 152.943ZM200.703 152.862C200.646 152.817 200.59 152.771 200.533 152.725C200.477 152.679 200.419 152.633 200.361 152.587L200.232 152.75C200.289 152.795 200.345 152.841 200.402 152.887C200.459 152.933 200.516 152.979 200.574 153.025L200.703 152.862ZM200.232 152.75C200.341 152.836 200.459 152.936 200.575 153.026L200.702 152.861C200.583 152.769 200.483 152.683 200.361 152.587L200.232 152.75Z" fill="black" mask="url(#path-60-inside-8_4141_22222)"/>
<mask id="path-62-inside-9_4141_22222" fill="white">
<path d="M199.192 151.745C199.082 151.649 198.978 151.553 198.871 151.46C198.978 151.556 199.082 151.652 199.192 151.745Z"/>
</mask>
<path d="M199.192 151.745L199.124 151.824L199.26 151.667L199.192 151.745ZM198.871 151.46L198.94 151.381L198.802 151.537L198.871 151.46ZM199.26 151.667C199.206 151.619 199.153 151.572 199.1 151.524C199.047 151.476 198.994 151.428 198.94 151.381L198.803 151.538C198.855 151.584 198.908 151.631 198.961 151.679C199.014 151.726 199.068 151.775 199.123 151.823L199.26 151.667ZM198.802 151.537C198.907 151.632 199.013 151.73 199.124 151.824L199.259 151.666C199.151 151.574 199.049 151.479 198.941 151.382L198.802 151.537Z" fill="black" mask="url(#path-62-inside-9_4141_22222)"/>
<mask id="path-64-inside-10_4141_22222" fill="white">
<path d="M198.513 151.136C198.406 151.038 198.305 150.939 198.203 150.843C198.307 150.942 198.409 151.04 198.513 151.136Z"/>
</mask>
<path d="M198.513 151.136L198.442 151.213L198.583 151.06L198.513 151.136ZM198.203 150.843L198.275 150.767L198.132 150.918L198.203 150.843ZM198.583 151.06C198.477 150.962 198.378 150.865 198.275 150.767L198.132 150.918C198.232 151.013 198.335 151.114 198.442 151.213L198.583 151.06ZM198.132 150.918C198.234 151.016 198.338 151.116 198.442 151.213L198.583 151.06C198.48 150.964 198.38 150.867 198.275 150.767L198.132 150.918Z" fill="black" mask="url(#path-64-inside-10_4141_22222)"/>
<mask id="path-66-inside-11_4141_22222" fill="white">
<path d="M203.875 155.236C203.752 155.156 203.632 155.076 203.512 154.999C203.635 155.079 203.752 155.159 203.875 155.236Z"/>
</mask>
<path d="M203.875 155.236L203.819 155.324L203.932 155.149L203.875 155.236ZM203.512 154.999L203.568 154.911L203.455 155.086L203.512 154.999ZM203.932 155.149C203.81 155.07 203.688 154.989 203.568 154.911L203.455 155.086C203.576 155.163 203.694 155.242 203.818 155.323L203.932 155.149ZM203.455 155.086C203.575 155.164 203.696 155.246 203.819 155.324L203.93 155.148C203.808 155.071 203.694 154.993 203.569 154.912L203.455 155.086Z" fill="black" mask="url(#path-66-inside-11_4141_22222)"/>
<mask id="path-68-inside-12_4141_22222" fill="white">
<path d="M198.008 124.49C198.083 124.392 198.157 124.293 198.235 124.197C198.157 124.296 198.083 124.394 198.008 124.49Z"/>
</mask>
<path d="M198.008 124.49L197.925 124.428L198.09 124.554L198.008 124.49ZM198.235 124.197L198.317 124.261L198.154 124.132L198.235 124.197ZM198.091 124.553C198.166 124.454 198.239 124.357 198.316 124.262L198.154 124.132C198.075 124.229 197.999 124.329 197.925 124.428L198.091 124.553ZM198.153 124.133C198.076 124.231 197.999 124.333 197.926 124.427L198.09 124.554C198.167 124.456 198.239 124.36 198.317 124.261L198.153 124.133Z" fill="black" mask="url(#path-68-inside-12_4141_22222)"/>
<path d="M198.492 123.887C198.572 123.791 198.65 123.692 198.733 123.596" stroke="black" stroke-width="0.104"/>
<mask id="path-71-inside-13_4141_22222" fill="white">
<path d="M191.217 139.165C191.193 139.051 191.172 138.936 191.15 138.824C191.172 138.939 191.193 139.053 191.217 139.165Z"/>
</mask>
<path d="M191.217 139.165L191.115 139.187L191.319 139.144L191.217 139.165ZM191.15 138.824L191.253 138.804L191.048 138.843L191.15 138.824ZM191.319 139.144C191.295 139.031 191.274 138.917 191.253 138.804L191.048 138.843C191.069 138.955 191.091 139.071 191.115 139.187L191.319 139.144ZM191.048 138.843C191.069 138.957 191.091 139.074 191.115 139.187L191.319 139.144C191.295 139.033 191.274 138.92 191.253 138.805L191.048 138.843Z" fill="black" mask="url(#path-71-inside-13_4141_22222)"/>
<mask id="path-73-inside-14_4141_22222" fill="white">
<path d="M190.865 136.368C190.86 136.253 190.86 136.138 190.857 136.024C190.857 136.138 190.863 136.253 190.865 136.368Z"/>
</mask>
<path d="M190.865 136.368L190.762 136.373L190.969 136.366L190.865 136.368ZM190.857 136.024L190.961 136.021L190.753 136.024H190.857ZM190.969 136.363C190.964 136.25 190.964 136.139 190.961 136.021L190.753 136.026C190.756 136.137 190.756 136.257 190.762 136.373L190.969 136.363ZM190.753 136.024C190.753 136.14 190.759 136.259 190.761 136.37L190.969 136.366C190.967 136.247 190.961 136.137 190.961 136.024H190.753Z" fill="black" mask="url(#path-73-inside-14_4141_22222)"/>
<mask id="path-75-inside-15_4141_22222" fill="white">
<path d="M192.607 143.308C192.553 143.196 192.505 143.084 192.457 142.974C192.508 143.086 192.556 143.198 192.607 143.308Z"/>
</mask>
<path d="M192.607 143.308L192.513 143.353L192.701 143.264L192.607 143.308ZM192.457 142.974L192.552 142.931L192.362 143.016L192.457 142.974ZM192.7 143.263C192.648 143.153 192.601 143.043 192.552 142.932L192.362 143.016C192.409 143.124 192.458 143.239 192.513 143.353L192.7 143.263ZM192.362 143.017C192.411 143.126 192.462 143.242 192.512 143.352L192.701 143.264C192.65 143.155 192.604 143.047 192.552 142.931L192.362 143.017Z" fill="black" mask="url(#path-75-inside-15_4141_22222)"/>
<mask id="path-77-inside-16_4141_22222" fill="white">
<path d="M191.783 141.25C191.745 141.138 191.71 141.026 191.676 140.911C191.71 141.023 191.745 141.135 191.783 141.25Z"/>
</mask>
<path d="M191.783 141.25L191.684 141.283L191.881 141.218L191.783 141.25ZM191.676 140.911L191.775 140.88L191.576 140.941L191.676 140.911ZM191.881 141.217C191.844 141.106 191.81 140.995 191.775 140.881L191.576 140.941C191.611 141.056 191.646 141.169 191.684 141.283L191.881 141.217ZM191.576 140.942C191.611 141.054 191.646 141.166 191.684 141.282L191.881 141.218C191.844 141.104 191.81 140.992 191.775 140.88L191.576 140.942Z" fill="black" mask="url(#path-77-inside-16_4141_22222)"/>
<mask id="path-79-inside-17_4141_22222" fill="white">
<path d="M291.345 136.507C291.34 136.624 291.332 136.742 291.326 136.859C291.334 136.742 291.342 136.624 291.345 136.507Z"/>
</mask>
<path d="M291.345 136.507L291.449 136.509L291.241 136.502L291.345 136.507ZM291.326 136.859L291.222 136.854L291.43 136.866L291.326 136.859ZM291.241 136.502C291.238 136.56 291.235 136.618 291.232 136.677C291.228 136.736 291.225 136.795 291.222 136.854L291.43 136.864C291.433 136.806 291.436 136.748 291.439 136.689C291.443 136.63 291.446 136.571 291.449 136.511L291.241 136.502ZM291.43 136.866C291.438 136.749 291.446 136.629 291.449 136.509L291.241 136.504C291.238 136.619 291.23 136.734 291.222 136.852L291.43 136.866Z" fill="black" mask="url(#path-79-inside-17_4141_22222)"/>
<mask id="path-81-inside-18_4141_22222" fill="white">
<path d="M291.302 137.203C291.292 137.321 291.281 137.438 291.268 137.556C291.278 137.438 291.292 137.321 291.302 137.203Z"/>
</mask>
<path d="M291.268 137.556L291.164 137.546L291.371 137.568L291.268 137.556ZM291.199 137.194C291.188 137.312 291.177 137.428 291.164 137.544L291.371 137.568C291.384 137.449 291.395 137.33 291.406 137.213L291.199 137.194ZM291.371 137.565C291.376 137.507 291.382 137.449 291.388 137.39C291.394 137.332 291.4 137.272 291.406 137.213L291.199 137.194C291.193 137.252 291.187 137.31 291.181 137.369C291.175 137.428 291.169 137.487 291.164 137.546L291.371 137.565Z" fill="black" mask="url(#path-81-inside-18_4141_22222)"/>
<mask id="path-83-inside-19_4141_22222" fill="white">
<path d="M291.234 137.898C291.22 138.015 291.202 138.132 291.186 138.253C291.202 138.135 291.22 138.018 291.234 137.898Z"/>
</mask>
<path d="M291.234 137.898L291.337 137.909L291.13 137.886L291.234 137.898ZM291.186 138.253L291.082 138.239L291.289 138.267L291.186 138.253ZM291.13 137.886C291.117 138.002 291.099 138.115 291.082 138.239L291.289 138.266C291.304 138.15 291.323 138.028 291.337 137.909L291.13 137.886ZM291.289 138.267C291.304 138.152 291.323 138.031 291.337 137.909L291.13 137.886C291.117 138.005 291.099 138.118 291.083 138.239L291.289 138.267Z" fill="black" mask="url(#path-83-inside-19_4141_22222)"/>
<mask id="path-85-inside-20_4141_22222" fill="white">
<path d="M277.667 155.789C277.374 155.97 277.072 156.147 276.768 156.325C277.072 156.149 277.371 155.97 277.667 155.789Z"/>
</mask>
<path d="M277.667 155.789L277.722 155.877L277.613 155.7L277.667 155.789ZM276.768 156.325L276.715 156.236L276.82 156.415L276.768 156.325ZM277.613 155.7C277.32 155.881 277.02 156.057 276.715 156.236L276.82 156.415C277.124 156.236 277.427 156.06 277.722 155.877L277.613 155.7ZM276.82 156.415C277.125 156.239 277.425 156.059 277.722 155.878L277.613 155.7C277.317 155.881 277.019 156.06 276.715 156.235L276.82 156.415Z" fill="black" mask="url(#path-85-inside-20_4141_22222)"/>
<path d="M199.002 123.286C199.085 123.19 199.167 123.094 199.253 122.998" stroke="black" stroke-width="0.104"/>
<mask id="path-88-inside-21_4141_22222" fill="white">
<path d="M288.258 134.815C288.266 134.927 288.274 135.039 288.277 135.151C288.271 135.039 288.263 134.927 288.258 134.815Z"/>
</mask>
<path d="M288.258 134.815L288.362 134.807L288.154 134.82L288.258 134.815ZM288.277 135.151L288.173 135.156L288.38 135.148L288.277 135.151ZM288.154 134.822C288.162 134.935 288.17 135.044 288.173 135.153L288.38 135.148C288.378 135.033 288.37 134.919 288.362 134.807L288.154 134.822ZM288.38 135.146C288.378 135.089 288.374 135.033 288.371 134.977C288.368 134.92 288.364 134.865 288.362 134.81L288.154 134.82C288.157 134.876 288.16 134.933 288.163 134.989C288.167 135.045 288.17 135.101 288.173 135.156L288.38 135.146Z" fill="black" mask="url(#path-88-inside-21_4141_22222)"/>
<mask id="path-90-inside-22_4141_22222" fill="white">
<path d="M288.205 134.155C288.216 134.267 288.229 134.377 288.24 134.489C288.232 134.377 288.218 134.267 288.205 134.155Z"/>
</mask>
<path d="M288.205 134.155L288.308 134.143L288.102 134.165L288.205 134.155ZM288.24 134.489L288.136 134.499L288.344 134.482L288.24 134.489ZM288.102 134.165C288.107 134.222 288.113 134.278 288.119 134.333C288.125 134.389 288.131 134.444 288.136 134.499L288.343 134.479C288.338 134.422 288.332 134.366 288.326 134.311C288.32 134.255 288.314 134.201 288.309 134.146L288.102 134.165ZM288.344 134.482C288.335 134.367 288.322 134.255 288.308 134.143L288.102 134.168C288.115 134.28 288.128 134.387 288.136 134.496L288.344 134.482Z" fill="black" mask="url(#path-90-inside-22_4141_22222)"/>
<mask id="path-92-inside-23_4141_22222" fill="white">
<path d="M288.287 135.471C288.287 135.583 288.292 135.695 288.292 135.807C288.292 135.695 288.29 135.583 288.287 135.471Z"/>
</mask>
<path d="M288.287 135.471L288.391 135.469L288.183 135.471H288.287ZM288.183 135.471C288.183 135.529 288.184 135.586 288.186 135.642C288.187 135.698 288.188 135.753 288.188 135.807H288.396C288.396 135.75 288.395 135.693 288.394 135.637C288.392 135.581 288.391 135.526 288.391 135.471H288.183ZM288.396 135.807C288.396 135.694 288.394 135.581 288.391 135.469L288.183 135.474C288.186 135.586 288.188 135.697 288.188 135.807H288.396Z" fill="black" mask="url(#path-92-inside-23_4141_22222)"/>
<path d="M288.123 133.496C288.139 133.608 288.158 133.72 288.171 133.832" stroke="black" stroke-width="0.104"/>
<path d="M193.996 134.033C194.007 133.926 194.017 133.819 194.031 133.712" stroke="black" stroke-width="0.104"/>
<mask id="path-96-inside-24_4141_22222" fill="white">
<path d="M193.943 134.687C193.949 134.58 193.954 134.473 193.965 134.366C193.957 134.473 193.951 134.58 193.943 134.687Z"/>
</mask>
<path d="M193.943 134.687L193.839 134.681L194.047 134.694L193.943 134.687ZM193.965 134.366L194.068 134.374L193.861 134.356L193.965 134.366ZM194.047 134.692C194.053 134.585 194.058 134.48 194.068 134.377L193.861 134.356C193.85 134.466 193.845 134.575 193.839 134.681L194.047 134.692ZM193.861 134.358C193.857 134.413 193.854 134.467 193.85 134.52C193.847 134.573 193.844 134.626 193.84 134.679L194.047 134.694C194.051 134.64 194.055 134.586 194.058 134.533C194.061 134.479 194.064 134.427 194.068 134.374L193.861 134.358Z" fill="black" mask="url(#path-96-inside-24_4141_22222)"/>
<mask id="path-98-inside-25_4141_22222" fill="white">
<path d="M193.916 135.34C193.916 135.234 193.919 135.127 193.924 135.017C193.919 135.124 193.919 135.231 193.916 135.34Z"/>
</mask>
<path d="M193.916 135.34H193.812L194.02 135.343L193.916 135.34ZM193.924 135.017L194.028 135.022L193.82 135.012L193.924 135.017ZM194.02 135.34C194.02 135.235 194.023 135.13 194.028 135.022L193.82 135.012C193.815 135.123 193.812 135.232 193.812 135.34H194.02ZM193.82 135.012C193.815 135.121 193.815 135.232 193.812 135.338L194.02 135.343C194.023 135.23 194.023 135.128 194.028 135.023L193.82 135.012Z" fill="black" mask="url(#path-98-inside-25_4141_22222)"/>
<mask id="path-100-inside-26_4141_22222" fill="white">
<path d="M287.873 132.188C287.9 132.3 287.926 132.41 287.948 132.522C287.924 132.41 287.897 132.3 287.873 132.188Z"/>
</mask>
<path d="M287.873 132.188L287.974 132.164L287.771 132.21L287.873 132.188ZM287.948 132.522L287.846 132.544L288.05 132.502L287.948 132.522ZM287.772 132.212C287.799 132.325 287.825 132.432 287.846 132.541L288.05 132.502C288.028 132.387 288.001 132.275 287.974 132.164L287.772 132.212ZM288.049 132.5C288.037 132.443 288.024 132.387 288.012 132.332C287.999 132.276 287.987 132.222 287.975 132.166L287.771 132.21C287.784 132.267 287.796 132.323 287.809 132.378C287.822 132.434 287.834 132.488 287.846 132.544L288.049 132.5Z" fill="black" mask="url(#path-100-inside-26_4141_22222)"/>
<path d="M287.053 129.586C287.098 129.698 287.144 129.807 287.186 129.919" stroke="black" stroke-width="0.104"/>
<path d="M287.299 130.234C287.339 130.344 287.379 130.456 287.416 130.565" stroke="black" stroke-width="0.104"/>
<path d="M288.01 132.839C288.031 132.951 288.052 133.064 288.071 133.176" stroke="black" stroke-width="0.104"/>
<mask id="path-105-inside-27_4141_22222" fill="white">
<path d="M286.781 128.94C286.829 129.049 286.88 129.161 286.928 129.271C286.88 129.159 286.829 129.049 286.781 128.94Z"/>
</mask>
<path d="M286.928 129.271L286.833 129.313L287.024 129.23L286.928 129.271ZM286.686 128.982C286.71 129.037 286.735 129.092 286.76 129.148C286.784 129.203 286.809 129.258 286.833 129.313L287.023 129.229C286.999 129.174 286.974 129.118 286.95 129.063C286.925 129.007 286.9 128.952 286.876 128.898L286.686 128.982ZM287.024 129.23C286.976 129.118 286.923 129.004 286.876 128.898L286.686 128.982C286.736 129.094 286.784 129.199 286.833 129.312L287.024 129.23Z" fill="black" mask="url(#path-105-inside-27_4141_22222)"/>
<mask id="path-107-inside-28_4141_22222" fill="white">
<path d="M194.076 133.381C194.092 133.275 194.106 133.165 194.124 133.058C194.106 133.165 194.092 133.272 194.076 133.381Z"/>
</mask>
<path d="M194.076 133.381L193.973 133.366L194.179 133.397L194.076 133.381ZM194.179 133.397C194.196 133.286 194.208 133.182 194.227 133.076L194.022 133.04C194.003 133.149 193.989 133.263 193.973 133.366L194.179 133.397ZM194.022 133.04C194.003 133.149 193.989 133.26 193.973 133.366L194.179 133.396C194.196 133.284 194.208 133.181 194.227 133.076L194.022 133.04Z" fill="black" mask="url(#path-107-inside-28_4141_22222)"/>
<path d="M287.518 130.883C287.552 130.995 287.59 131.104 287.622 131.217" stroke="black" stroke-width="0.104"/>
<path d="M287.711 131.534C287.74 131.644 287.772 131.756 287.799 131.865" stroke="black" stroke-width="0.104"/>
<path d="M195.385 128.857C195.43 128.753 195.476 128.649 195.524 128.545" stroke="black" stroke-width="0.104"/>
<mask id="path-112-inside-29_4141_22222" fill="white">
<path d="M195.998 127.592C196.054 127.488 196.108 127.384 196.164 127.282C196.108 127.386 196.054 127.49 195.998 127.592Z"/>
</mask>
<path d="M195.998 127.592L195.906 127.543L196.089 127.642L195.998 127.592ZM196.164 127.282L196.255 127.332L196.073 127.232L196.164 127.282ZM196.09 127.641C196.147 127.534 196.199 127.434 196.255 127.333L196.073 127.232C196.016 127.333 195.961 127.441 195.906 127.543L196.09 127.641ZM196.072 127.233C196.014 127.34 195.963 127.44 195.907 127.542L196.089 127.642C196.145 127.541 196.201 127.433 196.255 127.332L196.072 127.233Z" fill="black" mask="url(#path-112-inside-29_4141_22222)"/>
<path d="M196.723 126.337C196.787 126.236 196.848 126.135 196.912 126.033" stroke="black" stroke-width="0.104"/>
<path d="M196.348 126.962C196.406 126.861 196.465 126.756 196.527 126.655" stroke="black" stroke-width="0.104"/>
<path d="M197.125 125.716C197.192 125.617 197.259 125.515 197.328 125.417" stroke="black" stroke-width="0.104"/>
<mask id="path-117-inside-30_4141_22222" fill="white">
<path d="M197.768 124.803C197.696 124.902 197.624 125 197.555 125.099C197.627 125 197.696 124.902 197.768 124.803Z"/>
</mask>
<path d="M197.555 125.099L197.47 125.039L197.639 125.16L197.555 125.099ZM197.684 124.741C197.612 124.84 197.54 124.94 197.47 125.039L197.64 125.159C197.709 125.061 197.78 124.963 197.852 124.864L197.684 124.741ZM197.639 125.16C197.675 125.111 197.711 125.061 197.746 125.011C197.781 124.962 197.817 124.913 197.852 124.864L197.684 124.741C197.648 124.791 197.612 124.841 197.577 124.89C197.542 124.94 197.506 124.989 197.471 125.038L197.639 125.16Z" fill="black" mask="url(#path-117-inside-30_4141_22222)"/>
<mask id="path-119-inside-31_4141_22222" fill="white">
<path d="M194.477 131.427C194.506 131.321 194.533 131.217 194.562 131.11C194.533 131.214 194.503 131.321 194.477 131.427Z"/>
</mask>
<path d="M194.477 131.427L194.376 131.402L194.577 131.455L194.477 131.427ZM194.562 131.11L194.662 131.137L194.462 131.082L194.562 131.11ZM194.577 131.455C194.592 131.401 194.606 131.348 194.62 131.295C194.634 131.243 194.648 131.19 194.662 131.137L194.462 131.082C194.447 131.136 194.433 131.189 194.419 131.242C194.405 131.295 194.391 131.347 194.376 131.4L194.577 131.455ZM194.462 131.082C194.432 131.186 194.403 131.294 194.376 131.402L194.577 131.453C194.604 131.347 194.633 131.242 194.662 131.138L194.462 131.082Z" fill="black" mask="url(#path-119-inside-31_4141_22222)"/>
<mask id="path-121-inside-32_4141_22222" fill="white">
<path d="M194.664 130.782C194.696 130.675 194.728 130.571 194.763 130.464C194.728 130.568 194.696 130.675 194.664 130.782Z"/>
</mask>
<path d="M194.763 130.464L194.862 130.496L194.664 130.431L194.763 130.464ZM194.764 130.811C194.796 130.705 194.827 130.602 194.862 130.496L194.664 130.432C194.629 130.54 194.597 130.644 194.564 130.752L194.764 130.811ZM194.664 130.431C194.629 130.537 194.596 130.645 194.564 130.752L194.764 130.811C194.796 130.704 194.827 130.599 194.862 130.497L194.664 130.431Z" fill="black" mask="url(#path-121-inside-32_4141_22222)"/>
<mask id="path-123-inside-33_4141_22222" fill="white">
<path d="M194.184 132.73C194.202 132.623 194.221 132.517 194.245 132.41C194.224 132.517 194.205 132.623 194.184 132.73Z"/>
</mask>
<path d="M194.184 132.73L194.081 132.712L194.286 132.75L194.184 132.73ZM194.245 132.41L194.347 132.43L194.144 132.387L194.245 132.41ZM194.286 132.748C194.305 132.641 194.323 132.537 194.346 132.433L194.144 132.387C194.119 132.497 194.1 132.606 194.081 132.712L194.286 132.748ZM194.143 132.389C194.132 132.443 194.122 132.497 194.112 132.551C194.102 132.604 194.092 132.657 194.082 132.71L194.286 132.75C194.296 132.696 194.307 132.642 194.317 132.589C194.327 132.536 194.336 132.483 194.347 132.43L194.143 132.389Z" fill="black" mask="url(#path-123-inside-33_4141_22222)"/>
<mask id="path-125-inside-34_4141_22222" fill="white">
<path d="M199.539 122.694C199.627 122.598 199.713 122.505 199.803 122.408C199.713 122.502 199.627 122.598 199.539 122.694Z"/>
</mask>
<path d="M199.803 122.408L199.879 122.48L199.729 122.336L199.803 122.408ZM199.616 122.764C199.704 122.668 199.789 122.575 199.879 122.48L199.728 122.337C199.636 122.434 199.55 122.528 199.462 122.624L199.616 122.764ZM199.729 122.336C199.637 122.431 199.549 122.529 199.462 122.624L199.616 122.764C199.705 122.667 199.789 122.573 199.878 122.481L199.729 122.336Z" fill="black" mask="url(#path-125-inside-34_4141_22222)"/>
<path d="M194.877 130.136C194.914 130.032 194.949 129.927 194.989 129.823" stroke="black" stroke-width="0.104"/>
<path d="M286.482 128.302C286.536 128.411 286.592 128.521 286.643 128.63" stroke="black" stroke-width="0.104"/>
<mask id="path-129-inside-35_4141_22222" fill="white">
<path d="M195.117 129.495C195.157 129.391 195.2 129.287 195.243 129.183C195.2 129.287 195.16 129.391 195.117 129.495Z"/>
</mask>
<path d="M195.117 129.495L195.02 129.458L195.213 129.535L195.117 129.495ZM195.214 129.532C195.254 129.43 195.296 129.327 195.339 129.222L195.146 129.143C195.104 129.247 195.061 129.352 195.02 129.458L195.214 129.532ZM195.146 129.143C195.125 129.196 195.104 129.249 195.083 129.3C195.063 129.353 195.042 129.404 195.021 129.456L195.213 129.535C195.235 129.482 195.256 129.429 195.277 129.377C195.297 129.325 195.318 129.274 195.339 129.222L195.146 129.143Z" fill="black" mask="url(#path-129-inside-35_4141_22222)"/>
<path d="M195.678 128.224C195.728 128.12 195.777 128.016 195.83 127.912" stroke="black" stroke-width="0.104"/>
<path d="M194.316 132.076C194.34 131.969 194.362 131.865 194.388 131.759" stroke="black" stroke-width="0.104"/>
<path d="M274.379 116.408C274.667 116.576 274.953 116.744 275.233 116.915" stroke="black" stroke-width="0.104"/>
<mask id="path-134-inside-36_4141_22222" fill="white">
<path d="M204.836 118.167C204.943 118.092 205.05 118.018 205.156 117.943C205.047 118.018 204.943 118.092 204.836 118.167Z"/>
</mask>
<path d="M205.156 117.943L205.216 118.028L205.098 117.857L205.156 117.943ZM204.896 118.252C204.949 118.215 205.002 118.178 205.056 118.14C205.109 118.103 205.163 118.066 205.216 118.028L205.097 117.858C205.043 117.895 204.99 117.932 204.937 117.97C204.883 118.007 204.83 118.045 204.776 118.082L204.896 118.252ZM205.098 117.857C204.988 117.932 204.882 118.008 204.776 118.082L204.896 118.252C205.004 118.177 205.106 118.103 205.215 118.029L205.098 117.857Z" fill="black" mask="url(#path-134-inside-36_4141_22222)"/>
<path d="M205.645 117.623C205.746 117.556 205.845 117.489 205.946 117.422" stroke="black" stroke-width="0.104"/>
<mask id="path-137-inside-37_4141_22222" fill="white">
<path d="M206.516 117.067C206.598 117.017 206.681 116.963 206.767 116.91C206.681 116.961 206.601 117.014 206.516 117.067Z"/>
</mask>
<path d="M206.516 117.067L206.461 116.979L206.57 117.156L206.516 117.067ZM206.767 116.91L206.822 116.998L206.714 116.821L206.767 116.91ZM206.57 117.156C206.653 117.105 206.738 117.05 206.822 116.998L206.712 116.822C206.624 116.876 206.544 116.928 206.461 116.979L206.57 117.156ZM206.714 116.821C206.627 116.872 206.542 116.928 206.461 116.979L206.571 117.156C206.66 117.1 206.735 117.05 206.82 116.999L206.714 116.821Z" fill="black" mask="url(#path-137-inside-37_4141_22222)"/>
<mask id="path-139-inside-38_4141_22222" fill="white">
<path d="M277.191 118.181C277.341 118.282 277.49 118.386 277.637 118.487C277.49 118.383 277.341 118.282 277.191 118.181Z"/>
</mask>
<path d="M277.637 118.487L277.578 118.573L277.697 118.403L277.637 118.487ZM277.133 118.267C277.282 118.368 277.431 118.471 277.578 118.573L277.696 118.402C277.55 118.301 277.4 118.196 277.25 118.094L277.133 118.267ZM277.697 118.403C277.55 118.298 277.399 118.196 277.25 118.094L277.133 118.267C277.283 118.368 277.431 118.469 277.577 118.572L277.697 118.403Z" fill="black" mask="url(#path-139-inside-38_4141_22222)"/>
<mask id="path-141-inside-39_4141_22222" fill="white">
<path d="M275.51 117.084C275.697 117.198 275.881 117.313 276.062 117.428C275.881 117.313 275.694 117.198 275.51 117.084Z"/>
</mask>
<path d="M275.51 117.084L275.564 116.995L275.455 117.172L275.51 117.084ZM275.455 117.172C275.642 117.287 275.826 117.401 276.007 117.516L276.118 117.34C275.936 117.225 275.751 117.11 275.564 116.995L275.455 117.172ZM276.118 117.34C275.936 117.225 275.748 117.11 275.565 116.995L275.455 117.172C275.64 117.287 275.826 117.401 276.007 117.516L276.118 117.34Z" fill="black" mask="url(#path-141-inside-39_4141_22222)"/>
<mask id="path-143-inside-40_4141_22222" fill="white">
<path d="M276.406 117.655C276.558 117.753 276.713 117.855 276.863 117.954C276.713 117.852 276.558 117.753 276.406 117.655Z"/>
</mask>
<path d="M276.863 117.954L276.806 118.04L276.921 117.868L276.863 117.954ZM276.35 117.742C276.502 117.841 276.656 117.942 276.806 118.04L276.92 117.867C276.77 117.768 276.615 117.666 276.463 117.567L276.35 117.742ZM276.921 117.868C276.771 117.765 276.614 117.666 276.463 117.567L276.35 117.742C276.503 117.841 276.656 117.939 276.804 118.04L276.921 117.868Z" fill="black" mask="url(#path-143-inside-40_4141_22222)"/>
<mask id="path-145-inside-41_4141_22222" fill="white">
<path d="M203.33 119.267C203.44 119.184 203.546 119.099 203.656 119.016C203.544 119.099 203.437 119.184 203.33 119.267Z"/>
</mask>
<path d="M203.33 119.267L203.266 119.185L203.393 119.35L203.33 119.267ZM203.656 119.016L203.719 119.099L203.594 118.932L203.656 119.016ZM203.393 119.35C203.448 119.308 203.503 119.266 203.557 119.224C203.611 119.181 203.664 119.14 203.719 119.099L203.593 118.933C203.538 118.975 203.483 119.017 203.429 119.059C203.375 119.101 203.321 119.143 203.267 119.184L203.393 119.35ZM203.594 118.932C203.481 119.016 203.372 119.103 203.266 119.185L203.394 119.349C203.502 119.265 203.607 119.181 203.718 119.1L203.594 118.932Z" fill="black" mask="url(#path-145-inside-41_4141_22222)"/>
<path d="M204.074 118.709C204.181 118.631 204.285 118.554 204.392 118.477" stroke="black" stroke-width="0.104"/>
<path d="M286.156 127.667C286.215 127.776 286.274 127.886 286.33 127.995" stroke="black" stroke-width="0.104"/>
<mask id="path-149-inside-42_4141_22222" fill="white">
<path d="M200.1 122.107C200.193 122.013 200.284 121.917 200.377 121.824C200.281 121.917 200.19 122.011 200.1 122.107Z"/>
</mask>
<path d="M200.1 122.107L200.024 122.035L200.173 122.18L200.1 122.107ZM200.377 121.824L200.451 121.898L200.305 121.749L200.377 121.824ZM200.173 122.18C200.22 122.133 200.267 122.085 200.313 122.038C200.359 121.99 200.405 121.944 200.451 121.898L200.304 121.75C200.256 121.798 200.21 121.846 200.164 121.893C200.118 121.94 200.072 121.987 200.026 122.033L200.173 122.18ZM200.305 121.749C200.207 121.844 200.115 121.939 200.024 122.035L200.175 122.178C200.265 122.083 200.355 121.991 200.45 121.899L200.305 121.749Z" fill="black" mask="url(#path-149-inside-42_4141_22222)"/>
<mask id="path-151-inside-43_4141_22222" fill="white">
<path d="M200.697 121.52C200.791 121.429 200.884 121.338 200.98 121.25C200.884 121.341 200.791 121.432 200.697 121.52Z"/>
</mask>
<path d="M200.697 121.52L200.625 121.445L200.769 121.595L200.697 121.52ZM200.98 121.25L201.052 121.326L200.91 121.173L200.98 121.25ZM200.77 121.594C200.863 121.503 200.956 121.414 201.051 121.327L200.91 121.173C200.813 121.263 200.718 121.354 200.625 121.445L200.77 121.594ZM200.909 121.174C200.861 121.22 200.813 121.266 200.766 121.311C200.719 121.356 200.672 121.4 200.626 121.444L200.769 121.595C200.816 121.551 200.863 121.506 200.91 121.461C200.957 121.416 201.004 121.371 201.052 121.326L200.909 121.174Z" fill="black" mask="url(#path-151-inside-43_4141_22222)"/>
<mask id="path-153-inside-44_4141_22222" fill="white">
<path d="M277.959 118.722C278.1 118.824 278.245 118.928 278.384 119.029C278.245 118.925 278.1 118.824 277.959 118.722Z"/>
</mask>
<path d="M278.384 119.029L278.322 119.113L278.446 118.946L278.384 119.029ZM277.898 118.807C278.04 118.908 278.184 119.012 278.322 119.113L278.445 118.945C278.306 118.844 278.161 118.739 278.02 118.638L277.898 118.807ZM278.446 118.946C278.306 118.841 278.16 118.738 278.02 118.638L277.898 118.807C278.041 118.909 278.183 119.009 278.321 119.112L278.446 118.946Z" fill="black" mask="url(#path-153-inside-44_4141_22222)"/>
<path d="M201.967 120.372C202.066 120.286 202.164 120.201 202.266 120.116" stroke="black" stroke-width="0.104"/>
<mask id="path-156-inside-45_4141_22222" fill="white">
<path d="M202.631 119.819C202.738 119.734 202.842 119.646 202.949 119.56C202.842 119.646 202.738 119.731 202.631 119.819Z"/>
</mask>
<path d="M202.631 119.819L202.565 119.739L202.696 119.901L202.631 119.819ZM202.696 119.901C202.75 119.857 202.803 119.814 202.856 119.77C202.909 119.727 202.961 119.684 203.014 119.642L202.884 119.479C202.83 119.522 202.776 119.566 202.724 119.61C202.671 119.653 202.619 119.696 202.566 119.738L202.696 119.901ZM202.884 119.479C202.776 119.565 202.672 119.651 202.565 119.739L202.697 119.9C202.804 119.812 202.907 119.727 203.014 119.642L202.884 119.479Z" fill="black" mask="url(#path-156-inside-45_4141_22222)"/>
<mask id="path-158-inside-46_4141_22222" fill="white">
<path d="M201.32 120.94C201.416 120.852 201.51 120.767 201.609 120.679C201.51 120.764 201.416 120.852 201.32 120.94Z"/>
</mask>
<path d="M201.609 120.679L201.678 120.756L201.541 120.6L201.609 120.679ZM201.391 121.017C201.487 120.929 201.58 120.844 201.678 120.756L201.539 120.601C201.44 120.69 201.346 120.776 201.25 120.864L201.391 121.017ZM201.541 120.6C201.44 120.687 201.345 120.777 201.25 120.864L201.391 121.017C201.488 120.928 201.579 120.842 201.677 120.758L201.541 120.6Z" fill="black" mask="url(#path-158-inside-46_4141_22222)"/>
<path d="M284.111 124.544C284.194 124.651 284.28 124.757 284.36 124.864" stroke="black" stroke-width="0.104"/>
<mask id="path-161-inside-47_4141_22222" fill="white">
<path d="M285.801 127.031C285.865 127.141 285.929 127.247 285.99 127.357C285.929 127.247 285.865 127.138 285.801 127.031Z"/>
</mask>
<path d="M285.801 127.031L285.89 126.978L285.711 127.084L285.801 127.031ZM285.711 127.084C285.776 127.195 285.839 127.299 285.9 127.408L286.081 127.306C286.019 127.195 285.954 127.087 285.891 126.979L285.711 127.084ZM286.081 127.306C286.019 127.195 285.954 127.085 285.89 126.978L285.712 127.085C285.775 127.191 285.839 127.299 285.9 127.408L286.081 127.306Z" fill="black" mask="url(#path-161-inside-47_4141_22222)"/>
<mask id="path-163-inside-48_4141_22222" fill="white">
<path d="M284.576 125.16C284.654 125.267 284.731 125.371 284.806 125.478C284.731 125.371 284.651 125.264 284.576 125.16Z"/>
</mask>
<path d="M284.576 125.16L284.66 125.099L284.492 125.221L284.576 125.16ZM284.492 125.221C284.57 125.329 284.647 125.432 284.721 125.538L284.891 125.418C284.816 125.311 284.737 125.205 284.66 125.099L284.492 125.221ZM284.891 125.418C284.816 125.311 284.733 125.201 284.661 125.1L284.492 125.221C284.569 125.328 284.646 125.431 284.721 125.538L284.891 125.418Z" fill="black" mask="url(#path-163-inside-48_4141_22222)"/>
<mask id="path-165-inside-49_4141_22222" fill="white">
<path d="M283.619 123.932C283.707 124.039 283.798 124.143 283.883 124.253C283.798 124.146 283.707 124.039 283.619 123.932Z"/>
</mask>
<path d="M283.883 124.253L283.802 124.318L283.965 124.189L283.883 124.253ZM283.539 123.999C283.63 124.108 283.717 124.209 283.802 124.317L283.965 124.189C283.879 124.078 283.785 123.97 283.699 123.866L283.539 123.999ZM283.965 124.188C283.879 124.08 283.786 123.971 283.699 123.866L283.539 123.999C283.628 124.107 283.717 124.212 283.802 124.318L283.965 124.188Z" fill="black" mask="url(#path-165-inside-49_4141_22222)"/>
<mask id="path-167-inside-50_4141_22222" fill="white">
<path d="M278.709 119.283C278.84 119.382 278.973 119.483 279.101 119.584C278.973 119.483 278.84 119.384 278.709 119.283Z"/>
</mask>
<path d="M278.709 119.283L278.772 119.2L278.645 119.365L278.709 119.283ZM278.646 119.366C278.777 119.465 278.91 119.565 279.037 119.666L279.166 119.503C279.037 119.401 278.903 119.299 278.772 119.2L278.646 119.366ZM279.166 119.503C279.038 119.402 278.9 119.299 278.773 119.201L278.645 119.365C278.779 119.469 278.908 119.564 279.037 119.666L279.166 119.503Z" fill="black" mask="url(#path-167-inside-50_4141_22222)"/>
<mask id="path-169-inside-51_4141_22222" fill="white">
<path d="M285.418 126.401C285.487 126.511 285.557 126.62 285.624 126.727C285.557 126.618 285.487 126.508 285.418 126.401Z"/>
</mask>
<path d="M285.418 126.401L285.505 126.345L285.33 126.457L285.418 126.401ZM285.624 126.727L285.535 126.782L285.712 126.673L285.624 126.727ZM285.33 126.457C285.4 126.567 285.469 126.676 285.535 126.782L285.712 126.672C285.645 126.565 285.575 126.455 285.506 126.346L285.33 126.457ZM285.712 126.673C285.645 126.563 285.575 126.452 285.505 126.345L285.331 126.458C285.4 126.564 285.469 126.673 285.535 126.781L285.712 126.673Z" fill="black" mask="url(#path-169-inside-51_4141_22222)"/>
<path d="M285.012 125.78C285.084 125.886 285.159 125.993 285.228 126.1" stroke="black" stroke-width="0.104"/>
<mask id="path-172-inside-52_4141_22222" fill="white">
<path d="M283.102 123.329C283.195 123.433 283.288 123.54 283.379 123.647C283.288 123.54 283.195 123.436 283.102 123.329Z"/>
</mask>
<path d="M283.102 123.329L283.179 123.26L283.023 123.398L283.102 123.329ZM283.024 123.399C283.117 123.502 283.21 123.608 283.3 123.714L283.458 123.579C283.367 123.472 283.273 123.364 283.179 123.26L283.024 123.399ZM283.458 123.579C283.367 123.472 283.272 123.366 283.18 123.261L283.023 123.398C283.118 123.506 283.21 123.608 283.3 123.714L283.458 123.579Z" fill="black" mask="url(#path-172-inside-52_4141_22222)"/>
<mask id="path-174-inside-53_4141_22222" fill="white">
<path d="M280.102 120.401C280.222 120.503 280.342 120.604 280.459 120.708C280.342 120.607 280.222 120.505 280.102 120.401Z"/>
</mask>
<path d="M280.102 120.401L280.169 120.322L280.033 120.48L280.102 120.401ZM280.459 120.708L280.391 120.787L280.528 120.63L280.459 120.708ZM280.034 120.481C280.155 120.582 280.274 120.683 280.39 120.786L280.528 120.63C280.41 120.525 280.289 120.423 280.169 120.322L280.034 120.481ZM280.527 120.629C280.407 120.526 280.291 120.428 280.17 120.323L280.033 120.48C280.152 120.583 280.277 120.688 280.391 120.787L280.527 120.629Z" fill="black" mask="url(#path-174-inside-53_4141_22222)"/>
<mask id="path-176-inside-54_4141_22222" fill="white">
<path d="M282.561 122.734C282.657 122.838 282.755 122.94 282.852 123.044C282.758 122.94 282.659 122.836 282.561 122.734Z"/>
</mask>
<path d="M282.561 122.734L282.635 122.662L282.484 122.805L282.561 122.734ZM282.852 123.044L282.775 123.114L282.929 122.974L282.852 123.044ZM282.484 122.805C282.533 122.857 282.582 122.909 282.631 122.96C282.679 123.012 282.728 123.063 282.775 123.114L282.928 122.973C282.879 122.921 282.83 122.869 282.782 122.817C282.733 122.766 282.684 122.715 282.637 122.664L282.484 122.805ZM282.929 122.974C282.834 122.869 282.734 122.764 282.635 122.662L282.486 122.807C282.584 122.907 282.682 123.011 282.774 123.113L282.929 122.974Z" fill="black" mask="url(#path-176-inside-54_4141_22222)"/>
<path d="M279.42 119.838C279.545 119.939 279.674 120.041 279.796 120.142" stroke="black" stroke-width="0.104"/>
<path d="M280.756 120.972C280.871 121.077 280.988 121.178 281.1 121.282" stroke="black" stroke-width="0.104"/>
<mask id="path-180-inside-55_4141_22222" fill="white">
<path d="M281.988 122.141C282.09 122.245 282.194 122.347 282.295 122.451C282.197 122.347 282.092 122.245 281.988 122.141Z"/>
</mask>
<path d="M281.988 122.141L282.062 122.068L281.914 122.214L281.988 122.141ZM282.295 122.451L282.221 122.524L282.371 122.379L282.295 122.451ZM281.914 122.214C281.965 122.267 282.017 122.318 282.068 122.37C282.12 122.421 282.171 122.472 282.221 122.524L282.37 122.378C282.319 122.326 282.267 122.274 282.215 122.223C282.164 122.171 282.113 122.12 282.063 122.069L281.914 122.214ZM282.371 122.379C282.271 122.274 282.165 122.171 282.062 122.068L281.915 122.215C282.02 122.32 282.122 122.42 282.22 122.523L282.371 122.379Z" fill="black" mask="url(#path-180-inside-55_4141_22222)"/>
<path d="M281.385 121.552C281.494 121.656 281.604 121.757 281.711 121.861" stroke="black" stroke-width="0.104"/>
<path d="M197.328 125.416C197.258 125.515 197.191 125.617 197.125 125.715C197.053 125.822 196.981 125.926 196.911 126.033C196.847 126.134 196.786 126.236 196.722 126.337C196.655 126.444 196.588 126.548 196.524 126.655C196.463 126.756 196.404 126.86 196.345 126.962C196.284 127.069 196.222 127.173 196.163 127.28C196.107 127.384 196.054 127.488 195.998 127.589C195.942 127.696 195.883 127.803 195.83 127.909C195.776 128.014 195.728 128.118 195.678 128.222C195.627 128.329 195.573 128.435 195.523 128.542C195.475 128.646 195.429 128.75 195.384 128.854C195.336 128.964 195.288 129.071 195.242 129.18C195.2 129.284 195.16 129.388 195.117 129.492C195.074 129.602 195.029 129.711 194.989 129.821C194.949 129.925 194.914 130.029 194.876 130.133C194.836 130.242 194.796 130.352 194.762 130.461C194.727 130.565 194.695 130.672 194.663 130.779C194.628 130.888 194.593 130.998 194.561 131.107C194.532 131.211 194.503 131.318 194.476 131.425C194.447 131.534 194.415 131.646 194.388 131.756C194.361 131.862 194.34 131.967 194.316 132.073C194.292 132.183 194.265 132.295 194.241 132.404C194.22 132.511 194.201 132.618 194.18 132.725C194.158 132.834 194.137 132.943 194.121 133.056C194.102 133.162 194.089 133.269 194.073 133.379C194.057 133.488 194.041 133.597 194.027 133.71C194.014 133.816 194.003 133.923 193.993 134.03C193.982 134.142 193.969 134.251 193.961 134.363C193.953 134.47 193.947 134.577 193.939 134.684C193.931 134.796 193.926 134.905 193.921 135.017C193.915 135.124 193.915 135.231 193.913 135.34C193.905 135.695 193.907 136.05 193.923 136.403C194.262 129.703 198.818 123.07 207.599 117.967C225.946 107.309 255.899 107.306 274.368 117.967C283.315 123.129 287.948 129.861 288.263 136.643C288.276 136.363 288.287 136.085 288.287 135.805C288.287 135.693 288.285 135.581 288.282 135.469C288.282 135.362 288.279 135.252 288.274 135.146C288.268 135.033 288.26 134.921 288.255 134.809C288.247 134.702 288.242 134.593 288.234 134.486C288.226 134.374 288.212 134.265 288.199 134.153C288.188 134.046 288.178 133.936 288.164 133.83C288.151 133.718 288.132 133.605 288.116 133.493C288.1 133.387 288.087 133.28 288.068 133.173C288.05 133.061 288.028 132.949 288.007 132.837C287.988 132.73 287.967 132.623 287.945 132.519C287.921 132.407 287.895 132.298 287.871 132.185C287.847 132.079 287.823 131.972 287.796 131.865C287.769 131.756 287.737 131.644 287.708 131.534C287.678 131.427 287.652 131.321 287.62 131.214C287.588 131.102 287.55 130.992 287.516 130.88C287.483 130.773 287.449 130.669 287.414 130.563C287.377 130.453 287.337 130.341 287.297 130.232C287.259 130.128 287.222 130.021 287.182 129.917C287.139 129.805 287.094 129.695 287.048 129.583C287.006 129.479 286.965 129.375 286.923 129.271C286.875 129.159 286.824 129.049 286.776 128.94C286.73 128.836 286.685 128.734 286.637 128.63C286.586 128.521 286.53 128.411 286.477 128.302C286.426 128.198 286.378 128.096 286.325 127.992C286.269 127.883 286.21 127.773 286.151 127.664C286.095 127.562 286.042 127.458 285.986 127.357C285.924 127.248 285.86 127.138 285.796 127.031C285.737 126.93 285.678 126.828 285.62 126.727C285.553 126.618 285.484 126.508 285.414 126.401C285.35 126.303 285.289 126.201 285.225 126.102C285.155 125.996 285.08 125.889 285.008 125.782C284.942 125.681 284.875 125.582 284.803 125.481C284.728 125.374 284.648 125.267 284.573 125.163C284.501 125.064 284.429 124.963 284.357 124.864C284.277 124.757 284.191 124.65 284.108 124.544C284.034 124.448 283.959 124.349 283.882 124.253C283.796 124.146 283.705 124.039 283.617 123.932C283.537 123.836 283.46 123.74 283.38 123.644C283.289 123.537 283.195 123.433 283.102 123.327C283.019 123.23 282.936 123.137 282.851 123.041C282.757 122.937 282.659 122.833 282.56 122.731C282.472 122.638 282.384 122.542 282.293 122.448C282.194 122.344 282.09 122.243 281.986 122.139C281.892 122.045 281.802 121.952 281.708 121.861C281.601 121.757 281.492 121.656 281.382 121.552C281.286 121.461 281.193 121.37 281.097 121.279C280.984 121.175 280.867 121.074 280.752 120.97C280.653 120.882 280.557 120.794 280.458 120.705C280.341 120.604 280.221 120.503 280.101 120.398C279.999 120.31 279.898 120.225 279.794 120.137C279.671 120.035 279.543 119.934 279.417 119.833C279.31 119.747 279.209 119.662 279.102 119.579C278.974 119.478 278.84 119.379 278.71 119.277C278.6 119.195 278.493 119.109 278.381 119.027C278.242 118.922 278.098 118.821 277.957 118.72C277.85 118.642 277.743 118.562 277.633 118.485C277.487 118.381 277.337 118.279 277.188 118.178C277.078 118.103 276.971 118.026 276.859 117.951C276.71 117.849 276.555 117.751 276.403 117.652C276.288 117.577 276.176 117.502 276.058 117.428C275.877 117.313 275.69 117.198 275.505 117.083C275.415 117.027 275.324 116.969 275.233 116.913C274.953 116.742 274.667 116.574 274.379 116.405C255.91 105.745 225.956 105.747 207.61 116.405C207.324 116.571 207.044 116.739 206.766 116.907C206.681 116.958 206.601 117.011 206.515 117.065C206.326 117.182 206.134 117.302 205.947 117.42C205.845 117.486 205.746 117.553 205.645 117.62C205.482 117.727 205.317 117.833 205.159 117.94C205.05 118.015 204.945 118.09 204.839 118.164C204.692 118.266 204.542 118.37 204.395 118.471C204.289 118.549 204.184 118.626 204.078 118.704C203.939 118.805 203.797 118.906 203.658 119.011C203.546 119.093 203.439 119.179 203.333 119.261C203.205 119.36 203.076 119.456 202.951 119.558C202.844 119.643 202.74 119.729 202.633 119.817C202.51 119.915 202.387 120.014 202.267 120.116C202.166 120.201 202.067 120.286 201.968 120.372C201.848 120.473 201.728 120.575 201.61 120.679C201.512 120.764 201.418 120.852 201.322 120.94C201.207 121.044 201.092 121.146 200.98 121.25C200.884 121.341 200.791 121.431 200.697 121.52C200.59 121.621 200.484 121.722 200.38 121.824C200.283 121.917 200.193 122.011 200.102 122.107C200.003 122.208 199.902 122.307 199.805 122.408C199.715 122.502 199.629 122.598 199.541 122.694C199.445 122.795 199.349 122.897 199.258 123.001C199.173 123.097 199.09 123.193 199.007 123.289C198.916 123.393 198.826 123.495 198.737 123.599C198.655 123.695 198.577 123.794 198.497 123.89C198.412 123.994 198.326 124.095 198.243 124.199C198.166 124.298 198.091 124.397 198.017 124.493C197.936 124.597 197.854 124.701 197.776 124.805C197.704 124.904 197.632 125.003 197.563 125.102C197.488 125.206 197.41 125.312 197.336 125.416H197.328Z" fill="#FFE092"/>
<path d="M276.542 115.151C256.871 103.799 224.98 103.802 205.437 115.151C195.697 120.81 190.84 128.233 190.848 135.666C190.848 135.784 190.85 135.904 190.856 136.021C190.858 136.136 190.858 136.251 190.864 136.365C190.872 136.483 190.88 136.603 190.888 136.72C190.896 136.835 190.898 136.95 190.912 137.065C190.922 137.182 190.936 137.302 190.946 137.42C190.957 137.535 190.97 137.649 190.984 137.764C191 137.882 191.019 138.002 191.035 138.119C191.053 138.234 191.069 138.349 191.088 138.463C191.107 138.581 191.131 138.701 191.152 138.818C191.171 138.933 191.195 139.045 191.216 139.16C191.24 139.277 191.27 139.398 191.296 139.515C191.323 139.63 191.347 139.742 191.376 139.857C191.403 139.974 191.438 140.094 191.472 140.212C191.502 140.324 191.531 140.439 191.563 140.548C191.598 140.665 191.635 140.786 191.675 140.903C191.71 141.015 191.745 141.13 191.782 141.239C191.82 141.357 191.862 141.472 191.905 141.592C191.948 141.704 191.985 141.819 192.028 141.928C192.073 142.045 192.119 142.163 192.167 142.28C192.212 142.392 192.257 142.502 192.306 142.617C192.356 142.731 192.41 142.846 192.458 142.964C192.508 143.076 192.557 143.185 192.61 143.297C192.663 143.415 192.722 143.532 192.778 143.647C192.832 143.759 192.885 143.868 192.938 143.981C193 144.095 193.061 144.21 193.125 144.325C193.184 144.437 193.24 144.546 193.301 144.653C193.366 144.768 193.435 144.883 193.502 144.997C193.566 145.104 193.627 145.216 193.694 145.326C193.763 145.441 193.836 145.553 193.908 145.667C193.977 145.774 194.041 145.886 194.113 145.993C194.185 146.108 194.265 146.22 194.343 146.335C194.415 146.441 194.484 146.548 194.562 146.655C194.642 146.767 194.727 146.882 194.807 146.991C194.885 147.098 194.96 147.205 195.042 147.309C195.128 147.424 195.216 147.536 195.304 147.651C195.384 147.755 195.464 147.856 195.55 147.96C195.638 148.075 195.734 148.187 195.825 148.297C195.913 148.401 195.998 148.502 196.081 148.606C196.18 148.718 196.281 148.828 196.375 148.94C196.466 149.044 196.554 149.145 196.647 149.247C196.746 149.359 196.853 149.468 196.957 149.58C197.053 149.679 197.144 149.781 197.24 149.879C197.347 149.991 197.459 150.101 197.568 150.213C197.664 150.312 197.761 150.408 197.859 150.507C197.971 150.613 198.086 150.72 198.201 150.832C198.305 150.928 198.407 151.027 198.511 151.123C198.628 151.235 198.751 151.342 198.871 151.449C198.978 151.545 199.082 151.641 199.189 151.737C199.315 151.849 199.445 151.956 199.576 152.065C199.683 152.156 199.79 152.25 199.897 152.338C200.027 152.45 200.161 152.551 200.294 152.658C200.409 152.749 200.521 152.842 200.636 152.933C200.77 153.04 200.911 153.144 201.05 153.25C201.168 153.339 201.285 153.429 201.403 153.517C201.544 153.624 201.691 153.728 201.835 153.835C201.958 153.92 202.075 154.009 202.198 154.094C202.345 154.198 202.492 154.299 202.641 154.404C202.767 154.489 202.89 154.577 203.021 154.665C203.181 154.772 203.346 154.876 203.507 154.983C203.629 155.063 203.747 155.143 203.87 155.223C204.073 155.348 204.276 155.477 204.484 155.602C204.572 155.661 204.66 155.714 204.751 155.77C205.05 155.949 205.357 156.131 205.661 156.309C225.329 167.661 257.224 167.661 276.766 156.309C277.073 156.133 277.372 155.954 277.666 155.773C277.757 155.714 277.845 155.658 277.938 155.599C278.141 155.474 278.341 155.351 278.536 155.223C278.648 155.154 278.755 155.082 278.862 155.009C279.036 154.895 279.212 154.783 279.38 154.668C279.498 154.588 279.615 154.502 279.733 154.422C279.885 154.315 280.042 154.211 280.192 154.105C280.309 154.019 280.424 153.931 280.542 153.848C280.688 153.742 280.835 153.638 280.979 153.531C281.094 153.443 281.209 153.355 281.324 153.267C281.457 153.16 281.599 153.056 281.732 152.949C281.847 152.858 281.962 152.762 282.077 152.669C282.202 152.565 282.333 152.463 282.459 152.359C282.571 152.263 282.678 152.172 282.784 152.076C282.91 151.972 283.033 151.865 283.156 151.758C283.262 151.668 283.361 151.572 283.465 151.478C283.588 151.366 283.711 151.259 283.826 151.15C283.93 151.059 284.026 150.963 284.125 150.867C284.24 150.755 284.354 150.648 284.469 150.539C284.565 150.443 284.662 150.344 284.758 150.248C284.864 150.136 284.977 150.029 285.083 149.919C285.174 149.821 285.268 149.719 285.358 149.62C285.463 149.508 285.564 149.399 285.665 149.292C285.756 149.188 285.842 149.089 285.93 148.991C286.029 148.878 286.13 148.769 286.221 148.657C286.309 148.553 286.394 148.451 286.477 148.347C286.568 148.235 286.661 148.128 286.75 148.019C286.83 147.915 286.91 147.808 286.99 147.704C287.075 147.592 287.163 147.482 287.246 147.37C287.324 147.264 287.398 147.159 287.473 147.055C287.553 146.941 287.639 146.829 287.719 146.714C287.791 146.61 287.86 146.503 287.932 146.396C288.01 146.284 288.085 146.169 288.159 146.06C288.229 145.953 288.293 145.841 288.362 145.734C288.432 145.622 288.504 145.507 288.573 145.398C288.637 145.286 288.699 145.179 288.76 145.07C288.824 144.957 288.894 144.843 288.955 144.733C289.016 144.621 289.073 144.514 289.131 144.405C289.193 144.29 289.254 144.175 289.31 144.061C289.369 143.954 289.417 143.842 289.47 143.732C289.529 143.618 289.585 143.503 289.636 143.388C289.689 143.276 289.735 143.166 289.785 143.054C289.836 142.94 289.89 142.825 289.935 142.71C289.986 142.598 290.026 142.488 290.068 142.376C290.114 142.262 290.165 142.144 290.207 142.027C290.25 141.915 290.287 141.8 290.325 141.69C290.368 141.576 290.41 141.458 290.448 141.341C290.485 141.229 290.52 141.114 290.554 141.004C290.589 140.887 290.627 140.772 290.661 140.652C290.691 140.54 290.723 140.425 290.752 140.316C290.781 140.198 290.813 140.084 290.843 139.963C290.87 139.851 290.894 139.737 290.92 139.627C290.947 139.51 290.974 139.39 291 139.275C291.024 139.16 291.043 139.045 291.062 138.933C291.086 138.813 291.107 138.696 291.126 138.578C291.145 138.466 291.161 138.351 291.177 138.242C291.193 138.124 291.211 138.004 291.227 137.887C291.238 137.772 291.251 137.66 291.262 137.545C291.273 137.428 291.289 137.308 291.297 137.19C291.305 137.078 291.313 136.963 291.321 136.849C291.329 136.731 291.337 136.611 291.339 136.496C291.342 136.381 291.342 136.267 291.347 136.152C291.494 128.556 286.557 120.924 276.536 115.14L276.542 115.151ZM288.274 136.64C287.93 143.337 283.375 149.967 274.598 155.068C256.249 165.726 226.299 165.731 207.829 155.068C198.887 149.906 194.249 143.18 193.932 136.403C193.916 136.048 193.913 135.695 193.921 135.338C193.924 135.231 193.924 135.124 193.929 135.018C193.932 134.905 193.94 134.796 193.948 134.684C193.956 134.577 193.958 134.47 193.966 134.364C193.977 134.251 193.99 134.142 194.001 134.03C194.009 133.923 194.02 133.816 194.03 133.712C194.046 133.6 194.06 133.491 194.076 133.379C194.092 133.272 194.105 133.165 194.127 133.056C194.143 132.944 194.164 132.837 194.185 132.727C194.204 132.621 194.223 132.514 194.247 132.407C194.271 132.295 194.297 132.186 194.319 132.079C194.343 131.972 194.364 131.865 194.391 131.761C194.418 131.649 194.45 131.54 194.479 131.428C194.506 131.323 194.532 131.217 194.564 131.11C194.599 131.003 194.634 130.891 194.669 130.782C194.698 130.677 194.733 130.571 194.767 130.467C194.802 130.355 194.845 130.248 194.882 130.138C194.917 130.034 194.954 129.927 194.994 129.823C195.037 129.711 195.08 129.604 195.125 129.495C195.163 129.391 195.205 129.29 195.248 129.185C195.293 129.073 195.344 128.967 195.389 128.86C195.435 128.756 195.48 128.649 195.528 128.545C195.579 128.438 195.632 128.331 195.686 128.225C195.737 128.12 195.785 128.019 195.838 127.915C195.891 127.808 195.95 127.701 196.006 127.595C196.06 127.491 196.113 127.389 196.172 127.285C196.231 127.178 196.295 127.074 196.356 126.967C196.415 126.863 196.471 126.762 196.532 126.658C196.596 126.554 196.666 126.447 196.733 126.34C196.794 126.241 196.855 126.137 196.919 126.038C196.989 125.932 197.061 125.828 197.133 125.721C197.197 125.622 197.267 125.521 197.336 125.422C197.408 125.315 197.486 125.211 197.563 125.104C197.635 125.008 197.704 124.909 197.777 124.811C197.854 124.707 197.937 124.6 198.017 124.496C198.089 124.4 198.166 124.301 198.244 124.202C198.329 124.098 198.412 123.997 198.5 123.892C198.578 123.796 198.658 123.698 198.738 123.602C198.826 123.497 198.917 123.396 199.01 123.292C199.096 123.196 199.176 123.1 199.264 123.004C199.355 122.905 199.451 122.801 199.547 122.702C199.635 122.606 199.72 122.51 199.811 122.414C199.907 122.315 200.011 122.214 200.11 122.112C200.201 122.021 200.289 121.925 200.385 121.832C200.489 121.728 200.599 121.629 200.703 121.525C200.799 121.437 200.89 121.346 200.986 121.253C201.098 121.149 201.216 121.05 201.328 120.946C201.424 120.858 201.52 120.77 201.619 120.684C201.734 120.58 201.856 120.479 201.974 120.375C202.073 120.289 202.169 120.206 202.273 120.121C202.39 120.017 202.519 119.921 202.641 119.822C202.746 119.734 202.847 119.649 202.957 119.56C203.082 119.464 203.213 119.366 203.338 119.267C203.451 119.187 203.557 119.099 203.667 119.019C203.8 118.915 203.942 118.813 204.083 118.712C204.19 118.634 204.294 118.554 204.401 118.479C204.548 118.375 204.695 118.274 204.842 118.172C204.948 118.095 205.055 118.023 205.162 117.946C205.322 117.839 205.488 117.732 205.648 117.625C205.752 117.561 205.851 117.495 205.955 117.425C206.139 117.308 206.332 117.188 206.521 117.07C206.607 117.019 206.687 116.966 206.769 116.913C207.044 116.745 207.328 116.576 207.613 116.411C225.962 105.753 255.913 105.753 274.384 116.411C274.673 116.579 274.958 116.747 275.239 116.915C275.33 116.974 275.418 117.03 275.511 117.089C275.698 117.204 275.882 117.318 276.066 117.433C276.181 117.505 276.296 117.583 276.408 117.66C276.56 117.759 276.718 117.86 276.868 117.959C276.98 118.036 277.086 118.108 277.196 118.186C277.345 118.29 277.495 118.391 277.639 118.495C277.751 118.573 277.853 118.648 277.96 118.728C278.101 118.826 278.248 118.931 278.384 119.035C278.496 119.12 278.603 119.203 278.713 119.288C278.843 119.387 278.974 119.488 279.102 119.587C279.209 119.673 279.313 119.755 279.417 119.843C279.543 119.942 279.674 120.044 279.797 120.145C279.901 120.233 280 120.318 280.104 120.404C280.221 120.508 280.344 120.607 280.459 120.711C280.563 120.799 280.659 120.887 280.753 120.975C280.867 121.079 280.987 121.181 281.097 121.285C281.193 121.373 281.289 121.464 281.385 121.557C281.492 121.661 281.604 121.76 281.711 121.867C281.802 121.957 281.895 122.051 281.986 122.142C282.09 122.246 282.192 122.347 282.293 122.451C282.384 122.547 282.469 122.638 282.56 122.734C282.656 122.838 282.755 122.94 282.849 123.044C282.937 123.14 283.017 123.236 283.102 123.332C283.193 123.436 283.289 123.537 283.383 123.647C283.463 123.743 283.54 123.839 283.62 123.935C283.708 124.042 283.799 124.149 283.885 124.253C283.962 124.352 284.037 124.448 284.111 124.546C284.197 124.653 284.28 124.757 284.36 124.864C284.437 124.963 284.507 125.064 284.579 125.163C284.656 125.27 284.736 125.374 284.808 125.481C284.878 125.579 284.947 125.683 285.014 125.782C285.086 125.889 285.161 125.996 285.228 126.103C285.292 126.201 285.353 126.303 285.42 126.401C285.489 126.508 285.559 126.62 285.623 126.727C285.684 126.831 285.74 126.93 285.802 127.034C285.863 127.141 285.927 127.248 285.989 127.36C286.047 127.464 286.101 127.565 286.154 127.667C286.216 127.779 286.272 127.886 286.33 127.995C286.384 128.099 286.429 128.201 286.483 128.302C286.536 128.414 286.589 128.523 286.64 128.636C286.691 128.74 286.736 128.841 286.782 128.945C286.832 129.052 286.88 129.164 286.928 129.274C286.974 129.378 287.014 129.484 287.054 129.588C287.099 129.701 287.145 129.81 287.187 129.922C287.225 130.026 287.26 130.133 287.3 130.237C287.342 130.349 287.38 130.459 287.417 130.571C287.452 130.675 287.486 130.782 287.516 130.888C287.551 131 287.588 131.107 287.62 131.217C287.655 131.323 287.681 131.43 287.708 131.537C287.737 131.649 287.77 131.758 287.799 131.871C287.826 131.977 287.85 132.081 287.871 132.188C287.898 132.3 287.924 132.415 287.948 132.525C287.972 132.629 287.991 132.735 288.01 132.842C288.029 132.954 288.053 133.064 288.071 133.178C288.09 133.285 288.101 133.392 288.117 133.496C288.135 133.611 288.151 133.723 288.167 133.832C288.178 133.939 288.191 134.046 288.202 134.158C288.213 134.27 288.226 134.38 288.237 134.492C288.245 134.598 288.253 134.705 288.261 134.812C288.263 134.927 288.277 135.039 288.28 135.148C288.282 135.255 288.282 135.362 288.288 135.471C288.29 135.583 288.29 135.698 288.296 135.808C288.296 136.088 288.285 136.363 288.272 136.643L288.274 136.64Z" fill="#7C5C22"/>
</g>
<path d="M111.934 270.167C111.934 270.167 130.597 267.883 130.597 291.249C130.597 291.249 130.597 269.73 150.308 270.106C150.308 270.106 133.35 270.817 130.597 248.21C130.597 248.21 131.123 269.73 111.934 270.167Z" fill="white" stroke="black" stroke-width="0.325" stroke-miterlimit="10"/>
<path d="M304.107 173.511C304.107 173.511 316.7 171.969 316.7 187.734C316.7 187.734 316.7 173.216 329.999 173.468C329.999 173.468 318.558 173.948 316.7 158.695C316.7 158.695 317.055 173.213 304.107 173.507V173.511Z" fill="white" stroke="black" stroke-width="0.325" stroke-miterlimit="10"/>
<path d="M180.137 118.839C180.137 118.839 186.112 118.107 186.112 125.588C186.112 125.588 186.112 118.697 192.424 118.818C192.424 118.818 186.992 119.045 186.112 111.806C186.112 111.806 186.278 118.697 180.137 118.835V118.839Z" fill="white" stroke="black" stroke-width="0.325" stroke-miterlimit="10"/>
<defs>
<clipPath id="clip0_4141_22222">
<rect width="220" height="126" fill="white" transform="translate(81 102)"/>
</clipPath>
</defs>
</svg>
