<svg xmlns="http://www.w3.org/2000/svg" fill="none" viewBox="0 0 1200 1200"><path fill="#D6D6D6" d="M584.7 1107.34c138.16 0 250.16-13.43 250.16-29.99s-112-29.99-250.16-29.99-250.16 13.43-250.16 29.99 112 29.99 250.16 29.99"/><path fill="#59B8AA" stroke="#000" stroke-miterlimit="10" d="M416.69 443.38c14.188 0 25.69-11.502 25.69-25.69S430.878 392 416.69 392 391 403.502 391 417.69s11.502 25.69 25.69 25.69Z"/><path fill="#000" d="M402.312 418.917c-3.561-5.087-5.117-11.551-4.579-17.775-4.174 4.488-6.733 10.473-6.733 17.087 0 13.884 11.267 25.151 25.152 25.151 9.501 0 17.745-5.282 22.009-13.047-12.718 3.441-28.623-1.077-35.849-11.416"/><path fill="#fff" d="M427.418 415.401c5.454 0 9.876-4.422 9.876-9.875s-4.422-9.875-9.876-9.875-9.875 4.421-9.875 9.875 4.422 9.875 9.875 9.875"/><path fill="#59B8AA" stroke="#000" stroke-miterlimit="10" d="M738.29 964.58c7.34 0 13.29-5.95 13.29-13.29S745.63 938 738.29 938 725 943.95 725 951.29s5.95 13.29 13.29 13.29Z"/><path fill="#000" d="M730.852 951.925c-1.842-2.632-2.647-5.976-2.369-9.196a12.93 12.93 0 0 0-3.483 8.84c0 7.183 5.829 13.011 13.012 13.011 4.915 0 9.18-2.732 11.385-6.75-6.579 1.781-14.807-.557-18.545-5.905"/><path fill="#fff" d="M743.84 950.106a5.109 5.109 0 1 0 .001-10.217 5.109 5.109 0 0 0-.001 10.217"/><path fill="#F3B443" stroke="#000" stroke-miterlimit="10" d="M755.53 267.06c6.368 0 11.53-5.162 11.53-11.53S761.898 244 755.53 244 744 249.162 744 255.53s5.162 11.53 11.53 11.53Z"/><path fill="#000" d="M749.077 256.081c-1.598-2.284-2.297-5.185-2.055-7.978a11.21 11.21 0 0 0-3.022 7.669c0 6.231 5.057 11.288 11.288 11.288 4.265 0 7.965-2.371 9.879-5.856-5.708 1.545-12.847-.483-16.09-5.123"/><path fill="#fff" d="M760.345 254.503a4.433 4.433 0 1 0-.001-8.865 4.433 4.433 0 0 0 .001 8.865"/><path stroke="#000" stroke-miterlimit="10" d="M250.41 396v22.82M261.83 407.41H239M839.41 326v22.82M850.82 337.41H828"/><path fill="#F3B443" stroke="#000" stroke-miterlimit="10" d="M278.88 620.76c6.561 0 11.88-5.319 11.88-11.88S285.441 597 278.88 597 267 602.319 267 608.88s5.319 11.88 11.88 11.88Z"/><path fill="#113D38" d="M847.36 806.007C843.32 805.437 837 825 791.5 854c0 0-22.5-74-15.5-105.5s71.36 57.507 71.36 57.507" opacity=".48"/><path fill="#F3B443" stroke="#000" stroke-miterlimit="10" d="M851.21 836.42c42.09 0 76.21-34.12 76.21-76.21S893.3 684 851.21 684 775 718.12 775 760.21s34.12 76.21 76.21 76.21Z"/><path fill="#FFDB7F" stroke="#000" stroke-miterlimit="10" d="m907.12 752.49-76.76-48.41-37.34 63.05c-4.1 6.97 10.09 22.91 31.68 35.6 21.59 12.7 42.42 17.34 46.51 10.37.19-.32.33-.67.44-1.03l.13.07 35.34-59.67z"/><path fill="#CC963E" stroke="#000" stroke-miterlimit="10" d="M907.401 751.191c4.097-6.97-10.084-22.91-31.676-35.603s-42.417-17.333-46.514-10.362 10.084 22.91 31.675 35.603 42.417 17.332 46.515 10.362Z"/><path fill="#FFDB7F" stroke="#000" stroke-miterlimit="10" d="M891.57 688.95c-13.31-7.88-30.54-3.47-38.42 9.84l-8.41 14.2a5.595 5.595 0 0 0 1.32 8.54c2.66 1.58 6.09.7 7.67-1.96l8.96-15.13c4.77-8.05 15.19-10.72 23.24-5.95s10.72 15.19 5.95 23.24l-8.41 14.2a5.595 5.595 0 0 0 1.32 8.54c2.66 1.58 6.09.7 7.67-1.96l8.96-15.13c7.88-13.31 3.47-30.54-9.84-38.42z"/><g fill="#fff" opacity=".15"><path d="M834.26 807.86c-24.52-15.37-24.77-68.56-24.77-68.56l16.97-28.66c-3.49 62.31 30.23 105.7 30.23 105.7-5.49.01-22.43-8.48-22.43-8.48M883.43 792.47c-19.07-20.25-19.88-50.11-19.88-50.11v-.01l24.55 11.58c-1.74 7.42 5.58 21.24 5.58 21.24z"/></g><path fill="#fff" d="M898.38 712.4c-.11-7.96-5.2-15.75-12.6-18.83-.94-.39-1.61-1.23-1.31-2.31.25-.89 1.37-1.7 2.31-1.31 8.99 3.74 15.22 12.66 15.35 22.45.03 2.42-3.72 2.41-3.75 0M897.919 722.58c2.41 0 2.42-3.75 0-3.75s-2.42 3.75 0 3.75"/><path fill="#000" d="M848.95 769.42a7.74 7.74 0 0 0 7.74-7.74 7.74 7.74 0 1 0-7.74 7.74"/><path fill="#000" d="m845.04 761.25-12.26 15.94c-.57.75-.37 1.83.44 2.31l7.13 4.22c.79.47 1.82.16 2.22-.67l8.64-18.14z"/><path fill="#113D38" fill-rule="evenodd" d="M549.067 267.42c-4.742 11.88-10.208 23.156-16.6 33.627q-1.882.472-3.968.953c-7.926 2.365-60.999 7-95.499-36 17.999-10.5 26.999-14.5 26.999-14.5z" clip-rule="evenodd" opacity=".48"/><path fill="#FFDB7F" stroke="#000" stroke-miterlimit="10" d="M525.35 301.7c37.196 0 67.35-30.154 67.35-67.35S562.546 167 525.35 167c-37.197 0-67.35 30.154-67.35 67.35s30.153 67.35 67.35 67.35Z"/><path fill="#CC963E" d="M487.25 218.38c0 1.1.9 2 2 2s2-.9 2-2v-11.3c0-5.31 4.32-9.63 9.63-9.63h12.2c1.1 0 2-.9 2-2s-.9-2-2-2h-12.2c-7.52 0-13.63 6.12-13.63 13.63zM562.63 219.28c0 1.1.9 2 2 2s2-.9 2-2v-12.2c0-7.52-6.12-13.63-13.63-13.63h-11.3c-1.1 0-2 .9-2 2s.9 2 2 2H553c5.31 0 9.63 4.32 9.63 9.63zM553 271.68h-12.2c-1.1 0-2-.9-2-2s.9-2 2-2H553c5.31 0 9.63-4.32 9.63-9.62v-11.3c0-1.1.9-2 2-2s2 .9 2 2v11.3c0 7.51-6.11 13.62-13.63 13.62M500.88 271.68h11.3c1.1 0 2-.9 2-2s-.9-2-2-2h-11.3c-5.31 0-9.63-4.31-9.63-9.62v-12.2c0-1.1-.9-2-2-2s-2 .9-2 2v12.2c0 7.51 6.12 13.62 13.63 13.62M511.059 230.49c-1.1 0-2-.9-2-2v-9.22c0-1.1.9-2 2-2s2 .9 2 2v9.22c0 1.1-.9 2-2 2M539.7 228.49c0 1.1.9 2 2 2s2-.9 2-2v-9.22c0-1.1-.9-2-2-2s-2 .9-2 2zM523.43 240.72h-2.26c-1.1 0-2-.9-2-2s.9-2 2-2h2.26c.62 0 1.13-.51 1.13-1.13v-15.41c0-1.1.9-2 2-2s2 .9 2 2v15.41c0 2.83-2.3 5.13-5.13 5.13M522.459 256.56c.15.99 1 1.7 1.97 1.7l-.01-.01c.11 0 .21 0 .31-.02 13.48-2.06 18.63-15.32 18.84-15.88.39-1.03-.13-2.18-1.16-2.57s-2.19.13-2.58 1.16c-.04.11-4.57 11.63-15.7 13.34a2 2 0 0 0-1.67 2.28"/><path stroke="#000" stroke-miterlimit="10" d="M487.25 218.38c0 1.1.9 2 2 2s2-.9 2-2v-11.3c0-5.31 4.32-9.63 9.63-9.63h12.2c1.1 0 2-.9 2-2s-.9-2-2-2h-12.2c-7.52 0-13.63 6.12-13.63 13.63zM562.63 219.28c0 1.1.9 2 2 2s2-.9 2-2v-12.2c0-7.52-6.12-13.63-13.63-13.63h-11.3c-1.1 0-2 .9-2 2s.9 2 2 2H553c5.31 0 9.63 4.32 9.63 9.63zM553 271.68h-12.2c-1.1 0-2-.9-2-2s.9-2 2-2H553c5.31 0 9.63-4.32 9.63-9.62v-11.3c0-1.1.9-2 2-2s2 .9 2 2v11.3c0 7.51-6.11 13.62-13.63 13.62ZM500.88 271.68h11.3c1.1 0 2-.9 2-2s-.9-2-2-2h-11.3c-5.31 0-9.63-4.31-9.63-9.62v-12.2c0-1.1-.9-2-2-2s-2 .9-2 2v12.2c0 7.51 6.12 13.62 13.63 13.62ZM511.059 230.49c-1.1 0-2-.9-2-2v-9.22c0-1.1.9-2 2-2s2 .9 2 2v9.22c0 1.1-.9 2-2 2ZM539.7 228.49c0 1.1.9 2 2 2s2-.9 2-2v-9.22c0-1.1-.9-2-2-2s-2 .9-2 2zM523.43 240.72h-2.26c-1.1 0-2-.9-2-2s.9-2 2-2h2.26c.62 0 1.13-.51 1.13-1.13v-15.41c0-1.1.9-2 2-2s2 .9 2 2v15.41c0 2.83-2.3 5.13-5.13 5.13ZM522.459 256.56c.15.99 1 1.7 1.97 1.7l-.01-.01c.11 0 .21 0 .31-.02 13.48-2.06 18.63-15.32 18.84-15.88.39-1.03-.13-2.18-1.16-2.57s-2.19.13-2.58 1.16c-.04.11-4.57 11.63-15.7 13.34a2 2 0 0 0-1.67 2.28Z"/><g clip-path="url(#a)"><path fill="#7C5C22" stroke="#000" d="M823.306 456.497c-.015 3.703-1.347 7.406-4.011 10.837-5.952-7.594-17.427-11.772-25.976-13.733-14.492-3.31-30.061-2.111-43.749 3.778-4.477 1.924-8.812 4.359-12.205 7.851a22 22 0 0 0-1.723 2.006c-7.6-9.781-4.523-21.666 9.27-29.698 17.849-10.4 46.88-10.4 64.849 0 8.751 5.053 13.259 11.636 13.53 18.265.015.234.015.468.015.694Z"/><mask id="b" width="19" height="68" x="556" y="484" maskUnits="userSpaceOnUse" style="mask-type:luminance"><path fill="#fff" stroke="#fff" d="m556.755 506.813.06-22.043c-.045 14.804 5.583 29.615 16.863 43.25l-.06 22.043c-11.28-13.634-16.908-28.446-16.863-43.25Z"/></mask><g mask="url(#b)"><path fill="#B7830F" stroke="#000" d="m556.824 484.77-.06 22.043c-.045 14.797 5.583 29.616 16.863 43.25l.06-22.043c-11.279-13.635-16.908-28.446-16.863-43.25Z"/></g><path fill="#B7830F" stroke="#000" d="m596.975 542.711-.06 22.051-12.762-7.391.06-22.043z"/><path fill="#7C5C22" stroke="#000" d="M898.794 487.681c-.512 16.523-9.655 32.813-20.498 44.841-11.219 12.451-25.524 21.81-40.671 28.944-37.82 17.813-80.08 24.653-121.669 22.836-20.678-.921-41.334-3.899-61.297-9.42l-.061 22.044c0 1.847 26.495 5.769 29.091 6.176a292 292 0 0 0 31.289 3.16c41.341 1.931 84.315-4.276 121.841-22.383a192 192 0 0 0 10.783-5.633c13.094-7.391 25.404-16.516 34.84-28.235 6.788-8.424 12.025-18.235 14.636-28.771 2.845-11.485 1.693-23.77 1.731-35.505 0 .649 0 1.297-.023 1.953z"/><path fill="#D69C0B" stroke="#000" d="m654.66 574.875-.06 22.051-51.251 29.849.06-22.044z"/><path fill="#7C5C22" stroke="#000" d="m603.408 604.731-.06 22.044-58.626-7.315.06-22.052z"/><path fill="#D69C0B" stroke="#000" d="m544.783 597.408-.06 22.052-25.66 14.781.06-22.044zM524.826 648.766l-.06 22.043-14.199 8.273.06-22.044z"/><path fill="#7C5C22" stroke="#000" d="m510.627 657.038-.06 22.044-40.649 4.736.06-22.044z"/><path fill="#D69C0B" stroke="#000" d="m469.978 661.774-.061 22.044L438.697 702l.068-22.043z"/><path fill="#CA9F24" stroke="#000" d="m584.212 535.328-.06 22.043L290.586 728.35l.061-22.044z"/><path fill="#7C5C22" stroke="#000" d="M596.973 550.041 303.408 721.02l-12.762-7.383 293.565-170.979z"/><path fill="#B58E20" stroke="#000" d="m596.974 542.711-.06 22.051-293.566 170.979.06-22.051z"/><path fill="#D69C0B" stroke="#000" d="m440.948 698.192-.061 22.043L403.512 742l.06-22.044z"/><path fill="#7C5C22" stroke="#000" d="m403.572 719.956-.06 22.044h-89.35l.068-22.044z"/><path fill="#FFDB7F" stroke="#000" d="M848.334 415.08c-66.994-38.771-175.268-38.771-241.818-.008-52.47 30.558-63.351 76.07-32.823 112.955L279.066 699.61l11.581 6.696 293.566-170.978 12.769 7.39-293.58 170.979 10.828 6.267h89.342l37.376-21.765-2.182-18.235 31.212-18.182 40.65-4.736 14.191-8.265-5.696-36.576 25.66-14.789 58.633 7.323 51.252-29.857c63.66 17.609 142.001 11.131 194.456-19.419 66.565-38.755 66.211-101.62-.79-140.376zm14.801 68.8c-.971 18.921-13.808 37.654-38.542 52.066-51.71 30.113-136.116 30.128-188.166 0-25.2-14.585-38.271-33.59-39.166-52.737a44 44 0 0 1-.03-3.009c.007-.302.007-.603.022-.905.008-.317.03-.626.053-.943.023-.301.03-.603.053-.905.03-.317.067-.626.097-.942q.036-.455.083-.898c.045-.317.083-.626.128-.943.045-.301.083-.603.143-.912.045-.317.105-.618.166-.928.052-.301.105-.603.173-.905.067-.316.143-.626.203-.927.068-.302.128-.604.203-.898.075-.316.166-.626.248-.942.076-.294.151-.596.241-.898.098-.301.196-.618.294-.927.082-.294.18-.596.278-.89.098-.317.218-.619.324-.928.097-.294.203-.596.316-.89.12-.316.24-.618.368-.927.106-.294.226-.581.347-.875.127-.317.27-.619.398-.92.128-.294.256-.596.392-.89q.216-.453.444-.905c.143-.294.278-.581.429-.875.15-.301.316-.603.474-.905.15-.294.301-.58.466-.875.166-.301.346-.595.519-.897.166-.294.324-.581.497-.875.181-.294.376-.596.564-.897.173-.279.346-.573.527-.852.196-.302.399-.596.602-.898.181-.279.376-.565.572-.845.203-.301.421-.595.64-.897.203-.271.398-.55.602-.83.218-.294.451-.595.677-.889.203-.272.421-.551.639-.83.241-.294.474-.581.723-.875.218-.271.444-.55.669-.822.249-.294.505-.58.768-.875.241-.271.467-.543.715-.814.256-.279.527-.573.797-.852.249-.272.49-.543.745-.815.271-.279.565-.565.843-.852.256-.256.504-.528.775-.792.294-.294.602-.573.896-.867.271-.249.526-.505.797-.769.316-.294.648-.573.964-.867q.403-.375.82-.74c.323-.294.669-.58 1.001-.874.278-.242.549-.475.842-.717.331-.294.693-.565 1.039-.844.293-.249.579-.491.888-.739.353-.272.722-.551 1.076-.83.316-.226.617-.475.925-.701.377-.294.775-.581 1.174-.868.301-.218.595-.445.896-.656.413-.294.827-.58 1.241-.867.301-.219.602-.422.903-.641.452-.302.918-.603 1.37-.905.293-.181.572-.37.865-.566.519-.331 1.061-.671 1.595-1.003.241-.143.467-.294.7-.445.775-.475 1.573-.95 2.378-1.417 51.711-30.113 136.116-30.113 188.173 0q1.221.713 2.408 1.425c.256.166.504.324.768.49q.788.486 1.565.973c.323.204.647.422.963.641.429.279.873.566 1.294.845.316.218.617.422.926.641.421.294.843.58 1.249.875.316.218.602.429.903.656.399.279.813.573 1.196.867.316.241.617.475.926.716.369.279.737.566 1.098.845.301.241.595.475.888.724.354.279.723.566 1.069.852.293.249.572.49.865.732.331.294.677.573 1.001.867.294.249.564.498.828.746.323.295.662.581.971.875q.405.374.812.77c.301.294.617.573.918.874l.775.777c.294.294.58.581.866.875l.752.799c.271.294.549.581.813.875.248.272.474.543.715.815.255.294.526.58.79.889.225.272.444.543.669.815.249.302.505.603.745.897.219.279.429.551.64.83.241.302.474.596.7.897.218.279.414.566.617.845.218.302.444.596.647.897.196.279.391.574.579.853.204.301.414.603.602.905.181.279.354.565.542.844.196.302.391.619.572.92.173.294.331.573.504.867.173.302.354.604.527.921.166.294.316.58.467.867.173.317.331.618.496.927.151.295.279.581.429.868.151.316.301.626.444.942.143.294.271.581.399.875.143.302.278.619.414.928.128.294.24.596.353.89.128.316.256.626.377.942.105.294.203.596.316.89.12.317.225.626.331.943.098.294.195.596.278.897.098.317.203.619.294.928.097.302.173.603.248.905.083.317.173.626.256.943.075.301.143.595.203.897.075.317.15.641.218.95.068.294.121.596.173.898.053.316.121.626.173.95.053.301.083.603.128.897q.077.487.143.95c.03.302.068.604.098.921.03.316.068.625.098.942l.068.905c.007.324.045.641.052.95.008.302.008.604.023.913.007.317.007.641.022.95 0 .792-.03 1.569-.067 2.361z"/><path fill="#A5730F" stroke="#000" d="m303.408 713.69-.022 7.322-12.74-7.375v-7.33l-11.58-6.697-.061 22.043 11.581 6.697 12.762 7.391v-.377.377L314.161 742l.068-22.044z"/><path fill="#FFDB7F" d="M863.171 480.569c-.015-.309-.015-.611-.023-.912 0-.317-.045-.626-.052-.95l-.068-.913c-.03-.309-.06-.626-.098-.935a30 30 0 0 0-.233-1.878c-.045-.287-.075-.588-.128-.897-.06-.325-.12-.634-.173-.951-.06-.301-.113-.603-.173-.897a37 37 0 0 0-.218-.95c-.068-.302-.128-.596-.204-.898-.09-.316-.173-.626-.263-.942-.075-.302-.15-.604-.248-.905-.083-.317-.196-.619-.286-.935a30 30 0 0 0-.286-.898c-.105-.309-.211-.626-.331-.943-.113-.286-.203-.595-.316-.882-.121-.317-.249-.626-.377-.943-.12-.294-.225-.595-.353-.889-.136-.31-.271-.626-.414-.928-.128-.294-.256-.588-.399-.875-.143-.317-.293-.626-.444-.943-.15-.279-.278-.573-.429-.867-.165-.309-.323-.618-.496-.927-.151-.279-.301-.574-.467-.868-.173-.316-.354-.618-.527-.92l-.511-.867c-.181-.302-.377-.611-.572-.92-.181-.279-.354-.558-.535-.837a23 23 0 0 0-.609-.913c-.188-.279-.384-.573-.579-.852-.204-.301-.429-.596-.648-.897-.203-.287-.398-.566-.617-.845-.225-.302-.466-.596-.699-.897-.204-.287-.422-.551-.64-.837-.233-.287-.497-.596-.745-.898l-.67-.807c-.256-.301-.526-.596-.782-.89-.241-.271-.467-.543-.715-.807-.256-.294-.542-.588-.813-.882l-.752-.799c-.279-.294-.572-.581-.866-.875l-.775-.777c-.301-.302-.617-.588-.918-.875a38 38 0 0 0-.812-.769c-.309-.294-.648-.588-.971-.875a20 20 0 0 0-.828-.746c-.323-.294-.67-.581-1.001-.868-.293-.248-.579-.49-.865-.739-.346-.286-.715-.573-1.069-.852-.293-.249-.586-.49-.887-.724-.369-.279-.73-.565-1.099-.844-.316-.242-.617-.476-.933-.717-.384-.286-.798-.581-1.197-.867a37 37 0 0 0-.903-.656c-.413-.294-.835-.581-1.256-.875-.309-.219-.61-.422-.926-.641-.421-.279-.865-.558-1.294-.845-.316-.211-.64-.43-.963-.633-.519-.324-1.031-.649-1.565-.973a74 74 0 0 0-.768-.49c-.782-.475-1.595-.95-2.4-1.426-52.065-30.12-136.47-30.12-188.181 0-.798.46-1.595.943-2.37 1.418-.241.151-.467.302-.708.438-.534.339-1.076.671-1.595 1.01-.293.196-.572.377-.865.558-.452.309-.918.611-1.37.913-.301.218-.602.422-.903.633-.414.287-.835.581-1.241.868-.309.218-.595.444-.896.663a30 30 0 0 0-1.181.86c-.309.234-.617.483-.926.709-.353.279-.722.558-1.083.829-.301.249-.587.491-.881.739-.346.279-.7.551-1.038.845-.294.234-.565.475-.843.709-.331.294-.677.588-1.001.875-.278.241-.549.49-.82.739-.316.294-.647.573-.963.867-.271.256-.527.52-.798.769-.293.287-.602.573-.895.86-.271.264-.519.535-.775.792-.286.294-.572.573-.843.852-.263.272-.497.543-.745.814-.271.28-.542.574-.798.853-.248.271-.474.543-.714.814-.256.294-.52.581-.768.875-.226.271-.452.55-.67.822-.248.294-.481.588-.722.875q-.325.429-.64.837c-.225.286-.459.596-.677.882-.203.287-.399.566-.602.837-.218.302-.436.596-.64.898-.195.279-.391.558-.571.844-.204.302-.407.596-.602.898-.189.279-.362.573-.535.852-.18.302-.376.603-.557.897q-.26.444-.496.875c-.173.302-.354.596-.519.898q-.239.441-.467.882c-.158.302-.323.603-.474.905-.15.294-.286.588-.429.875-.15.301-.301.611-.444.912-.128.287-.256.596-.391.883-.128.309-.264.61-.399.92-.113.294-.233.588-.346.874-.128.317-.248.619-.361.936-.113.294-.219.595-.316.882-.106.317-.226.618-.324.935-.098.294-.196.596-.278.882-.098.317-.196.634-.294.936-.083.301-.158.603-.233.897q-.135.466-.248.943c-.083.286-.143.595-.211.897-.06.302-.136.611-.203.928-.068.301-.121.603-.173.912-.053.309-.121.611-.158.928-.061.301-.098.603-.143.905-.045.317-.091.633-.128.942q-.057.444-.091.898c-.03.317-.06.626-.097.943-.023.301-.03.603-.053.912s-.045.626-.053.935c0 .302 0 .611-.022.913a50 50 0 0 0 .03 3.009c.895 19.14 13.973 38.152 39.174 52.729 52.049 30.128 136.455 30.121 188.166 0 24.741-14.404 37.571-33.144 38.542-52.066.03-.784.068-1.561.068-2.353-.016-.316-.016-.641-.023-.95m-43.877-13.235c-2.198 2.843-5.305 5.505-9.316 7.843-17.849 10.407-46.887 10.407-64.856 0-4.086-2.36-7.247-5.06-9.482-7.941-7.6-9.781-4.522-21.666 9.271-29.698 17.849-10.4 46.88-10.4 64.849 0 8.751 5.053 13.259 11.636 13.529 18.265.015.234.015.468.015.694-.015 3.703-1.346 7.406-4.01 10.837"/><mask id="c" fill="#fff"><path d="M603.316 517.718c-.248-.286-.482-.58-.722-.874.24.294.474.58.722.874"/></mask><path fill="#000" d="m603.316 517.718-.756.655 1.52-1.3zm.756-.655c-.236-.272-.451-.543-.705-.853l-1.547 1.267c.228.278.48.596.74.896zm-2.252.414c.238.291.477.585.732.886l1.528-1.29c-.242-.287-.469-.566-.713-.863z" mask="url(#c)"/><mask id="d" fill="#fff"><path d="M606.582 521.308c-.271-.279-.527-.566-.798-.852.263.286.527.565.798.852"/></mask><path fill="#000" d="m606.582 521.308-.718.697 1.444-1.384zm-.798-.852.727-.687-1.463 1.363zm1.515.155c-.273-.281-.484-.52-.788-.842l-1.454 1.374c.237.251.538.584.807.862zm-2.251.521c.268.293.536.577.807.863l1.453-1.374c-.271-.287-.53-.561-.788-.842z" mask="url(#d)"/><mask id="e" fill="#fff"><path d="M597.77 510.328c-.195-.302-.383-.611-.579-.913.188.302.376.611.579.913"/></mask><path fill="#000" d="m597.77 510.328-.829.558 1.668-1.102zm-.579-.913.839-.544-1.688 1.073zm1.418.369q-.138-.215-.282-.445c-.095-.151-.195-.31-.297-.468l-1.678 1.088q.138.215.282.444c.095.152.195.311.297.469zm-2.267.16c.181.289.383.622.599.942l1.659-1.117c-.191-.283-.364-.569-.561-.883z" mask="url(#e)"/><mask id="f" fill="#fff"><path d="M599.042 512.198a42 42 0 0 1-.617-.912z"/></mask><path fill="#000" d="m599.042 512.198-.819.573 1.646-1.136zm-.617-.912.83-.559-1.665 1.108zm1.437.339a37 37 0 0 1-.601-.889l-1.671 1.099c.207.315.415.625.633.936zm-2.266.219q.303.45.62.917l1.653-1.126c-.209-.307-.411-.606-.614-.908z" mask="url(#f)"/><path stroke="#000" d="m607.516 522.251-.359.348z"/><mask id="g" fill="#fff"><path d="M618.32 531.594c-.339-.248-.662-.505-.986-.761.331.249.655.505.986.761"/></mask><path fill="#000" d="m618.32 531.594-.592.806 1.204-1.596zm-.986-.761.601-.8-1.222 1.584zm1.578-.044a36 36 0 0 1-.957-.74l-1.242 1.568c.322.254.659.522 1.015.783zm-2.179.843c.324.243.632.487.975.753l1.224-1.581c-.319-.247-.658-.516-.997-.771z" mask="url(#g)"/><mask id="h" fill="#fff"><path d="M620.556 533.231c-.346-.249-.677-.498-1.024-.739.339.249.678.498 1.024.739"/></mask><path fill="#000" d="m620.556 533.231-.572.82 1.156-1.632zm-1.024-.739.572-.82-1.164 1.626zm1.608-.073c-.32-.23-.685-.503-1.036-.747l-1.143 1.64c.341.239.639.463 1.011.731zm-2.2.879c.337.247.686.504 1.044.753l1.144-1.64c-.334-.233-.663-.475-1.003-.725z" mask="url(#h)"/><mask id="i" fill="#fff"><path d="M616.16 529.935c-.323-.256-.639-.52-.963-.776.324.256.632.52.963.776"/></mask><path fill="#000" d="m616.16 529.935-.612.791 1.234-1.574zm.622-.783q-.232-.185-.472-.381-.24-.195-.492-.396l-1.242 1.567q.232.185.472.381.24.195.491.396zm-2.206.79c.262.208.659.541.972.784l1.225-1.581c-.349-.27-.569-.465-.955-.77z" mask="url(#i)"/><mask id="j" fill="#fff"><path d="M612.082 526.549c-.308-.271-.602-.543-.903-.807.301.272.595.543.903.807"/></mask><path fill="#000" d="m612.082 526.549-.65.76 1.311-1.51zm-.903-.807.66-.751-1.33 1.494zm1.564.057c-.149-.131-.295-.263-.446-.399q-.224-.202-.458-.409l-1.319 1.503q.215.19.438.392.224.203.464.414zm-2.234.686c.289.26.601.549.923.824l1.3-1.52c-.295-.252-.57-.507-.883-.789z" mask="url(#j)"/><mask id="k" fill="#fff"><path d="M610.171 524.83c-.301-.279-.586-.558-.872-.83.293.279.579.558.872.83"/></mask><path fill="#000" d="m610.171 524.83-.679.734 1.359-1.467zm-.872-.83.688-.725-1.377 1.45zm1.552.097c-.296-.275-.564-.537-.864-.822l-1.377 1.451c.272.258.576.554.882.837zm-2.241.628c.28.267.583.562.882.839l1.359-1.468c-.288-.266-.557-.529-.863-.82z" mask="url(#k)"/><mask id="l" fill="#fff"><path d="M625.281 536.413c-.346-.226-.684-.452-1.023-.671.346.227.677.453 1.023.671"/></mask><path fill="#000" d="m625.281 536.413-.534.846 1.082-1.683zm-1.023-.671.543-.84-1.09 1.677zm1.571-.166c-.332-.217-.69-.455-1.028-.674l-1.085 1.68c.338.219.658.433 1.018.669zm-2.118 1.003c.321.21.684.458 1.036.68l1.069-1.691c-.341-.215-.639-.42-1.011-.663z" mask="url(#l)"/><mask id="m" fill="#fff"><path d="M608.749 449.544q.314-.42.639-.83-.325.42-.639.83"/></mask><path fill="#000" d="m608.749 449.544-.799-.603 1.589 1.216zm.639-.83.788.616-1.567-1.242zm.159 1.433c.212-.282.413-.548.621-.806l-1.559-1.253c-.23.285-.449.576-.659.853zm-.947-2.049c-.212.272-.449.584-.641.833l1.58 1.226c.228-.294.413-.54.637-.827z" mask="url(#m)"/><path stroke="#000" d="M610.112 447.839c.225-.271.444-.55.677-.822"/><mask id="n" fill="#fff"><path d="M589.606 491.007q-.1-.489-.188-.966.089.489.188.966"/></mask><path fill="#000" d="m589.606 491.007-.978.209 1.957-.414zm-.188-.966.983-.186-1.966.369zm1.167.761c-.065-.313-.123-.625-.184-.947l-1.965.373c.059.311.121.647.191.983zm-2.15-.578c.06.322.122.659.193.992l1.956-.419c-.064-.301-.122-.612-.183-.938z" mask="url(#n)"/><mask id="o" fill="#fff"><path d="M588.62 483.103c-.015-.324-.015-.648-.022-.973 0 .325.015.649.022.973"/></mask><path fill="#000" d="m588.62 483.103-.998.047 1.998-.07zm-.022-.973 1-.023-2 .023zm1.021.927c-.014-.311-.013-.593-.021-.95l-2 .047c.007.291.008.658.024.996zm-2.021-.927c0 .338.016.705.023.996l1.999-.046c-.008-.357-.022-.639-.022-.95z" mask="url(#o)"/><mask id="p" fill="#fff"><path d="M593.526 502.711c-.15-.317-.286-.634-.421-.943.143.317.278.634.421.943"/></mask><path fill="#000" d="m593.526 502.711-.903.429 1.811-.849zm-.421-.943.911-.411-1.827.812zm1.324.514c-.142-.299-.268-.595-.408-.915l-1.832.802c.13.299.275.636.434.971zm-2.236-.102c.129.284.284.644.425.951l1.816-.84c-.144-.311-.26-.585-.418-.934z" mask="url(#p)"/><mask id="q" fill="#fff"><path d="M591.201 496.896"/></mask><path fill="#000" d="m591.201 496.896-.949.316 1.9-.624zm-.301-.957.955-.295-1.913.584zm1.25.642a36 36 0 0 1-.293-.931l-1.915.578q.147.49.31.984zm-2.206-.347q.145.474.306.971l1.902-.617a69 69 0 0 1-.297-.944z" mask="url(#q)"/><mask id="r" fill="#fff"><path d="M871.788 483.495c-.015.332-.038.664-.053.996.023-.332.045-.664.053-.996"/></mask><path fill="#000" d="m871.788 483.495 1 .023-1.999-.068zm-.053.996-.999-.045 1.997.113zm-.946-1.041q-.01.238-.026.486-.014.249-.027.51l1.998.09q.01-.237.026-.486.014-.25.027-.509zm1.944 1.109c.022-.328.046-.683.055-1.041l-2-.045c-.007.305-.028.614-.051.95z" mask="url(#r)"/><mask id="s" fill="#fff"><path d="M871.666 485.464q-.043.497-.097.995c.03-.332.067-.664.097-.995"/></mask><path fill="#000" d="m871.569 486.459-.996-.09 1.989.203zm-.898-1.086c-.031.334-.06.655-.096.973l1.987.226c.039-.345.07-.688.1-1.018zm1.894 1.176q.021-.237.047-.486.027-.25.05-.509l-1.991-.181-.048.487q-.026.249-.05.509z" mask="url(#s)"/><mask id="t" fill="#fff"><path d="M871.471 487.424c-.037.332-.09.664-.135 1.003.045-.331.098-.663.135-1.003"/></mask><path fill="#000" d="m871.471 487.424.994.111-1.987-.223zm-.135 1.003-.992-.131 1.983.266zm-.858-1.115c-.037.323-.083.607-.134.984l1.983.263c.04-.302.099-.681.138-1.022zm1.849 1.25c.041-.301.099-.673.138-1.027l-1.988-.221c-.036.324-.083.617-.132.979z" mask="url(#t)"/><mask id="u" fill="#fff"><path d="M833.244 537.974c-.828.513-1.678 1.011-2.536 1.516q1.285-.746 2.536-1.516"/></mask><path fill="#000" d="m833.244 537.974.527.851-1.05-1.703zm-2.536 1.516-.507-.861 1.009 1.726zm2.009-2.366c-.815.506-1.654.997-2.516 1.505l1.015 1.723c.853-.503 1.715-1.007 2.555-1.527zm-1.507 3.231q1.297-.753 2.557-1.528l-1.046-1.705q-1.242.764-2.515 1.503z" mask="url(#u)"/><path stroke="#000" d="M611.549 446.143q.348-.408.707-.815"/><mask id="v" fill="#fff"><path d="M863.088 478.714c.023.317.045.634.053.95-.015-.316-.038-.633-.053-.95"/></mask><path fill="#000" d="m863.088 478.714.998-.071-1.997.119zm.053.95-.999.048 1.999-.071zm-1.05-.879c.023.321.043.614.05.903l2-.047c-.009-.345-.033-.685-.055-.998zm2.049.832q-.013-.25-.027-.487t-.026-.463l-1.998.095q.013.249.027.487.015.237.026.463z" mask="url(#v)"/><mask id="w" fill="#fff"><path d="M862.938 476.851c.03.317.067.626.098.943-.023-.317-.061-.626-.098-.943"/></mask><path fill="#000" d="m862.938 476.851.993-.118-1.989.213zm.098.943-.996.095 1.993-.166zm-1.094-.848q.025.25.05.484c.018.158.034.308.048.459l1.991-.189-.05-.485-.048-.458zm2.091.777c-.025-.345-.065-.679-.102-.99l-1.986.236c.038.324.073.608.093.896z" mask="url(#w)"/><mask id="x" fill="#fff"><path d="M863.171 480.569c0 .317.015.634.015.95 0-.316-.008-.633-.015-.95"/></mask><path fill="#000" d="m863.171 480.569.999-.024-1.999.024zm-1 0c0 .172.004.343.007.499.004.16.008.307.008.451h2c0-.172-.004-.342-.008-.498a18 18 0 0 1-.007-.452zm2.015.95c0-.33-.008-.659-.016-.974l-1.999.048c.008.319.015.624.015.926z" mask="url(#x)"/><path stroke="#000" d="M862.705 474.989c.045.316.098.633.136.95M597.44 476.504c.03-.301.06-.603.098-.905"/><mask id="y" fill="#fff"><path d="M597.289 478.352c.015-.302.03-.603.06-.905-.022.302-.037.603-.06.905"/></mask><path fill="#000" d="m597.289 478.352-.998-.05 1.996.125zm.06-.905.998.075-1.993-.174zm.939.955c.015-.306.029-.583.057-.856l-1.991-.198c-.033.33-.049.657-.063.954zm-1.936-1.029q-.017.239-.031.464-.013.227-.029.44l1.995.15.03-.465q.014-.227.03-.44z" mask="url(#y)"/><path stroke="#000" d="m597.237 479.287-.002.042m.002-.042-.023.913q0-.43.021-.871m.002-.042-.002.042m.002-.042-.002.042"/><mask id="z" fill="#fff"><path d="M862.005 471.293c.075.317.15.626.21.943-.067-.317-.143-.626-.21-.943"/></mask><path fill="#000" d="m862.005 471.293.973-.231-1.951.44zm.21.943-.978.209 1.961-.396zm-1.183-.712c.077.326.146.61.201.899l1.965-.374c-.066-.344-.147-.679-.22-.987zm2.161.503q-.054-.25-.108-.485c-.036-.158-.07-.307-.102-.458l-1.956.418q.054.252.108.485c.036.158.07.308.102.458z" mask="url(#z)"/><path stroke="#000" d="M859.694 463.94c.128.317.256.626.376.943M860.387 465.773c.113.309.226.626.331.935M862.388 473.134q.092.474.173.95"/><mask id="A" fill="#fff"><path d="M858.927 462.115c.135.31.278.626.414.936-.136-.317-.279-.626-.414-.936"/></mask><path fill="#000" d="m859.341 463.051-.916.401 1.835-.795zm-1.33-.534.209.472.205.463 1.832-.803-.209-.472q-.106-.235-.205-.463zm2.249.14c-.134-.313-.296-.667-.417-.943l-1.832.803c.15.342.274.607.41.927z" mask="url(#A)"/><mask id="B" fill="#fff"><path d="M597.666 474.664c.045-.301.082-.611.135-.912-.053.301-.09.603-.135.912"/></mask><path fill="#000" d="m597.666 474.664-.99-.144 1.979.292zm.989.148c.051-.341.081-.599.131-.888l-1.97-.344c-.055.314-.1.675-.139.936zm-1.839-1.232c-.056.319-.099.659-.14.94l1.979.289c.049-.337.081-.601.131-.885z" mask="url(#B)"/><path stroke="#000" d="M861.003 467.606c.098.316.203.626.294.942M861.546 469.446c.083.309.173.626.248.935M601.352 461.882q.19-.44.391-.883"/><mask id="C" fill="#fff"><path d="M603.083 458.307c.158-.294.308-.588.466-.875-.158.294-.308.588-.466.875"/></mask><path fill="#000" d="m603.083 458.307-.881-.473 1.756.956zm.466-.875.881.474-1.757-.957zm.414 1.348c.174-.323.304-.579.462-.865l-1.752-.966c-.158.288-.329.62-.471.885zm-1.295-1.821c-.174.323-.303.579-.461.865l1.751.966c.159-.287.33-.62.472-.884z" mask="url(#C)"/><path stroke="#000" d="M605.123 454.763c.18-.287.353-.574.534-.86M604.07 456.527c.165-.286.331-.581.504-.867M606.259 453.005c.188-.279.376-.565.571-.844"/><mask id="D" fill="#fff"><path d="M608.071 450.426q-.306.419-.602.837c.204-.279.399-.558.602-.837"/></mask><path fill="#000" d="m607.469 451.263-.818-.574 1.627 1.163zm-.206-1.425c-.202.277-.411.564-.612.851l1.637 1.148q.286-.404.592-.822zm1.015 2.014q.158-.217.306-.426.149-.21.296-.411l-1.617-1.177q-.157.215-.306.425-.149.209-.296.412z" mask="url(#D)"/><mask id="E" fill="#fff"><path d="M598.794 469.144c.083-.302.158-.596.241-.897a29 29 0 0 0-.241.897"/></mask><path fill="#000" d="m598.794 469.144-.97-.242 1.934.507zm.241-.897.964.264-1.927-.535zm.723 1.162.123-.457.118-.441-1.929-.529-.122.457-.118.44zm-1.686-1.433c-.084.297-.17.61-.248.926l1.94.484q.11-.431.233-.869z" mask="url(#E)"/><mask id="F" fill="#fff"><path d="M599.321 467.319"/></mask><path fill="#000" d="m599.599 466.422.951.308-1.9-.624zm.68 1.184c.089-.298.177-.584.271-.876l-1.902-.617c-.101.311-.194.613-.285.919zm-1.629-1.5a32 32 0 0 0-.287.926l1.916.574c.091-.304.177-.591.269-.869z" mask="url(#F)"/><mask id="G" fill="#fff"><path d="M597.967 472.824c.052-.301.105-.603.173-.905-.061.302-.113.604-.173.905"/></mask><path fill="#000" d="m597.967 472.824-.986-.172 1.966.368zm.173-.905.98.196-1.956-.415zm.812 1.077c.053-.305.102-.583.163-.858l-1.951-.438c-.074.329-.131.654-.183.952zm-1.793-1.272q-.048.237-.089.464-.041.226-.084.441l1.961.391q.048-.238.089-.464l.084-.441z" mask="url(#G)"/><mask id="H" fill="#fff"><path d="M613.06 444.469c.249-.272.489-.536.745-.807-.256.264-.496.535-.745.807"/></mask><path fill="#000" d="m613.805 443.662.728.685-1.446-1.381zm-.007 1.481c.25-.273.485-.531.735-.796l-1.456-1.371c-.262.278-.508.548-.755.818zm-.711-2.177c-.269.277-.53.571-.765.828l1.476 1.349c.262-.286.483-.535.725-.785z" mask="url(#H)"/><path stroke="#000" d="M599.923 465.494c.105-.294.203-.588.316-.882M858.083 460.313c.151.309.309.618.452.928"/><mask id="I" fill="#fff"><path d="M600.6 463.684q.171-.441.354-.882c-.121.294-.234.588-.354.882"/></mask><path fill="#000" d="m600.6 463.684-.934-.358 1.859.737zm.933.358c.109-.282.225-.566.346-.861l-1.851-.758c-.12.292-.244.597-.362.903zm-1.505-1.619q-.094.23-.181.451-.087.22-.173.431l1.851.758q.094-.23.181-.451.087-.22.173-.431z" mask="url(#I)"/><path stroke="#000" d="M602.18 460.094c.143-.294.278-.588.429-.882M598.343 470.977c.067-.302.127-.596.203-.898M823.975 426.708c.812.476 1.617.951 2.408 1.433"/><mask id="J" fill="#fff"><path d="m627.991 431.678.903-.633c-.309.211-.602.422-.903.633"/></mask><path fill="#000" d="m628.894 431.045.574.818-1.139-1.643zm-.329 1.452.452-.317.451-.317-1.148-1.637-.452.317-.451.317zm-.236-2.277c-.314.215-.625.438-.912.64l1.148 1.637c.315-.221.591-.42.894-.627z" mask="url(#J)"/><path stroke="#000" d="M630.27 430.14c.285-.189.564-.377.85-.566"/><mask id="K" fill="#fff"><path d="M632.723 428.571c.234-.143.467-.294.708-.445-.241.144-.467.294-.708.445"/></mask><path fill="#000" d="m632.723 428.571-.53-.847 1.054 1.699zm.708-.445.531.848-1.043-1.707zm-.184 1.297c.235-.144.493-.311.715-.449l-1.062-1.695c-.26.163-.468.298-.7.44zm-.328-2.156c-.25.149-.522.329-.726.457l1.061 1.695c.277-.174.457-.296.688-.433z" mask="url(#K)"/><mask id="L" fill="#fff"><path d="M831.898 431.716c.421.287.843.581 1.257.867-.414-.294-.836-.58-1.257-.867"/></mask><path fill="#000" d="m833.155 432.583-.57.822 1.149-1.637zm-1.819-.04q.623.427 1.249.862l1.139-1.644c-.41-.284-.838-.582-1.264-.872zm2.398-.775c-.424-.301-.854-.593-1.274-.879l-1.124 1.654c.422.288.835.568 1.239.855z" mask="url(#L)"/><mask id="M" fill="#fff"><path d="M827.158 428.616q.79.487 1.558.973c-.512-.324-1.039-.648-1.558-.973"/></mask><path fill="#000" d="m827.158 428.616.524-.851-1.054 1.7zm-.524.852q.784.483 1.546.966l1.071-1.689q-.773-.49-1.569-.98zm2.617-.723c-.515-.327-1.052-.657-1.563-.977l-1.06 1.697c.527.329 1.044.647 1.552.969z" mask="url(#M)"/><mask id="N" fill="#fff"><path d="M829.686 430.23c.428.279.865.566 1.286.845-.421-.287-.858-.566-1.286-.845"/></mask><path fill="#000" d="m830.972 431.075-.552.834 1.115-1.661zm-1.832-.006c.427.277.861.562 1.28.84l1.104-1.668c-.423-.28-.862-.568-1.293-.849zm2.395-.821c-.433-.294-.884-.583-1.304-.856l-1.091 1.677c.438.285.86.554 1.27.833z" mask="url(#N)"/><mask id="O" fill="#fff"><path d="M623.745 434.785c.309-.233.61-.475.918-.708-.316.233-.617.475-.918.708"/></mask><path fill="#000" d="m623.745 434.785-.613-.789 1.217 1.586zm.918-.708.604.797-1.198-1.601zm-.314 1.505q.242-.183.47-.362t.448-.346l-1.208-1.594q-.241.183-.469.362c-.154.12-.301.234-.449.346zm-.28-2.309c-.329.243-.652.501-.937.723l1.227 1.579c.317-.246.595-.47.899-.695z" mask="url(#O)"/><path stroke="#000" d="M625.845 433.209c.301-.218.594-.437.895-.656M857.166 458.518q.25.464.489.928"/><mask id="P" fill="#fff"><path d="M614.642 442.81c.263-.264.519-.536.782-.8-.27.264-.526.528-.782.8"/></mask><path fill="#000" d="m614.642 442.81-.728-.686 1.436 1.392zm.782-.8.708.706-1.405-1.422zm-.074 1.506q.207-.209.401-.41l.381-.39-1.415-1.412q-.208.209-.402.41-.193.2-.381.389zm-.623-2.222c-.285.277-.551.552-.813.83l1.456 1.371c.249-.265.495-.518.752-.769z" mask="url(#P)"/><mask id="Q" fill="#fff"><path d="M616.328 441.15c.263-.256.526-.512.797-.761-.271.256-.534.512-.797.761"/></mask><path fill="#000" d="m616.328 441.15-.698-.716 1.384 1.443zm.797-.761.688.726-1.364-1.463zm-.1 1.478c.265-.258.518-.504.777-.742l-1.353-1.473c-.284.261-.557.527-.819.782zm-.587-2.205q-.209.197-.407.389l-.39.373 1.373 1.453q.203-.191.402-.383t.397-.379z" mask="url(#Q)"/><mask id="R" fill="#fff"><path d="M834.065 433.247c.399.286.805.581 1.197.867-.392-.294-.798-.581-1.197-.867"/></mask><path fill="#000" d="m835.262 434.114-.591.807 1.191-1.606zm-1.78-.055c.397.285.8.577 1.189.862l1.181-1.614c-.394-.288-.803-.584-1.203-.872zm2.38-.744c-.402-.303-.824-.601-1.213-.88l-1.167 1.624c.408.293.799.569 1.179.854z" mask="url(#R)"/><path stroke="#000" d="M619.901 437.908c.279-.242.557-.483.843-.724"/><mask id="S" fill="#fff"><path d="M621.775 436.347c.301-.242.594-.491.895-.732a72 72 0 0 0-.895.732"/></mask><path fill="#000" d="m621.775 436.347-.637-.771 1.262 1.551zm.625.78q.236-.19.459-.375.222-.184.437-.357l-1.251-1.56q-.236.19-.459.374c-.149.123-.292.242-.437.357zm-.355-2.292a73 73 0 0 0-.907.741l1.274 1.541c.3-.248.589-.485.884-.722z" mask="url(#S)"/><mask id="T" fill="#fff"><path d="M618.08 439.514c.27-.249.534-.49.812-.739-.278.241-.542.49-.812.739"/></mask><path fill="#000" d="m618.892 438.775.667.745-1.322-1.501zm-.136 1.475c.271-.248.53-.486.803-.73l-1.333-1.491a82 82 0 0 0-.823.748zm-.519-2.231c-.293.254-.577.522-.834.758l1.353 1.473c.285-.261.527-.491.791-.72z" mask="url(#T)"/><path stroke="#000" d="M851.402 449.695c.233.301.474.603.699.905"/><mask id="U" fill="#fff"><path d="M856.165 456.723c.18.309.361.611.534.92a39 39 0 0 0-.534-.92"/></mask><path fill="#000" d="m856.165 456.723.858-.513-1.722 1.018zm-.864.505c.188.321.358.605.525.904l1.746-.977c-.179-.32-.37-.639-.544-.936zm2.271-.073c-.179-.32-.365-.638-.549-.945l-1.716 1.027c.177.295.352.596.519.895z" mask="url(#U)"/><mask id="V" fill="#fff"><path d="M852.711 451.437c.218.301.437.596.647.897-.21-.301-.436-.603-.647-.897"/></mask><path fill="#000" d="m852.711 451.437.81-.586-1.623 1.168zm-.81.586c.228.315.433.591.638.884l1.639-1.145c-.217-.311-.448-.623-.657-.911zm2.277-.261c-.211-.303-.464-.642-.654-.908l-1.626 1.165c.231.323.431.587.641.888z" mask="url(#V)"/><mask id="W" fill="#fff"><path d="M850.017 447.968c.248.301.504.596.745.905-.241-.302-.497-.604-.745-.905"/></mask><path fill="#000" d="m850.762 448.873-.781.624 1.57-1.239zm-1.517-.27c.273.332.497.587.728.884l1.578-1.229c-.25-.321-.538-.654-.762-.926zm2.299-.354c-.247-.309-.52-.631-.755-.917l-1.544 1.271c.262.318.5.599.736.894z" mask="url(#W)"/><mask id="X" fill="#fff"><path d="M836.179 434.831c.369.279.745.565 1.106.852-.361-.287-.737-.566-1.106-.852"/></mask><path fill="#000" d="m836.179 434.831.603-.798-1.217 1.587zm-.603.797c.367.278.736.559 1.088.838l1.243-1.567a64 64 0 0 0-1.125-.866zm2.331-.729c-.359-.284-.778-.596-1.114-.858l-1.228 1.579c.401.312.734.557 1.099.846z" mask="url(#X)"/><mask id="Y" fill="#fff"><path d="M855.081 454.944q.296.465.579.92-.284-.467-.579-.92"/></mask><path fill="#000" d="m855.081 454.944.839-.545-1.684 1.079zm.579.92-.848.529 1.703-1.049zm-1.424-.386q.296.466.576.915l1.697-1.059c-.19-.304-.388-.616-.583-.925zm2.279-.134a38 38 0 0 0-.595-.945l-1.678 1.089q.29.445.564.895z" mask="url(#Y)"/><path stroke="#000" d="M853.938 453.186c.203.302.414.604.61.905"/><mask id="Z" fill="#fff"><path d="M848.557 446.263c.263.295.527.596.783.898-.256-.302-.52-.596-.783-.898"/></mask><path fill="#000" d="m848.557 446.263.745-.667-1.498 1.325zm-.745.668c.258.287.515.582.765.877l1.525-1.294a47 47 0 0 0-.8-.918zm2.29-.417c-.261-.308-.54-.62-.792-.908l-1.506 1.315c.275.315.523.592.773.887z" mask="url(#Z)"/><mask id="aa" fill="#fff"><path d="M840.1 437.99q.51.429 1.009.868c-.331-.287-.67-.573-1.009-.868"/></mask><path fill="#000" d="m840.1 437.99.646-.763-1.301 1.518zm1.009.868-.655.756 1.319-1.504zm-1.655-.104c.341.288.67.567.991.851l1.328-1.495c-.342-.303-.69-.598-1.027-.883zm2.309-.652c-.358-.31-.654-.56-1.007-.866l-1.311 1.509c.324.282.705.605 1.009.869z" mask="url(#aa)"/><mask id="ab" fill="#fff"><path d="M847.031 444.582c.271.294.549.58.82.874a29 29 0 0 0-.82-.874"/></mask><path fill="#000" d="m847.031 444.582.717-.697-1.453 1.374zm.82.874-.736.678 1.481-1.345zm-1.556-.197q.213.23.419.447.207.218.401.428l1.472-1.355a39 39 0 0 0-.42-.447q-.207-.217-.401-.428zm2.301-.47a32 32 0 0 0-.848-.904l-1.434 1.393c.272.281.541.565.792.846z" mask="url(#ab)"/><path stroke="#000" d="M838.182 436.399c.353.287.715.573 1.061.86M841.943 439.604c.324.294.655.581.971.875"/><mask id="ac" fill="#fff"><path d="M845.42 442.907c.286.295.58.581.866.875-.279-.294-.572-.58-.866-.875"/></mask><path fill="#000" d="m845.42 442.907.708-.706-1.425 1.404zm.866.875-.717.697 1.443-1.384zm-1.583-.177q.225.229.442.446.218.218.424.428l1.434-1.394q-.224-.229-.442-.446a42 42 0 0 1-.424-.429zm2.309-.51c-.29-.307-.603-.612-.884-.894l-1.415 1.413c.305.306.58.574.847.856z" mask="url(#ac)"/><path stroke="#000" d="M843.719 441.241c.308.294.617.581.918.875"/><path fill="#FFE092" d="M606.831 452.161c-.196.279-.384.565-.572.844-.203.302-.406.596-.602.898-.181.286-.354.573-.534.86-.188.301-.376.595-.557.897-.173.287-.339.581-.504.867-.173.302-.346.596-.512.898-.158.294-.308.588-.466.875-.158.301-.324.603-.475.904-.15.295-.285.589-.428.883-.143.301-.294.603-.437.905q-.2.441-.391.882c-.136.309-.271.611-.399.92-.12.294-.233.588-.354.883-.12.309-.248.618-.361.927-.113.294-.211.588-.316.882-.113.31-.226.619-.323.928-.098.294-.189.596-.279.898-.098.309-.196.618-.286.927a33 33 0 0 0-.241.898c-.082.309-.173.625-.248.935-.075.301-.135.595-.203.897-.068.309-.143.626-.211.935-.06.302-.113.604-.173.905-.06.309-.12.619-.165.935-.053.302-.091.604-.136.913s-.09.618-.128.935c-.037.302-.067.603-.098.905-.03.317-.067.626-.09.943-.022.301-.038.603-.06.905a37 37 0 0 0-.053.942c-.015.302-.015.604-.022.913a44 44 0 0 0 .03 3.001c.955-18.929 13.793-37.669 38.542-52.088 51.703-30.113 136.116-30.121 188.166 0 25.215 14.585 38.271 33.604 39.159 52.767.037-.792.067-1.576.067-2.368q-.002-.475-.015-.95c0-.302-.007-.611-.022-.913-.015-.316-.038-.633-.053-.95-.022-.302-.038-.611-.06-.912-.023-.317-.06-.626-.098-.943-.03-.302-.06-.611-.098-.913-.037-.316-.09-.633-.135-.95-.045-.302-.083-.603-.136-.905a35 35 0 0 0-.173-.95 30 30 0 0 0-.173-.897c-.067-.317-.143-.626-.21-.943a42 42 0 0 0-.211-.905c-.075-.309-.166-.626-.248-.935-.083-.302-.158-.604-.249-.905-.09-.317-.195-.626-.293-.943-.091-.302-.188-.596-.286-.897-.106-.31-.218-.626-.331-.935-.106-.295-.211-.596-.324-.89-.12-.317-.248-.626-.376-.943-.121-.294-.233-.588-.354-.882-.135-.317-.278-.626-.414-.936-.128-.294-.255-.58-.391-.874-.143-.31-.301-.619-.451-.928-.143-.294-.279-.581-.429-.875-.158-.309-.324-.618-.489-.927-.158-.287-.309-.581-.467-.868a39 39 0 0 0-.534-.92l-.497-.859a37 37 0 0 0-.579-.92c-.181-.279-.354-.566-.535-.845-.195-.302-.406-.603-.609-.905a27 27 0 0 0-.579-.852c-.211-.302-.437-.604-.648-.898-.203-.279-.406-.565-.609-.844-.226-.302-.467-.604-.7-.905-.211-.272-.421-.551-.64-.822-.24-.302-.496-.604-.744-.905-.226-.272-.444-.543-.67-.815-.256-.301-.519-.595-.783-.897a58 58 0 0 0-.707-.807 31 31 0 0 0-.82-.875c-.249-.264-.497-.535-.753-.799-.278-.294-.572-.581-.865-.875-.264-.264-.519-.528-.783-.784-.301-.294-.609-.581-.918-.875-.271-.257-.534-.513-.805-.769-.316-.294-.647-.581-.971-.875-.278-.249-.549-.498-.827-.747q-.499-.428-1.009-.867c-.286-.249-.572-.49-.865-.739-.346-.287-.707-.573-1.061-.86-.301-.241-.587-.482-.888-.716-.361-.287-.737-.566-1.106-.852-.309-.234-.61-.476-.926-.709-.391-.294-.797-.581-1.196-.868-.301-.218-.602-.445-.911-.663-.413-.294-.835-.581-1.256-.868-.309-.211-.61-.429-.926-.641-.421-.286-.858-.565-1.287-.844-.323-.211-.639-.422-.97-.634-.512-.324-1.039-.648-1.558-.972-.256-.159-.512-.325-.767-.483-.791-.483-1.596-.958-2.408-1.433-52.05-30.12-136.463-30.113-188.166 0q-1.206.704-2.378 1.418c-.241.143-.466.294-.707.445a321 321 0 0 0-1.603 1.003c-.286.188-.564.377-.85.565-.459.302-.926.604-1.37.905-.308.211-.602.423-.903.634-.414.286-.835.58-1.249.867-.301.219-.594.437-.895.656-.392.287-.79.573-1.182.867-.316.234-.617.476-.918.709-.361.279-.722.551-1.076.837a82 82 0 0 0-.895.732c-.346.279-.693.558-1.031.845q-.428.361-.843.724-.51.428-1.008.867c-.279.241-.542.49-.813.739-.324.294-.647.581-.963.875-.271.256-.534.512-.798.761q-.453.43-.895.86c-.271.264-.527.528-.783.799-.278.287-.564.566-.835.853-.256.264-.497.535-.745.807a28 28 0 0 0-.798.867q-.359.407-.707.814c-.256.294-.512.581-.76.875-.233.272-.451.551-.677.822-.241.294-.482.581-.715.875-.218.279-.429.558-.64.829-.225.295-.459.589-.677.883q-.306.419-.602.837l-.64.89z"/><path fill="#7C5C22" d="M830.069 423.157c-55.435-32.074-145.312-32.067-200.386 0-27.451 15.987-41.138 36.96-41.116 57.963 0 .332.008.671.023 1.003.008.324.008.648.023.973l.067 1.003c.023.324.03.648.068.973.03.331.068.671.098 1.003.03.324.068.648.105.972.045.332.098.672.143 1.003.053.325.098.649.151.973.052.332.12.671.18 1.003.053.325.121.641.181.966.068.331.15.671.226 1.003.075.324.143.641.225.965.076.332.173.671.271 1.003.083.317.166.641.256.95.098.332.203.671.316 1.003.098.317.196.641.301.95.105.332.226.656.346.996.121.317.226.641.346.95.128.332.256.664.392.995.128.317.256.626.391.951.143.324.293.648.429.98.143.317.278.626.429.943.15.332.316.663.474.988.15.316.301.626.451.942q.258.487.527.973c.166.317.324.626.497.928.18.324.376.648.564.973.181.301.354.618.542.927.195.325.399.641.602.966.195.301.376.618.579.92.203.324.429.641.647.965.204.302.399.603.617.905.226.317.467.641.693.95.218.302.429.603.662.897.241.325.489.642.737.966.226.294.452.58.693.875.248.324.519.641.775.95.248.294.489.58.722.875.278.316.564.626.828.942.256.294.504.581.767.868.279.316.58.625.873.942.271.279.527.566.798.845.301.317.617.626.925.943.271.279.542.55.821.829.316.302.639.603.963.92.293.272.579.551.873.822.331.317.677.619 1.015.92.301.272.595.543.896.815.354.316.722.618 1.091.927.301.257.602.521.903.77.369.316.745.603 1.121.904.324.257.64.521.963.777.377.302.775.596 1.167.898.331.249.662.505.993.754.399.301.813.596 1.219.897.346.242.677.49 1.023.732.414.294.828.58 1.25.875.353.241.699.49 1.068.739.452.301.918.595 1.37.897.346.226.677.453 1.023.679.572.354 1.144.716 1.731 1.071.248.166.496.316.752.475.843.505 1.708 1.018 2.566 1.523 55.428 32.074 145.312 32.074 200.386 0a91 91 0 0 0 2.536-1.516c.256-.166.504-.324.767-.49.572-.354 1.137-.701 1.686-1.063.316-.196.617-.4.918-.604.489-.324.986-.641 1.46-.965.331-.226.662-.467.993-.694.429-.301.873-.595 1.294-.897.331-.241.655-.49.986-.724.414-.302.828-.596 1.234-.897l.971-.747c.376-.302.775-.596 1.151-.897.324-.257.647-.528.971-.792.354-.294.722-.581 1.076-.875.316-.272.617-.528.918-.8.354-.294.7-.595 1.046-.897.301-.256.579-.528.873-.792.346-.317.692-.618 1.016-.927.293-.257.564-.528.842-.8.324-.317.648-.618.971-.927.271-.272.542-.551.813-.822.301-.317.617-.619.918-.928l.775-.845q.438-.475.865-.927c.256-.294.497-.573.745-.852.279-.317.565-.626.82-.943.249-.294.49-.581.723-.875.256-.317.519-.618.767-.927.226-.295.452-.596.678-.89.24-.317.489-.626.722-.943l.64-.89c.225-.324.466-.641.692-.965.203-.294.399-.596.602-.898.218-.316.429-.641.639-.95.196-.302.377-.618.572-.92.196-.317.399-.641.595-.95.18-.317.353-.619.527-.928.18-.317.376-.641.549-.95.173-.317.331-.618.496-.928.174-.324.347-.648.505-.972.165-.302.301-.619.451-.928q.25-.487.467-.973c.15-.317.278-.626.421-.943.143-.324.294-.648.421-.972.143-.317.256-.626.377-.943.128-.324.271-.656.391-.988.12-.317.226-.641.331-.95.121-.324.241-.656.346-.988.106-.317.203-.641.301-.95.098-.332.203-.656.301-.996.083-.317.173-.641.256-.95.083-.332.173-.656.256-.995.075-.317.143-.642.218-.951.075-.332.151-.671.226-.995.068-.324.12-.649.173-.965q.102-.508.181-1.003c.052-.317.097-.642.143-.951.045-.332.097-.671.142-1.003.031-.324.068-.641.098-.965.03-.332.076-.671.098-1.003l.068-.965c.022-.332.045-.672.053-.996.007-.324.007-.648.022-.973.414-21.462-13.499-43.023-41.74-59.366zm33.064 60.715c-.971 18.922-13.808 37.655-38.542 52.066-51.711 30.113-136.117 30.128-188.166 0-25.2-14.585-38.271-33.589-39.166-52.737a44 44 0 0 1-.031-3.009c.008-.301.008-.603.023-.905.008-.316.03-.626.053-.942.022-.302.03-.604.052-.905.03-.317.068-.626.098-.943q.036-.454.083-.897c.045-.317.083-.626.128-.943.045-.302.083-.603.143-.913.045-.316.105-.618.165-.927.053-.302.106-.604.173-.905.068-.317.143-.626.204-.928.067-.301.128-.603.203-.897.075-.317.165-.626.248-.943.075-.294.151-.596.241-.897.098-.302.196-.619.293-.928.083-.294.181-.596.279-.89.098-.317.218-.618.323-.927.098-.295.204-.596.316-.89.121-.317.241-.619.369-.928.106-.294.226-.581.346-.875.128-.316.271-.618.399-.92.128-.294.256-.596.391-.89.143-.301.294-.603.444-.905.143-.294.279-.58.429-.874.151-.302.316-.604.474-.905.151-.295.301-.581.467-.875.165-.302.346-.596.519-.898.166-.294.324-.58.497-.874.18-.295.376-.596.564-.898.173-.279.346-.573.527-.852.195-.302.399-.596.602-.897.18-.28.376-.566.572-.845.203-.302.421-.596.639-.898.203-.271.399-.55.602-.829.219-.294.452-.596.678-.89.203-.271.421-.551.639-.83.241-.294.474-.58.723-.874.218-.272.443-.551.669-.822.249-.294.504-.581.768-.875.241-.272.466-.543.715-.815.255-.279.526-.573.797-.852.249-.271.489-.543.745-.814.271-.279.565-.566.843-.852.256-.257.504-.528.775-.792.294-.294.602-.573.896-.868.27-.248.526-.505.797-.769.316-.294.647-.573.963-.867q.404-.375.821-.739c.323-.294.669-.581 1-.875.279-.241.55-.475.843-.716.331-.294.692-.566 1.039-.845.293-.249.579-.49.887-.739.354-.272.723-.551 1.077-.83.316-.226.617-.475.925-.701.376-.294.775-.581 1.174-.867.301-.219.594-.445.895-.656q.621-.44 1.242-.868c.301-.218.602-.422.903-.641.451-.301.918-.603 1.369-.905.294-.181.572-.369.866-.565.519-.332 1.061-.671 1.595-1.003.241-.143.467-.294.7-.445.775-.475 1.573-.95 2.378-1.418 51.71-30.113 136.116-30.113 188.173 0q1.221.712 2.408 1.425c.256.166.504.325.767.491.527.324 1.046.648 1.566.972.323.204.647.423.963.641.429.279.873.566 1.294.845.316.219.617.422.926.641.421.294.842.581 1.249.875.316.219.602.43.903.656.398.279.812.573 1.196.867.316.242.617.475.926.717.368.279.737.565 1.098.844.301.242.595.475.888.724.354.279.723.566 1.069.853.293.248.572.49.865.731.331.294.677.573 1.001.867.293.249.564.498.828.747.323.294.662.581.97.875q.407.373.813.769c.301.294.617.573.918.875l.775.776c.294.295.579.581.865.875l.753.8c.271.294.549.58.813.874.248.272.474.543.714.815.256.294.527.581.791.89.225.271.444.543.669.814.249.302.504.604.745.898.218.279.429.55.64.829.241.302.474.596.7.898.218.279.414.565.617.844.218.302.444.596.647.898.195.279.391.573.579.852.203.302.414.603.602.905.181.279.354.566.542.845.196.301.391.618.572.92.173.294.331.573.504.867.173.302.354.603.527.92.165.294.316.581.466.867.173.317.331.619.497.928.15.294.278.581.429.867.15.317.301.626.444.943.143.294.271.58.399.875.143.301.278.618.414.927.127.294.24.596.353.89.128.317.256.626.376.943.106.294.204.595.316.89.121.316.226.626.332.942.097.294.195.596.278.898.098.316.203.618.293.927.098.302.174.604.249.905.083.317.173.626.256.943.075.302.143.596.203.897.075.317.15.641.218.951.068.294.12.595.173.897.053.317.12.626.173.95.053.302.083.604.128.898q.077.486.143.95c.03.302.068.603.098.92s.068.626.098.943l.067.905c.008.324.046.641.053.95.008.301.008.603.023.912.007.317.007.641.022.951 0 .791-.03 1.568-.067 2.36z"/></g><path fill="#fff" stroke="#000" stroke-miterlimit="10" d="M367 859.81s52.54-6.43 52.54 59.35c0 0 0-60.58 55.49-59.52 0 0-47.74 2-55.49-61.64 0 0 1.48 60.58-52.54 61.81ZM908 587.71s35.45-4.34 35.45 40.04c0 0 0-40.87 37.44-40.16 0 0-32.21 1.35-37.44-41.59 0 0 1 40.87-35.45 41.7zM559 433.8s16.82-2.06 16.82 19c0 0 0-19.4 17.77-19.06 0 0-15.29.64-17.77-19.74 0 0 .47 19.4-16.82 19.79z"/><defs><clipPath id="a"><path fill="#fff" d="M279 386h620v356H279z"/></clipPath></defs></svg>