<svg xmlns="http://www.w3.org/2000/svg" fill="none" viewBox="0 0 1200 1200"><path fill="#D6D6D6" d="M578.64 1096.44c138.16 0 250.16-13.43 250.16-29.99s-112-29.99-250.16-29.99c-138.159 0-250.16 13.43-250.16 29.99s112.001 29.99 250.16 29.99"/><path stroke="#000" stroke-miterlimit="10" d="M772.61 290.2v22.82M784.02 301.61H761.2M234.93 744.12v20.78M245.32 754.51h-20.78"/><path fill="#F3B443" stroke="#000" stroke-miterlimit="10" d="M275.88 281.76c6.561 0 11.88-5.319 11.88-11.88S282.441 258 275.88 258 264 263.319 264 269.88s5.319 11.88 11.88 11.88Z"/><path fill="#59B8AA" stroke="#000" stroke-miterlimit="10" d="M288 846c11.046 0 20-8.954 20-20s-8.954-20-20-20-20 8.954-20 20 8.954 20 20 20Z"/><path fill="#000" d="M276.806 826.955c-2.772-3.96-3.984-8.992-3.564-13.838-3.25 3.494-5.242 8.154-5.242 13.302 0 10.81 8.771 19.581 19.581 19.581 7.396 0 13.814-4.112 17.134-10.157-9.901 2.679-22.283-.839-27.909-8.888"/><path fill="#fff" d="M296.352 824.218a7.688 7.688 0 1 0 0-15.376 7.688 7.688 0 0 0 0 15.376"/><path fill="#F3B443" stroke="#000" stroke-miterlimit="10" d="M356 355c9.389 0 17-7.611 17-17s-7.611-17-17-17-17 7.611-17 17 7.611 17 17 17Z"/><path fill="#000" d="M346.485 338.812c-2.356-3.367-3.386-7.644-3.03-11.763-2.762 2.971-4.455 6.931-4.455 11.307 0 9.188 7.455 16.644 16.644 16.644 6.287 0 11.742-3.495 14.564-8.634-8.416 2.278-18.941-.713-23.723-7.554"/><path fill="#fff" d="M363.099 336.485a6.535 6.535 0 1 0 0-13.07 6.535 6.535 0 0 0 0 13.07"/><path fill="#59B8AA" stroke="#000" stroke-miterlimit="10" d="M756 918c6.627 0 12-5.373 12-12s-5.373-12-12-12-12 5.373-12 12 5.373 12 12 12Z"/><path fill="#000" d="M749.284 906.573c-1.664-2.376-2.391-5.395-2.139-8.303a11.67 11.67 0 0 0-3.145 7.982c0 6.485 5.263 11.748 11.748 11.748 4.438 0 8.289-2.467 10.281-6.094-5.94 1.607-13.37-.504-16.745-5.333"/><path fill="#fff" d="M761.011 904.93a4.612 4.612 0 1 0 .001-9.225 4.612 4.612 0 0 0-.001 9.225"/><path fill="#FFAB93" d="M526.09 941.013c-61.889-5.428-122.235-33.08-163.698-78.79-31.933-35.203-40.709-80.025-43.507-127.409l30.535-61.694c39.28-152.99 237-124.83 237-124.83v.01c173.68 95.1 95.11 215.02 95.11 215.02-19.308 50.183-108.972 136.568-155.44 177.693"/><path fill="#FFAB93" d="M525.5 941s107.82-95.31 129.16-130.2z"/><path stroke="#000" stroke-linecap="round" stroke-linejoin="round" d="M525.5 941s107.82-95.31 129.16-130.2"/><path fill="#000" d="M509 819.5s115.5 2 109.79 34.06c19.21-19.06 29.63-34.38 29.63-34.38z" opacity=".29"/><path fill="#7D8381" d="M682.37 306.18H477.6c-22.842 0-41.36 18.517-41.36 41.36v430.28c0 22.842 18.518 41.36 41.36 41.36h204.77c22.842 0 41.36-18.518 41.36-41.36V347.54c0-22.843-18.518-41.36-41.36-41.36"/><path fill="#A4DED2" d="M680.07 320.74H479.15c-15.801 0-28.61 12.809-28.61 28.61v425.36c0 15.801 12.809 28.61 28.61 28.61h200.92c15.801 0 28.61-12.809 28.61-28.61V349.35c0-15.801-12.809-28.61-28.61-28.61"/><path fill="#59B8AA" d="M468.78 562.68s-10.35 61.19 4.73 97.45l-48.03-62.42z"/><path fill="#FFF1E6" d="M665.108 439H496.891c-5.463 0-9.892 4.429-9.892 9.892v168.216c0 5.463 4.429 9.892 9.892 9.892h168.217c5.463 0 9.891-4.429 9.891-9.892V448.892c0-5.463-4.428-9.892-9.891-9.892"/><path fill="#000" d="M538 467h-22v22h22z"/><path fill="#000" fill-rule="evenodd" d="M501 505v-54h52v54zm44-46v38h-36v-38z" clip-rule="evenodd"/><path fill="#000" d="M624 467h22v22h-22z"/><path fill="#000" fill-rule="evenodd" d="M609 505v-54h52v54zm44-46v38h-36v-38z" clip-rule="evenodd"/><path fill="#000" d="M538 577h-22v22h22z"/><path fill="#000" fill-rule="evenodd" d="M501 561v54h52v-54zm44 46v-38h-36v38z" clip-rule="evenodd"/><path fill="#000" d="M562 459h8v46h-8zM601 459h-8v-8h-15v8h15v22h-15v24h8v-16h15zM541 511h48v8h8v8h-32v16h-8v-8h-8v-8h8v-8h-8v8h-8v8h-8v8h-8v8h-24v-8h8v-8h-8v-8h16v8h8v-16h16z"/><path fill="#000" d="M525 519h-8v-8h8zM557 551h-16v-8h16z"/><path fill="#000" fill-rule="evenodd" d="M573 551h-16v24h16v8h8v8h24v24h8v-32h16v-8h-8v-8h16v-8h-16v-8h-8v16h-8v-32h8v-16h16v8h8v8h-16v8h16v-8h8v-8h-8v-8h16v32h-8v8h8v8h8v-8h-8v-8h8v-32h-8v-8h-40v8h-8v-8h-8v8h8v16h-8v8h-8v-8h-8v8h-8zm0 0v8h16v-8zm32 24h-8v8h-16v-8h-8v-8h32zm0 0v8h8v-8z" clip-rule="evenodd"/><path fill="#000" d="M589 607h-8v-8h-8v-8h-16v8h8v8h8v8h16zM589 607v-8h8v8zM661 591h-24v8h24zM601 497h-8v8h8zM622 599h8v8h-8zM630 607h16v8h-16zM653 575h8v8h-8zM661 607h-8v8h8z"/><path stroke="#000" stroke-linecap="round" stroke-linejoin="round" d="M683.009 609v26.01h-25.01M505.009 635.01h-26.01V610M656.999 431h26v25.01M478.999 457.01V431h25.01"/><g fill="#fff" opacity=".15"><path d="M722.589 327.91c.43.46.83.94 1.21 1.44h-.02c.14.17.29.33.44.47v163.17l-.37 14.42-166.28-202.28h135.62c2.72.95 5.49 1.77 8.33 2.35l.455.35c4.029 3.102 8.05 6.197 11.355 10.11.71.84 1.57 1.29 2.47 1.45.87.9 1.75 1.8 2.63 2.69-.08.89.15 1.83.85 2.74.82 1.08 1.54 1.79 2.61 2.63.204.159.415.287.62.411zM450.569 580.79V443.35l258.14 247.79v83.53c0 15.8-12.81 28.61-28.61 28.61h-46.64z"/></g><path fill="#000" d="m496 321 10.63 10.97a37.46 37.46 0 0 0 26.48 10.97h93.52c9.93 0 19.46-3.95 26.48-10.97L664 321z"/><path stroke="#000" stroke-miterlimit="10" d="M682.37 306.18H477.6c-22.842 0-41.36 18.517-41.36 41.36v430.28c0 22.842 18.518 41.36 41.36 41.36h204.77c22.842 0 41.36-18.518 41.36-41.36V347.54c0-22.843-18.518-41.36-41.36-41.36Z"/><path fill="#FFAB93" d="M448.06 821.88c87.06-64.15 17.94-183.12 3.7-205.62-1.44-2.27-1.59-5.13-.34-7.51 12.87-24.56 22.02-63.45 22.02-63.45 5.77-39.77-4.02-64.3-15.12-78.83-8.85-11.58-26.96-9.11-32.51 4.37L318.5 734.5c1.5 16.5 2.5 34 11 67 3.993 15.5 12.234 38.63 28.5 55.5"/><path stroke="#000" stroke-linecap="round" stroke-linejoin="round" d="M448.06 821.88c87.06-64.15 17.94-183.12 3.7-205.62-1.44-2.27-1.59-5.13-.34-7.51 12.87-24.56 22.02-63.45 22.02-63.45 5.77-39.77-4.02-64.3-15.12-78.83-8.85-11.58-26.96-9.11-32.51 4.37L318.5 734.5c1.5 16.5 2.5 34 11 67 3.993 15.5 12.234 38.63 28.5 55.5"/><path fill="#FFAB93" d="M406.02 523.29s28.56 6.12 39.77-23.31l5.92-14.38"/><path stroke="#000" stroke-linecap="round" stroke-linejoin="round" d="M406.02 523.29s28.56 6.12 39.77-23.31l5.92-14.38"/><path stroke="#fff" stroke-miterlimit="10" d="M452.77 482.86s-4.72-10.06-24.46-15.39"/><path fill="#000" d="M336 692.5s-14.5 51-2.5 121.5c0 0-11-30.5-15-79z" opacity=".29"/><path fill="#F3B443" stroke="#000" stroke-miterlimit="10" d="M845.34 505.784c33.877 0 61.34-27.463 61.34-61.34s-27.463-61.34-61.34-61.34S784 410.567 784 444.444s27.463 61.34 61.34 61.34Z"/><path fill="#000" d="M811.81 392.284h15.14l7.43-3.93 47.53 11.65v71.31l-71.32-10.65z"/><path fill="#FFF1E6" stroke="#000" stroke-miterlimit="10" d="m802.46 472.644 60.42 20.84 22.1-8.99-3.05-83.56a.476.476 0 0 0-.77-.36l-7.79 6.15-11.42 3.4-50.15-17.84-9.35 80.36z"/><path stroke="#000" stroke-linecap="round" stroke-linejoin="round" d="m861.96 410.124.93 83.36 12.79-12.43-2.3-74.32M884.99 484.494l-9.31-3.44M823.16 401.834s.46-31.03 14.82-28.71 9.73 38.44 9.73 38.44"/><path stroke="#000" stroke-linecap="round" stroke-linejoin="round" d="M839.97 397.444s.26-24.64 14.62-22.56 9.51 28.31 9.51 28.31"/><path fill="#000" d="M821.57 400.324c.81.03 1.58.38 2.23.86l-.25-.38c.97.51 1.89 1.27 2.24 2.31s-.04 2.38-1.05 2.81c-.49.2-1.04.18-1.56.12-1.22-.15-2.47-.53-3.33-1.42s-1.16-2.38-.42-3.37c.49-.64 1.33-.96 2.14-.93M846.39 409.014c.81.03 1.579.38 2.229.86l-.25-.38c.97.51 1.89 1.27 2.24 2.31s-.04 2.38-1.049 2.81c-.491.2-1.04.18-1.56.12-1.22-.15-2.471-.53-3.331-1.42s-1.159-2.38-.419-3.37c.49-.64 1.33-.96 2.14-.93"/><path fill="#A4DED2" d="M818.76 426.504c-2.23.4-4.49 1.17-6.08 2.79-3.09 3.16-2.52 8.62.13 12.15s6.82 5.54 10.9 7.22c7.3 3.01 15.04 5.41 22.94 5.22 2.03-.05 4.21-.34 5.68-1.74 1.22-1.16 1.73-2.9 1.81-4.59.24-5.21-3.19-9.99-7.4-13.08-7.54-5.56-18.53-9.65-27.98-7.97"/><path fill="#FFDD7D" stroke="#000" stroke-miterlimit="10" d="M848.45 834.42c40.118 0 72.64-32.522 72.64-72.64s-32.522-72.64-72.64-72.64-72.64 32.522-72.64 72.64 32.522 72.64 72.64 72.64Z"/><path fill="#BAE8E0" d="m805.21 787.47 15.01-64.48c.43-1.84 2.21-3.15 4.27-3.15h87.03c2.42 0 4.24 2.03 3.75 4.19l-14.2 63.44H805.2"/><path stroke="#000" stroke-miterlimit="10" d="m805.21 787.47 15.01-64.48c.43-1.84 2.21-3.15 4.27-3.15h87.03c2.42 0 4.24 2.03 3.75 4.19l-14.2 63.44H805.2"/><path fill="#BAE8E0" stroke="#000" stroke-miterlimit="10" d="M773.73 786.47h127.35v8.61H773.73c-1.75 0-3.17-1.42-3.17-3.17v-2.27c0-1.75 1.42-3.17 3.17-3.17Z"/><path fill="#219A89" stroke="#000" stroke-miterlimit="10" d="M858.45 786.47h42.64v8.61h-42.64c-1.75 0-3.17-1.42-3.17-3.17v-2.27c0-1.75 1.42-3.17 3.17-3.17Z"/><path fill="#F3B443" stroke="#000" stroke-miterlimit="10" d="m898.54 783.2 13.77-60.84h-89.1l-13.89 60.49z"/><g fill="#fff" opacity=".8"><path d="m887.639 782.68-58.85-59.82 23.89-.04 48.62 45.62-3.06 14.24zM862.219 782.68l-42.85-41.39-1.18 5.08 37.33 36.31z"/></g><path fill="#FFDD7D" stroke="#000" stroke-miterlimit="10" d="M256.48 534.38c35.633 0 64.52-28.887 64.52-64.52s-28.887-64.52-64.52-64.52-64.52 28.887-64.52 64.52 28.887 64.52 64.52 64.52Z"/><path fill="#59B8AA" stroke="#000" stroke-miterlimit="10" d="M227.77 420.49h-.58c.11-.44.17-.9.17-1.37a5.83 5.83 0 0 0-5.83-5.83c-1.4 0-2.69.49-3.69 1.32.07-.43.11-.87.11-1.32 0-4.68-3.8-8.48-8.48-8.48s-8.48 3.8-8.48 8.48c0 .87.13 1.72.38 2.51a5.83 5.83 0 0 0-3.46-1.14 5.83 5.83 0 0 0-5.83 5.83h-9c-1.7 0-3.08 1.38-3.08 3.08s1.38 3.08 3.08 3.08h44.69c1.7 0 3.08-1.38 3.08-3.08s-1.38-3.08-3.08-3.08Z"/><path fill="#CEF3EA" stroke="#000" stroke-miterlimit="10" d="M272.18 408.1h.39a3 3 0 0 1-.11-.8c0-1.87 1.78-3.38 3.96-3.38.95 0 1.83.29 2.51.76-.05-.25-.08-.5-.08-.76 0-2.72 2.58-4.92 5.77-4.92s5.77 2.2 5.77 4.92c0 .51-.09 1-.26 1.46.66-.41 1.47-.66 2.35-.66 2.19 0 3.96 1.51 3.96 3.38h6.12c1.16 0 2.1.8 2.1 1.79s-.94 1.79-2.1 1.79h-30.39c-1.16 0-2.1-.8-2.1-1.79s.94-1.79 2.1-1.79z"/><path fill="#B8BCBA" stroke="#000" stroke-miterlimit="10" d="m334.805 435.73-123.555 4.855a5.17 5.17 0 0 0-4.963 5.369l2.026 51.57a5.17 5.17 0 0 0 5.369 4.963l123.555-4.855a5.17 5.17 0 0 0 4.963-5.368l-2.026-51.571a5.17 5.17 0 0 0-5.369-4.963Z"/><path fill="#113D38" d="m210.272 440.623 125.513-4.932a4.196 4.196 0 0 1 4.352 4.023l.24 6.125-133.886 5.26-.241-6.125a4.195 4.195 0 0 1 4.022-4.351"/><path fill="#59B8AA" d="M317.08 489.76c9.422 0 17.06-7.638 17.06-17.06s-7.638-17.06-17.06-17.06-17.06 7.638-17.06 17.06 7.638 17.06 17.06 17.06"/><path fill="#113D38" d="m324.274 467.365-2.287-2.181-9.339 9.79 2.287 2.181zM322 465.18s1.51-1.41 3.16-1.02c0 0 .5 1.76-.87 3.2M321.87 469.9l2.24 9.36-1.09 1.14-3.93-7.59"/><path fill="#113D38" d="m319.59 467.72-9.46-1.8-1.09 1.14 7.76 3.57M314.95 477.15l.33 3.12-.81.85-1.45-4.24.79-.82"/><path fill="#113D38" d="m312.66 474.97-3.12-.18-.82.85 4.3 1.24.79-.82"/><path stroke="#000" stroke-miterlimit="10" d="m294.18 499.32-2.44-61.91"/><path fill="#59B8AA" d="m273.772 457.325-59.025 2.32.199 5.056 59.024-2.319zM247.6 466.217l-32.545 1.278.199 5.057 32.545-1.279z"/><path fill="#F8F9F8" stroke="#000" stroke-miterlimit="10" d="M336.368 415.729 189.703 442.62a5.17 5.17 0 0 0-4.152 6.018l11.43 62.341a5.17 5.17 0 0 0 6.018 4.153l146.665-26.892a5.17 5.17 0 0 0 4.152-6.018l-11.43-62.34a5.17 5.17 0 0 0-6.018-4.153Z"/><path fill="#F3B443" d="m186.83 455.63-1.25-6.84a5.327 5.327 0 0 1 4.28-6.2l146.35-26.83c2.9-.53 5.67 1.39 6.2 4.28l1.16 6.34"/><path stroke="#000" stroke-miterlimit="10" d="m186.83 455.63-1.25-6.84a5.327 5.327 0 0 1 4.28-6.2l146.35-26.83c2.9-.53 5.67 1.39 6.2 4.28l1.16 6.34"/><path fill="#88CCC0" d="M320.75 482.77c11.217 0 20.31-9.093 20.31-20.31s-9.093-20.31-20.31-20.31-20.31 9.093-20.31 20.31 9.093 20.31 20.31 20.31"/><path fill="#113D38" d="M325.28 452.77s1.55-1.92 3.55-1.73c0 0 .89 1.99-.49 3.92zM328.325 454.958l-3.06-2.184-2.416 3.385-11.429-.519-1.09 1.53 9.731 2.897-4.148 5.812.003.002-3.706.309-.81 1.13 5.27.75 2.42 4.74.81-1.14-.91-3.61-.009-.007z"/><path fill="#113D38" d="m330.14 468.99-4.22-10.64-2.79 3.9 5.91 8.27z"/><path stroke="#000" stroke-miterlimit="10" d="m298.25 497.67-.27-1.47"/><path stroke="#000" stroke-dasharray="5 5" stroke-miterlimit="10" d="m297.43 493.17-11.93-65.02"/><path stroke="#000" stroke-miterlimit="10" d="m285.23 426.63-.27-1.47"/><path fill="#A2DDD2" d="m267.149 451.638-69.137 12.677 1.085 5.921 69.138-12.676zM281.783 474.641l-78.99 15.12-.188-.982 78.99-15.12zM199.701 473.518l38.125-6.991 1.085 5.922-38.124 6.99z"/><path fill="#F3B443" stroke="#000" stroke-miterlimit="10" d="m658.914 184.347 12.335 16.892s-1.505 23.668-39.609 47.204c-38.104 23.55-58.074 15.189-58.074 15.189l-13.432-16.14s51.113-64.057 98.78-63.145Z"/><path fill="#FFDB7F" stroke="#000" stroke-miterlimit="10" d="M620.867 234.682c27.377-17.015 44.58-38.838 38.423-48.745s-33.341-4.144-60.719 12.871c-27.377 17.014-44.58 38.838-38.423 48.744 6.156 9.907 33.341 4.144 60.719-12.87Z"/><path fill="#FFDB7F" stroke="#000" stroke-miterlimit="10" d="M615.352 227.61c21.671-13.468 35.887-29.781 31.752-36.435-4.135-6.653-25.056-1.129-46.727 12.339-21.672 13.469-35.888 29.781-31.752 36.435s25.055 1.129 46.727-12.339Z"/><path fill="#000" d="m613.822 257.86-10.382-13.881s-26.996 11.544-40.455 6.947l10.58 12.706s14.832 5.23 40.257-5.772" opacity=".49"/><path fill="#F3B443" stroke="#000" stroke-miterlimit="10" d="m880.37 573.409-6.37 7.49s-.11 11.15 16.94 23.51 26.7 9.14 26.7 9.14l6.86-7.1s-21.75-31.81-44.13-33.03z"/><path fill="#FFDB7F" stroke="#000" stroke-miterlimit="10" d="M924.465 606.352c3.23-4.432-4.079-15.261-16.325-24.188-12.247-8.927-24.793-12.571-28.024-8.14-3.23 4.432 4.079 15.261 16.325 24.188 12.247 8.927 24.793 12.571 28.024 8.14Z"/><path fill="#FFDB7F" stroke="#000" stroke-miterlimit="10" d="M920.752 602.488c2.17-2.976-3.929-11.118-13.622-18.184-9.694-7.066-19.311-10.381-21.481-7.404s3.929 11.118 13.623 18.184 19.31 10.381 21.48 7.404Z"/><path fill="#000" d="m898.96 609.439 5.35-6.15s12.26 6.35 18.73 4.66l-5.4 5.59s-7.14 1.94-18.67-4.1z" opacity=".5"/><path fill="#F3B443" stroke="#000" stroke-miterlimit="10" d="m295.99 628.21 8.09 7.26s1.78 12.19-15.05 28.27-27.89 13.98-27.89 13.98l-8.57-6.76s19.09-38.07 43.42-42.74z"/><path fill="#FFDB7F" stroke="#000" stroke-miterlimit="10" d="M282.086 657.821c12.084-11.6 18.475-24.55 14.276-28.925s-17.4 1.483-29.484 13.083-18.476 24.551-14.276 28.925 17.4-1.483 29.484-13.083Z"/><path fill="#FFDB7F" stroke="#000" stroke-miterlimit="10" d="M278.517 654.795c9.566-9.183 15.036-19.008 12.217-21.944s-12.859 2.128-22.425 11.311-15.035 19.007-12.216 21.944c2.818 2.936 12.858-2.128 22.424-11.311Z"/><path fill="#000" d="m280.98 670.44-6.77-5.94s-12.48 8.78-19.82 7.89l6.75 5.32s8.11 1.06 19.84-7.27" opacity=".5"/><path fill="#fff" stroke="#000" stroke-miterlimit="10" d="M412.73 247.37s18.77-2.3 18.77 21.21c0 0 0-21.65 19.83-21.27 0 0-19.3-1.19-19.83-22.02 0 0 1.38 21.65-18.77 22.09zM772.34 620.83s22.46-2.75 22.46 25.37c0 0 0-25.9 23.73-25.45 0 0-23.73-.45-23.73-26.35 0 0 4.16 26.43-22.46 26.43ZM377 905.89s46.65-5.71 46.65 52.69c0 0 0-53.79 49.27-52.85 0 0-42.39 1.78-49.27-54.73 0 0 1.31 53.79-46.65 54.88z"/></svg>