<svg xmlns="http://www.w3.org/2000/svg" fill="none" viewBox="0 0 390 390"><path fill="#59B8AA" stroke="#000" stroke-miterlimit="10" stroke-width=".325" d="M63.941 96.885a5.941 5.941 0 1 0 0-11.883 5.941 5.941 0 0 0 0 11.883Z"/><path fill="#000" d="M60.616 91.228c-.824-1.176-1.183-2.671-1.059-4.11A5.78 5.78 0 0 0 58 91.067a5.82 5.82 0 0 0 5.817 5.818 5.8 5.8 0 0 0 5.09-3.018c-2.941.796-6.62-.249-8.291-2.64"/><path fill="#fff" d="M66.423 90.413a2.284 2.284 0 1 0 0-4.567 2.284 2.284 0 0 0 0 4.567"/><path fill="#59B8AA" stroke="#000" stroke-miterlimit="10" stroke-width=".325" d="M297.671 118.641a4.599 4.599 0 1 0 0-9.198 4.599 4.599 0 0 0 0 9.198Z"/><path fill="#000" d="M295.097 114.262c-.637-.911-.916-2.068-.819-3.182a4.47 4.47 0 0 0-1.206 3.059 4.504 4.504 0 0 0 4.503 4.502c1.7 0 3.176-.945 3.94-2.335-2.277.616-5.124-.193-6.418-2.044"/><path fill="#fff" d="M299.592 113.633a1.768 1.768 0 1 0 0-3.536 1.768 1.768 0 0 0 0 3.536"/><path fill="#F3B443" stroke="#000" stroke-miterlimit="10" stroke-width=".325" d="M145.152 302.204a3.99 3.99 0 1 0 0-7.98 3.99 3.99 0 0 0 0 7.98Z"/><path fill="#000" d="M142.919 298.405c-.553-.79-.795-1.794-.711-2.76a3.88 3.88 0 0 0-1.046 2.653 3.907 3.907 0 0 0 3.906 3.906c1.476 0 2.756-.82 3.418-2.026-1.975.535-4.445-.167-5.567-1.773"/><path fill="#fff" d="M146.819 297.858a1.533 1.533 0 1 0 0-3.065 1.533 1.533 0 0 0 0 3.065"/><path stroke="#000" stroke-miterlimit="10" stroke-width=".325" d="M71.97 240.525v7.897M75.923 244.473h-7.9M258.277 69.94v7.896M262.227 73.889h-7.897"/><path fill="#59B8AA" stroke="#000" stroke-miterlimit="10" stroke-width=".325" d="M284.853 237.989a4.11 4.11 0 1 0 0-8.222 4.11 4.11 0 0 0 0 8.222Z"/><path fill="#83CDC1" stroke="#A1DED2" stroke-miterlimit="10" stroke-width=".325" d="M69.23 165.302c-3.605 1.526-4.124 1.512-5.595 4.955-.287.668.076 7.575.557 8.184l65.927 83.519c3.643 4.402 9.99 5.665 15.256 3.443q.63-.259 1.26-.522c1.201-.495 2.398-.994 3.599-1.488l5.674-2.347q3.742-1.548 7.485-3.097l9.032-3.737 10.312-4.266q5.662-2.343 11.329-4.686c4.028-1.664 8.052-3.332 12.08-4.996q6.283-2.602 12.568-5.198c4.263-1.765 8.526-3.526 12.789-5.291l12.748-5.273c4.149-1.717 8.294-3.433 12.443-5.146 3.959-1.636 7.914-3.273 11.873-4.91q5.518-2.285 11.035-4.564l9.935-4.111q4.286-1.773 8.571-3.547c2.315-.958 4.626-1.913 6.941-2.872l5.049-2.087c1.782-.737 3.599-1.681 4.837-3.232 1.409-1.761 2.177-4.076 2.568-6.27.156-.868.727-2.221.436-3.1-.225-.682-.931-.9-1.523-1.177-1.062-.494-1.972-1.138-2.709-2.062l-49.877-70.965c-4.589-5.723-17.52-9.917-24.275-7.055L69.241 165.302z"/><path fill="#F3FBF9" stroke="#A1DED2" stroke-miterlimit="10" stroke-width=".325" d="M67.967 163.891c-4.318 1.83-5.71 7.27-2.8 10.948l65.266 82.425a12.95 12.95 0 0 0 15.011 3.675l165.519-67.262c7.374-2.996 9.779-12.249 4.799-18.457l-55.403-69.878c-4.589-5.724-12.613-10.035-19.364-7.174z"/><g fill="#fff" opacity=".15"><path d="m227.59 103.413-.008-.002.003.004zM227.59 103.413l37.429 7.805-7.377-8.734c-3.599-3.93-11.939-6.318-17.181-4.221zM76.406 160.317l.006.001-.006.002zM76.412 160.318l65.395-24.469 168.359 32.586 6.277 7.965c4.156 5.925 1.772 14.52-5.477 17.278l-29.59 12.025zM106.013 226.423l82.567 16.997-44.901 18.285a11.045 11.045 0 0 1-12.879-3.443z"/></g><path fill="#fff" stroke="#D7DAD9" stroke-width=".325" d="M81.704 175.253c-1.523-1.887-.768-4.711 1.496-5.584l133.206-51.383a3.58 3.58 0 0 1 4.362 1.506l.14-.083-.14.083a3.577 3.577 0 0 1-1.777 5.167L86 176.608a3.58 3.58 0 0 1-4.082-1.089z" opacity=".05"/><path fill="#FBFDFC" stroke="#B8EAE0" stroke-dasharray="6 6" stroke-linejoin="round" stroke-miterlimit="10" d="m84.002 173.394 59.009 70.54 72.522-28.932-58.5-68z"/><mask id="a" width="111" height="57" x="208" y="155" maskUnits="userSpaceOnUse" style="mask-type:alpha"><path fill="#D9D9D9" stroke="#5F6563" d="m305.002 156.002-95.5 39 13.5 15.5 95-40z"/></mask><g stroke="#5F6563" mask="url(#a)"><path d="m231.002 212.002-19-21.5M275.002 193.002l-19-21.5M252.002 202.002l-19-21.5M296.002 183.002l-19-21.5"/><path stroke-width="2" d="m241.002 208.002-19-21.5M285.002 189.002l-19-21.5M271.002 193.002l-19-21.5M262.002 198.002l-19-21.5"/><path stroke-width="3" d="m234.002 210.002-19-21.5M278.002 191.002l-19-21.5M255.002 200.002l-19-21.5M299.002 181.002l-19-21.5"/><path stroke-width="5" d="m245.002 205.002-19-21.5M289.002 186.002l-19-21.5"/><path stroke-width=".5" d="m237.002 208.002-19-21.5M281.002 189.002l-19-21.5M249.002 203.002l-19-21.5M293.002 184.002l-19-21.5M259.002 199.002l-19-21.5M303.002 180.002l-19-21.5M264.002 196.002l-19-21.5M267.002 196.002l-19-21.5M269.002 195.002l-19-21.5"/></g><path fill="#83CDC1" d="m250.502 129.502-66 26.5-5.5-6 66-26zM246.002 143.502l-53.5 21.5-5.5-6 53.5-21z"/><path fill="#E0F8F3" d="m252.502 150.002-53.5 21.5-1-1.5 53.5-21zM260.502 151.002l-53.5 21.5-1-1.5 53.5-21zM255.502 157.002l-53.5 21.5-1-1.5 53.5-21z"/><path fill="#F7F9F8" stroke="#D7DAD9" stroke-miterlimit="10" stroke-width=".325" d="m84.002 122.394 59.009 70.54 72.522-28.932-58.5-68z" opacity=".8"/><path fill="#5F6563" d="M206.572 70.693c-1.398-.197-8.574 14.803-44.074 11.308l9.5-6.498z" opacity=".48"/><path fill="#F3B443" stroke="#000" stroke-miterlimit="10" stroke-width=".325" d="M186.371 79.743c14.565 0 26.372-11.807 26.372-26.372S200.936 27 186.371 27 160 38.807 160 53.371c0 14.565 11.807 26.372 26.371 26.372Z"/><path fill="#FFDB7F" stroke="#000" stroke-miterlimit="10" stroke-width=".325" d="m205.717 50.7-26.562-16.75-12.921 21.817c-1.418 2.411 3.492 7.927 10.963 12.318 7.471 4.395 14.678 6 16.094 3.589.066-.11.114-.232.152-.357l.045.025 12.229-20.648z"/><path fill="#CC963E" stroke="#000" stroke-miterlimit="10" stroke-width=".325" d="M205.815 50.251c1.418-2.412-3.489-7.927-10.961-12.32-7.471-4.392-14.677-5.997-16.095-3.585s3.489 7.928 10.961 12.32c7.471 4.392 14.677 5.997 16.095 3.585Z"/><path fill="#FFDB7F" stroke="#000" stroke-miterlimit="10" stroke-width=".325" d="M200.337 28.712c-4.606-2.727-10.568-1.2-13.295 3.405l-2.91 4.914a1.936 1.936 0 1 0 3.111 2.277l3.1-5.236a5.875 5.875 0 0 1 8.042-2.059 5.874 5.874 0 0 1 2.059 8.042l-2.91 4.914a1.936 1.936 0 1 0 3.111 2.277l3.1-5.236c2.727-4.605 1.201-10.568-3.405-13.294z"/><g fill="#fff" opacity=".15"><path d="M180.507 69.858c-8.485-5.318-8.571-23.724-8.571-23.724l5.872-9.917c-1.208 21.561 10.46 36.576 10.46 36.576-1.899.003-7.761-2.935-7.761-2.935M197.521 64.533c-6.599-7.007-6.879-17.34-6.879-17.34v-.003l8.495 4.007c-.602 2.567 1.931 7.35 1.931 7.35z"/></g><path fill="#fff" d="M202.694 36.827c-.038-2.755-1.8-5.45-4.36-6.516-.325-.135-.557-.426-.453-.8.086-.307.474-.588.799-.453 3.111 1.294 5.267 4.381 5.311 7.769.011.837-1.287.834-1.297 0M202.535 40.35c.833 0 .837-1.298 0-1.298-.838 0-.838 1.297 0 1.297"/><path fill="#000" d="M185.588 56.558a2.678 2.678 0 1 0 .001-5.357 2.678 2.678 0 0 0-.001 5.357"/><path fill="#000" d="m184.236 53.73-4.243 5.516a.545.545 0 0 0 .153.8l2.467 1.46c.273.163.63.055.768-.232l2.99-6.277z"/><path fill="#5F6563" fill-rule="evenodd" d="M270.836 293.671c-4.455 9.766-10.564 18.131-19.365 24.057-5.588-3.769-12.318-10.666-14.105-19.973-2.924-15.226 0-23.53 0-23.53z" clip-rule="evenodd" opacity=".48"/><path fill="#FFDB7F" stroke="#000" stroke-miterlimit="10" stroke-width=".325" d="M259.305 305.611c12.872 0 23.306-10.434 23.306-23.306 0-12.871-10.434-23.305-23.306-23.305C246.434 259 236 269.434 236 282.305s10.434 23.306 23.305 23.306Z"/><path fill="#CC963E" d="M246.121 276.779c0 .381.312.692.692.692a.694.694 0 0 0 .692-.692v-3.91a3.337 3.337 0 0 1 3.333-3.333h4.221a.694.694 0 0 0 .692-.692.694.694 0 0 0-.692-.692h-4.221a4.72 4.72 0 0 0-4.717 4.717zM272.205 277.09c0 .381.312.692.692.692a.694.694 0 0 0 .692-.692v-4.221a4.72 4.72 0 0 0-4.716-4.717h-3.91a.694.694 0 0 0-.692.692c0 .381.311.692.692.692h3.91a3.336 3.336 0 0 1 3.332 3.333zM268.873 295.223h-4.222a.695.695 0 0 1-.692-.692c0-.381.312-.693.692-.693h4.222a3.335 3.335 0 0 0 3.332-3.328v-3.911c0-.38.312-.692.692-.692.381 0 .692.312.692.692v3.911a4.72 4.72 0 0 1-4.716 4.713M250.838 295.223h3.91c.38 0 .692-.312.692-.692a.695.695 0 0 0-.692-.693h-3.91a3.333 3.333 0 0 1-3.333-3.328v-4.222a.694.694 0 0 0-.692-.692.694.694 0 0 0-.692.692v4.222a4.72 4.72 0 0 0 4.717 4.713M254.36 280.969a.694.694 0 0 1-.692-.692v-3.19c0-.381.311-.692.692-.692s.692.311.692.692v3.19a.694.694 0 0 1-.692.692M264.271 280.277c0 .381.311.692.692.692s.692-.311.692-.692v-3.19a.694.694 0 0 0-.692-.692.694.694 0 0 0-.692.692zM258.641 284.509h-.782a.694.694 0 0 1-.693-.692c0-.38.312-.692.693-.692h.782a.393.393 0 0 0 .391-.391v-5.332c0-.381.311-.692.692-.692s.692.311.692.692v5.332c0 .979-.796 1.775-1.775 1.775M258.305 289.991a.69.69 0 0 0 .682.588l-.004-.004q.056.002.107-.007c4.665-.712 6.447-5.301 6.52-5.495a.69.69 0 0 0-.402-.889.694.694 0 0 0-.893.402c-.013.038-1.581 4.024-5.432 4.616a.69.69 0 0 0-.578.789"/><path stroke="#000" stroke-miterlimit="10" stroke-width=".325" d="M246.121 276.779c0 .381.312.692.692.692a.694.694 0 0 0 .692-.692v-3.91a3.337 3.337 0 0 1 3.333-3.333h4.221a.694.694 0 0 0 .692-.692.694.694 0 0 0-.692-.692h-4.221a4.72 4.72 0 0 0-4.717 4.717zM272.205 277.09c0 .381.312.692.692.692a.694.694 0 0 0 .692-.692v-4.221a4.72 4.72 0 0 0-4.716-4.717h-3.91a.694.694 0 0 0-.692.692c0 .381.311.692.692.692h3.91a3.336 3.336 0 0 1 3.332 3.333zM268.873 295.223h-4.222a.695.695 0 0 1-.692-.692c0-.381.312-.693.692-.693h4.222a3.335 3.335 0 0 0 3.332-3.328v-3.911c0-.38.312-.692.692-.692.381 0 .692.312.692.692v3.911a4.72 4.72 0 0 1-4.716 4.713ZM250.838 295.223h3.91c.38 0 .692-.312.692-.692a.695.695 0 0 0-.692-.693h-3.91a3.333 3.333 0 0 1-3.333-3.328v-4.222a.694.694 0 0 0-.692-.692.694.694 0 0 0-.692.692v4.222a4.72 4.72 0 0 0 4.717 4.713ZM254.36 280.969a.694.694 0 0 1-.692-.692v-3.19c0-.381.311-.692.692-.692s.692.311.692.692v3.19a.694.694 0 0 1-.692.692ZM264.271 280.277c0 .381.311.692.692.692s.692-.311.692-.692v-3.19a.694.694 0 0 0-.692-.692.694.694 0 0 0-.692.692zM258.641 284.509h-.782a.694.694 0 0 1-.693-.692c0-.38.312-.692.693-.692h.782a.393.393 0 0 0 .391-.391v-5.332c0-.381.311-.692.692-.692s.692.311.692.692v5.332c0 .979-.796 1.775-1.775 1.775ZM258.305 289.991a.69.69 0 0 0 .682.588l-.004-.004q.056.002.107-.007c4.665-.712 6.447-5.301 6.52-5.495a.69.69 0 0 0-.402-.889.694.694 0 0 0-.893.402c-.013.038-1.581 4.024-5.432 4.616a.69.69 0 0 0-.578.789Z"/><path fill="#fff" stroke="#000" stroke-miterlimit="10" stroke-width=".325" d="M96 72.388s18.181-2.225 18.181 20.537c0 0 0-20.962 19.201-20.595 0 0-16.52.692-19.201-21.33 0 0 .512 20.963-18.181 21.388ZM185.047 273.347s12.267-1.502 12.267 13.855c0 0 0-14.142 12.955-13.896 0 0-11.145.467-12.955-14.392 0 0 .346 14.142-12.267 14.43zM318 137.851s5.82-.712 5.82 6.575c0 0 0-6.713 6.149-6.595 0 0-5.291.221-6.149-6.831 0 0 .163 6.713-5.82 6.848z"/><path stroke="#B8EAE0" stroke-dasharray="6 6" d="M143 193v51M84 123v51M215 164v51"/><mask id="b" width="133" height="99" x="83" y="95" maskUnits="userSpaceOnUse" style="mask-type:alpha"><path fill="#F7F9F8" stroke="#D7DAD9" stroke-miterlimit="10" stroke-width=".325" d="m84 122.392 59.009 70.54L215.531 164l-58.5-68z" opacity=".8"/></mask><g mask="url(#b)"><path fill="#1A211E" d="m161.722 146.395-14.452 5.748c-4.252 1.689-11.068-.837-16.04-5.954l-10.221-10.513c-6.17-6.35-6.978-13.97-1.7-16.066l17.21-6.851c5.323-2.118 14.296 2.38 18.827 9.443l7.457 11.612c3.584 5.585 3.127 10.903-1.081 12.581"/><path fill="#FBFDFC" stroke="#1A211E" stroke-linecap="round" stroke-linejoin="round" stroke-width=".74" d="M155.358 130.107c.145 3.166 2.653 5.987 5.596 6.305s5.211-1.996 5.066-5.162-2.653-5.987-5.596-6.305-5.211 1.996-5.066 5.162"/><path stroke="#1A211E" stroke-linecap="round" stroke-linejoin="round" stroke-width=".74" d="M159.834 126.728c1.115-.061 2.346.368 3.121 1.093s1.053 1.717.713 2.503"/><path fill="#FBFDFC" stroke="#1A211E" stroke-linecap="round" stroke-linejoin="round" stroke-width=".74" d="M130.786 139.885c3.79 1.717 5.941 4.677 4.81 6.617-1.132 1.934-5.117 2.112-8.907.396s-5.941-4.677-4.809-6.617c1.131-1.935 5.116-2.113 8.906-.396"/><path stroke="#1A211E" stroke-linecap="round" stroke-linejoin="round" stroke-width=".74" d="M124.359 140.844c-.652.641-.758 1.605-.268 2.441.485.837 1.55 1.517 2.687 1.717"/><path fill="#FBFDFC" stroke="#1A211E" stroke-linecap="round" stroke-linejoin="round" stroke-width=".77" d="M174.581 159.78c3.489 4.064 2.285 9.053-2.659 11.015-4.843 1.929-11.392.196-14.624-3.818-.067-.084-.134-.167-.19-.251l-7.797-11.266-1.973-2.854-3.873-5.597 14.056-5.591 7.658 8.239 5.562 5.998 3.834 4.125z"/><path fill="#1A211E" d="M170.747 155.655c-4.392 2.113-11.019 2.213-17.506-.122-2.185-.781-4.169-1.779-5.897-2.927l-3.873-5.597 14.056-5.591 7.657 8.239z"/><path fill="#FBFDFC" stroke="#1A211E" stroke-linecap="round" stroke-linejoin="round" stroke-width=".74" d="M163.953 136.245c.396 1.388.596 2.932.602 4.498.011 3.016-.691 6.127-2.023 8.451-1.461 2.548-4.554 4.421-8.282 4.761-2.932.273-6.053-.374-9.029-1.182-3.712-1.009-7.407-2.313-10.511-4.32-2.414-1.561-4.498-3.534-6.349-5.669-2.569-2.955-4.681-6.216-6.604-9.109-2.837-4.259-2.998-9.309-.451-13.061 2.496-3.679 7.54-6.087 13.22-6.305 5.673-.217 11.837 1.762 16.151 5.184 3.066 2.431 5.094 5.419 7.418 8.217.652.786 1.338 1.567 2.001 2.358 1.667 1.957 3.216 3.964 3.857 6.182z"/><path fill="#1A211E" d="m160.263 130.163.078.1-.139-.034c-1.734-.362-3.333-1.243-4.375-2.419l-7.914-8.88c-.731.039-1.438.061-2.174.067a43 43 0 0 1-3.277-.128c-2.308-.168-4.498-.536-6.365-1.071-1.304.937-2.954 1.806-4.765 2.531-2.112.842-4.331 1.427-6.421 1.695-.25 1.349-.852 2.798-1.739 4.225a18 18 0 0 1-1.789 2.442c-.15.173-.323.362-.529.585l7.022 9.661c.931 1.287 1.171 2.737.652 3.997l-.039.094-.083-.089c-2.386-2.754-4.403-5.803-6.192-8.484l-.413-.624c-1.833-2.754-2.563-5.798-2.156-8.641.217-1.589.791-3.11 1.705-4.476 2.502-3.679 7.585-6.11 13.27-6.322 2.792-.111 5.724.318 8.494 1.199 2.842.892 5.518 2.269 7.708 4.002 2.363 1.873 4.135 4.103 5.846 6.26.513.647 1.054 1.316 1.583 1.968.374.452.764.909 1.154 1.355.278.334.563.663.847.998z"/><path fill="#1A211E" d="M134.174 115.943s-2.865-.808-4.141 1.193c-1.277 1.996-.926 4.298-.87 6.656a36.4 36.4 0 0 1-1.042 9.633c-.457 1.862-1.109 3.74-2.675 5.1s-4.269 2.074-6.727 1.243c-2.062-5.106-4.431-10.63-3.517-15.602 1.098-5.965 6.883-11.11 14.725-12.097.535-.067 1.098-.112 1.661-.006 1.242.24 1.705 1.177 2.023 2.002.061.167.468 1.856.563 1.884z"/><path fill="#1A211E" d="M132.289 114.076c3.439 4.019 9.129 6.929 14.424 8.612 2.748.876 5.523 1.322 8.26 2.308.78.285 1.399.429 1.906.552 1.098.262 1.839-.424 1.376-1.315-1.566-2.994-3.856-5.129-8.025-7.643-5.563-3.356-12.501-3.194-17.941-2.514M222.275 177.779c-4.67 5.196-10.171 8.412-12.278 7.18-2.106-1.232-.033-6.438 4.643-11.639 4.67-5.196 10.171-8.412 12.278-7.18s.034 6.438-4.637 11.639z"/><path fill="#FBFDFC" d="m230.419 192.713-8.276-5.123-6.627-4.103-5.59-3.461-12.273-7.598c-6.459-3.997-8.488-10.464-4.419-14.082.713-.629 1.56-1.126 2.502-1.493.089-.034.173-.067.267-.095 4.203-1.505 10.211-.541 14.932 2.709l11.185 7.704 5.016 3.456 21.664 14.934"/><path stroke="#1A211E" stroke-linecap="round" stroke-linejoin="round" stroke-width=".74" d="m230.419 192.713-8.276-5.123-6.627-4.103-5.59-3.461-12.273-7.598c-6.459-3.997-8.488-10.464-4.419-14.082.713-.629 1.56-1.126 2.502-1.493.089-.034.173-.067.267-.095 4.203-1.505 10.211-.541 14.932 2.709l11.185 7.704 5.016 3.456 21.664 14.934"/><path fill="#1A211E" d="M226.617 166.011c-2.296-.814-7.507 2.347-11.977 7.308-4.67 5.201-6.755 10.413-4.637 11.645.05.028.089.045.145.067l-.05.056-19.105-11.562c-7.502-4.543-9.592-12.286-4.537-16.84.958-.864 2.084-1.544 3.355-2.052 4.526-1.8 10.673-1.287 15.828 1.467l20.978 9.922z"/><path fill="#FBFDFC" d="m150.14 224.794-6.878-20.743-1.599-4.81-3.545-10.714c-1.533-4.61.535-8.791 4.726-10.458l.056-.022a10.9 10.9 0 0 1 3.065-.697c6.521-.552 13.343 4.03 14.842 9.978l2.854 11.311 1.298 5.15 1.382 5.486 2.079 8.244"/><path stroke="#1A211E" stroke-linecap="round" stroke-linejoin="round" stroke-width=".74" d="m150.14 224.794-6.878-20.743-1.599-4.81-3.545-10.714c-1.533-4.611.535-8.791 4.726-10.458l.056-.022a10.9 10.9 0 0 1 3.065-.697c6.521-.552 13.343 4.03 14.842 9.978l2.854 11.311 1.298 5.15 1.382 5.486 2.079 8.244"/><path fill="#1A211E" d="M137.939 201.409c.184-1.8 6.727-3.317 15.087-3.456 8.75-.139 16.185 1.288 16.597 3.2a.4.4 0 0 1 0 .122h.09l-4.281-17.464c-1.683-6.857-10.06-12.103-18.219-11.4-1.544.134-2.959.457-4.23.964-4.526 1.801-7.062 5.77-6.359 10.291z"/><path fill="#1A211E" d="m227.699 194.201-56.151 22.331-5.245-6.984-3.79-5.04-4.648-6.193-15.009-19.995-2.235-2.972 1.371-1.271 7.97-7.364.663-.607.875-.808.758-.714 1.683-2.219 16.308-6.488 3.862-.045 1.243-.095 1.583-.122.942-.073 13.471-1.042 2.079-.156 2.48 2.882 9.369 10.898 7.161 8.328 5.178 6.026.028.034 4.676 5.44z"/><path fill="#FBFDFC" d="M176.937 155.615c-2.731 5.402-3.863 11.417-3.266 17.549-7.156-3.501-15.071-5.909-23.046-7.052l.875-.808.758-.708 1.683-2.225 16.308-6.488 3.862-.045 1.243-.095z"/><path fill="#FBFDFC" d="m170.745 155.66 3.366.172 1.243-.094 1.583-.129c-2.731 5.402-3.863 11.417-3.266 17.549-7.156-3.501-15.071-5.909-23.046-7.052l.875-.808.758-.708 1.795-2.33"/><path stroke="#1A211E" stroke-linecap="round" stroke-linejoin="round" stroke-width=".77" d="m170.745 155.66 3.366.172 1.243-.094 1.583-.129c-2.731 5.402-3.863 11.417-3.266 17.549-7.156-3.501-15.071-5.909-23.046-7.052l.875-.808.758-.708 1.795-2.33"/></g></svg>