<svg xmlns="http://www.w3.org/2000/svg" fill="none" viewBox="0 0 72 40"><path fill="#FBFDFC" d="m19.757 24.137 8.287-19.782H22.67l-5.327 13.449-2.155-11.448c-.248-1.279-1.243-2.013-2.355-2.013H4.118L4 4.923c1.788.391 3.824 1.019 5.043 1.681.758.415.971.77 1.22 1.74l4.084 15.793zM44.601 12.108c2.071 1.085 4.66 2.441 4.646 5.566l.012.011c-.024 4.12-3.54 6.772-8.915 6.772-2.296-.024-4.498-.509-5.694-1.054l.923-4.332.144.066c1.163.537 2.647 1.222 5.113 1.177 1.48-.012 3.054-.604 3.066-1.93.012-.876-.663-1.492-2.652-2.463-1.941-.947-4.522-2.545-4.487-5.386C36.781 6.687 40.344 4 45.4 4c1.966 0 3.552.426 4.783.876l-.9 4.19c-2.284-1.053-4.309-.982-5.043-.887-1.48.19-2.154.947-2.166 1.657-.02.937 1.138 1.543 2.528 2.272"/><path fill="#FBFDFC" fill-rule="evenodd" d="M67.336 24.126h-4.735v.011l-.616-2.947h-6.558l-1.066 2.947h-5.374l7.67-18.326a2.32 2.32 0 0 1 2.18-1.456h4.368zM59.582 9.683l-2.7 7.434h4.25z" clip-rule="evenodd"/><path fill="#FBFDFC" d="M31.134 24.137 35.36 4.355h-5.126L26.02 24.137zM37.753 35.87v-6.547h-.734v6.547z"/><path fill="#FBFDFC" fill-rule="evenodd" d="M31.62 29.572v6.298h.818v-2.44h1.266c.675 0 1.208-.153 1.61-.473.391-.32.592-.817.592-1.456 0-.64-.19-1.125-.592-1.444-.402-.32-.935-.485-1.61-.485zm.818.65h1.148c.474 0 .84.095 1.09.296.248.202.378.533.378.995s-.13.793-.379.994c-.248.202-.615.296-1.089.296h-1.148zM39.14 32.223l.082-.722c.178-.118.403-.225.663-.308s.557-.118.865-.118c.603 0 1.053.118 1.337.355.296.237.438.627.438 1.172v3.268h-.71v-.9h-.035c-.119.343-.308.604-.569.77q-.372.248-.959.248c-.26 0-.497-.047-.722-.142a1.25 1.25 0 0 1-.52-.438 1.35 1.35 0 0 1-.202-.746c0-.296.06-.545.19-.734q.195-.284.532-.426c.225-.095.51-.178.829-.237.39-.071.698-.13.935-.178.225-.059.39-.13.498-.225v-.213c0-.343-.083-.592-.237-.745s-.45-.237-.888-.237a2.5 2.5 0 0 0-.817.142 2.1 2.1 0 0 0-.722.426h-.012zm2.675 2.072v-.97c-.083.082-.248.141-.473.2s-.498.119-.83.178c-.283.047-.508.13-.686.249-.177.118-.26.343-.26.65 0 .285.083.486.248.628.166.142.391.202.675.202s.51-.06.71-.178a1.3 1.3 0 0 0 .462-.438 1 1 0 0 0 .154-.521" clip-rule="evenodd"/><path fill="#FBFDFC" d="M45.104 35.218c-.13-.106-.19-.307-.19-.603h-.023v-2.806h1.337l.095-.616h-1.432v-1.089l-.734.107v1.006l-.758.107-.095.485h.864v2.924c0 .45.119.77.356.97.236.202.568.297.982.297.178 0 .343-.012.51-.048.153-.035.283-.07.366-.118l.071-.627h-.023a1.7 1.7 0 0 1-.344.118c-.13.035-.296.047-.485.047-.201 0-.367-.047-.497-.154M47.222 30.045a.43.43 0 0 1 .13-.308c.083-.083.19-.118.332-.118s.248.035.331.118a.4.4 0 0 1 .13.308.4.4 0 0 1-.13.308.46.46 0 0 1-.331.118.48.48 0 0 1-.332-.118.43.43 0 0 1-.13-.308M48.05 31.193v4.688h-.733v-4.688zM53.048 31.466c-.284-.26-.687-.391-1.196-.391-.225 0-.438.035-.663.106q-.337.107-.604.356c-.177.165-.32.378-.402.639h-.036v-.995h-.71v4.689h.734v-2.865a1.22 1.22 0 0 1 .698-1.137c.214-.106.45-.154.71-.154.439 0 .747.095.912.296q.249.301.249.888v2.983h.734v-3.196c0-.556-.142-.959-.426-1.22M56.706 35.349c.249 0 .485-.047.698-.154.214-.107.38-.249.51-.45.13-.19.189-.414.189-.675v-2.876h.734v4.688h-.699v-.983h-.035c-.095.26-.225.485-.403.64a1.8 1.8 0 0 1-.591.354 2.1 2.1 0 0 1-.652.107c-.509 0-.911-.13-1.207-.403-.296-.26-.438-.674-.438-1.23v-3.173h.734V34.2c0 .403.083.687.248.877.166.189.474.272.912.272M64.129 32.2h-.036v-.012q-.106-.568-.497-.853c-.26-.177-.604-.272-1.018-.272-.213 0-.426.036-.64.119-.213.07-.402.189-.58.355a1.44 1.44 0 0 0-.39.65h-.036v-1.005h-.71v4.688h.734V32.98q0-.39.177-.675c.119-.201.285-.343.486-.45s.426-.154.675-.154c.438 0 .734.095.888.273.154.19.224.473.224.876v3.019h.735V32.98c0-.414.13-.734.39-.947.26-.225.58-.332.96-.332.449 0 .745.095.887.273.154.19.225.473.225.876v3.019h.734v-3.161c0-.557-.13-.96-.403-1.232-.272-.272-.662-.402-1.16-.402-.213 0-.438.035-.65.118-.214.071-.415.19-.593.355-.177.166-.32.38-.402.652"/></svg>