<svg width="390" height="495" viewBox="0 0 390 495" fill="none" xmlns="http://www.w3.org/2000/svg">
<path d="M412.95 369.048C411.107 372.064 409.199 375.018 407.211 377.902C380.715 416.305 337.61 441.942 296.079 452.982C277.886 457.826 259.274 460.126 240.746 460.352C119.239 461.794 77.3638 356.18 38.9566 328.229C0.549454 300.277 -58.27 252.715 -48.2194 156.275C-40.5954 82.9521 -118.478 8.06232 -44.5001 -22C-36.3531 -25.3219 91.9568 -22.4875 100.886 -24.8011C117.496 -29.1031 135.443 -31.6099 154.72 -32.001C210.09 -33.1318 204.489 -84.1784 247.5 -48C257.499 -39.5891 284.417 -38.3523 297.639 -37C307.251 -36.0152 349.815 -38.0249 340 -48.0002C328.465 -59.7235 373.876 -41.1847 403.5 -24.8012C452.985 2.56118 440.779 91.6503 449.01 149.066C459.113 219.538 451.06 306.648 412.945 369.058L412.95 369.048Z" fill="#E9E8EB"/>
<path d="M364.046 206.62L369.216 199.623L366.063 199.267C365.606 194.453 363.31 189.94 359.656 186.747C352.853 180.8 342.73 180.477 335.58 185.98C335.05 186.39 334.95 187.15 335.36 187.68C335.41 187.743 335.463 187.803 335.523 187.853C335.95 188.227 336.593 188.26 337.06 187.9C343.296 183.1 352.13 183.38 358.063 188.57C361.17 191.287 363.1 194.947 363.596 198.987L360.573 198.643L364.05 206.617L364.046 206.62Z" fill="#8C8795"/>
<path d="M306.81 216.503L301.64 223.5L304.793 223.857C305.25 228.67 307.546 233.183 311.2 236.377C318.003 242.323 328.126 242.647 335.276 237.143C335.806 236.733 335.906 235.973 335.496 235.443C335.446 235.38 335.393 235.32 335.333 235.27C334.906 234.897 334.263 234.863 333.796 235.223C327.56 240.023 318.726 239.743 312.793 234.553C309.686 231.837 307.756 228.177 307.26 224.137L310.283 224.48L306.806 216.507L306.81 216.503Z" fill="#8C8795"/>
<path d="M301.5 186.94C305.257 181.773 311.35 178.413 318.227 178.413C329.64 178.413 338.893 187.667 338.893 199.08C338.893 210.493 329.64 219.747 318.227 219.747C306.813 219.747 297.56 210.493 297.56 199.08C297.56 196.81 297.927 194.63 298.6 192.587" stroke="#8C8795" stroke-linecap="round" stroke-linejoin="round"/>
<path d="M330.275 211.128C336.928 204.474 336.928 193.687 330.275 187.034C323.622 180.381 312.835 180.381 306.182 187.034C299.528 193.687 299.528 204.474 306.182 211.128C312.835 217.781 323.622 217.781 330.275 211.128Z" stroke="#8C8795" stroke-linecap="round" stroke-linejoin="round"/>
<path d="M318.376 213.66V210.757C316.363 210.66 314.853 210.01 313.846 208.807C312.84 207.603 312.296 205.753 312.22 203.25L316.706 202.577C316.726 203.593 316.813 204.413 316.97 205.04C317.126 205.667 317.356 206.117 317.66 206.39C317.963 206.663 318.33 206.8 318.76 206.8C319.306 206.8 319.663 206.613 319.83 206.243C319.996 205.873 320.08 205.48 320.08 205.07C320.08 204.093 319.85 203.267 319.39 202.593C318.93 201.92 318.3 201.24 317.5 200.557L315.416 198.767C314.83 198.24 314.296 197.697 313.82 197.14C313.34 196.583 312.953 195.937 312.663 195.203C312.37 194.47 312.223 193.597 312.223 192.58C312.223 190.723 312.756 189.267 313.82 188.21C314.883 187.153 316.316 186.56 318.116 186.423V183.637H319.613V186.393C320.746 186.453 321.656 186.71 322.34 187.17C323.023 187.63 323.536 188.197 323.88 188.87C324.22 189.547 324.456 190.26 324.583 191.01C324.71 191.763 324.783 192.46 324.803 193.107L320.256 193.663C320.236 192.96 320.193 192.343 320.123 191.817C320.053 191.29 319.916 190.883 319.713 190.6C319.506 190.317 319.18 190.183 318.73 190.203C318.24 190.203 317.88 190.41 317.643 190.82C317.41 191.23 317.29 191.64 317.29 192.053C317.29 192.993 317.53 193.75 318.006 194.327C318.486 194.903 319.01 195.447 319.576 195.953L321.57 197.683C322.233 198.29 322.846 198.933 323.403 199.62C323.96 200.303 324.406 201.067 324.736 201.907C325.07 202.747 325.236 203.717 325.236 204.81C325.236 205.847 325.02 206.793 324.59 207.653C324.16 208.513 323.543 209.213 322.743 209.75C321.943 210.287 320.983 210.613 319.87 210.733V213.667H318.373L318.376 213.66Z" stroke="#8C8795" stroke-miterlimit="10"/>
<path d="M372.363 228.939C374.958 217.822 368.05 206.706 356.933 204.111C345.816 201.516 334.7 208.424 332.105 219.541C329.51 230.658 336.418 241.773 347.535 244.369C358.652 246.964 369.768 240.056 372.363 228.939Z" stroke="#8C8795" stroke-linecap="round" stroke-linejoin="round"/>
<path d="M367.97 230.847C365.393 236.987 359.327 241.297 352.253 241.297C342.843 241.297 335.217 233.67 335.217 224.26C335.217 214.85 342.843 207.223 352.253 207.223C361.663 207.223 369.29 214.85 369.29 224.26" stroke="#8C8795" stroke-linecap="round" stroke-linejoin="round"/>
<path d="M352.403 238.84V235.937C350.39 235.84 348.88 235.19 347.873 233.987C346.867 232.784 346.323 230.934 346.247 228.43L350.733 227.757C350.753 228.774 350.84 229.594 350.997 230.22C351.153 230.847 351.383 231.297 351.687 231.57C351.99 231.844 352.357 231.98 352.787 231.98C353.333 231.98 353.69 231.794 353.857 231.424C354.023 231.054 354.107 230.66 354.107 230.25C354.107 229.274 353.877 228.447 353.417 227.774C352.957 227.1 352.327 226.42 351.527 225.737L349.443 223.947C348.857 223.42 348.323 222.877 347.847 222.32C347.367 221.764 346.98 221.117 346.69 220.384C346.397 219.65 346.25 218.777 346.25 217.76C346.25 215.904 346.783 214.447 347.847 213.39C348.91 212.334 350.343 211.74 352.143 211.604V208.817H353.64V211.574C354.773 211.634 355.683 211.89 356.367 212.35C357.05 212.81 357.563 213.377 357.907 214.05C358.247 214.727 358.483 215.44 358.61 216.19C358.737 216.94 358.81 217.64 358.83 218.287L354.283 218.844C354.263 218.14 354.22 217.524 354.15 216.997C354.08 216.47 353.943 216.064 353.74 215.78C353.533 215.497 353.207 215.364 352.757 215.384C352.267 215.384 351.907 215.59 351.67 216C351.437 216.41 351.317 216.82 351.317 217.234C351.317 218.174 351.557 218.93 352.033 219.507C352.513 220.084 353.037 220.627 353.603 221.134L355.597 222.864C356.26 223.47 356.873 224.114 357.43 224.8C357.987 225.484 358.433 226.247 358.763 227.087C359.097 227.927 359.263 228.897 359.263 229.99C359.263 231.027 359.047 231.974 358.617 232.834C358.187 233.694 357.57 234.394 356.77 234.93C355.97 235.467 355.01 235.794 353.897 235.914V238.847H352.4L352.403 238.84Z" stroke="#8C8795" stroke-miterlimit="10"/>
<path d="M39.6433 152.957L25.4966 143.333C24.0033 142.317 23.6166 140.283 24.6333 138.793L38.4433 118.493C39.46 117 41.4933 116.613 42.9833 117.63L78.2433 141.62C79.7366 142.637 80.1233 144.67 79.1066 146.16L65.2966 166.46C64.28 167.953 62.2466 168.34 60.7566 167.323L43.4033 155.517" stroke="#8C8795" stroke-linecap="round" stroke-linejoin="round"/>
<path d="M37.1558 120.392L32.1963 127.681L72.8631 155.349L77.8227 148.06L37.1558 120.392Z" fill="#8C8795" stroke="#8C8795" stroke-linecap="round" stroke-linejoin="round"/>
<path d="M89.9033 163.203C89.83 163.17 89.7567 163.14 89.6867 163.103C88.56 162.55 88.4434 160.996 89.48 160.286C90.4834 159.6 91.4167 158.836 92.2567 157.956C93.8133 156.333 94.99 154.473 95.7967 152.376C96.2767 151.126 96.61 149.836 96.7734 148.51C97.2734 144.413 96.4134 140.63 94.1667 137.163C93.97 136.86 93.8334 136.543 93.8267 136.173C93.8167 135.456 94.2834 134.806 94.97 134.593C95.66 134.376 96.4033 134.63 96.81 135.23C97.4 136.103 97.9134 137.016 98.3533 137.973C99.5367 140.533 100.147 143.226 100.193 146.046C100.213 147.19 100.13 148.33 99.95 149.46C99.9434 149.5 99.9467 149.543 99.9433 149.583C99.8533 150.03 99.7667 150.48 99.6767 150.926C99.66 150.976 99.6434 151.026 99.6267 151.076C99.4634 151.64 99.3234 152.21 99.1367 152.766C98.6467 154.25 97.9767 155.653 97.1467 156.976C95.63 159.396 93.6834 161.396 91.3134 162.983C91.04 163.166 90.74 163.256 90.41 163.263C90.36 163.263 90.3134 163.263 90.2634 163.266C90.1434 163.243 90.0233 163.22 89.9033 163.196V163.203Z" fill="#8C8795"/>
<path d="M93.9732 149.14C93.1666 152.903 91.1766 155.92 87.9632 158.116C87.4166 158.49 86.7366 158.483 86.2032 158.116C85.6799 157.753 85.4299 157.106 85.5832 156.48C85.6799 156.086 85.9032 155.776 86.2399 155.55C87.0366 155.013 87.7566 154.386 88.3866 153.663C89.4266 152.476 90.1966 151.133 90.6432 149.616C91.6266 146.283 91.1899 143.14 89.3066 140.216C88.7999 139.426 89.0166 138.453 89.7499 137.996C90.4632 137.55 91.3866 137.753 91.8599 138.466C92.9366 140.083 93.6599 141.846 94.0132 143.76C94.2866 145.246 94.3232 146.74 94.1132 148.236C94.0732 148.526 94.0232 148.816 93.9732 149.143V149.14Z" fill="#8C8795"/>
<path d="M88.5034 148.013C88.0134 150.32 86.8101 152.153 84.8601 153.483C84.3368 153.843 83.7734 153.87 83.2201 153.553C82.6768 153.243 82.4201 152.75 82.4501 152.126C82.4768 151.623 82.7134 151.226 83.1301 150.943C83.7868 150.496 84.3501 149.95 84.7468 149.263C85.8968 147.276 85.8901 145.286 84.6968 143.316C84.4634 142.93 84.3401 142.54 84.4268 142.09C84.5468 141.48 85.0168 141.006 85.6234 140.88C86.2268 140.753 86.8534 141.003 87.2001 141.52C88.0834 142.836 88.5701 144.286 88.6568 145.873C88.6968 146.59 88.6401 147.303 88.5001 148.01L88.5034 148.013Z" fill="#8C8795"/>
<path d="M179.61 72.2634H187.243L196.9 103.727H223.817" stroke="#8C8795" stroke-width="2" stroke-linecap="round" stroke-linejoin="round"/>
<path d="M189.597 79.4302H229.807L225.057 96.9768H195.08" stroke="#8C8795" stroke-width="2" stroke-linecap="round" stroke-linejoin="round"/>
<path d="M203.223 79.6533L204.953 96.4967" stroke="#8C8795" stroke-width="2" stroke-linecap="round" stroke-linejoin="round"/>
<path d="M215.96 79.6533L214.23 96.4967" stroke="#8C8795" stroke-width="2" stroke-linecap="round" stroke-linejoin="round"/>
<path d="M223.286 111.917C225.542 111.917 227.37 110.088 227.37 107.833C227.37 105.578 225.542 103.75 223.286 103.75C221.031 103.75 219.203 105.578 219.203 107.833C219.203 110.088 221.031 111.917 223.286 111.917Z" stroke="#8C8795" stroke-width="2" stroke-linecap="round" stroke-linejoin="round"/>
<path d="M198.43 111.917C200.685 111.917 202.513 110.088 202.513 107.833C202.513 105.578 200.685 103.75 198.43 103.75C196.175 103.75 194.347 105.578 194.347 107.833C194.347 110.088 196.175 111.917 198.43 111.917Z" stroke="#8C8795" stroke-width="2" stroke-linecap="round" stroke-linejoin="round"/>
<path d="M192.393 88.8367H227.37" stroke="#8C8795" stroke-width="2" stroke-linecap="round" stroke-linejoin="round"/>
<path d="M235.263 92.2867C243.538 92.2867 250.246 85.5785 250.246 77.3034C250.246 69.0283 243.538 62.3201 235.263 62.3201C226.988 62.3201 220.28 69.0283 220.28 77.3034C220.28 85.5785 226.988 92.2867 235.263 92.2867Z" fill="#8C8795"/>
<path d="M228.986 77.2467L231.796 82.1667L241.633 72.3301" stroke="white" stroke-width="3" stroke-linecap="round" stroke-linejoin="round"/>
<mask id="mask0_208_3414" style="mask-type:luminance" maskUnits="userSpaceOnUse" x="-50" y="-33" width="503" height="494">
<mask id="mask1_208_3414" style="mask-type:luminance" maskUnits="userSpaceOnUse" x="-50" y="-33" width="503" height="494">
<path d="M412.95 369.048C411.107 372.064 409.199 375.018 407.211 377.902C380.715 416.305 337.61 441.942 296.079 452.983C277.886 457.826 259.274 460.126 240.746 460.352C119.239 461.794 77.3638 356.18 38.9566 328.229C0.549347 300.277 -58.2701 252.715 -48.2195 156.275C-40.5955 82.9522 1.28441 13.7429 75.2622 -16.3195C83.4092 -19.6414 91.9567 -22.4874 100.886 -24.801C117.496 -29.103 135.443 -31.6098 154.72 -32.0009C210.09 -33.1317 254.628 -18.0487 297.639 18.1297C307.637 26.5406 317.551 35.988 330.773 37.3404C340.385 38.3252 349.612 34.9514 339.796 24.9762C328.262 13.2528 342.501 -8.84628 372.125 7.53721C421.61 34.8996 440.779 91.6505 449.01 149.066C459.113 219.538 451.06 306.648 412.945 369.058L412.95 369.048Z" fill="white"/>
</mask>
<g mask="url(#mask1_208_3414)">
<path d="M412.95 369.048C411.107 372.064 409.199 375.018 407.21 377.902C380.715 416.305 337.61 441.942 296.079 452.983C277.886 457.826 259.274 460.126 240.746 460.352C119.239 461.794 77.3637 356.18 38.9565 328.229C0.549343 300.277 -58.2701 252.715 -48.2195 156.275C-40.5955 82.9522 1.2844 13.7429 75.2622 -16.3195C83.4092 -19.6414 91.9567 -22.4874 100.886 -24.801C117.496 -29.103 135.443 -31.6098 154.72 -32.0009C210.09 -33.1317 254.628 -18.0487 297.639 18.1297C307.637 26.5406 317.551 35.988 330.773 37.3404C340.385 38.3252 349.611 34.9514 339.796 24.9762C328.262 13.2528 342.501 -8.84628 372.125 7.53721C421.61 34.8996 440.779 91.6505 449.01 149.066C459.113 219.538 451.06 306.648 412.945 369.058L412.95 369.048Z" fill="white"/>
</g>
</mask>
<g mask="url(#mask0_208_3414)">
<path d="M131.246 150.498C131.246 150.498 123.064 152.358 122.692 161.284C122.32 170.21 120.461 236.794 123.436 310.072C126.411 383.35 133.106 465.926 134.222 473.737C135.337 481.547 141.66 481.919 143.892 483.035C146.123 484.151 180.345 486.754 200.429 486.754C220.513 486.754 253.247 483.035 257.338 481.919C261.429 480.803 263.289 472.993 264.404 467.414C265.52 461.835 265.148 454.025 265.148 454.025L270.727 332.764C270.727 332.764 272.959 250.188 272.959 222.289C272.959 194.39 273.331 164.264 271.843 158.309C270.355 152.358 263.289 148.267 263.289 148.267C263.289 148.267 259.197 145.663 253.247 144.548C247.296 143.432 240.229 144.919 240.229 144.919L157.653 145.291C157.653 145.291 156.165 143.432 151.33 144.176C146.495 144.919 137.197 145.663 134.222 147.151C131.246 148.639 131.246 150.498 131.246 150.498Z" fill="#787281" stroke="#3B3940" stroke-linecap="round" stroke-linejoin="round"/>
<path d="M135.337 201.456L137.569 294.819C137.569 294.819 137.569 336.107 139.057 340.942C140.544 345.777 147.611 347.636 150.958 348.38C154.306 349.124 174.394 351.727 203.404 351.356C232.419 350.984 250.271 349.496 255.85 344.661C261.429 339.826 261.057 334.619 261.057 329.784C261.057 324.949 261.801 199.969 261.801 199.969L135.333 201.456H135.337Z" fill="#3B3940" stroke="#3B3940" stroke-linecap="round" stroke-linejoin="round"/>
<path d="M252.507 234.562H145.007V317.882H252.507V234.562Z" fill="white" stroke="#3B3940" stroke-linecap="round" stroke-linejoin="round"/>
<path d="M143.892 152.73L134.58 183.551C134.128 184.832 134.128 186.226 134.58 187.507C135.481 190.053 137.963 191.513 140.661 191.46C155.999 191.159 175.779 190.922 200.415 190.926C223.591 190.931 243.487 190.295 251.181 191.047C254.864 191.406 258.332 189.268 259.681 185.822L259.278 186.997C259.95 185.276 260.434 182.206 259.905 180.432C257.589 172.711 253.121 153.317 251.293 151.794C249.061 149.934 242.367 148.446 241.251 148.446C240.135 148.446 161.744 149.006 156.537 149.75C151.33 150.494 147.239 148.634 143.892 152.726V152.73Z" fill="#A19DA8" stroke="#3B3940" stroke-linecap="round" stroke-linejoin="round"/>
<path d="M229.417 328.896C229.417 328.896 232.513 337.921 233.544 340.242C234.574 342.564 238.186 343.594 239.732 343.594C241.278 343.594 251.853 342.048 253.399 340.498C254.945 338.952 255.205 333.534 254.689 330.958C254.174 328.381 253.914 328.381 251.593 328.381C249.272 328.381 229.417 328.896 229.417 328.896Z" fill="white" stroke="#3B3940" stroke-linecap="round" stroke-linejoin="round"/>
<path d="M140.966 327.606C140.966 327.606 140.19 338.952 143.287 341.018C146.383 343.079 166.754 345.145 166.494 343.854C166.234 342.564 162.112 328.896 160.046 328.381C157.985 327.866 140.961 327.606 140.961 327.606H140.966Z" fill="white" stroke="#3B3940" stroke-linecap="round" stroke-linejoin="round"/>
<path d="M168.555 329.927C168.555 329.927 172.422 341.533 175.003 343.339C177.58 345.145 179.646 345.4 181.452 345.4C183.257 345.4 211.622 345.915 216.524 345.915C221.427 345.915 226.324 344.109 226.324 343.339C226.324 342.568 220.907 330.962 219.621 329.927C218.33 328.896 216.009 328.896 214.979 328.896C213.948 328.896 171.911 328.636 170.625 328.381C169.339 328.126 168.564 328.381 168.564 329.927H168.555Z" fill="white" stroke="#3B3940" stroke-linecap="round" stroke-linejoin="round"/>
<path d="M189.961 344.37L205.174 329.412" stroke="#3B3940" stroke-linecap="round" stroke-linejoin="round"/>
<path d="M214.974 333.024L210.592 337.151H217.295L214.974 333.024Z" fill="#3B3940" stroke="#3B3940" stroke-linecap="round" stroke-linejoin="round"/>
<path d="M178.615 337.921L182.222 342.308L186.609 338.436L178.615 337.921Z" fill="#3B3940" stroke="#3B3940" stroke-linecap="round" stroke-linejoin="round"/>
<path d="M249.532 333.803H237.926V335.856H249.532V333.803Z" fill="#3B3940"/>
<path d="M156.954 333.803H145.348V335.856H156.954V333.803Z" fill="#3B3940"/>
<path d="M149.215 356.746C149.215 356.746 148.458 356.634 147.409 356.625C145.72 356.607 143.264 356.863 141.992 358.297C139.93 360.618 141.221 370.194 142.507 371.964C144.685 374.957 168.035 376.862 170.101 376.346C172.162 375.831 173.453 375.316 173.713 372.479C173.973 369.643 174.743 362.424 172.422 360.358C170.101 358.297 149.215 356.746 149.215 356.746Z" stroke="#3B3940" stroke-linecap="round" stroke-linejoin="round"/>
<path d="M150.465 359.47C150.465 359.47 149.824 359.385 148.932 359.376C147.499 359.363 145.415 359.556 144.335 360.636C142.583 362.388 143.681 369.616 144.774 370.951C146.625 373.209 166.449 374.648 168.201 374.258C169.953 373.868 171.046 373.478 171.266 371.336C171.485 369.194 172.14 363.745 170.173 362.19C168.201 360.636 150.469 359.466 150.469 359.466L150.465 359.47Z" fill="#3B3940" stroke="#3B3940" stroke-linecap="round" stroke-linejoin="round"/>
<path d="M149.215 380.93C149.215 380.93 148.458 380.818 147.409 380.809C145.72 380.791 143.264 381.047 141.992 382.481C139.93 384.802 141.221 394.378 142.507 396.148C144.685 399.141 168.035 401.045 170.101 400.53C172.162 400.015 173.453 399.5 173.713 396.663C173.973 393.827 174.743 386.608 172.422 384.542C170.101 382.481 149.215 380.93 149.215 380.93Z" stroke="#3B3940" stroke-linecap="round" stroke-linejoin="round"/>
<path d="M150.465 383.655C150.465 383.655 149.824 383.57 148.932 383.561C147.499 383.547 145.415 383.74 144.335 384.82C142.583 386.572 143.681 393.8 144.774 395.135C146.625 397.394 166.449 398.832 168.201 398.442C169.953 398.052 171.046 397.662 171.266 395.521C171.485 393.379 172.14 387.93 170.173 386.375C168.201 384.82 150.469 383.65 150.469 383.65L150.465 383.655Z" fill="#3B3940" stroke="#3B3940" stroke-linecap="round" stroke-linejoin="round"/>
<path d="M150.725 404.447C150.725 404.447 149.968 404.335 148.919 404.326C147.23 404.308 144.775 404.563 143.502 405.997C141.441 408.318 142.731 417.894 144.017 419.664C146.195 422.657 169.546 424.562 171.611 424.047C173.673 423.531 174.963 423.016 175.223 420.179C175.483 417.343 176.254 410.124 173.933 408.058C171.611 405.997 150.725 404.447 150.725 404.447Z" stroke="#3B3940" stroke-linecap="round" stroke-linejoin="round"/>
<path d="M151.976 407.171C151.976 407.171 151.335 407.086 150.443 407.077C149.009 407.063 146.926 407.256 145.846 408.336C144.094 410.088 145.191 417.316 146.285 418.651C148.135 420.909 167.96 422.348 169.712 421.958C171.464 421.568 172.557 421.178 172.777 419.036C172.996 416.894 173.65 411.446 171.683 409.891C169.712 408.336 151.98 407.166 151.98 407.166L151.976 407.171Z" fill="#3B3940" stroke="#3B3940" stroke-linecap="round" stroke-linejoin="round"/>
<path d="M151.061 427.457C151.061 427.457 150.304 427.345 149.255 427.336C147.566 427.318 145.11 427.573 143.838 429.007C141.777 431.328 143.067 440.904 144.353 442.674C146.531 445.668 169.882 447.572 171.947 447.057C174.009 446.541 175.299 446.026 175.559 443.19C175.819 440.353 176.59 433.134 174.268 431.069C171.947 429.007 151.061 427.457 151.061 427.457Z" stroke="#3B3940" stroke-linecap="round" stroke-linejoin="round"/>
<path d="M152.311 430.176C152.311 430.176 151.67 430.091 150.779 430.082C149.345 430.069 147.261 430.261 146.181 431.341C144.429 433.093 145.527 440.321 146.62 441.657C148.471 443.915 168.295 445.353 170.047 444.964C171.799 444.574 172.892 444.184 173.112 442.042C173.332 439.9 173.986 434.451 172.019 432.896C170.047 431.341 152.316 430.172 152.316 430.172L152.311 430.176Z" fill="#3B3940" stroke="#3B3940" stroke-linecap="round" stroke-linejoin="round"/>
<path d="M245.853 356.746C245.853 356.746 246.61 356.634 247.659 356.625C249.348 356.607 251.803 356.863 253.076 358.297C255.137 360.618 253.847 370.194 252.561 371.964C250.383 374.957 227.032 376.862 224.967 376.346C222.905 375.831 221.615 375.316 221.355 372.479C221.095 369.643 220.324 362.424 222.645 360.358C224.967 358.297 245.853 356.746 245.853 356.746Z" stroke="#3B3940" stroke-linecap="round" stroke-linejoin="round"/>
<path d="M244.607 359.47C244.607 359.47 245.248 359.385 246.139 359.376C247.573 359.363 249.657 359.556 250.737 360.636C252.489 362.388 251.391 369.616 250.298 370.951C248.447 373.209 228.623 374.648 226.871 374.258C225.119 373.868 224.026 373.478 223.806 371.336C223.586 369.194 222.932 363.745 224.899 362.19C226.871 360.636 244.602 359.466 244.602 359.466L244.607 359.47Z" fill="#3B3940" stroke="#3B3940" stroke-linecap="round" stroke-linejoin="round"/>
<path d="M245.853 380.93C245.853 380.93 246.61 380.818 247.659 380.809C249.348 380.791 251.803 381.047 253.076 382.481C255.137 384.802 253.847 394.378 252.561 396.148C250.383 399.141 227.032 401.045 224.967 400.53C222.905 400.015 221.615 399.5 221.355 396.663C221.095 393.827 220.324 386.608 222.645 384.542C224.967 382.481 245.853 380.93 245.853 380.93Z" stroke="#3B3940" stroke-linecap="round" stroke-linejoin="round"/>
<path d="M244.607 383.655C244.607 383.655 245.248 383.57 246.139 383.561C247.573 383.547 249.657 383.74 250.737 384.82C252.489 386.572 251.391 393.8 250.298 395.135C248.447 397.394 228.623 398.832 226.871 398.442C225.119 398.052 224.026 397.662 223.806 395.521C223.586 393.379 222.932 387.93 224.899 386.375C226.871 384.82 244.602 383.65 244.602 383.65L244.607 383.655Z" fill="#3B3940" stroke="#3B3940" stroke-linecap="round" stroke-linejoin="round"/>
<path d="M244.343 404.447C244.343 404.447 245.1 404.335 246.149 404.326C247.838 404.308 250.294 404.563 251.566 405.997C253.628 408.318 252.337 417.894 251.051 419.664C248.873 422.657 225.523 424.562 223.457 424.047C221.396 423.531 220.105 423.016 219.845 420.179C219.585 417.343 218.815 410.124 221.136 408.058C223.457 405.997 244.343 404.447 244.343 404.447Z" stroke="#3B3940" stroke-linecap="round" stroke-linejoin="round"/>
<path d="M243.097 407.171C243.097 407.171 243.738 407.086 244.63 407.077C246.064 407.063 248.147 407.256 249.227 408.336C250.979 410.088 249.881 417.316 248.788 418.651C246.937 420.909 227.113 422.348 225.361 421.958C223.609 421.568 222.516 421.178 222.296 419.036C222.077 416.894 221.422 411.446 223.39 409.891C225.361 408.336 243.093 407.166 243.093 407.166L243.097 407.171Z" fill="#3B3940" stroke="#3B3940" stroke-linecap="round" stroke-linejoin="round"/>
<path d="M244.006 427.457C244.006 427.457 244.764 427.345 245.812 427.336C247.502 427.318 249.957 427.573 251.23 429.007C253.291 431.328 252.001 440.904 250.715 442.674C248.537 445.668 225.186 447.572 223.12 447.057C221.059 446.541 219.769 446.026 219.509 443.19C219.249 440.353 218.478 433.134 220.799 431.069C223.12 429.007 244.006 427.457 244.006 427.457Z" stroke="#3B3940" stroke-linecap="round" stroke-linejoin="round"/>
<path d="M242.761 430.176C242.761 430.176 243.401 430.091 244.293 430.082C245.727 430.069 247.811 430.261 248.891 431.341C250.643 433.093 249.545 440.321 248.452 441.657C246.601 443.915 226.777 445.353 225.025 444.964C223.273 444.574 222.179 444.184 221.96 442.042C221.74 439.9 221.086 434.451 223.053 432.896C225.025 431.341 242.756 430.172 242.756 430.172L242.761 430.176Z" fill="#3B3940" stroke="#3B3940" stroke-linecap="round" stroke-linejoin="round"/>
<path d="M189.536 360.008C189.536 360.008 184.656 359.695 183.083 360.322C181.51 360.949 180.878 362.052 181.04 363.154C181.196 364.256 181.196 371.081 181.353 373.541C181.515 376.068 182.998 377.139 184.817 377.318C186.26 377.457 209.521 377.789 212.196 376.848C214.871 375.902 214.558 372.129 214.558 370.87C214.558 369.611 214.871 363.651 214.087 362.079C213.298 360.506 210.785 359.874 209.525 360.035C208.266 360.192 192.215 359.699 189.54 360.013L189.536 360.008Z" stroke="#3B3940" stroke-linecap="round" stroke-linejoin="round"/>
<path d="M209.888 383.041C209.888 383.041 187.649 382.508 185.444 383.135C183.239 383.762 180.882 384.865 181.039 387.226C181.196 389.588 180.569 396.036 181.667 397.927C182.769 399.813 183.239 400.445 184.655 400.916C186.071 401.386 209.673 401.543 211.25 400.759C212.823 399.97 213.925 399.029 214.239 396.981C214.553 394.933 214.92 387.602 213.979 385.555C213.034 383.511 209.888 383.036 209.888 383.036V383.041Z" stroke="#3B3940" stroke-linecap="round" stroke-linejoin="round"/>
<path d="M210.623 386.755C210.623 386.755 190.324 386.442 187.492 386.442C184.66 386.442 183.558 386.442 183.401 388.803C183.244 391.165 182.93 398.401 184.19 398.872C185.449 399.343 195.993 399.499 201.97 399.499C207.948 399.499 210.309 399.343 211.255 398.554C212.2 397.765 212.357 393.047 212.357 390.528C212.357 388.01 212.044 386.28 210.628 386.751L210.623 386.755Z" fill="#3B3940" stroke="#3B3940" stroke-linecap="round" stroke-linejoin="round"/>
<path d="M210.623 362.841C210.623 362.841 190.324 362.527 187.492 362.527C184.66 362.527 183.558 362.527 183.401 364.888C183.244 367.25 182.93 374.487 184.19 374.957C185.449 375.428 195.993 375.585 201.97 375.585C207.948 375.585 210.309 375.428 211.255 374.639C212.2 373.85 212.357 369.132 212.357 366.614C212.357 364.095 212.044 362.366 210.628 362.836L210.623 362.841Z" fill="#3B3940" stroke="#3B3940" stroke-linecap="round" stroke-linejoin="round"/>
<path d="M210.099 406.669C210.099 406.669 187.649 405.957 185.444 406.584C183.239 407.211 180.882 408.314 181.039 410.675C181.196 413.037 180.569 419.485 181.667 421.376C182.764 423.267 183.239 423.894 184.655 424.365C186.071 424.835 209.673 424.992 211.25 424.208C212.823 423.419 213.925 422.478 214.239 420.43C214.553 418.387 215.131 411.231 214.19 409.183C213.244 407.135 210.099 406.665 210.099 406.665V406.669Z" stroke="#3B3940" stroke-linecap="round" stroke-linejoin="round"/>
<path d="M210.623 410.205C210.623 410.205 190.324 409.891 187.492 409.891C184.66 409.891 183.558 409.891 183.401 412.253C183.244 414.614 182.93 421.851 184.19 422.321C185.449 422.792 195.993 422.949 201.97 422.949C207.948 422.949 210.309 422.792 211.255 422.003C212.2 421.215 212.357 416.496 212.357 413.978C212.357 411.459 212.044 409.73 210.628 410.2L210.623 410.205Z" fill="#3B3940" stroke="#3B3940" stroke-linecap="round" stroke-linejoin="round"/>
<path d="M209.364 430.029C209.364 430.029 187.649 429.401 185.444 430.029C183.239 430.656 180.882 431.758 181.039 434.12C181.196 436.481 180.569 442.93 181.667 444.821C182.769 446.707 183.239 447.339 184.655 447.809C186.071 448.28 209.673 448.437 211.25 447.653C212.823 446.864 213.925 445.923 214.239 443.875C214.553 441.827 214.396 434.59 213.45 432.547C212.505 430.499 209.359 430.029 209.359 430.029H209.364Z" stroke="#3B3940" stroke-linecap="round" stroke-linejoin="round"/>
<path d="M210.623 433.649C210.623 433.649 190.324 433.336 187.492 433.336C184.66 433.336 183.558 433.336 183.401 435.697C183.244 438.059 182.93 445.296 184.19 445.766C185.449 446.237 195.993 446.393 201.97 446.393C207.948 446.393 210.309 446.237 211.255 445.448C212.2 444.659 212.357 439.941 212.357 437.422C212.357 434.904 212.044 433.174 210.628 433.645L210.623 433.649Z" fill="#3B3940" stroke="#3B3940" stroke-linecap="round" stroke-linejoin="round"/>
<path d="M172.593 452.241C172.593 452.241 153.732 450.292 150.913 450.072C148.095 449.857 145.711 451.807 145.926 453.975C146.141 456.144 146.141 463.515 147.445 465.465C148.745 467.414 153.517 468.064 160.454 468.498C167.39 468.933 171.293 469.583 173.027 468.498C174.761 467.414 175.411 466.549 175.631 463.946C175.846 461.342 175.846 457.009 175.416 455.275C174.986 453.541 172.597 452.241 172.597 452.241H172.593Z" fill="#5A5560" stroke="#3B3940" stroke-linecap="round" stroke-linejoin="round"/>
<path d="M222.901 452.241C222.901 452.241 241.762 450.292 244.58 450.072C247.399 449.857 249.783 451.807 249.568 453.975C249.353 456.144 249.353 463.515 248.049 465.465C246.749 467.414 241.977 468.064 235.04 468.498C228.104 468.933 224.201 469.583 222.466 468.498C220.732 467.414 220.083 466.549 219.863 463.946C219.648 461.342 219.648 457.009 220.078 455.275C220.513 453.541 222.897 452.241 222.897 452.241H222.901Z" fill="#8C8795" stroke="#3B3940" stroke-linecap="round" stroke-linejoin="round"/>
<path d="M182.939 454.889C182.939 454.889 182.03 464.631 183.015 466.446C184.006 468.261 184.499 469.081 186.475 469.247C188.451 469.412 205.922 469.905 208.723 469.081C211.524 468.256 212.68 466.939 212.841 465.783C213.007 464.631 212.886 456.565 212.554 455.248C212.223 453.93 211.071 452.447 208.929 452.281C206.787 452.116 191.09 451.941 188.617 451.941C186.143 451.941 183.352 453.218 182.935 454.885L182.939 454.889Z" fill="#B6B2BB" stroke="#3B3940" stroke-linecap="round" stroke-linejoin="round"/>
<path d="M222.596 275.025L211.317 269.142C210.341 268.631 209.135 269.007 208.615 269.98C208.167 270.827 208.378 271.866 209.117 272.471L219.191 280.698C219.191 280.698 221.839 286.371 223.918 286.748C225.997 287.124 227.7 287.317 227.7 287.317" stroke="#3B3940" stroke-linecap="round" stroke-linejoin="round"/>
<path d="M216.551 272.301L217.398 268.232C217.609 267.211 216.955 266.211 215.933 266.001L209.086 264.576C208.064 264.365 207.065 265.019 206.855 266.041L205.631 271.929C205.421 272.951 206.075 273.95 207.096 274.161L212.908 275.371C212.908 275.371 210.878 276.805 211.864 277.669C212.855 278.534 214.584 280.389 215.942 281.129C217.3 281.868 219.191 280.699 219.191 280.699" stroke="#3B3940" stroke-linecap="round" stroke-linejoin="round"/>
<path d="M217.398 268.233C217.398 268.233 222.242 268.277 223.358 269.268C224.469 270.258 233.736 284.095 233.736 284.095" stroke="#3B3940" stroke-linecap="round" stroke-linejoin="round"/>
<path d="M213.966 279.771C213.966 279.771 211.99 281.254 212.976 282.119C213.962 282.984 214.58 283.356 216.561 283.849C218.537 284.342 218.783 284.588 219.402 284.342C220.02 284.095 220.759 283.723 220.759 283.723" stroke="#3B3940" stroke-linecap="round" stroke-linejoin="round"/>
<path d="M217.448 284.199C212.527 289.934 203.686 293.761 193.595 293.761C178.145 293.761 165.62 284.795 165.62 273.731C165.62 262.667 178.145 253.701 193.595 253.701C206.563 253.701 217.47 260.019 220.638 268.587" stroke="#3B3940" stroke-linecap="round" stroke-linejoin="round"/>
<path d="M197.776 287.864C197.583 287.864 197.39 287.811 197.216 287.699C196.741 287.389 196.606 286.753 196.915 286.278C199.236 282.707 200.464 278.562 200.464 274.282C200.464 270.003 199.34 266.208 197.207 262.748C196.911 262.264 197.059 261.632 197.543 261.337C198.027 261.036 198.658 261.189 198.954 261.673C201.284 265.455 202.517 269.815 202.517 274.282C202.517 278.75 201.177 283.491 198.636 287.394C198.439 287.699 198.112 287.86 197.776 287.86V287.864Z" fill="#3B3940"/>
<path d="M192.573 285.166C192.372 285.166 192.165 285.108 191.986 284.983C191.52 284.66 191.408 284.019 191.731 283.553C193.635 280.829 194.643 277.625 194.643 274.287C194.643 271.163 193.756 268.134 192.071 265.522C191.767 265.047 191.901 264.41 192.381 264.101C192.86 263.797 193.492 263.931 193.801 264.41C195.697 267.354 196.7 270.769 196.7 274.287C196.7 278.046 195.567 281.658 193.42 284.732C193.223 285.019 192.9 285.171 192.578 285.171L192.573 285.166Z" fill="#3B3940"/>
<path d="M187.272 282.357C187.048 282.357 186.819 282.285 186.631 282.133C186.188 281.779 186.116 281.133 186.47 280.69C187.935 278.853 188.71 276.639 188.71 274.286C188.71 271.934 187.958 269.779 186.528 267.955C186.179 267.507 186.255 266.866 186.703 266.512C187.151 266.162 187.792 266.238 188.146 266.687C189.858 268.873 190.767 271.499 190.767 274.282C190.767 277.065 189.813 279.794 188.079 281.967C187.877 282.222 187.577 282.352 187.277 282.352L187.272 282.357Z" fill="#3B3940"/>
<path d="M181.873 280.403C181.541 280.403 181.218 280.247 181.021 279.951C180.703 279.48 180.828 278.844 181.299 278.526C182.711 277.571 183.553 275.985 183.553 274.282C183.553 272.943 183.038 271.679 182.106 270.715C181.711 270.308 181.72 269.658 182.128 269.264C182.536 268.869 183.186 268.878 183.58 269.286C184.888 270.63 185.605 272.405 185.605 274.282C185.605 276.666 184.422 278.889 182.446 280.229C182.271 280.35 182.07 280.403 181.873 280.403Z" fill="#3B3940"/>
<path d="M154.369 371.69V363.746C154.279 363.795 154.176 363.844 154.06 363.893C153.943 363.943 153.822 363.992 153.697 364.046C153.571 364.1 153.446 364.149 153.325 364.198C153.204 364.247 153.096 364.297 152.998 364.346V362.818C153.087 362.769 153.217 362.701 153.378 362.616C153.544 362.531 153.719 362.433 153.907 362.325C154.095 362.218 154.27 362.11 154.436 361.998C154.602 361.886 154.723 361.792 154.808 361.711H156.421V371.686H154.364L154.369 371.69Z" fill="white"/>
<path d="M193.255 374.218V372.766L195.643 369.096C195.822 368.827 195.993 368.563 196.154 368.307C196.315 368.052 196.445 367.792 196.548 367.532C196.651 367.268 196.701 366.994 196.701 366.708C196.701 366.421 196.642 366.206 196.53 366.067C196.418 365.928 196.262 365.856 196.064 365.856C195.845 365.856 195.67 365.919 195.549 366.04C195.424 366.161 195.343 366.327 195.298 366.533C195.253 366.739 195.231 366.968 195.231 367.223V367.716H193.237V367.187C193.237 366.596 193.331 366.067 193.519 365.605C193.707 365.139 194.008 364.776 194.42 364.507C194.828 364.239 195.37 364.109 196.033 364.109C196.925 364.109 197.601 364.342 198.058 364.803C198.515 365.265 198.744 365.914 198.744 366.743C198.744 367.147 198.681 367.519 198.556 367.864C198.426 368.209 198.26 368.545 198.049 368.868C197.839 369.19 197.615 369.531 197.377 369.885L195.554 372.605H198.475V374.218H193.264H193.255Z" fill="white"/>
<path d="M236.985 372.287C236.286 372.287 235.739 372.157 235.341 371.892C234.942 371.628 234.659 371.26 234.489 370.79C234.319 370.319 234.238 369.773 234.238 369.159V368.8H236.295V369.159C236.295 369.486 236.313 369.755 236.358 369.961C236.398 370.167 236.474 370.315 236.582 370.409C236.689 370.503 236.837 370.552 237.025 370.552C237.214 370.552 237.357 370.503 237.451 370.405C237.545 370.306 237.608 370.158 237.644 369.961C237.675 369.764 237.693 369.517 237.693 369.222C237.693 368.729 237.626 368.352 237.492 368.092C237.357 367.833 237.075 367.703 236.649 367.694H236.268V366.278H236.6C237.034 366.278 237.326 366.157 237.474 365.919C237.621 365.682 237.698 365.31 237.698 364.812C237.698 364.427 237.644 364.131 237.545 363.925C237.442 363.719 237.25 363.616 236.972 363.616C236.694 363.616 236.524 363.732 236.434 363.961C236.349 364.189 236.304 364.485 236.304 364.848V365.363H234.247V364.759C234.247 364.158 234.355 363.652 234.574 363.239C234.794 362.823 235.103 362.509 235.511 362.298C235.919 362.083 236.403 361.976 236.972 361.976C237.541 361.976 238.038 362.079 238.45 362.285C238.863 362.491 239.176 362.791 239.4 363.19C239.624 363.589 239.732 364.082 239.732 364.673C239.732 365.265 239.611 365.744 239.374 366.139C239.136 366.533 238.849 366.775 238.513 366.865C238.742 366.945 238.952 367.08 239.136 367.259C239.32 367.438 239.468 367.685 239.575 367.994C239.683 368.303 239.737 368.693 239.737 369.168C239.737 369.777 239.647 370.315 239.472 370.781C239.297 371.247 239.006 371.619 238.603 371.883C238.199 372.148 237.666 372.282 237.003 372.282L236.985 372.287Z" fill="white"/>
<path d="M156.103 395.812V393.571H153.038V392.057L155.637 385.837H158.025V392.043H158.948V393.571H158.025V395.812H156.103ZM154.601 392.043H156.103V387.894L154.601 392.043Z" fill="white"/>
<path d="M195.89 398.523C195.159 398.523 194.608 398.393 194.236 398.133C193.864 397.873 193.609 397.51 193.479 397.044C193.349 396.578 193.282 396.036 193.282 395.417H195.267C195.267 395.794 195.285 396.103 195.33 396.34C195.37 396.578 195.446 396.748 195.558 396.851C195.67 396.954 195.827 397.003 196.033 396.995C196.248 396.986 196.396 396.9 196.49 396.735C196.58 396.569 196.638 396.336 196.656 396.027C196.678 395.717 196.687 395.346 196.687 394.911C196.687 394.584 196.669 394.292 196.634 394.037C196.598 393.782 196.522 393.58 196.409 393.428C196.297 393.275 196.132 393.199 195.912 393.199C195.706 393.199 195.54 393.275 195.406 393.419C195.276 393.567 195.182 393.795 195.123 394.109H193.349L193.533 388.36H198.188V390.085H195.182L195.07 392.142C195.15 392.025 195.307 391.926 195.536 391.841C195.764 391.756 196.011 391.698 196.275 391.676C196.786 391.617 197.212 391.711 197.561 391.953C197.911 392.195 198.175 392.563 198.35 393.056C198.525 393.549 198.614 394.154 198.614 394.866C198.614 395.399 198.583 395.892 198.516 396.336C198.448 396.784 198.323 397.169 198.135 397.492C197.946 397.815 197.669 398.07 197.31 398.249C196.947 398.428 196.477 398.518 195.894 398.518L195.89 398.523Z" fill="white"/>
<path d="M237.169 396.372C236.519 396.372 235.995 396.228 235.587 395.946C235.179 395.664 234.884 395.274 234.695 394.781C234.507 394.288 234.413 393.728 234.413 393.096V389.489C234.413 388.839 234.489 388.261 234.642 387.755C234.794 387.244 235.067 386.845 235.462 386.554C235.856 386.263 236.421 386.115 237.16 386.115C237.801 386.115 238.307 386.213 238.675 386.41C239.042 386.608 239.306 386.894 239.463 387.275C239.62 387.652 239.696 388.122 239.696 388.678C239.696 388.709 239.696 388.741 239.701 388.772C239.701 388.799 239.705 388.826 239.705 388.853H237.774C237.774 388.449 237.742 388.154 237.68 387.961C237.617 387.768 237.447 387.67 237.169 387.67C236.981 387.67 236.837 387.728 236.743 387.84C236.649 387.956 236.586 388.154 236.551 388.445C236.515 388.736 236.501 389.135 236.501 389.65V390.538C236.6 390.367 236.761 390.233 236.981 390.139C237.2 390.045 237.451 389.991 237.734 389.986C238.258 389.968 238.679 390.089 238.997 390.345C239.315 390.6 239.539 390.945 239.683 391.384C239.822 391.824 239.893 392.312 239.893 392.854C239.893 393.553 239.813 394.167 239.647 394.696C239.481 395.225 239.203 395.637 238.809 395.933C238.415 396.228 237.868 396.376 237.169 396.376V396.372ZM237.196 394.857C237.384 394.857 237.523 394.794 237.608 394.669C237.693 394.544 237.751 394.351 237.778 394.1C237.805 393.849 237.823 393.54 237.823 393.172C237.823 392.845 237.814 392.558 237.792 392.321C237.769 392.083 237.716 391.895 237.626 391.761C237.536 391.626 237.384 391.559 237.169 391.559C237.07 391.559 236.976 391.577 236.887 391.622C236.797 391.662 236.716 391.716 236.654 391.774C236.586 391.837 236.537 391.895 236.506 391.954V393.58C236.506 393.8 236.524 394.01 236.559 394.207C236.595 394.405 236.667 394.561 236.77 394.682C236.873 394.803 237.017 394.862 237.196 394.862V394.857Z" fill="white"/>
<path d="M153.531 418.84L155.699 410.429H152.979V408.865H157.707V410.281L155.538 418.84H153.531Z" fill="white"/>
<path d="M195.953 421.529C195.28 421.529 194.743 421.394 194.339 421.13C193.936 420.861 193.649 420.494 193.479 420.023C193.309 419.553 193.219 419.01 193.219 418.405C193.228 418.159 193.255 417.917 193.3 417.684C193.345 417.451 193.416 417.231 193.51 417.03C193.605 416.828 193.726 416.653 193.869 416.501C194.012 416.349 194.183 416.223 194.38 416.125C194.124 415.936 193.9 415.663 193.703 415.305C193.506 414.946 193.398 414.494 193.385 413.942C193.376 413.382 193.47 412.903 193.663 412.504C193.856 412.101 194.147 411.791 194.532 411.581C194.918 411.37 195.397 411.263 195.962 411.263C196.526 411.263 197.015 411.37 197.396 411.59C197.776 411.809 198.063 412.114 198.251 412.513C198.44 412.912 198.529 413.387 198.511 413.947C198.502 414.507 198.404 414.964 198.216 415.318C198.027 415.676 197.799 415.945 197.539 416.125C197.736 416.223 197.906 416.349 198.05 416.501C198.193 416.653 198.314 416.828 198.408 417.03C198.502 417.231 198.574 417.446 198.623 417.684C198.673 417.917 198.7 418.159 198.7 418.405C198.717 419.015 198.637 419.553 198.458 420.023C198.283 420.498 197.992 420.866 197.588 421.13C197.185 421.394 196.643 421.529 195.962 421.529H195.953ZM195.953 420.014C196.172 420.014 196.334 419.933 196.432 419.768C196.531 419.602 196.593 419.409 196.616 419.181C196.643 418.957 196.652 418.746 196.652 418.558C196.661 418.302 196.652 418.056 196.62 417.818C196.593 417.581 196.526 417.384 196.428 417.231C196.329 417.079 196.168 417.003 195.948 417.003C195.729 417.003 195.576 417.079 195.482 417.231C195.384 417.384 195.321 417.576 195.289 417.809C195.263 418.042 195.245 418.293 195.245 418.553C195.245 418.741 195.258 418.952 195.28 419.181C195.307 419.409 195.37 419.606 195.473 419.768C195.576 419.929 195.733 420.005 195.948 420.005L195.953 420.014ZM195.953 415.385C196.092 415.385 196.208 415.331 196.298 415.219C196.387 415.107 196.455 414.942 196.499 414.722C196.544 414.502 196.567 414.225 196.567 413.898C196.567 413.57 196.517 413.293 196.414 413.095C196.311 412.898 196.159 412.8 195.953 412.8C195.747 412.8 195.59 412.898 195.478 413.095C195.366 413.293 195.312 413.557 195.312 413.884C195.312 414.211 195.334 414.489 195.379 414.713C195.424 414.942 195.496 415.107 195.594 415.219C195.693 415.331 195.809 415.385 195.953 415.385Z" fill="white"/>
<path d="M236.985 419.404C236.344 419.404 235.838 419.305 235.471 419.108C235.099 418.911 234.839 418.62 234.682 418.239C234.525 417.858 234.449 417.387 234.449 416.827V416.666H236.371C236.371 417.069 236.407 417.365 236.474 417.558C236.546 417.75 236.721 417.849 236.999 417.849C237.187 417.849 237.326 417.791 237.415 417.679C237.505 417.562 237.568 417.361 237.595 417.069C237.622 416.778 237.64 416.379 237.64 415.868V414.981C237.532 415.151 237.371 415.286 237.156 415.375C236.936 415.465 236.694 415.519 236.425 415.537C235.901 415.546 235.475 415.416 235.157 415.142C234.839 414.869 234.606 414.506 234.467 414.045C234.328 413.583 234.256 413.086 234.256 412.543C234.256 411.844 234.346 411.244 234.521 410.738C234.695 410.231 234.987 409.841 235.39 409.559C235.793 409.281 236.327 409.142 236.99 409.142C237.653 409.142 238.177 409.272 238.581 409.537C238.984 409.801 239.275 410.168 239.463 410.639C239.647 411.11 239.741 411.665 239.741 412.306V416.025C239.741 416.675 239.665 417.253 239.513 417.759C239.36 418.27 239.087 418.669 238.693 418.96C238.298 419.252 237.734 419.399 236.994 419.399L236.985 419.404ZM237.012 413.959C237.178 413.959 237.308 413.915 237.406 413.825C237.505 413.735 237.581 413.65 237.64 413.565V411.939C237.64 411.71 237.622 411.499 237.59 411.302C237.559 411.11 237.496 410.953 237.406 410.836C237.317 410.715 237.178 410.657 236.99 410.657C236.802 410.657 236.676 410.72 236.582 410.845C236.492 410.975 236.43 411.163 236.403 411.414C236.376 411.665 236.358 411.974 236.358 412.342C236.358 412.664 236.367 412.942 236.389 413.184C236.412 413.426 236.465 413.614 236.555 413.749C236.645 413.883 236.797 413.95 237.012 413.95V413.959Z" fill="white"/>
<path d="M153.468 442.365V432.39H157.779V433.882H155.672V436.392H157.51V437.933H155.672V442.365H153.468Z" fill="white"/>
<path d="M196.136 445.076C195.536 445.076 195.034 444.955 194.635 444.713C194.232 444.471 193.927 444.135 193.725 443.709C193.519 443.283 193.416 442.786 193.416 442.221V437.7C193.416 437.118 193.51 436.607 193.703 436.168C193.895 435.728 194.196 435.388 194.595 435.141C194.993 434.895 195.509 434.77 196.136 434.77C196.763 434.77 197.27 434.895 197.668 435.141C198.067 435.388 198.363 435.728 198.556 436.168C198.748 436.607 198.847 437.118 198.847 437.7V442.221C198.847 442.782 198.744 443.275 198.538 443.705C198.332 444.135 198.027 444.471 197.628 444.713C197.225 444.955 196.727 445.076 196.136 445.076ZM196.136 443.239C196.333 443.239 196.477 443.176 196.562 443.046C196.647 442.921 196.701 442.773 196.723 442.602C196.741 442.432 196.754 442.289 196.754 442.163V437.74C196.754 437.602 196.745 437.445 196.727 437.265C196.71 437.091 196.66 436.934 196.575 436.799C196.49 436.665 196.342 436.598 196.136 436.598C195.93 436.598 195.786 436.665 195.697 436.799C195.612 436.934 195.558 437.091 195.544 437.265C195.527 437.44 195.522 437.602 195.522 437.74V442.163C195.522 442.284 195.536 442.432 195.558 442.602C195.58 442.773 195.639 442.916 195.724 443.046C195.809 443.171 195.948 443.239 196.136 443.239Z" fill="white"/>
<path d="M230.071 442.298V440.403H231.966V442.298H230.071Z" fill="white"/>
<path d="M233.382 442.298L233.763 438.987H233.086L233.122 437.741H233.933L234.104 436.312H233.131L233.154 435.03H234.323L234.632 432.319H235.936L235.618 435.03H236.577L236.886 432.319H238.181L237.859 435.03H238.513L238.477 436.312H237.639L237.478 437.741H238.45L238.414 438.987H237.308L236.9 442.298H235.618L236.013 438.987H235.054L234.659 442.298H233.378H233.382ZM235.219 437.741H236.192L236.362 436.312H235.403L235.219 437.741Z" fill="white"/>
<path d="M241.179 436.76L240.01 436.056L240.897 434.801L239.58 434.295L240.023 433.099L241.22 433.762L241.058 432.323H242.559L242.398 433.762L243.608 433.099L244.052 434.304L242.721 434.81L243.621 436.056L242.425 436.76L241.811 435.456L241.184 436.76H241.179Z" fill="white"/>
</g>
<path d="M179.639 269.551C172.303 268.912 162.098 277.844 162.098 277.844L78.2185 279.121C78.2185 279.121 79.4959 268.916 75.6673 266.365C71.8386 263.814 69.2874 268.599 64.5062 272.106C59.7213 275.614 40.9067 288.052 40.9067 288.052C40.9067 288.052 11.8836 306.87 5.82494 311.334C-0.233688 315.798 -15.5446 342.591 -15.5446 342.591C-15.5446 342.591 -25.7494 361.409 -28.6218 371.293C-31.4905 381.18 -34.363 390.429 -34.363 390.429L-39.8501 396.472V474.786V494.441L26.8733 450.709C26.8733 450.709 35.4831 447.84 42.8192 444.65C50.1553 441.46 66.4187 432.85 83.0033 423.602C99.588 414.353 116.173 402.553 116.173 402.553C116.173 402.553 134.67 382.779 142.645 374.808C150.619 366.833 158.273 350.569 160.824 341.638C163.375 332.707 167.204 307.83 167.204 307.83C167.204 307.83 168.799 304.962 172.945 298.899C177.091 292.841 182.833 287.738 185.701 280.402C188.57 273.066 186.979 270.197 179.643 269.559L179.639 269.551Z" fill="white" stroke="#263238" stroke-linecap="round" stroke-linejoin="round"/>
<path d="M166.203 274.71C163.749 276.394 162.098 277.844 162.098 277.844L78.2183 279.121C78.2183 279.121 78.3191 278.314 78.3789 277.097C75.7978 284.642 69.6383 300.879 63.7328 303.072C56.0008 305.944 50.9246 313.893 50.9246 313.893L41.5527 321.446C41.5527 321.446 47.1706 322.506 50.4838 322.727C53.797 322.947 58.4362 325.599 66.6053 327.146C74.7781 328.692 106.58 342.826 106.58 342.826C106.58 342.826 115.414 349.453 117.401 358.507C119.389 367.561 116.075 374.853 116.075 374.853L155.135 355.851C157.709 350.584 159.733 345.437 160.82 341.631C161.455 339.412 162.165 336.211 162.878 332.651L162.236 327.37C162.236 327.37 157.817 306.829 158.262 297.555C158.579 290.869 163.487 280.171 166.203 274.717V274.71Z" fill="#263238" stroke="#263238" stroke-linecap="round" stroke-linejoin="round"/>
<path d="M150.182 366.874C150.182 366.874 164.668 344.051 167.081 337.466C169.494 330.881 167.959 324.079 167.081 318.812C166.203 313.545 168.179 305.865 165.546 303.449C162.912 301.036 155.232 301.036 152.158 306.96C149.084 312.884 150.182 318.592 151.06 324.079C151.938 329.566 152.379 332.42 152.379 332.42C152.379 332.42 146.455 338.784 146.455 339.442" fill="white"/>
<path d="M150.182 366.874C150.182 366.874 164.668 344.051 167.081 337.466C169.494 330.881 167.959 324.079 167.081 318.812C166.203 313.545 168.179 305.865 165.546 303.449C162.912 301.036 155.232 301.036 152.158 306.96C149.084 312.884 150.182 318.592 151.06 324.079C151.938 329.566 152.379 332.42 152.379 332.42C152.379 332.42 146.455 338.784 146.455 339.442" stroke="#263238" stroke-linecap="round" stroke-linejoin="round"/>
<path d="M117.484 400.013C117.484 400.013 142.503 378.946 145.794 373.239C149.084 367.531 154.792 356.781 155.012 350.196C155.233 343.611 150.844 335.71 149.966 331.979C149.088 328.247 143.164 328.027 139.432 332.42C135.701 336.809 137.236 345.366 137.456 347.562C137.677 349.759 137.897 351.951 137.897 351.951C137.897 351.951 133.067 356.561 131.753 359.415C130.434 362.268 129.119 365.122 129.119 365.122C129.119 365.122 122.097 369.291 119.243 371.267C116.389 373.243 113.536 377.852 113.536 377.852" fill="white"/>
<path d="M117.484 400.013C117.484 400.013 142.503 378.946 145.794 373.239C149.084 367.531 154.792 356.781 155.012 350.196C155.233 343.611 150.844 335.71 149.966 331.979C149.088 328.247 143.164 328.027 139.432 332.42C135.701 336.809 137.236 345.366 137.456 347.562C137.677 349.759 137.897 351.951 137.897 351.951C137.897 351.951 133.067 356.561 131.753 359.415C130.434 362.268 129.119 365.122 129.119 365.122C129.119 365.122 122.097 369.291 119.243 371.267C116.389 373.243 113.536 377.852 113.536 377.852" stroke="#263238" stroke-linecap="round" stroke-linejoin="round"/>
<path d="M139.649 353.927C139.649 353.927 142.062 359.635 147.99 360.513" stroke="#263238" stroke-linecap="round" stroke-linejoin="round"/>
<path d="M130.21 366.654C130.21 366.654 127.797 374.333 137.89 376.967" stroke="#263238" stroke-linecap="round" stroke-linejoin="round"/>
<path d="M153.914 333.514C153.914 333.514 153.473 340.316 163.132 339.001" stroke="#263238" stroke-linecap="round" stroke-linejoin="round"/>
<path d="M110.241 350.413C110.241 350.413 113.973 355.9 114.41 363.579" stroke="#263238" stroke-linecap="round" stroke-linejoin="round"/>
<path d="M59.3253 305.204C59.3253 305.204 50.9844 313.325 49.4492 315.08C47.914 316.836 41.5491 321.445 41.5491 321.445C41.5491 321.445 39.5731 326.932 37.5972 330.223" stroke="#263238" stroke-linecap="round" stroke-linejoin="round"/>
<path d="M54.279 336.368C54.279 336.368 52.9604 355.022 41.7695 368.189" stroke="#263238" stroke-linecap="round" stroke-linejoin="round"/>
<path d="M79.9925 343.203C79.9925 343.203 72.1335 355.321 80.6462 373.003C89.1589 390.686 92.4348 401.821 92.4348 401.821" stroke="#263238" stroke-linecap="round" stroke-linejoin="round"/>
<path d="M126.209 182.74L52.8782 317.277C49.2699 323.896 52.9827 332.132 60.3338 333.813L119.254 347.286C124.371 348.455 129.627 345.971 131.973 341.276L202.984 198.969C205.158 194.61 202.446 189.396 197.628 188.675L133.575 179.079C130.598 178.634 127.655 180.095 126.217 182.74H126.209Z" fill="white" stroke="#263238" stroke-linecap="round" stroke-linejoin="round"/>
<path d="M124.33 192.466L59.1982 312.328L135.278 329.726L196.41 205.622L124.33 192.466Z" fill="#E9E8EB" stroke="#263238" stroke-linecap="round" stroke-linejoin="round"/>
<path d="M204.852 196.325L204.84 196.298C204.803 196.227 204.758 196.16 204.717 196.089L203.518 194.039C203.914 195.619 203.783 197.352 202.977 198.969L131.965 341.276C129.619 345.975 124.368 348.459 119.246 347.286L60.3261 333.813C56.5198 332.942 53.6997 330.309 52.3587 327.056L52.2915 327.037C52.2915 327.037 52.7397 332.3 58.3389 336.334C58.3389 336.334 59.0748 336.965 60.5315 337.092C61.0806 337.313 61.6447 337.507 62.2423 337.641L121.163 351.115C126.28 352.284 131.536 349.8 133.881 345.105L204.893 202.798C205.972 200.631 205.845 198.256 204.855 196.325H204.852Z" fill="#919191" stroke="#263238" stroke-linecap="round" stroke-linejoin="round"/>
<path d="M170.472 239.307C170.364 239.467 170.259 239.632 170.144 239.789C168.354 242.287 164.922 242.646 163.928 240.42C162.972 238.283 161.814 236.3 160.368 234.526C157.672 231.216 154.25 228.747 150.122 227.115C147.258 225.979 144.172 225.299 140.866 225.109C132.645 224.631 124.439 226.816 116.258 231.657C115.493 232.109 114.734 232.423 113.935 232.456C112.374 232.52 111.22 231.537 111.119 230.047C111.014 228.549 111.963 226.909 113.479 225.983C115.538 224.728 117.644 223.615 119.792 222.632C125.216 220.16 130.658 218.647 136.123 218.083C141.068 217.571 145.745 217.892 150.149 219.009C156.521 220.63 161.735 223.764 165.814 228.37C167.861 230.682 169.49 233.308 170.745 236.21C171.021 236.849 171.055 237.555 170.842 238.339C170.827 238.395 170.823 238.455 170.812 238.511C170.696 238.773 170.584 239.038 170.469 239.299L170.472 239.307Z" fill="#8C8795"/>
<path d="M126.968 264.822C126.617 264.617 126.221 264.456 125.914 264.199C124.674 263.149 124.6 261.151 125.698 259.403C126.8 257.647 128.794 256.541 130.58 256.691C132.701 256.87 133.878 258.771 133.198 260.923C132.459 263.254 130.199 264.991 127.946 264.953C127.898 264.953 127.849 264.964 127.801 264.972C127.524 264.923 127.244 264.871 126.968 264.822Z" fill="#8C8795"/>
<path d="M142.043 231.298C149.857 232.826 155.344 236.983 158.419 243.871C158.942 245.04 158.572 246.531 157.492 247.718C156.431 248.888 154.896 249.474 153.619 249.183C152.816 249 152.263 248.529 151.949 247.808C151.172 246.026 150.138 244.435 148.83 243.057C146.828 240.946 144.363 239.43 141.412 238.548C136.373 237.043 130.953 237.409 125.156 239.669C123.475 240.323 121.843 241.148 120.248 242.108C119.37 242.635 118.5 242.855 117.641 242.728C116.344 242.534 115.526 241.522 115.564 240.184C115.601 238.843 116.483 237.446 117.816 236.632C119.781 235.437 121.802 234.417 123.871 233.577C128.462 231.713 132.993 230.809 137.456 230.872C139.025 230.895 140.549 231.044 142.039 231.298H142.043Z" fill="#8C8795"/>
<path d="M146.712 253.445C145.991 254.92 144.93 255.88 143.455 256.216C141.983 256.552 140.919 256.123 140.373 254.972C139.783 253.725 139.021 252.627 137.957 251.775C134.602 249.093 129.332 249.157 124.588 251.984C122.9 252.993 121.204 252.843 120.36 251.801C119.194 250.359 120.016 247.831 122.082 246.583C125.567 244.476 129.141 243.255 132.757 243.117C139.298 242.874 143.914 245.343 146.555 250.52C146.877 251.151 147.104 251.816 146.929 252.645C146.869 252.933 146.772 253.228 146.716 253.445H146.712Z" fill="#8C8795"/>
</svg>
